G75*
%MOIN*%
%OFA0B0*%
%FSLAX24Y24*%
%IPPOS*%
%LPD*%
%AMOC8*
5,1,8,0,0,1.08239X$1,22.5*
%
%ADD10C,0.0000*%
%ADD11C,0.4540*%
%ADD12C,0.0850*%
%ADD13C,0.3240*%
%ADD14C,0.4040*%
%ADD15C,0.1700*%
D10*
X003260Y002648D02*
X003260Y052694D01*
X003262Y052724D01*
X003267Y052754D01*
X003276Y052783D01*
X003289Y052810D01*
X003304Y052836D01*
X003323Y052860D01*
X003344Y052881D01*
X003368Y052900D01*
X003394Y052915D01*
X003421Y052928D01*
X003450Y052937D01*
X003480Y052942D01*
X003510Y052944D01*
X015010Y052944D01*
X015030Y052942D01*
X015050Y052937D01*
X015068Y052928D01*
X015085Y052917D01*
X015099Y052903D01*
X015110Y052886D01*
X015119Y052868D01*
X015124Y052848D01*
X015126Y052828D01*
X015126Y002520D01*
X015124Y002500D01*
X015120Y002481D01*
X015112Y002462D01*
X015102Y002445D01*
X015089Y002430D01*
X015074Y002417D01*
X015057Y002407D01*
X015038Y002399D01*
X015019Y002395D01*
X014999Y002393D01*
X003515Y002393D01*
X003484Y002395D01*
X003454Y002400D01*
X003425Y002410D01*
X003396Y002422D01*
X003370Y002438D01*
X003346Y002457D01*
X003324Y002479D01*
X003305Y002503D01*
X003289Y002529D01*
X003277Y002558D01*
X003267Y002587D01*
X003262Y002617D01*
X003260Y002648D01*
X006943Y012669D02*
X006945Y012763D01*
X006951Y012857D01*
X006961Y012951D01*
X006975Y013044D01*
X006992Y013137D01*
X007014Y013229D01*
X007039Y013319D01*
X007068Y013409D01*
X007101Y013497D01*
X007138Y013584D01*
X007178Y013669D01*
X007221Y013753D01*
X007268Y013835D01*
X007319Y013914D01*
X007373Y013992D01*
X007430Y014067D01*
X007490Y014139D01*
X007553Y014209D01*
X007619Y014277D01*
X007687Y014341D01*
X007759Y014403D01*
X007833Y014461D01*
X007909Y014517D01*
X007987Y014569D01*
X008068Y014618D01*
X008151Y014663D01*
X008235Y014705D01*
X008321Y014743D01*
X008409Y014778D01*
X008498Y014809D01*
X008588Y014836D01*
X008679Y014860D01*
X008771Y014879D01*
X008864Y014895D01*
X008958Y014907D01*
X009052Y014915D01*
X009146Y014919D01*
X009240Y014919D01*
X009334Y014915D01*
X009428Y014907D01*
X009522Y014895D01*
X009615Y014879D01*
X009707Y014860D01*
X009798Y014836D01*
X009888Y014809D01*
X009977Y014778D01*
X010065Y014743D01*
X010151Y014705D01*
X010235Y014663D01*
X010318Y014618D01*
X010399Y014569D01*
X010477Y014517D01*
X010553Y014461D01*
X010627Y014403D01*
X010699Y014341D01*
X010767Y014277D01*
X010833Y014209D01*
X010896Y014139D01*
X010956Y014067D01*
X011013Y013992D01*
X011067Y013914D01*
X011118Y013835D01*
X011165Y013753D01*
X011208Y013669D01*
X011248Y013584D01*
X011285Y013497D01*
X011318Y013409D01*
X011347Y013319D01*
X011372Y013229D01*
X011394Y013137D01*
X011411Y013044D01*
X011425Y012951D01*
X011435Y012857D01*
X011441Y012763D01*
X011443Y012669D01*
X011441Y012575D01*
X011435Y012481D01*
X011425Y012387D01*
X011411Y012294D01*
X011394Y012201D01*
X011372Y012109D01*
X011347Y012019D01*
X011318Y011929D01*
X011285Y011841D01*
X011248Y011754D01*
X011208Y011669D01*
X011165Y011585D01*
X011118Y011503D01*
X011067Y011424D01*
X011013Y011346D01*
X010956Y011271D01*
X010896Y011199D01*
X010833Y011129D01*
X010767Y011061D01*
X010699Y010997D01*
X010627Y010935D01*
X010553Y010877D01*
X010477Y010821D01*
X010399Y010769D01*
X010318Y010720D01*
X010235Y010675D01*
X010151Y010633D01*
X010065Y010595D01*
X009977Y010560D01*
X009888Y010529D01*
X009798Y010502D01*
X009707Y010478D01*
X009615Y010459D01*
X009522Y010443D01*
X009428Y010431D01*
X009334Y010423D01*
X009240Y010419D01*
X009146Y010419D01*
X009052Y010423D01*
X008958Y010431D01*
X008864Y010443D01*
X008771Y010459D01*
X008679Y010478D01*
X008588Y010502D01*
X008498Y010529D01*
X008409Y010560D01*
X008321Y010595D01*
X008235Y010633D01*
X008151Y010675D01*
X008068Y010720D01*
X007987Y010769D01*
X007909Y010821D01*
X007833Y010877D01*
X007759Y010935D01*
X007687Y010997D01*
X007619Y011061D01*
X007553Y011129D01*
X007490Y011199D01*
X007430Y011271D01*
X007373Y011346D01*
X007319Y011424D01*
X007268Y011503D01*
X007221Y011585D01*
X007178Y011669D01*
X007138Y011754D01*
X007101Y011841D01*
X007068Y011929D01*
X007039Y012019D01*
X007014Y012109D01*
X006992Y012201D01*
X006975Y012294D01*
X006961Y012387D01*
X006951Y012481D01*
X006945Y012575D01*
X006943Y012669D01*
X006943Y020669D02*
X006945Y020763D01*
X006951Y020857D01*
X006961Y020951D01*
X006975Y021044D01*
X006992Y021137D01*
X007014Y021229D01*
X007039Y021319D01*
X007068Y021409D01*
X007101Y021497D01*
X007138Y021584D01*
X007178Y021669D01*
X007221Y021753D01*
X007268Y021835D01*
X007319Y021914D01*
X007373Y021992D01*
X007430Y022067D01*
X007490Y022139D01*
X007553Y022209D01*
X007619Y022277D01*
X007687Y022341D01*
X007759Y022403D01*
X007833Y022461D01*
X007909Y022517D01*
X007987Y022569D01*
X008068Y022618D01*
X008151Y022663D01*
X008235Y022705D01*
X008321Y022743D01*
X008409Y022778D01*
X008498Y022809D01*
X008588Y022836D01*
X008679Y022860D01*
X008771Y022879D01*
X008864Y022895D01*
X008958Y022907D01*
X009052Y022915D01*
X009146Y022919D01*
X009240Y022919D01*
X009334Y022915D01*
X009428Y022907D01*
X009522Y022895D01*
X009615Y022879D01*
X009707Y022860D01*
X009798Y022836D01*
X009888Y022809D01*
X009977Y022778D01*
X010065Y022743D01*
X010151Y022705D01*
X010235Y022663D01*
X010318Y022618D01*
X010399Y022569D01*
X010477Y022517D01*
X010553Y022461D01*
X010627Y022403D01*
X010699Y022341D01*
X010767Y022277D01*
X010833Y022209D01*
X010896Y022139D01*
X010956Y022067D01*
X011013Y021992D01*
X011067Y021914D01*
X011118Y021835D01*
X011165Y021753D01*
X011208Y021669D01*
X011248Y021584D01*
X011285Y021497D01*
X011318Y021409D01*
X011347Y021319D01*
X011372Y021229D01*
X011394Y021137D01*
X011411Y021044D01*
X011425Y020951D01*
X011435Y020857D01*
X011441Y020763D01*
X011443Y020669D01*
X011441Y020575D01*
X011435Y020481D01*
X011425Y020387D01*
X011411Y020294D01*
X011394Y020201D01*
X011372Y020109D01*
X011347Y020019D01*
X011318Y019929D01*
X011285Y019841D01*
X011248Y019754D01*
X011208Y019669D01*
X011165Y019585D01*
X011118Y019503D01*
X011067Y019424D01*
X011013Y019346D01*
X010956Y019271D01*
X010896Y019199D01*
X010833Y019129D01*
X010767Y019061D01*
X010699Y018997D01*
X010627Y018935D01*
X010553Y018877D01*
X010477Y018821D01*
X010399Y018769D01*
X010318Y018720D01*
X010235Y018675D01*
X010151Y018633D01*
X010065Y018595D01*
X009977Y018560D01*
X009888Y018529D01*
X009798Y018502D01*
X009707Y018478D01*
X009615Y018459D01*
X009522Y018443D01*
X009428Y018431D01*
X009334Y018423D01*
X009240Y018419D01*
X009146Y018419D01*
X009052Y018423D01*
X008958Y018431D01*
X008864Y018443D01*
X008771Y018459D01*
X008679Y018478D01*
X008588Y018502D01*
X008498Y018529D01*
X008409Y018560D01*
X008321Y018595D01*
X008235Y018633D01*
X008151Y018675D01*
X008068Y018720D01*
X007987Y018769D01*
X007909Y018821D01*
X007833Y018877D01*
X007759Y018935D01*
X007687Y018997D01*
X007619Y019061D01*
X007553Y019129D01*
X007490Y019199D01*
X007430Y019271D01*
X007373Y019346D01*
X007319Y019424D01*
X007268Y019503D01*
X007221Y019585D01*
X007178Y019669D01*
X007138Y019754D01*
X007101Y019841D01*
X007068Y019929D01*
X007039Y020019D01*
X007014Y020109D01*
X006992Y020201D01*
X006975Y020294D01*
X006961Y020387D01*
X006951Y020481D01*
X006945Y020575D01*
X006943Y020669D01*
D11*
X009193Y020669D03*
X009193Y012669D03*
D12*
X006393Y012669D02*
X006395Y012774D01*
X006401Y012879D01*
X006411Y012984D01*
X006425Y013089D01*
X006442Y013193D01*
X006464Y013296D01*
X006490Y013398D01*
X006519Y013499D01*
X006552Y013599D01*
X006589Y013698D01*
X006629Y013795D01*
X006674Y013891D01*
X006721Y013985D01*
X006773Y014077D01*
X006827Y014167D01*
X006885Y014255D01*
X006946Y014340D01*
X007011Y014424D01*
X007078Y014504D01*
X007149Y014583D01*
X007222Y014658D01*
X007299Y014731D01*
X007378Y014801D01*
X007459Y014867D01*
X007543Y014931D01*
X007629Y014992D01*
X007718Y015049D01*
X007808Y015103D01*
X007901Y015153D01*
X007995Y015200D01*
X008091Y015243D01*
X008189Y015283D01*
X008288Y015319D01*
X008388Y015351D01*
X008490Y015379D01*
X008592Y015404D01*
X008695Y015424D01*
X008799Y015441D01*
X008904Y015454D01*
X009009Y015463D01*
X009114Y015468D01*
X009219Y015469D01*
X009325Y015466D01*
X009430Y015459D01*
X009535Y015448D01*
X009639Y015433D01*
X009742Y015415D01*
X009845Y015392D01*
X009947Y015365D01*
X010048Y015335D01*
X010148Y015301D01*
X010246Y015263D01*
X010343Y015222D01*
X010438Y015177D01*
X010532Y015128D01*
X010623Y015076D01*
X010713Y015021D01*
X010800Y014962D01*
X010885Y014900D01*
X010968Y014834D01*
X011048Y014766D01*
X011126Y014695D01*
X011201Y014621D01*
X011273Y014544D01*
X011342Y014464D01*
X011408Y014382D01*
X011471Y014298D01*
X011530Y014211D01*
X011587Y014122D01*
X011640Y014031D01*
X011689Y013938D01*
X011735Y013843D01*
X011777Y013747D01*
X011816Y013649D01*
X011851Y013549D01*
X011882Y013449D01*
X011910Y013347D01*
X011933Y013244D01*
X011953Y013141D01*
X011969Y013037D01*
X011981Y012932D01*
X011989Y012827D01*
X011993Y012722D01*
X011993Y012616D01*
X011989Y012511D01*
X011981Y012406D01*
X011969Y012301D01*
X011953Y012197D01*
X011933Y012094D01*
X011910Y011991D01*
X011882Y011889D01*
X011851Y011789D01*
X011816Y011689D01*
X011777Y011591D01*
X011735Y011495D01*
X011689Y011400D01*
X011640Y011307D01*
X011587Y011216D01*
X011530Y011127D01*
X011471Y011040D01*
X011408Y010956D01*
X011342Y010874D01*
X011273Y010794D01*
X011201Y010717D01*
X011126Y010643D01*
X011048Y010572D01*
X010968Y010504D01*
X010885Y010438D01*
X010800Y010376D01*
X010713Y010317D01*
X010623Y010262D01*
X010532Y010210D01*
X010438Y010161D01*
X010343Y010116D01*
X010246Y010075D01*
X010148Y010037D01*
X010048Y010003D01*
X009947Y009973D01*
X009845Y009946D01*
X009742Y009923D01*
X009639Y009905D01*
X009535Y009890D01*
X009430Y009879D01*
X009325Y009872D01*
X009219Y009869D01*
X009114Y009870D01*
X009009Y009875D01*
X008904Y009884D01*
X008799Y009897D01*
X008695Y009914D01*
X008592Y009934D01*
X008490Y009959D01*
X008388Y009987D01*
X008288Y010019D01*
X008189Y010055D01*
X008091Y010095D01*
X007995Y010138D01*
X007901Y010185D01*
X007808Y010235D01*
X007718Y010289D01*
X007629Y010346D01*
X007543Y010407D01*
X007459Y010471D01*
X007378Y010537D01*
X007299Y010607D01*
X007222Y010680D01*
X007149Y010755D01*
X007078Y010834D01*
X007011Y010914D01*
X006946Y010998D01*
X006885Y011083D01*
X006827Y011171D01*
X006773Y011261D01*
X006721Y011353D01*
X006674Y011447D01*
X006629Y011543D01*
X006589Y011640D01*
X006552Y011739D01*
X006519Y011839D01*
X006490Y011940D01*
X006464Y012042D01*
X006442Y012145D01*
X006425Y012249D01*
X006411Y012354D01*
X006401Y012459D01*
X006395Y012564D01*
X006393Y012669D01*
X006393Y020669D02*
X006395Y020774D01*
X006401Y020879D01*
X006411Y020984D01*
X006425Y021089D01*
X006442Y021193D01*
X006464Y021296D01*
X006490Y021398D01*
X006519Y021499D01*
X006552Y021599D01*
X006589Y021698D01*
X006629Y021795D01*
X006674Y021891D01*
X006721Y021985D01*
X006773Y022077D01*
X006827Y022167D01*
X006885Y022255D01*
X006946Y022340D01*
X007011Y022424D01*
X007078Y022504D01*
X007149Y022583D01*
X007222Y022658D01*
X007299Y022731D01*
X007378Y022801D01*
X007459Y022867D01*
X007543Y022931D01*
X007629Y022992D01*
X007718Y023049D01*
X007808Y023103D01*
X007901Y023153D01*
X007995Y023200D01*
X008091Y023243D01*
X008189Y023283D01*
X008288Y023319D01*
X008388Y023351D01*
X008490Y023379D01*
X008592Y023404D01*
X008695Y023424D01*
X008799Y023441D01*
X008904Y023454D01*
X009009Y023463D01*
X009114Y023468D01*
X009219Y023469D01*
X009325Y023466D01*
X009430Y023459D01*
X009535Y023448D01*
X009639Y023433D01*
X009742Y023415D01*
X009845Y023392D01*
X009947Y023365D01*
X010048Y023335D01*
X010148Y023301D01*
X010246Y023263D01*
X010343Y023222D01*
X010438Y023177D01*
X010532Y023128D01*
X010623Y023076D01*
X010713Y023021D01*
X010800Y022962D01*
X010885Y022900D01*
X010968Y022834D01*
X011048Y022766D01*
X011126Y022695D01*
X011201Y022621D01*
X011273Y022544D01*
X011342Y022464D01*
X011408Y022382D01*
X011471Y022298D01*
X011530Y022211D01*
X011587Y022122D01*
X011640Y022031D01*
X011689Y021938D01*
X011735Y021843D01*
X011777Y021747D01*
X011816Y021649D01*
X011851Y021549D01*
X011882Y021449D01*
X011910Y021347D01*
X011933Y021244D01*
X011953Y021141D01*
X011969Y021037D01*
X011981Y020932D01*
X011989Y020827D01*
X011993Y020722D01*
X011993Y020616D01*
X011989Y020511D01*
X011981Y020406D01*
X011969Y020301D01*
X011953Y020197D01*
X011933Y020094D01*
X011910Y019991D01*
X011882Y019889D01*
X011851Y019789D01*
X011816Y019689D01*
X011777Y019591D01*
X011735Y019495D01*
X011689Y019400D01*
X011640Y019307D01*
X011587Y019216D01*
X011530Y019127D01*
X011471Y019040D01*
X011408Y018956D01*
X011342Y018874D01*
X011273Y018794D01*
X011201Y018717D01*
X011126Y018643D01*
X011048Y018572D01*
X010968Y018504D01*
X010885Y018438D01*
X010800Y018376D01*
X010713Y018317D01*
X010623Y018262D01*
X010532Y018210D01*
X010438Y018161D01*
X010343Y018116D01*
X010246Y018075D01*
X010148Y018037D01*
X010048Y018003D01*
X009947Y017973D01*
X009845Y017946D01*
X009742Y017923D01*
X009639Y017905D01*
X009535Y017890D01*
X009430Y017879D01*
X009325Y017872D01*
X009219Y017869D01*
X009114Y017870D01*
X009009Y017875D01*
X008904Y017884D01*
X008799Y017897D01*
X008695Y017914D01*
X008592Y017934D01*
X008490Y017959D01*
X008388Y017987D01*
X008288Y018019D01*
X008189Y018055D01*
X008091Y018095D01*
X007995Y018138D01*
X007901Y018185D01*
X007808Y018235D01*
X007718Y018289D01*
X007629Y018346D01*
X007543Y018407D01*
X007459Y018471D01*
X007378Y018537D01*
X007299Y018607D01*
X007222Y018680D01*
X007149Y018755D01*
X007078Y018834D01*
X007011Y018914D01*
X006946Y018998D01*
X006885Y019083D01*
X006827Y019171D01*
X006773Y019261D01*
X006721Y019353D01*
X006674Y019447D01*
X006629Y019543D01*
X006589Y019640D01*
X006552Y019739D01*
X006519Y019839D01*
X006490Y019940D01*
X006464Y020042D01*
X006442Y020145D01*
X006425Y020249D01*
X006411Y020354D01*
X006401Y020459D01*
X006395Y020564D01*
X006393Y020669D01*
D13*
X006437Y040169D03*
X006437Y044669D03*
D14*
X009193Y031169D03*
D15*
X007023Y051763D02*
X005363Y051763D01*
X005363Y003574D02*
X007023Y003574D01*
M02*
