G75*
%MOIN*%
%OFA0B0*%
%FSLAX24Y24*%
%IPPOS*%
%LPD*%
%AMOC8*
5,1,8,0,0,1.08239X$1,22.5*
%
%ADD10C,0.0000*%
%ADD11C,0.0100*%
%ADD12C,0.0120*%
%ADD13R,0.0016X0.0008*%
%ADD14R,0.0024X0.0008*%
%ADD15R,0.0031X0.0008*%
%ADD16R,0.0047X0.0008*%
%ADD17R,0.0039X0.0008*%
%ADD18R,0.0063X0.0008*%
%ADD19R,0.0087X0.0008*%
%ADD20R,0.0079X0.0008*%
%ADD21R,0.0102X0.0008*%
%ADD22R,0.0094X0.0008*%
%ADD23R,0.0118X0.0008*%
%ADD24R,0.0142X0.0008*%
%ADD25R,0.0134X0.0008*%
%ADD26R,0.0157X0.0008*%
%ADD27R,0.0150X0.0008*%
%ADD28R,0.0173X0.0008*%
%ADD29R,0.0165X0.0008*%
%ADD30R,0.0181X0.0008*%
%ADD31R,0.0197X0.0008*%
%ADD32R,0.0189X0.0008*%
%ADD33R,0.0008X0.0008*%
%ADD34R,0.0071X0.0008*%
%ADD35R,0.0126X0.0008*%
%ADD36R,0.0110X0.0008*%
%ADD37R,0.0236X0.0008*%
%ADD38R,0.0283X0.0008*%
%ADD39R,0.0220X0.0008*%
%ADD40R,0.0323X0.0008*%
%ADD41R,0.0228X0.0008*%
%ADD42R,0.0362X0.0008*%
%ADD43R,0.0244X0.0008*%
%ADD44R,0.0213X0.0008*%
%ADD45R,0.0354X0.0008*%
%ADD46R,0.0386X0.0008*%
%ADD47R,0.0252X0.0008*%
%ADD48R,0.0260X0.0008*%
%ADD49R,0.0409X0.0008*%
%ADD50R,0.0433X0.0008*%
%ADD51R,0.0268X0.0008*%
%ADD52R,0.0457X0.0008*%
%ADD53R,0.0276X0.0008*%
%ADD54R,0.0449X0.0008*%
%ADD55R,0.0472X0.0008*%
%ADD56R,0.0465X0.0008*%
%ADD57R,0.0488X0.0008*%
%ADD58R,0.0504X0.0008*%
%ADD59R,0.0496X0.0008*%
%ADD60R,0.0520X0.0008*%
%ADD61R,0.0291X0.0008*%
%ADD62R,0.0512X0.0008*%
%ADD63R,0.0535X0.0008*%
%ADD64R,0.0528X0.0008*%
%ADD65R,0.0299X0.0008*%
%ADD66R,0.0543X0.0008*%
%ADD67R,0.0551X0.0008*%
%ADD68R,0.0559X0.0008*%
%ADD69R,0.0567X0.0008*%
%ADD70R,0.0205X0.0008*%
%ADD71R,0.0307X0.0008*%
%ADD72R,0.0315X0.0008*%
%ADD73R,0.0480X0.0008*%
%ADD74R,0.0441X0.0008*%
%ADD75R,0.0425X0.0008*%
%ADD76R,0.0417X0.0008*%
%ADD77R,0.0394X0.0008*%
%ADD78R,0.0402X0.0008*%
%ADD79R,0.0370X0.0008*%
%ADD80R,0.0339X0.0008*%
%ADD81R,0.0331X0.0008*%
%ADD82R,0.1630X0.0008*%
%ADD83R,0.1622X0.0008*%
%ADD84R,0.1598X0.0008*%
%ADD85R,0.1583X0.0008*%
%ADD86R,0.1551X0.0008*%
%ADD87R,0.1535X0.0008*%
%ADD88R,0.1520X0.0008*%
%ADD89R,0.1496X0.0008*%
%ADD90R,0.1480X0.0008*%
%ADD91R,0.1465X0.0008*%
%ADD92R,0.1433X0.0008*%
%ADD93R,0.1417X0.0008*%
%ADD94R,0.1402X0.0008*%
%ADD95R,0.1378X0.0008*%
%ADD96R,0.1362X0.0008*%
%ADD97R,0.1346X0.0008*%
%ADD98R,0.1315X0.0008*%
%ADD99R,0.1299X0.0008*%
%ADD100R,0.1283X0.0008*%
%ADD101R,0.1260X0.0008*%
%ADD102R,0.0346X0.0008*%
%ADD103R,0.0984X0.0008*%
%ADD104R,0.0976X0.0008*%
%ADD105R,0.0969X0.0008*%
%ADD106R,0.0575X0.0008*%
D10*
X003260Y002648D02*
X003260Y052694D01*
X003262Y052724D01*
X003267Y052754D01*
X003276Y052783D01*
X003289Y052810D01*
X003304Y052836D01*
X003323Y052860D01*
X003344Y052881D01*
X003368Y052900D01*
X003394Y052915D01*
X003421Y052928D01*
X003450Y052937D01*
X003480Y052942D01*
X003510Y052944D01*
X015010Y052944D01*
X015030Y052942D01*
X015050Y052937D01*
X015068Y052928D01*
X015085Y052917D01*
X015099Y052903D01*
X015110Y052886D01*
X015119Y052868D01*
X015124Y052848D01*
X015126Y052828D01*
X015126Y002520D01*
X015124Y002500D01*
X015120Y002481D01*
X015112Y002462D01*
X015102Y002445D01*
X015089Y002430D01*
X015074Y002417D01*
X015057Y002407D01*
X015038Y002399D01*
X015019Y002395D01*
X014999Y002393D01*
X003515Y002393D01*
X003484Y002395D01*
X003454Y002400D01*
X003425Y002410D01*
X003396Y002422D01*
X003370Y002438D01*
X003346Y002457D01*
X003324Y002479D01*
X003305Y002503D01*
X003289Y002529D01*
X003277Y002558D01*
X003267Y002587D01*
X003262Y002617D01*
X003260Y002648D01*
X006943Y012669D02*
X006945Y012763D01*
X006951Y012857D01*
X006961Y012951D01*
X006975Y013044D01*
X006992Y013137D01*
X007014Y013229D01*
X007039Y013319D01*
X007068Y013409D01*
X007101Y013497D01*
X007138Y013584D01*
X007178Y013669D01*
X007221Y013753D01*
X007268Y013835D01*
X007319Y013914D01*
X007373Y013992D01*
X007430Y014067D01*
X007490Y014139D01*
X007553Y014209D01*
X007619Y014277D01*
X007687Y014341D01*
X007759Y014403D01*
X007833Y014461D01*
X007909Y014517D01*
X007987Y014569D01*
X008068Y014618D01*
X008151Y014663D01*
X008235Y014705D01*
X008321Y014743D01*
X008409Y014778D01*
X008498Y014809D01*
X008588Y014836D01*
X008679Y014860D01*
X008771Y014879D01*
X008864Y014895D01*
X008958Y014907D01*
X009052Y014915D01*
X009146Y014919D01*
X009240Y014919D01*
X009334Y014915D01*
X009428Y014907D01*
X009522Y014895D01*
X009615Y014879D01*
X009707Y014860D01*
X009798Y014836D01*
X009888Y014809D01*
X009977Y014778D01*
X010065Y014743D01*
X010151Y014705D01*
X010235Y014663D01*
X010318Y014618D01*
X010399Y014569D01*
X010477Y014517D01*
X010553Y014461D01*
X010627Y014403D01*
X010699Y014341D01*
X010767Y014277D01*
X010833Y014209D01*
X010896Y014139D01*
X010956Y014067D01*
X011013Y013992D01*
X011067Y013914D01*
X011118Y013835D01*
X011165Y013753D01*
X011208Y013669D01*
X011248Y013584D01*
X011285Y013497D01*
X011318Y013409D01*
X011347Y013319D01*
X011372Y013229D01*
X011394Y013137D01*
X011411Y013044D01*
X011425Y012951D01*
X011435Y012857D01*
X011441Y012763D01*
X011443Y012669D01*
X011441Y012575D01*
X011435Y012481D01*
X011425Y012387D01*
X011411Y012294D01*
X011394Y012201D01*
X011372Y012109D01*
X011347Y012019D01*
X011318Y011929D01*
X011285Y011841D01*
X011248Y011754D01*
X011208Y011669D01*
X011165Y011585D01*
X011118Y011503D01*
X011067Y011424D01*
X011013Y011346D01*
X010956Y011271D01*
X010896Y011199D01*
X010833Y011129D01*
X010767Y011061D01*
X010699Y010997D01*
X010627Y010935D01*
X010553Y010877D01*
X010477Y010821D01*
X010399Y010769D01*
X010318Y010720D01*
X010235Y010675D01*
X010151Y010633D01*
X010065Y010595D01*
X009977Y010560D01*
X009888Y010529D01*
X009798Y010502D01*
X009707Y010478D01*
X009615Y010459D01*
X009522Y010443D01*
X009428Y010431D01*
X009334Y010423D01*
X009240Y010419D01*
X009146Y010419D01*
X009052Y010423D01*
X008958Y010431D01*
X008864Y010443D01*
X008771Y010459D01*
X008679Y010478D01*
X008588Y010502D01*
X008498Y010529D01*
X008409Y010560D01*
X008321Y010595D01*
X008235Y010633D01*
X008151Y010675D01*
X008068Y010720D01*
X007987Y010769D01*
X007909Y010821D01*
X007833Y010877D01*
X007759Y010935D01*
X007687Y010997D01*
X007619Y011061D01*
X007553Y011129D01*
X007490Y011199D01*
X007430Y011271D01*
X007373Y011346D01*
X007319Y011424D01*
X007268Y011503D01*
X007221Y011585D01*
X007178Y011669D01*
X007138Y011754D01*
X007101Y011841D01*
X007068Y011929D01*
X007039Y012019D01*
X007014Y012109D01*
X006992Y012201D01*
X006975Y012294D01*
X006961Y012387D01*
X006951Y012481D01*
X006945Y012575D01*
X006943Y012669D01*
X006943Y020669D02*
X006945Y020763D01*
X006951Y020857D01*
X006961Y020951D01*
X006975Y021044D01*
X006992Y021137D01*
X007014Y021229D01*
X007039Y021319D01*
X007068Y021409D01*
X007101Y021497D01*
X007138Y021584D01*
X007178Y021669D01*
X007221Y021753D01*
X007268Y021835D01*
X007319Y021914D01*
X007373Y021992D01*
X007430Y022067D01*
X007490Y022139D01*
X007553Y022209D01*
X007619Y022277D01*
X007687Y022341D01*
X007759Y022403D01*
X007833Y022461D01*
X007909Y022517D01*
X007987Y022569D01*
X008068Y022618D01*
X008151Y022663D01*
X008235Y022705D01*
X008321Y022743D01*
X008409Y022778D01*
X008498Y022809D01*
X008588Y022836D01*
X008679Y022860D01*
X008771Y022879D01*
X008864Y022895D01*
X008958Y022907D01*
X009052Y022915D01*
X009146Y022919D01*
X009240Y022919D01*
X009334Y022915D01*
X009428Y022907D01*
X009522Y022895D01*
X009615Y022879D01*
X009707Y022860D01*
X009798Y022836D01*
X009888Y022809D01*
X009977Y022778D01*
X010065Y022743D01*
X010151Y022705D01*
X010235Y022663D01*
X010318Y022618D01*
X010399Y022569D01*
X010477Y022517D01*
X010553Y022461D01*
X010627Y022403D01*
X010699Y022341D01*
X010767Y022277D01*
X010833Y022209D01*
X010896Y022139D01*
X010956Y022067D01*
X011013Y021992D01*
X011067Y021914D01*
X011118Y021835D01*
X011165Y021753D01*
X011208Y021669D01*
X011248Y021584D01*
X011285Y021497D01*
X011318Y021409D01*
X011347Y021319D01*
X011372Y021229D01*
X011394Y021137D01*
X011411Y021044D01*
X011425Y020951D01*
X011435Y020857D01*
X011441Y020763D01*
X011443Y020669D01*
X011441Y020575D01*
X011435Y020481D01*
X011425Y020387D01*
X011411Y020294D01*
X011394Y020201D01*
X011372Y020109D01*
X011347Y020019D01*
X011318Y019929D01*
X011285Y019841D01*
X011248Y019754D01*
X011208Y019669D01*
X011165Y019585D01*
X011118Y019503D01*
X011067Y019424D01*
X011013Y019346D01*
X010956Y019271D01*
X010896Y019199D01*
X010833Y019129D01*
X010767Y019061D01*
X010699Y018997D01*
X010627Y018935D01*
X010553Y018877D01*
X010477Y018821D01*
X010399Y018769D01*
X010318Y018720D01*
X010235Y018675D01*
X010151Y018633D01*
X010065Y018595D01*
X009977Y018560D01*
X009888Y018529D01*
X009798Y018502D01*
X009707Y018478D01*
X009615Y018459D01*
X009522Y018443D01*
X009428Y018431D01*
X009334Y018423D01*
X009240Y018419D01*
X009146Y018419D01*
X009052Y018423D01*
X008958Y018431D01*
X008864Y018443D01*
X008771Y018459D01*
X008679Y018478D01*
X008588Y018502D01*
X008498Y018529D01*
X008409Y018560D01*
X008321Y018595D01*
X008235Y018633D01*
X008151Y018675D01*
X008068Y018720D01*
X007987Y018769D01*
X007909Y018821D01*
X007833Y018877D01*
X007759Y018935D01*
X007687Y018997D01*
X007619Y019061D01*
X007553Y019129D01*
X007490Y019199D01*
X007430Y019271D01*
X007373Y019346D01*
X007319Y019424D01*
X007268Y019503D01*
X007221Y019585D01*
X007178Y019669D01*
X007138Y019754D01*
X007101Y019841D01*
X007068Y019929D01*
X007039Y020019D01*
X007014Y020109D01*
X006992Y020201D01*
X006975Y020294D01*
X006961Y020387D01*
X006951Y020481D01*
X006945Y020575D01*
X006943Y020669D01*
D11*
X008385Y025132D02*
X008405Y025134D01*
X008424Y025138D01*
X008442Y025146D01*
X008458Y025156D01*
X008473Y025169D01*
X008486Y025184D01*
X008496Y025200D01*
X008504Y025218D01*
X008508Y025237D01*
X008510Y025257D01*
X008510Y025319D01*
X008697Y025131D02*
X008723Y025151D01*
X008747Y025173D01*
X008768Y025198D01*
X008786Y025225D01*
X008800Y025255D01*
X008811Y025285D01*
X008819Y025317D01*
X008823Y025349D01*
X008822Y025382D01*
X008822Y025632D01*
X008822Y025882D01*
X009072Y026132D02*
X009102Y026130D01*
X009132Y026125D01*
X009161Y026116D01*
X009188Y026103D01*
X009214Y026088D01*
X009238Y026069D01*
X009259Y026048D01*
X009278Y026024D01*
X009293Y025998D01*
X009306Y025971D01*
X009315Y025942D01*
X009320Y025912D01*
X009322Y025882D01*
X009322Y025632D01*
X009322Y025382D01*
X009510Y025131D02*
X009536Y025151D01*
X009560Y025173D01*
X009581Y025198D01*
X009599Y025225D01*
X009613Y025255D01*
X009624Y025285D01*
X009632Y025317D01*
X009636Y025349D01*
X009635Y025382D01*
X009635Y025882D01*
X009635Y026069D02*
X009635Y026132D01*
X009947Y025882D02*
X009947Y025382D01*
X010322Y025131D02*
X010348Y025151D01*
X010372Y025173D01*
X010393Y025198D01*
X010411Y025225D01*
X010425Y025255D01*
X010436Y025285D01*
X010444Y025317D01*
X010448Y025349D01*
X010447Y025382D01*
X010447Y025882D01*
X010072Y026133D02*
X010046Y026113D01*
X010022Y026091D01*
X010001Y026066D01*
X009983Y026039D01*
X009969Y026009D01*
X009958Y025979D01*
X009950Y025947D01*
X009946Y025915D01*
X009947Y025882D01*
X009947Y025382D02*
X009948Y025349D01*
X009944Y025317D01*
X009936Y025285D01*
X009925Y025255D01*
X009911Y025225D01*
X009893Y025198D01*
X009872Y025173D01*
X009848Y025151D01*
X009822Y025131D01*
X010447Y025382D02*
X010431Y025433D01*
X010412Y025482D01*
X010389Y025529D01*
X010363Y025575D01*
X010333Y025619D01*
X010300Y025660D01*
X010264Y025699D01*
X010225Y025735D01*
X010184Y025768D01*
X010140Y025798D01*
X010094Y025824D01*
X010047Y025847D01*
X009998Y025866D01*
X009947Y025882D01*
X009072Y026132D02*
X009042Y026130D01*
X009012Y026125D01*
X008983Y026116D01*
X008956Y026103D01*
X008930Y026088D01*
X008906Y026069D01*
X008885Y026048D01*
X008866Y026024D01*
X008851Y025998D01*
X008838Y025971D01*
X008829Y025942D01*
X008824Y025912D01*
X008822Y025882D01*
X008822Y025632D02*
X008849Y025657D01*
X008879Y025679D01*
X008911Y025697D01*
X008945Y025712D01*
X008980Y025724D01*
X009017Y025732D01*
X009053Y025736D01*
X009091Y025736D01*
X009127Y025732D01*
X009164Y025724D01*
X009199Y025712D01*
X009233Y025697D01*
X009265Y025679D01*
X009295Y025657D01*
X009322Y025632D01*
X009322Y025382D02*
X009323Y025349D01*
X009319Y025317D01*
X009311Y025285D01*
X009300Y025255D01*
X009286Y025225D01*
X009268Y025198D01*
X009247Y025173D01*
X009223Y025151D01*
X009197Y025131D01*
X008510Y025319D02*
X008508Y025346D01*
X008502Y025372D01*
X008493Y025397D01*
X008480Y025421D01*
X008464Y025442D01*
X008445Y025461D01*
X008424Y025477D01*
X008400Y025490D01*
X008375Y025499D01*
X008349Y025505D01*
X008322Y025507D01*
X008009Y025444D02*
X008013Y025410D01*
X008020Y025377D01*
X008030Y025344D01*
X008044Y025313D01*
X008060Y025283D01*
X008080Y025255D01*
X008103Y025229D01*
X008128Y025206D01*
X008156Y025185D01*
X008185Y025168D01*
X008216Y025153D01*
X008248Y025142D01*
X008282Y025134D01*
X008316Y025130D01*
X008350Y025129D01*
X008384Y025132D01*
X008010Y025444D02*
X008010Y026007D01*
X008012Y026027D01*
X008016Y026046D01*
X008024Y026064D01*
X008034Y026080D01*
X008047Y026095D01*
X008062Y026108D01*
X008078Y026118D01*
X008096Y026126D01*
X008115Y026130D01*
X008135Y026132D01*
X008197Y026132D01*
X008228Y026134D01*
X008260Y026132D01*
X008291Y026127D01*
X008322Y026118D01*
X008351Y026106D01*
X008379Y026090D01*
X008405Y026072D01*
X008428Y026051D01*
X008450Y026027D01*
X008468Y026001D01*
X008483Y025973D01*
X008495Y025944D01*
X008504Y025914D01*
X008509Y025882D01*
X010447Y025882D02*
X010446Y025915D01*
X010450Y025947D01*
X010458Y025979D01*
X010469Y026009D01*
X010483Y026039D01*
X010501Y026066D01*
X010522Y026091D01*
X010546Y026113D01*
X010572Y026133D01*
X013260Y021169D02*
X013290Y021167D01*
X013320Y021162D01*
X013349Y021153D01*
X013376Y021140D01*
X013402Y021125D01*
X013426Y021106D01*
X013447Y021085D01*
X013466Y021061D01*
X013481Y021035D01*
X013494Y021008D01*
X013503Y020979D01*
X013508Y020949D01*
X013510Y020919D01*
X013510Y020169D01*
X013760Y020169D01*
X013790Y020171D01*
X013820Y020176D01*
X013849Y020185D01*
X013876Y020198D01*
X013902Y020213D01*
X013926Y020232D01*
X013947Y020253D01*
X013966Y020277D01*
X013981Y020303D01*
X013994Y020330D01*
X014003Y020359D01*
X014008Y020389D01*
X014010Y020419D01*
X013760Y013044D02*
X013760Y012794D01*
X013634Y013169D02*
X013598Y013170D01*
X013562Y013168D01*
X013527Y013161D01*
X013492Y013152D01*
X013458Y013138D01*
X013426Y013121D01*
X013396Y013101D01*
X013369Y013078D01*
X013343Y013052D01*
X013321Y013024D01*
X013302Y012993D01*
X013286Y012961D01*
X013273Y012927D01*
X013265Y012892D01*
X013259Y012856D01*
X013260Y012856D02*
X013260Y012481D01*
X013447Y012481D01*
X013260Y012481D02*
X013260Y012169D01*
X013510Y012481D02*
X013508Y012450D01*
X013510Y012418D01*
X013515Y012387D01*
X013524Y012356D01*
X013536Y012327D01*
X013552Y012299D01*
X013570Y012273D01*
X013591Y012250D01*
X013615Y012228D01*
X013641Y012210D01*
X013669Y012195D01*
X013698Y012183D01*
X013728Y012174D01*
X013760Y012169D01*
X013447Y012481D02*
X013480Y012483D01*
X013512Y012488D01*
X013544Y012496D01*
X013574Y012508D01*
X013604Y012523D01*
X013631Y012541D01*
X013656Y012561D01*
X013680Y012585D01*
X013700Y012610D01*
X013718Y012638D01*
X013733Y012667D01*
X013745Y012697D01*
X013753Y012729D01*
X013758Y012761D01*
X013760Y012794D01*
X013760Y013044D02*
X013758Y013064D01*
X013754Y013083D01*
X013746Y013101D01*
X013736Y013117D01*
X013723Y013132D01*
X013708Y013145D01*
X013692Y013155D01*
X013674Y013163D01*
X013655Y013167D01*
X013635Y013169D01*
X009635Y008319D02*
X009603Y008290D01*
X009568Y008263D01*
X009531Y008239D01*
X009493Y008218D01*
X009453Y008200D01*
X009411Y008186D01*
X009369Y008175D01*
X009326Y008168D01*
X009282Y008164D01*
X009238Y008164D01*
X009194Y008168D01*
X009151Y008175D01*
X009109Y008186D01*
X009067Y008200D01*
X009027Y008218D01*
X008989Y008239D01*
X008952Y008263D01*
X008917Y008290D01*
X008885Y008319D01*
X008822Y008069D02*
X008822Y007569D01*
X008820Y007539D01*
X008815Y007509D01*
X008806Y007480D01*
X008793Y007453D01*
X008778Y007427D01*
X008759Y007403D01*
X008738Y007382D01*
X008714Y007363D01*
X008688Y007348D01*
X008661Y007335D01*
X008632Y007326D01*
X008602Y007321D01*
X008572Y007319D01*
X008542Y007321D01*
X008512Y007326D01*
X008483Y007335D01*
X008456Y007348D01*
X008430Y007363D01*
X008406Y007382D01*
X008385Y007403D01*
X008366Y007427D01*
X008351Y007453D01*
X008338Y007480D01*
X008329Y007509D01*
X008324Y007539D01*
X008322Y007569D01*
X008322Y008069D01*
X008635Y008320D02*
X008664Y008305D01*
X008692Y008288D01*
X008718Y008268D01*
X008741Y008245D01*
X008762Y008220D01*
X008781Y008193D01*
X008796Y008164D01*
X008808Y008133D01*
X008817Y008102D01*
X008823Y008069D01*
X009260Y008319D02*
X009260Y007569D01*
X009262Y007539D01*
X009267Y007509D01*
X009276Y007480D01*
X009289Y007453D01*
X009304Y007427D01*
X009323Y007403D01*
X009344Y007382D01*
X009368Y007363D01*
X009394Y007348D01*
X009421Y007335D01*
X009450Y007326D01*
X009480Y007321D01*
X009510Y007319D01*
X009697Y007319D02*
X009697Y007632D01*
X009885Y007632D01*
X009697Y007632D02*
X009697Y008007D01*
X009885Y007631D02*
X009918Y007633D01*
X009950Y007638D01*
X009982Y007646D01*
X010012Y007658D01*
X010042Y007673D01*
X010069Y007691D01*
X010094Y007711D01*
X010118Y007735D01*
X010138Y007760D01*
X010156Y007787D01*
X010171Y007817D01*
X010183Y007847D01*
X010191Y007879D01*
X010196Y007911D01*
X010198Y007944D01*
X010197Y007944D02*
X010197Y008194D01*
X010195Y008214D01*
X010191Y008233D01*
X010183Y008251D01*
X010173Y008267D01*
X010160Y008282D01*
X010145Y008295D01*
X010129Y008305D01*
X010111Y008313D01*
X010092Y008317D01*
X010072Y008319D01*
X010072Y008320D02*
X010036Y008321D01*
X010000Y008319D01*
X009965Y008312D01*
X009930Y008303D01*
X009896Y008289D01*
X009864Y008272D01*
X009834Y008252D01*
X009807Y008229D01*
X009781Y008203D01*
X009759Y008175D01*
X009740Y008144D01*
X009724Y008112D01*
X009711Y008078D01*
X009703Y008043D01*
X009697Y008007D01*
X010385Y008132D02*
X010385Y007569D01*
X010635Y007319D02*
X010665Y007321D01*
X010695Y007326D01*
X010724Y007335D01*
X010751Y007348D01*
X010777Y007363D01*
X010801Y007382D01*
X010822Y007403D01*
X010841Y007427D01*
X010856Y007453D01*
X010869Y007480D01*
X010878Y007509D01*
X010883Y007539D01*
X010885Y007569D01*
X010885Y008132D01*
X010884Y008132D02*
X010885Y008159D01*
X010889Y008185D01*
X010897Y008211D01*
X010908Y008235D01*
X010923Y008258D01*
X010941Y008278D01*
X010962Y008295D01*
X010985Y008309D01*
X011009Y008319D01*
X011447Y008319D02*
X011447Y007569D01*
X011822Y008169D02*
X011790Y008198D01*
X011755Y008225D01*
X011718Y008249D01*
X011680Y008270D01*
X011640Y008288D01*
X011598Y008302D01*
X011556Y008313D01*
X011513Y008320D01*
X011469Y008324D01*
X011425Y008324D01*
X011381Y008320D01*
X011338Y008313D01*
X011296Y008302D01*
X011254Y008288D01*
X011214Y008270D01*
X011176Y008249D01*
X011139Y008225D01*
X011104Y008198D01*
X011072Y008169D01*
X010509Y008319D02*
X010485Y008309D01*
X010462Y008295D01*
X010441Y008278D01*
X010423Y008258D01*
X010408Y008235D01*
X010397Y008211D01*
X010389Y008185D01*
X010385Y008159D01*
X010384Y008132D01*
X010385Y007569D02*
X010387Y007539D01*
X010392Y007509D01*
X010401Y007480D01*
X010414Y007453D01*
X010429Y007427D01*
X010448Y007403D01*
X010469Y007382D01*
X010493Y007363D01*
X010519Y007348D01*
X010546Y007335D01*
X010575Y007326D01*
X010605Y007321D01*
X010635Y007319D01*
X011259Y007320D02*
X011288Y007329D01*
X011316Y007343D01*
X011341Y007359D01*
X011365Y007379D01*
X011386Y007401D01*
X011404Y007425D01*
X011420Y007452D01*
X011432Y007480D01*
X011440Y007509D01*
X011446Y007539D01*
X011447Y007570D01*
X008135Y007444D02*
X008135Y008007D01*
X008322Y008069D02*
X008323Y008102D01*
X008319Y008134D01*
X008311Y008166D01*
X008300Y008196D01*
X008286Y008226D01*
X008268Y008253D01*
X008247Y008278D01*
X008223Y008300D01*
X008197Y008320D01*
X007822Y008319D02*
X007760Y008319D01*
X007740Y008317D01*
X007721Y008313D01*
X007703Y008305D01*
X007687Y008295D01*
X007672Y008282D01*
X007659Y008267D01*
X007649Y008251D01*
X007641Y008233D01*
X007637Y008214D01*
X007635Y008194D01*
X007635Y007632D01*
X007634Y007632D02*
X007638Y007598D01*
X007645Y007565D01*
X007655Y007532D01*
X007669Y007501D01*
X007685Y007471D01*
X007705Y007443D01*
X007728Y007417D01*
X007753Y007394D01*
X007781Y007373D01*
X007810Y007356D01*
X007841Y007341D01*
X007873Y007330D01*
X007907Y007322D01*
X007941Y007318D01*
X007975Y007317D01*
X008009Y007320D01*
X008010Y007319D02*
X008030Y007321D01*
X008049Y007325D01*
X008067Y007333D01*
X008083Y007343D01*
X008098Y007356D01*
X008111Y007371D01*
X008121Y007387D01*
X008129Y007405D01*
X008133Y007424D01*
X008135Y007444D01*
X008135Y008007D02*
X008133Y008040D01*
X008128Y008072D01*
X008120Y008104D01*
X008108Y008134D01*
X008093Y008164D01*
X008075Y008191D01*
X008055Y008216D01*
X008031Y008240D01*
X008006Y008260D01*
X007979Y008278D01*
X007949Y008293D01*
X007919Y008305D01*
X007887Y008313D01*
X007855Y008318D01*
X007822Y008320D01*
X007499Y037169D02*
X007424Y037253D01*
X007347Y037334D01*
X007266Y037412D01*
X007183Y037488D01*
X007098Y037560D01*
X007010Y037630D01*
X006919Y037696D01*
X006826Y037760D01*
X006732Y037819D01*
X006635Y037876D01*
X006536Y037929D01*
X006435Y037979D01*
X006333Y038025D01*
X006229Y038068D01*
X006124Y038107D01*
X004337Y040169D02*
X004339Y040261D01*
X004345Y040352D01*
X004355Y040443D01*
X004369Y040534D01*
X004387Y040624D01*
X004409Y040713D01*
X004434Y040800D01*
X004464Y040887D01*
X004497Y040973D01*
X004534Y041056D01*
X004574Y041139D01*
X004618Y041219D01*
X004666Y041297D01*
X004717Y041374D01*
X004771Y041447D01*
X004828Y041519D01*
X004889Y041588D01*
X004952Y041654D01*
X005018Y041717D01*
X005087Y041778D01*
X005159Y041835D01*
X005232Y041889D01*
X005309Y041940D01*
X005387Y041988D01*
X005467Y042032D01*
X005550Y042072D01*
X005633Y042109D01*
X005719Y042142D01*
X005806Y042172D01*
X005893Y042197D01*
X005982Y042219D01*
X006072Y042237D01*
X006163Y042251D01*
X006254Y042261D01*
X006345Y042267D01*
X006437Y042269D01*
X006529Y042267D01*
X006620Y042261D01*
X006711Y042251D01*
X006802Y042237D01*
X006892Y042219D01*
X006981Y042197D01*
X007068Y042172D01*
X007155Y042142D01*
X007241Y042109D01*
X007324Y042072D01*
X007407Y042032D01*
X007487Y041988D01*
X007565Y041940D01*
X007642Y041889D01*
X007715Y041835D01*
X007787Y041778D01*
X007856Y041717D01*
X007922Y041654D01*
X007985Y041588D01*
X008046Y041519D01*
X008103Y041447D01*
X008157Y041374D01*
X008208Y041297D01*
X008256Y041219D01*
X008300Y041139D01*
X008340Y041056D01*
X008377Y040973D01*
X008410Y040887D01*
X008440Y040800D01*
X008465Y040713D01*
X008487Y040624D01*
X008505Y040534D01*
X008519Y040443D01*
X008529Y040352D01*
X008535Y040261D01*
X008537Y040169D01*
X008535Y040077D01*
X008529Y039986D01*
X008519Y039895D01*
X008505Y039804D01*
X008487Y039714D01*
X008465Y039625D01*
X008440Y039538D01*
X008410Y039451D01*
X008377Y039365D01*
X008340Y039282D01*
X008300Y039199D01*
X008256Y039119D01*
X008208Y039041D01*
X008157Y038964D01*
X008103Y038891D01*
X008046Y038819D01*
X007985Y038750D01*
X007922Y038684D01*
X007856Y038621D01*
X007787Y038560D01*
X007715Y038503D01*
X007642Y038449D01*
X007565Y038398D01*
X007487Y038350D01*
X007407Y038306D01*
X007324Y038266D01*
X007241Y038229D01*
X007155Y038196D01*
X007068Y038166D01*
X006981Y038141D01*
X006892Y038119D01*
X006802Y038101D01*
X006711Y038087D01*
X006620Y038077D01*
X006529Y038071D01*
X006437Y038069D01*
X006345Y038071D01*
X006254Y038077D01*
X006163Y038087D01*
X006072Y038101D01*
X005982Y038119D01*
X005893Y038141D01*
X005806Y038166D01*
X005719Y038196D01*
X005633Y038229D01*
X005550Y038266D01*
X005467Y038306D01*
X005387Y038350D01*
X005309Y038398D01*
X005232Y038449D01*
X005159Y038503D01*
X005087Y038560D01*
X005018Y038621D01*
X004952Y038684D01*
X004889Y038750D01*
X004828Y038819D01*
X004771Y038891D01*
X004717Y038964D01*
X004666Y039041D01*
X004618Y039119D01*
X004574Y039199D01*
X004534Y039282D01*
X004497Y039365D01*
X004464Y039451D01*
X004434Y039538D01*
X004409Y039625D01*
X004387Y039714D01*
X004369Y039804D01*
X004355Y039895D01*
X004345Y039986D01*
X004339Y040077D01*
X004337Y040169D01*
X004337Y044669D02*
X004339Y044761D01*
X004345Y044852D01*
X004355Y044943D01*
X004369Y045034D01*
X004387Y045124D01*
X004409Y045213D01*
X004434Y045300D01*
X004464Y045387D01*
X004497Y045473D01*
X004534Y045556D01*
X004574Y045639D01*
X004618Y045719D01*
X004666Y045797D01*
X004717Y045874D01*
X004771Y045947D01*
X004828Y046019D01*
X004889Y046088D01*
X004952Y046154D01*
X005018Y046217D01*
X005087Y046278D01*
X005159Y046335D01*
X005232Y046389D01*
X005309Y046440D01*
X005387Y046488D01*
X005467Y046532D01*
X005550Y046572D01*
X005633Y046609D01*
X005719Y046642D01*
X005806Y046672D01*
X005893Y046697D01*
X005982Y046719D01*
X006072Y046737D01*
X006163Y046751D01*
X006254Y046761D01*
X006345Y046767D01*
X006437Y046769D01*
X006529Y046767D01*
X006620Y046761D01*
X006711Y046751D01*
X006802Y046737D01*
X006892Y046719D01*
X006981Y046697D01*
X007068Y046672D01*
X007155Y046642D01*
X007241Y046609D01*
X007324Y046572D01*
X007407Y046532D01*
X007487Y046488D01*
X007565Y046440D01*
X007642Y046389D01*
X007715Y046335D01*
X007787Y046278D01*
X007856Y046217D01*
X007922Y046154D01*
X007985Y046088D01*
X008046Y046019D01*
X008103Y045947D01*
X008157Y045874D01*
X008208Y045797D01*
X008256Y045719D01*
X008300Y045639D01*
X008340Y045556D01*
X008377Y045473D01*
X008410Y045387D01*
X008440Y045300D01*
X008465Y045213D01*
X008487Y045124D01*
X008505Y045034D01*
X008519Y044943D01*
X008529Y044852D01*
X008535Y044761D01*
X008537Y044669D01*
X008535Y044577D01*
X008529Y044486D01*
X008519Y044395D01*
X008505Y044304D01*
X008487Y044214D01*
X008465Y044125D01*
X008440Y044038D01*
X008410Y043951D01*
X008377Y043865D01*
X008340Y043782D01*
X008300Y043699D01*
X008256Y043619D01*
X008208Y043541D01*
X008157Y043464D01*
X008103Y043391D01*
X008046Y043319D01*
X007985Y043250D01*
X007922Y043184D01*
X007856Y043121D01*
X007787Y043060D01*
X007715Y043003D01*
X007642Y042949D01*
X007565Y042898D01*
X007487Y042850D01*
X007407Y042806D01*
X007324Y042766D01*
X007241Y042729D01*
X007155Y042696D01*
X007068Y042666D01*
X006981Y042641D01*
X006892Y042619D01*
X006802Y042601D01*
X006711Y042587D01*
X006620Y042577D01*
X006529Y042571D01*
X006437Y042569D01*
X006345Y042571D01*
X006254Y042577D01*
X006163Y042587D01*
X006072Y042601D01*
X005982Y042619D01*
X005893Y042641D01*
X005806Y042666D01*
X005719Y042696D01*
X005633Y042729D01*
X005550Y042766D01*
X005467Y042806D01*
X005387Y042850D01*
X005309Y042898D01*
X005232Y042949D01*
X005159Y043003D01*
X005087Y043060D01*
X005018Y043121D01*
X004952Y043184D01*
X004889Y043250D01*
X004828Y043319D01*
X004771Y043391D01*
X004717Y043464D01*
X004666Y043541D01*
X004618Y043619D01*
X004574Y043699D01*
X004534Y043782D01*
X004497Y043865D01*
X004464Y043951D01*
X004434Y044038D01*
X004409Y044125D01*
X004387Y044214D01*
X004369Y044304D01*
X004355Y044395D01*
X004345Y044486D01*
X004339Y044577D01*
X004337Y044669D01*
X004625Y045731D02*
X004696Y045832D01*
X004764Y045935D01*
X004829Y046041D01*
X004891Y046148D01*
X004950Y046257D01*
X005005Y046367D01*
X005056Y046480D01*
X005105Y046593D01*
X005149Y046709D01*
X005190Y046825D01*
X005228Y046943D01*
X005262Y047062D01*
X005292Y047182D01*
X005318Y047303D01*
X005341Y047424D01*
X005360Y047546D01*
X005375Y047669D01*
X007760Y047694D02*
X008467Y048402D01*
X008760Y049109D02*
X008760Y049194D01*
X009197Y048944D02*
X009197Y049944D01*
X009199Y049974D01*
X009204Y050004D01*
X009213Y050033D01*
X009226Y050060D01*
X009241Y050086D01*
X009260Y050110D01*
X009281Y050131D01*
X009305Y050150D01*
X009331Y050165D01*
X009358Y050178D01*
X009387Y050187D01*
X009417Y050192D01*
X009447Y050194D01*
X009947Y050194D01*
X007498Y046481D02*
X007599Y046410D01*
X007702Y046342D01*
X007808Y046277D01*
X007915Y046215D01*
X008024Y046156D01*
X008134Y046101D01*
X008247Y046050D01*
X008360Y046001D01*
X008476Y045957D01*
X008592Y045916D01*
X008710Y045878D01*
X008829Y045844D01*
X008949Y045814D01*
X009070Y045788D01*
X009191Y045765D01*
X009313Y045746D01*
X009436Y045731D01*
X007498Y041981D02*
X007599Y041910D01*
X007702Y041842D01*
X007808Y041777D01*
X007915Y041715D01*
X008024Y041656D01*
X008134Y041601D01*
X008247Y041550D01*
X008360Y041501D01*
X008476Y041457D01*
X008592Y041416D01*
X008710Y041378D01*
X008829Y041344D01*
X008949Y041314D01*
X009070Y041288D01*
X009191Y041265D01*
X009313Y041246D01*
X009436Y041231D01*
X010135Y040669D02*
X010155Y040667D01*
X010174Y040663D01*
X010192Y040655D01*
X010208Y040645D01*
X010223Y040632D01*
X010236Y040617D01*
X010246Y040601D01*
X010254Y040583D01*
X010258Y040564D01*
X010260Y040544D01*
X010260Y040294D01*
X010134Y040669D02*
X010098Y040670D01*
X010062Y040668D01*
X010027Y040661D01*
X009992Y040652D01*
X009958Y040638D01*
X009926Y040621D01*
X009896Y040601D01*
X009869Y040578D01*
X009843Y040552D01*
X009821Y040524D01*
X009802Y040493D01*
X009786Y040461D01*
X009773Y040427D01*
X009765Y040392D01*
X009759Y040356D01*
X009760Y040356D02*
X009760Y039981D01*
X009947Y039981D01*
X009760Y039981D02*
X009760Y039669D01*
X010010Y039981D02*
X010008Y039950D01*
X010010Y039918D01*
X010015Y039887D01*
X010024Y039856D01*
X010036Y039827D01*
X010052Y039799D01*
X010070Y039773D01*
X010091Y039750D01*
X010115Y039728D01*
X010141Y039710D01*
X010169Y039695D01*
X010198Y039683D01*
X010228Y039674D01*
X010260Y039669D01*
X009947Y039981D02*
X009980Y039983D01*
X010012Y039988D01*
X010044Y039996D01*
X010074Y040008D01*
X010104Y040023D01*
X010131Y040041D01*
X010156Y040061D01*
X010180Y040085D01*
X010200Y040110D01*
X010218Y040138D01*
X010233Y040167D01*
X010245Y040197D01*
X010253Y040229D01*
X010258Y040261D01*
X010260Y040294D01*
X009437Y041231D02*
X009353Y041156D01*
X009272Y041079D01*
X009194Y040998D01*
X009118Y040915D01*
X009046Y040830D01*
X008976Y040742D01*
X008910Y040651D01*
X008846Y040558D01*
X008787Y040464D01*
X008730Y040367D01*
X008677Y040268D01*
X008627Y040167D01*
X008581Y040065D01*
X008538Y039961D01*
X008499Y039856D01*
X009760Y042069D02*
X009786Y042089D01*
X009810Y042111D01*
X009831Y042136D01*
X009849Y042163D01*
X009863Y042193D01*
X009874Y042223D01*
X009882Y042255D01*
X009886Y042287D01*
X009885Y042320D01*
X009885Y042319D02*
X009885Y042819D01*
X009885Y043007D02*
X009885Y043069D01*
X010197Y042819D02*
X010197Y042319D01*
X010572Y042069D02*
X010598Y042089D01*
X010622Y042111D01*
X010643Y042136D01*
X010661Y042163D01*
X010675Y042193D01*
X010686Y042223D01*
X010694Y042255D01*
X010698Y042287D01*
X010697Y042320D01*
X010697Y042319D02*
X010697Y042819D01*
X010322Y043070D02*
X010296Y043050D01*
X010272Y043028D01*
X010251Y043003D01*
X010233Y042976D01*
X010219Y042946D01*
X010208Y042916D01*
X010200Y042884D01*
X010196Y042852D01*
X010197Y042819D01*
X010197Y042320D02*
X010198Y042287D01*
X010194Y042255D01*
X010186Y042223D01*
X010175Y042193D01*
X010161Y042163D01*
X010143Y042136D01*
X010122Y042111D01*
X010098Y042089D01*
X010072Y042069D01*
X010697Y042319D02*
X010681Y042370D01*
X010662Y042419D01*
X010639Y042466D01*
X010613Y042512D01*
X010583Y042556D01*
X010550Y042597D01*
X010514Y042636D01*
X010475Y042672D01*
X010434Y042705D01*
X010390Y042735D01*
X010344Y042761D01*
X010297Y042784D01*
X010248Y042803D01*
X010197Y042819D01*
X010947Y042757D02*
X010947Y042382D01*
X011135Y042382D01*
X010947Y042382D02*
X010947Y042069D01*
X011135Y042381D02*
X011168Y042383D01*
X011200Y042388D01*
X011232Y042396D01*
X011262Y042408D01*
X011292Y042423D01*
X011319Y042441D01*
X011344Y042461D01*
X011368Y042485D01*
X011388Y042510D01*
X011406Y042538D01*
X011421Y042567D01*
X011433Y042597D01*
X011441Y042629D01*
X011446Y042661D01*
X011448Y042694D01*
X011447Y042694D02*
X011447Y042944D01*
X011445Y042964D01*
X011441Y042983D01*
X011433Y043001D01*
X011423Y043017D01*
X011410Y043032D01*
X011395Y043045D01*
X011379Y043055D01*
X011361Y043063D01*
X011342Y043067D01*
X011322Y043069D01*
X008499Y044356D02*
X008538Y044461D01*
X008581Y044565D01*
X008627Y044667D01*
X008677Y044768D01*
X008730Y044867D01*
X008787Y044964D01*
X008846Y045058D01*
X008910Y045151D01*
X008976Y045242D01*
X009046Y045330D01*
X009118Y045415D01*
X009194Y045498D01*
X009272Y045579D01*
X009353Y045656D01*
X009437Y045731D01*
X009760Y045169D02*
X009790Y045167D01*
X009820Y045162D01*
X009849Y045153D01*
X009876Y045140D01*
X009902Y045125D01*
X009926Y045106D01*
X009947Y045085D01*
X009966Y045061D01*
X009981Y045035D01*
X009994Y045008D01*
X010003Y044979D01*
X010008Y044949D01*
X010010Y044919D01*
X010010Y044169D01*
X010260Y044169D01*
X010290Y044171D01*
X010320Y044176D01*
X010349Y044185D01*
X010376Y044198D01*
X010402Y044213D01*
X010426Y044232D01*
X010447Y044253D01*
X010466Y044277D01*
X010481Y044303D01*
X010494Y044330D01*
X010503Y044359D01*
X010508Y044389D01*
X010510Y044419D01*
X010822Y043070D02*
X010796Y043050D01*
X010772Y043028D01*
X010751Y043003D01*
X010733Y042976D01*
X010719Y042946D01*
X010708Y042916D01*
X010700Y042884D01*
X010696Y042852D01*
X010697Y042819D01*
X010947Y042757D02*
X010953Y042793D01*
X010961Y042828D01*
X010974Y042862D01*
X010990Y042894D01*
X011009Y042925D01*
X011031Y042953D01*
X011057Y042979D01*
X011084Y043002D01*
X011114Y043022D01*
X011146Y043039D01*
X011180Y043053D01*
X011215Y043062D01*
X011250Y043069D01*
X011286Y043071D01*
X011322Y043070D01*
X011635Y042882D02*
X011635Y042319D01*
X011885Y042069D02*
X011915Y042071D01*
X011945Y042076D01*
X011974Y042085D01*
X012001Y042098D01*
X012027Y042113D01*
X012051Y042132D01*
X012072Y042153D01*
X012091Y042177D01*
X012106Y042203D01*
X012119Y042230D01*
X012128Y042259D01*
X012133Y042289D01*
X012135Y042319D01*
X012135Y042882D01*
X012134Y042882D02*
X012135Y042909D01*
X012139Y042935D01*
X012147Y042961D01*
X012158Y042985D01*
X012173Y043008D01*
X012191Y043028D01*
X012212Y043045D01*
X012235Y043059D01*
X012259Y043069D01*
X012697Y043069D02*
X012697Y042319D01*
X013072Y042919D02*
X013040Y042948D01*
X013005Y042975D01*
X012968Y042999D01*
X012930Y043020D01*
X012890Y043038D01*
X012848Y043052D01*
X012806Y043063D01*
X012763Y043070D01*
X012719Y043074D01*
X012675Y043074D01*
X012631Y043070D01*
X012588Y043063D01*
X012546Y043052D01*
X012504Y043038D01*
X012464Y043020D01*
X012426Y042999D01*
X012389Y042975D01*
X012354Y042948D01*
X012322Y042919D01*
X011759Y043069D02*
X011735Y043059D01*
X011712Y043045D01*
X011691Y043028D01*
X011673Y043008D01*
X011658Y042985D01*
X011647Y042961D01*
X011639Y042935D01*
X011635Y042909D01*
X011634Y042882D01*
X011635Y042319D02*
X011637Y042289D01*
X011642Y042259D01*
X011651Y042230D01*
X011664Y042203D01*
X011679Y042177D01*
X011698Y042153D01*
X011719Y042132D01*
X011743Y042113D01*
X011769Y042098D01*
X011796Y042085D01*
X011825Y042076D01*
X011855Y042071D01*
X011885Y042069D01*
X012509Y042070D02*
X012538Y042079D01*
X012566Y042093D01*
X012591Y042109D01*
X012615Y042129D01*
X012636Y042151D01*
X012654Y042175D01*
X012670Y042202D01*
X012682Y042230D01*
X012690Y042259D01*
X012696Y042289D01*
X012697Y042320D01*
X008760Y047694D02*
X008723Y047728D01*
X008684Y047760D01*
X008642Y047789D01*
X008599Y047815D01*
X008554Y047837D01*
X008507Y047856D01*
X008459Y047872D01*
X008410Y047885D01*
X008361Y047894D01*
X008310Y047899D01*
X008260Y047901D01*
X008210Y047899D01*
X008159Y047894D01*
X008110Y047885D01*
X008061Y047872D01*
X008013Y047856D01*
X007966Y047837D01*
X007921Y047815D01*
X007878Y047789D01*
X007836Y047760D01*
X007797Y047728D01*
X007760Y047694D01*
X008467Y048402D02*
X008509Y048446D01*
X008547Y048492D01*
X008583Y048541D01*
X008616Y048592D01*
X008645Y048644D01*
X008672Y048699D01*
X008695Y048754D01*
X008715Y048811D01*
X008731Y048870D01*
X008744Y048929D01*
X008753Y048988D01*
X008758Y049049D01*
X008760Y049109D01*
X008760Y049194D02*
X008723Y049160D01*
X008684Y049128D01*
X008642Y049099D01*
X008599Y049073D01*
X008554Y049051D01*
X008507Y049032D01*
X008459Y049016D01*
X008410Y049003D01*
X008361Y048994D01*
X008310Y048989D01*
X008260Y048987D01*
X008210Y048989D01*
X008159Y048994D01*
X008110Y049003D01*
X008061Y049016D01*
X008013Y049032D01*
X007966Y049051D01*
X007921Y049073D01*
X007878Y049099D01*
X007836Y049128D01*
X007797Y049160D01*
X007760Y049194D01*
X006749Y046731D02*
X006644Y046770D01*
X006540Y046813D01*
X006438Y046859D01*
X006337Y046909D01*
X006238Y046962D01*
X006141Y047019D01*
X006047Y047078D01*
X005954Y047142D01*
X005863Y047208D01*
X005775Y047278D01*
X005690Y047350D01*
X005607Y047426D01*
X005526Y047504D01*
X005449Y047585D01*
X005374Y047669D01*
X009947Y050194D02*
X009993Y050183D01*
X010039Y050168D01*
X010083Y050150D01*
X010125Y050129D01*
X010166Y050105D01*
X010206Y050078D01*
X010243Y050047D01*
X010277Y050015D01*
X010309Y049979D01*
X010338Y049942D01*
X010365Y049902D01*
X010388Y049861D01*
X010408Y049818D01*
X010425Y049773D01*
X010439Y049727D01*
X010449Y049681D01*
X010456Y049634D01*
X010459Y049586D01*
X010458Y049539D01*
X010454Y049491D01*
X010447Y049444D01*
X010447Y047944D01*
X010445Y047914D01*
X010440Y047884D01*
X010431Y047855D01*
X010418Y047828D01*
X010403Y047802D01*
X010384Y047778D01*
X010363Y047757D01*
X010339Y047738D01*
X010313Y047723D01*
X010286Y047710D01*
X010257Y047701D01*
X010227Y047696D01*
X010197Y047694D01*
X010947Y048444D02*
X010947Y049694D01*
X010947Y049695D02*
X010948Y049740D01*
X010945Y049784D01*
X010939Y049829D01*
X010929Y049873D01*
X010915Y049916D01*
X010899Y049958D01*
X010879Y049998D01*
X010855Y050036D01*
X010829Y050073D01*
X010800Y050107D01*
X010768Y050139D01*
X010734Y050168D01*
X010697Y050194D01*
X011947Y050194D02*
X011984Y050168D01*
X012018Y050139D01*
X012050Y050107D01*
X012079Y050073D01*
X012105Y050036D01*
X012129Y049998D01*
X012149Y049958D01*
X012165Y049916D01*
X012179Y049873D01*
X012189Y049829D01*
X012195Y049784D01*
X012198Y049740D01*
X012197Y049695D01*
X012197Y049694D02*
X012197Y048194D01*
X012195Y048150D01*
X012189Y048107D01*
X012180Y048065D01*
X012167Y048023D01*
X012150Y047983D01*
X012130Y047944D01*
X012107Y047907D01*
X012080Y047873D01*
X012051Y047840D01*
X012018Y047811D01*
X011984Y047784D01*
X011947Y047761D01*
X011908Y047741D01*
X011868Y047724D01*
X011826Y047711D01*
X011784Y047702D01*
X011741Y047696D01*
X011697Y047694D01*
X012697Y047694D02*
X012741Y047696D01*
X012784Y047702D01*
X012826Y047711D01*
X012868Y047724D01*
X012908Y047741D01*
X012947Y047761D01*
X012984Y047784D01*
X013018Y047811D01*
X013051Y047840D01*
X013080Y047873D01*
X013107Y047907D01*
X013130Y047944D01*
X013150Y047983D01*
X013167Y048023D01*
X013180Y048065D01*
X013189Y048107D01*
X013195Y048150D01*
X013197Y048194D01*
X013197Y050207D01*
X012447Y050194D02*
X012493Y050150D01*
X012543Y050109D01*
X012594Y050071D01*
X012648Y050036D01*
X012704Y050005D01*
X012762Y049976D01*
X012821Y049952D01*
X012881Y049931D01*
X012943Y049914D01*
X013006Y049900D01*
X013069Y049891D01*
X013133Y049885D01*
X013197Y049883D01*
X013261Y049885D01*
X013325Y049891D01*
X013388Y049900D01*
X013451Y049914D01*
X013513Y049931D01*
X013573Y049952D01*
X013632Y049976D01*
X013690Y050005D01*
X013746Y050036D01*
X013800Y050071D01*
X013851Y050109D01*
X013901Y050150D01*
X013947Y050194D01*
X011697Y047694D02*
X011643Y047696D01*
X011590Y047702D01*
X011538Y047711D01*
X011486Y047724D01*
X011435Y047741D01*
X011385Y047762D01*
X011338Y047786D01*
X011292Y047813D01*
X011248Y047844D01*
X011206Y047877D01*
X011167Y047914D01*
X011130Y047953D01*
X011097Y047995D01*
X011066Y048039D01*
X011039Y048085D01*
X011015Y048132D01*
X010994Y048182D01*
X010977Y048233D01*
X010964Y048285D01*
X010955Y048337D01*
X010949Y048390D01*
X010947Y048444D01*
X010197Y047694D02*
X010132Y047703D01*
X010067Y047716D01*
X010004Y047733D01*
X009941Y047753D01*
X009880Y047777D01*
X009820Y047805D01*
X009762Y047835D01*
X009705Y047870D01*
X009651Y047907D01*
X009599Y047948D01*
X009550Y047991D01*
X009503Y048037D01*
X009459Y048086D01*
X009418Y048138D01*
X009380Y048192D01*
X009345Y048247D01*
X009313Y048305D01*
X009285Y048365D01*
X009260Y048426D01*
X009239Y048488D01*
X009222Y048552D01*
X009208Y048616D01*
X009198Y048681D01*
X009192Y048747D01*
X009190Y048813D01*
X009192Y048878D01*
X009197Y048944D01*
X008249Y039107D02*
X008178Y039006D01*
X008110Y038903D01*
X008045Y038797D01*
X007983Y038690D01*
X007924Y038581D01*
X007869Y038471D01*
X007818Y038358D01*
X007769Y038245D01*
X007725Y038129D01*
X007684Y038013D01*
X007646Y037895D01*
X007612Y037776D01*
X007582Y037656D01*
X007556Y037535D01*
X007533Y037414D01*
X007514Y037292D01*
X007499Y037169D01*
D12*
X009193Y036544D02*
X009193Y035044D01*
X005353Y031169D02*
X005355Y031293D01*
X005361Y031416D01*
X005371Y031540D01*
X005385Y031663D01*
X005403Y031785D01*
X005425Y031907D01*
X005450Y032028D01*
X005480Y032148D01*
X005513Y032267D01*
X005551Y032385D01*
X005592Y032502D01*
X005636Y032617D01*
X005685Y032731D01*
X005737Y032843D01*
X005793Y032954D01*
X005852Y033062D01*
X005915Y033169D01*
X005981Y033273D01*
X006050Y033376D01*
X006123Y033476D01*
X006199Y033574D01*
X006278Y033669D01*
X006360Y033761D01*
X006445Y033851D01*
X006533Y033938D01*
X006624Y034023D01*
X006717Y034104D01*
X006813Y034182D01*
X006911Y034257D01*
X007012Y034329D01*
X007115Y034398D01*
X007220Y034463D01*
X007327Y034525D01*
X007436Y034583D01*
X007547Y034638D01*
X007659Y034689D01*
X007774Y034737D01*
X007889Y034781D01*
X008006Y034821D01*
X008125Y034857D01*
X008244Y034890D01*
X008364Y034919D01*
X008486Y034943D01*
X008608Y034964D01*
X008730Y034981D01*
X008853Y034994D01*
X008977Y035003D01*
X009100Y035008D01*
X009224Y035009D01*
X009348Y035006D01*
X009471Y034999D01*
X009594Y034988D01*
X009717Y034973D01*
X009839Y034954D01*
X009961Y034931D01*
X010082Y034905D01*
X010202Y034874D01*
X010321Y034840D01*
X010438Y034801D01*
X010555Y034759D01*
X010670Y034714D01*
X010783Y034664D01*
X010895Y034611D01*
X011005Y034555D01*
X011113Y034495D01*
X011219Y034431D01*
X011323Y034364D01*
X011425Y034294D01*
X011525Y034220D01*
X011622Y034143D01*
X011716Y034064D01*
X011808Y033981D01*
X011897Y033895D01*
X011984Y033807D01*
X012067Y033715D01*
X012148Y033621D01*
X012225Y033525D01*
X012300Y033426D01*
X012371Y033325D01*
X012439Y033221D01*
X012503Y033116D01*
X012564Y033008D01*
X012621Y032899D01*
X012675Y032787D01*
X012726Y032674D01*
X012772Y032560D01*
X012815Y032444D01*
X012854Y032326D01*
X012890Y032208D01*
X012921Y032088D01*
X012949Y031967D01*
X012973Y031846D01*
X012993Y031724D01*
X013009Y031601D01*
X013021Y031478D01*
X013029Y031355D01*
X013033Y031231D01*
X013033Y031107D01*
X013029Y030983D01*
X013021Y030860D01*
X013009Y030737D01*
X012993Y030614D01*
X012973Y030492D01*
X012949Y030371D01*
X012921Y030250D01*
X012890Y030130D01*
X012854Y030012D01*
X012815Y029894D01*
X012772Y029778D01*
X012726Y029664D01*
X012675Y029551D01*
X012621Y029439D01*
X012564Y029330D01*
X012503Y029222D01*
X012439Y029117D01*
X012371Y029013D01*
X012300Y028912D01*
X012225Y028813D01*
X012148Y028717D01*
X012067Y028623D01*
X011984Y028531D01*
X011897Y028443D01*
X011808Y028357D01*
X011716Y028274D01*
X011622Y028195D01*
X011525Y028118D01*
X011425Y028044D01*
X011323Y027974D01*
X011219Y027907D01*
X011113Y027843D01*
X011005Y027783D01*
X010895Y027727D01*
X010783Y027674D01*
X010670Y027624D01*
X010555Y027579D01*
X010438Y027537D01*
X010321Y027498D01*
X010202Y027464D01*
X010082Y027433D01*
X009961Y027407D01*
X009839Y027384D01*
X009717Y027365D01*
X009594Y027350D01*
X009471Y027339D01*
X009348Y027332D01*
X009224Y027329D01*
X009100Y027330D01*
X008977Y027335D01*
X008853Y027344D01*
X008730Y027357D01*
X008608Y027374D01*
X008486Y027395D01*
X008364Y027419D01*
X008244Y027448D01*
X008125Y027481D01*
X008006Y027517D01*
X007889Y027557D01*
X007774Y027601D01*
X007659Y027649D01*
X007547Y027700D01*
X007436Y027755D01*
X007327Y027813D01*
X007220Y027875D01*
X007115Y027940D01*
X007012Y028009D01*
X006911Y028081D01*
X006813Y028156D01*
X006717Y028234D01*
X006624Y028315D01*
X006533Y028400D01*
X006445Y028487D01*
X006360Y028577D01*
X006278Y028669D01*
X006199Y028764D01*
X006123Y028862D01*
X006050Y028962D01*
X005981Y029065D01*
X005915Y029169D01*
X005852Y029276D01*
X005793Y029384D01*
X005737Y029495D01*
X005685Y029607D01*
X005636Y029721D01*
X005592Y029836D01*
X005551Y029953D01*
X005513Y030071D01*
X005480Y030190D01*
X005450Y030310D01*
X005425Y030431D01*
X005403Y030553D01*
X005385Y030675D01*
X005371Y030798D01*
X005361Y030922D01*
X005355Y031045D01*
X005353Y031169D01*
X005755Y032982D02*
X005702Y033049D01*
X005646Y033113D01*
X005586Y033175D01*
X005525Y033234D01*
X005460Y033290D01*
X005394Y033344D01*
X005325Y033395D01*
X005254Y033442D01*
X005180Y033487D01*
X005106Y033528D01*
X005029Y033566D01*
X004951Y033600D01*
X004871Y033631D01*
X004790Y033659D01*
X004708Y033683D01*
X004625Y033703D01*
X004541Y033720D01*
X004456Y033733D01*
X007192Y034544D02*
X007179Y034628D01*
X007162Y034712D01*
X007142Y034795D01*
X007118Y034877D01*
X007090Y034958D01*
X007059Y035038D01*
X007025Y035116D01*
X006987Y035193D01*
X006946Y035268D01*
X006901Y035341D01*
X006854Y035412D01*
X006803Y035481D01*
X006750Y035548D01*
X006693Y035612D01*
X006634Y035674D01*
X006572Y035733D01*
X006508Y035789D01*
X006441Y035843D01*
X005318Y031169D02*
X005238Y031200D01*
X005157Y031227D01*
X005075Y031251D01*
X004992Y031272D01*
X004908Y031288D01*
X004824Y031301D01*
X004739Y031311D01*
X004653Y031316D01*
X004568Y031318D01*
X004483Y031316D01*
X004397Y031311D01*
X004312Y031301D01*
X004228Y031288D01*
X004144Y031272D01*
X004061Y031251D01*
X003979Y031227D01*
X003898Y031200D01*
X003818Y031169D01*
X004519Y028542D02*
X004573Y028609D01*
X004629Y028673D01*
X004688Y028735D01*
X004750Y028794D01*
X004814Y028851D01*
X004881Y028904D01*
X004950Y028955D01*
X005021Y029002D01*
X005094Y029047D01*
X005169Y029088D01*
X005246Y029126D01*
X005324Y029160D01*
X005404Y029191D01*
X005485Y029219D01*
X005567Y029243D01*
X005650Y029263D01*
X005734Y029280D01*
X005818Y029293D01*
X007255Y027794D02*
X007188Y027741D01*
X007124Y027685D01*
X007062Y027625D01*
X007003Y027564D01*
X006947Y027499D01*
X006893Y027433D01*
X006842Y027364D01*
X006795Y027293D01*
X006750Y027219D01*
X006709Y027145D01*
X006671Y027068D01*
X006637Y026990D01*
X006606Y026910D01*
X006578Y026829D01*
X006554Y026747D01*
X006534Y026664D01*
X006517Y026580D01*
X006504Y026495D01*
X011131Y027794D02*
X011201Y027742D01*
X011268Y027686D01*
X011334Y027628D01*
X011396Y027567D01*
X011456Y027504D01*
X011513Y027438D01*
X011567Y027369D01*
X011619Y027298D01*
X011667Y027225D01*
X011711Y027150D01*
X011753Y027073D01*
X011791Y026994D01*
X011825Y026914D01*
X011856Y026832D01*
X011884Y026750D01*
X011908Y026665D01*
X011928Y026580D01*
X011944Y026495D01*
X013867Y028481D02*
X013814Y028548D01*
X013758Y028612D01*
X013698Y028674D01*
X013637Y028733D01*
X013572Y028789D01*
X013506Y028843D01*
X013437Y028894D01*
X013366Y028941D01*
X013292Y028986D01*
X013218Y029027D01*
X013141Y029065D01*
X013063Y029099D01*
X012983Y029130D01*
X012902Y029158D01*
X012820Y029182D01*
X012737Y029202D01*
X012653Y029219D01*
X012568Y029232D01*
X013068Y031169D02*
X013148Y031200D01*
X013229Y031227D01*
X013311Y031251D01*
X013394Y031272D01*
X013478Y031288D01*
X013562Y031301D01*
X013647Y031311D01*
X013733Y031316D01*
X013818Y031318D01*
X013903Y031316D01*
X013989Y031311D01*
X014074Y031301D01*
X014158Y031288D01*
X014242Y031272D01*
X014325Y031251D01*
X014407Y031227D01*
X014488Y031200D01*
X014568Y031169D01*
X013867Y033794D02*
X013783Y033781D01*
X013699Y033764D01*
X013616Y033744D01*
X013534Y033720D01*
X013453Y033692D01*
X013373Y033661D01*
X013295Y033627D01*
X013218Y033589D01*
X013143Y033548D01*
X013070Y033503D01*
X012999Y033456D01*
X012930Y033405D01*
X012863Y033352D01*
X012799Y033295D01*
X012737Y033236D01*
X012678Y033174D01*
X012622Y033110D01*
X012568Y033043D01*
X011130Y034544D02*
X011143Y034629D01*
X011160Y034713D01*
X011180Y034796D01*
X011204Y034878D01*
X011232Y034959D01*
X011263Y035039D01*
X011297Y035117D01*
X011335Y035194D01*
X011376Y035268D01*
X011421Y035342D01*
X011468Y035413D01*
X011519Y035482D01*
X011573Y035548D01*
X011629Y035613D01*
X011688Y035674D01*
X011750Y035734D01*
X011814Y035790D01*
X011881Y035843D01*
D13*
X013040Y003118D03*
X010253Y002952D03*
X009268Y002952D03*
D14*
X009280Y002960D03*
X010249Y002960D03*
X013044Y003126D03*
D15*
X013048Y003133D03*
X010245Y002968D03*
X009284Y002968D03*
D16*
X009284Y002976D03*
X009292Y002984D03*
X010237Y002984D03*
X013056Y003149D03*
D17*
X013052Y003141D03*
X011477Y003456D03*
X010241Y002976D03*
D18*
X010229Y002992D03*
X010229Y003000D03*
X009300Y003000D03*
X009292Y002992D03*
X013064Y003157D03*
D19*
X013075Y003181D03*
X010217Y003015D03*
X009312Y003015D03*
X009304Y003007D03*
D20*
X010221Y003007D03*
X010056Y004433D03*
X009654Y004433D03*
X013072Y003173D03*
D21*
X013083Y003196D03*
X010209Y003031D03*
X009320Y003031D03*
X009312Y003023D03*
D22*
X010213Y003023D03*
X013079Y003189D03*
D23*
X013091Y003204D03*
X011886Y004000D03*
X010713Y004000D03*
X010201Y003047D03*
X010201Y003039D03*
X009327Y003047D03*
X009320Y003039D03*
D24*
X009331Y003055D03*
X009339Y003063D03*
X010190Y003063D03*
X013103Y003228D03*
D25*
X013099Y003220D03*
X010194Y003055D03*
D26*
X010182Y003078D03*
X009347Y003078D03*
X009339Y003070D03*
X012489Y003637D03*
X012497Y003614D03*
X012505Y003590D03*
X012512Y003567D03*
X012520Y003543D03*
X012528Y003519D03*
X012694Y003519D03*
X012701Y003535D03*
X012701Y003543D03*
X013111Y003244D03*
D27*
X013107Y003236D03*
X014036Y003322D03*
X010186Y003070D03*
X010052Y004425D03*
X009650Y004425D03*
D28*
X009355Y003094D03*
X009347Y003086D03*
X012371Y003984D03*
X012371Y003992D03*
X012379Y003976D03*
X012379Y003968D03*
X012386Y003944D03*
X012386Y003937D03*
X012394Y003929D03*
X012394Y003921D03*
X012394Y003913D03*
X012402Y003905D03*
X012402Y003897D03*
X012402Y003889D03*
X012410Y003881D03*
X012410Y003874D03*
X012410Y003866D03*
X012418Y003858D03*
X012418Y003850D03*
X012418Y003842D03*
X012426Y003834D03*
X012426Y003826D03*
X012434Y003803D03*
X012442Y003787D03*
X012442Y003779D03*
X012449Y003756D03*
X012457Y003732D03*
X012465Y003708D03*
X012473Y003685D03*
X012733Y003637D03*
X012741Y003661D03*
X012749Y003677D03*
X012749Y003685D03*
X012757Y003700D03*
X012757Y003708D03*
X012757Y003716D03*
X012764Y003724D03*
X012764Y003732D03*
X012764Y003740D03*
X012772Y003748D03*
X012772Y003756D03*
X012772Y003763D03*
X012780Y003771D03*
X012780Y003779D03*
X012788Y003803D03*
X012796Y003826D03*
X012804Y003850D03*
X012363Y004015D03*
X012355Y004039D03*
X012347Y004063D03*
X012339Y004086D03*
X013119Y003259D03*
X013119Y003252D03*
D29*
X012698Y003527D03*
X012705Y003551D03*
X012705Y003559D03*
X012713Y003567D03*
X012713Y003574D03*
X012713Y003582D03*
X012721Y003590D03*
X012721Y003598D03*
X012721Y003606D03*
X012729Y003614D03*
X012729Y003622D03*
X012729Y003630D03*
X012737Y003645D03*
X012737Y003653D03*
X012745Y003669D03*
X012753Y003693D03*
X012501Y003606D03*
X012501Y003598D03*
X012509Y003582D03*
X012509Y003574D03*
X012516Y003559D03*
X012516Y003551D03*
X012524Y003535D03*
X012524Y003527D03*
X012493Y003622D03*
X012493Y003630D03*
X012485Y003645D03*
X012485Y003653D03*
X012485Y003661D03*
X012477Y003669D03*
X012477Y003677D03*
X012469Y003693D03*
X012469Y003700D03*
X012461Y003716D03*
X012461Y003724D03*
X012453Y003740D03*
X012453Y003748D03*
X012446Y003763D03*
X012446Y003771D03*
X012438Y003795D03*
X012430Y003811D03*
X012430Y003819D03*
X011886Y003322D03*
X010713Y003322D03*
X010178Y003086D03*
D30*
X010170Y003094D03*
X009359Y004354D03*
X009359Y004370D03*
X009359Y004385D03*
X009359Y004401D03*
X009359Y004417D03*
X009359Y004433D03*
X012225Y004433D03*
X012272Y004291D03*
X012272Y004283D03*
X012288Y004244D03*
X012288Y004236D03*
X012296Y004220D03*
X012296Y004212D03*
X012304Y004196D03*
X012304Y004189D03*
X012312Y004173D03*
X012312Y004165D03*
X012320Y004149D03*
X012320Y004141D03*
X012327Y004133D03*
X012327Y004126D03*
X012327Y004118D03*
X012327Y004110D03*
X012335Y004102D03*
X012335Y004094D03*
X012343Y004078D03*
X012343Y004070D03*
X012351Y004055D03*
X012351Y004047D03*
X012359Y004031D03*
X012359Y004023D03*
X012367Y004007D03*
X012367Y004000D03*
X012383Y003960D03*
X012383Y003952D03*
X012792Y003819D03*
X012792Y003811D03*
X012784Y003795D03*
X012784Y003787D03*
X012800Y003834D03*
X012800Y003842D03*
X012808Y003858D03*
X012808Y003866D03*
X012808Y003874D03*
X012816Y003881D03*
X012816Y003889D03*
X012823Y003905D03*
X012823Y003913D03*
X012831Y003929D03*
X012831Y003937D03*
X012839Y003960D03*
X012847Y003984D03*
D31*
X012611Y003346D03*
X012611Y003338D03*
X012107Y003519D03*
X012107Y003527D03*
X012115Y003543D03*
X012115Y003551D03*
X012123Y003567D03*
X012123Y003574D03*
X012123Y003582D03*
X012123Y003590D03*
X012123Y003606D03*
X012131Y003614D03*
X012131Y003630D03*
X012131Y003637D03*
X012131Y003645D03*
X012131Y003653D03*
X012131Y003661D03*
X012131Y003669D03*
X012131Y003677D03*
X012131Y003685D03*
X012131Y003693D03*
X012131Y003708D03*
X012123Y003716D03*
X012123Y003732D03*
X012123Y003740D03*
X012123Y003748D03*
X012115Y003763D03*
X012115Y003771D03*
X012115Y003779D03*
X012107Y003787D03*
X012107Y003795D03*
X011674Y003787D03*
X011666Y003779D03*
X011666Y003771D03*
X011666Y003763D03*
X011658Y003748D03*
X011658Y003740D03*
X011658Y003732D03*
X011658Y003724D03*
X011650Y003716D03*
X011658Y003708D03*
X011650Y003700D03*
X011650Y003693D03*
X011650Y003685D03*
X011650Y003677D03*
X011650Y003669D03*
X011650Y003661D03*
X011650Y003653D03*
X011650Y003645D03*
X011650Y003637D03*
X011650Y003630D03*
X011650Y003622D03*
X011658Y003614D03*
X011650Y003606D03*
X011658Y003598D03*
X011658Y003590D03*
X011658Y003582D03*
X011658Y003574D03*
X011658Y003559D03*
X011666Y003551D03*
X011666Y003543D03*
X011398Y003330D03*
X011296Y003480D03*
X011296Y003488D03*
X011288Y003543D03*
X011288Y003559D03*
X011288Y003574D03*
X011288Y003590D03*
X011288Y003606D03*
X011288Y003622D03*
X011288Y003637D03*
X011288Y003653D03*
X011288Y003669D03*
X011288Y003685D03*
X011288Y003700D03*
X011288Y003716D03*
X011288Y003732D03*
X011288Y003748D03*
X011288Y003763D03*
X011288Y003779D03*
X011288Y003795D03*
X011288Y003811D03*
X011288Y003826D03*
X011288Y003842D03*
X011288Y003858D03*
X011288Y003874D03*
X011288Y003889D03*
X011288Y003905D03*
X011288Y003921D03*
X011288Y003937D03*
X011288Y003952D03*
X011288Y003968D03*
X011288Y003984D03*
X011288Y004000D03*
X011288Y004015D03*
X011288Y004031D03*
X011288Y004047D03*
X011288Y004063D03*
X011288Y004078D03*
X011288Y004252D03*
X011288Y004267D03*
X011288Y004283D03*
X011288Y004299D03*
X011288Y004315D03*
X011288Y004330D03*
X011288Y004346D03*
X011288Y004362D03*
X011288Y004378D03*
X011288Y004393D03*
X011288Y004409D03*
X011288Y004425D03*
X010934Y003795D03*
X010942Y003779D03*
X010942Y003771D03*
X010942Y003763D03*
X010949Y003756D03*
X010949Y003748D03*
X010949Y003740D03*
X010949Y003732D03*
X010949Y003716D03*
X010957Y003708D03*
X010957Y003693D03*
X010957Y003685D03*
X010957Y003677D03*
X010957Y003669D03*
X010957Y003661D03*
X010957Y003653D03*
X010957Y003645D03*
X010957Y003637D03*
X010957Y003630D03*
X010957Y003614D03*
X010949Y003606D03*
X010949Y003590D03*
X010949Y003582D03*
X010949Y003574D03*
X010949Y003567D03*
X010942Y003559D03*
X010942Y003551D03*
X010942Y003543D03*
X010942Y003535D03*
X010934Y003527D03*
X010934Y003519D03*
X010493Y003543D03*
X010493Y003551D03*
X010485Y003567D03*
X010485Y003574D03*
X010485Y003582D03*
X010485Y003590D03*
X010485Y003598D03*
X010477Y003606D03*
X010485Y003614D03*
X010477Y003622D03*
X010477Y003630D03*
X010477Y003637D03*
X010477Y003645D03*
X010477Y003653D03*
X010477Y003661D03*
X010477Y003669D03*
X010477Y003677D03*
X010477Y003685D03*
X010477Y003693D03*
X010477Y003700D03*
X010485Y003708D03*
X010477Y003716D03*
X010485Y003724D03*
X010485Y003732D03*
X010485Y003740D03*
X010485Y003748D03*
X010493Y003756D03*
X010493Y003771D03*
X010493Y003779D03*
X010501Y003787D03*
X010501Y003795D03*
X010162Y004204D03*
X010162Y004220D03*
X010162Y004228D03*
X010162Y004236D03*
X010162Y004244D03*
X010154Y004259D03*
X009760Y004204D03*
X009760Y004189D03*
X009359Y004189D03*
X009359Y004204D03*
X009359Y004173D03*
X009359Y004157D03*
X009359Y004141D03*
X009359Y004126D03*
X009359Y004110D03*
X009359Y004094D03*
X009359Y004078D03*
X009359Y004063D03*
X009359Y004047D03*
X009359Y004031D03*
X009359Y004015D03*
X009359Y004000D03*
X009359Y003984D03*
X009359Y003968D03*
X009359Y003952D03*
X009359Y003937D03*
X009359Y003921D03*
X009359Y003905D03*
X009359Y003889D03*
X009359Y003874D03*
X009359Y003858D03*
X009359Y003842D03*
X009359Y003826D03*
X009359Y003811D03*
X009359Y003795D03*
X009359Y003779D03*
X009359Y003763D03*
X009359Y003748D03*
X009359Y003732D03*
X009359Y003716D03*
X009359Y003700D03*
X009359Y003685D03*
X009359Y003669D03*
X009359Y003653D03*
X009359Y003637D03*
X009359Y003622D03*
X009359Y003606D03*
X009359Y003590D03*
X009359Y003574D03*
X009359Y003559D03*
X009359Y003543D03*
X009359Y003527D03*
X009359Y003511D03*
X009359Y003496D03*
X009359Y003480D03*
X009359Y003464D03*
X009359Y003448D03*
X009359Y003433D03*
X009359Y003417D03*
X009359Y003401D03*
X009359Y003385D03*
X009359Y003370D03*
X009359Y003354D03*
X009359Y003338D03*
X009359Y003322D03*
X009359Y003307D03*
X009359Y003291D03*
X009359Y003275D03*
X009359Y003259D03*
X009359Y003244D03*
X009359Y003228D03*
X009359Y003212D03*
X009359Y003196D03*
X009359Y003181D03*
X009359Y003165D03*
X009359Y003149D03*
X009359Y003133D03*
X009359Y003118D03*
X009359Y003102D03*
X012225Y004425D03*
X013509Y003511D03*
X013509Y003504D03*
X013509Y003496D03*
X013516Y003488D03*
X013619Y003330D03*
X013816Y003535D03*
X013808Y003551D03*
X013808Y003559D03*
X013808Y003567D03*
X013800Y003590D03*
X013800Y003598D03*
X013800Y003606D03*
X013800Y003614D03*
X013800Y003622D03*
X013800Y003630D03*
X013800Y003637D03*
X013800Y003645D03*
X013800Y003653D03*
X013800Y003661D03*
X013800Y003669D03*
X013800Y003677D03*
X013800Y003685D03*
X013800Y003693D03*
X013800Y003700D03*
X013800Y003708D03*
X013800Y003716D03*
X013800Y003724D03*
X013800Y003732D03*
X013808Y003740D03*
X013808Y003756D03*
X013808Y003763D03*
X013816Y003779D03*
X013816Y003787D03*
X014249Y003803D03*
X014257Y003787D03*
X014257Y003779D03*
X014264Y003763D03*
X014264Y003756D03*
X014264Y003748D03*
X014272Y003740D03*
X014272Y003724D03*
X014272Y003716D03*
X014272Y003708D03*
X014272Y003700D03*
X014272Y003693D03*
X014272Y003685D03*
X014272Y003677D03*
X014272Y003669D03*
X014272Y003653D03*
X014272Y003645D03*
X014272Y003637D03*
X014272Y003630D03*
X014272Y003622D03*
X014272Y003614D03*
X014272Y003606D03*
X014272Y003598D03*
X014272Y003590D03*
X014272Y003582D03*
X014264Y003567D03*
X014264Y003559D03*
X014264Y003551D03*
X014257Y003543D03*
X014257Y003535D03*
D32*
X014268Y003574D03*
X014276Y003661D03*
X014268Y003732D03*
X013804Y003582D03*
X013505Y003582D03*
X013505Y003574D03*
X013505Y003567D03*
X013505Y003559D03*
X013505Y003551D03*
X013505Y003543D03*
X013505Y003535D03*
X013505Y003527D03*
X013505Y003519D03*
X013505Y003590D03*
X013505Y003598D03*
X013505Y003606D03*
X013505Y003614D03*
X013505Y003622D03*
X013505Y003630D03*
X013505Y003637D03*
X013505Y003645D03*
X013505Y003653D03*
X013505Y003661D03*
X013505Y003669D03*
X013505Y003677D03*
X013505Y003685D03*
X013505Y003693D03*
X013505Y003700D03*
X013505Y003708D03*
X013505Y003716D03*
X013505Y003724D03*
X013505Y003732D03*
X013505Y003740D03*
X013505Y003748D03*
X013505Y003756D03*
X013505Y003763D03*
X013505Y003771D03*
X013505Y003779D03*
X013505Y003787D03*
X013505Y003795D03*
X013505Y003803D03*
X013505Y003811D03*
X013505Y003819D03*
X013505Y003826D03*
X013505Y003834D03*
X013505Y003842D03*
X013505Y003850D03*
X013505Y003858D03*
X013505Y003866D03*
X013505Y003874D03*
X013505Y003881D03*
X013505Y003889D03*
X013505Y003897D03*
X013505Y003905D03*
X013505Y003913D03*
X013505Y003921D03*
X013505Y003929D03*
X013505Y003937D03*
X013505Y003944D03*
X013505Y003952D03*
X013505Y003960D03*
X013505Y003968D03*
X013505Y003976D03*
X013505Y003984D03*
X013505Y003992D03*
X013505Y004000D03*
X013505Y004007D03*
X013505Y004015D03*
X013505Y004023D03*
X013505Y004031D03*
X013505Y004039D03*
X013505Y004047D03*
X013505Y004055D03*
X013505Y004063D03*
X013505Y004070D03*
X013505Y004078D03*
X013505Y004086D03*
X013505Y004094D03*
X013505Y004102D03*
X013505Y004110D03*
X013505Y004118D03*
X013505Y004126D03*
X013505Y004133D03*
X013505Y004141D03*
X013505Y004149D03*
X013505Y004157D03*
X013505Y004165D03*
X013505Y004173D03*
X013505Y004181D03*
X013505Y004189D03*
X013505Y004196D03*
X013505Y004204D03*
X013505Y004212D03*
X013505Y004220D03*
X013505Y004228D03*
X013505Y004236D03*
X013505Y004244D03*
X013505Y004252D03*
X013505Y004259D03*
X013505Y004267D03*
X013505Y004275D03*
X013505Y004283D03*
X013505Y004291D03*
X013505Y004299D03*
X013505Y004307D03*
X013505Y004315D03*
X013505Y004322D03*
X013505Y004330D03*
X013505Y004338D03*
X013505Y004346D03*
X013505Y004354D03*
X013505Y004362D03*
X013505Y004370D03*
X013505Y004378D03*
X013505Y004385D03*
X013505Y004393D03*
X013505Y004401D03*
X013505Y004409D03*
X013505Y004417D03*
X013505Y004425D03*
X013505Y004433D03*
X013127Y004244D03*
X013127Y004236D03*
X013127Y004228D03*
X013127Y004220D03*
X013127Y004212D03*
X013127Y004204D03*
X013127Y004196D03*
X013127Y004189D03*
X013127Y004181D03*
X013127Y004173D03*
X013127Y004165D03*
X013127Y004157D03*
X013127Y004149D03*
X013127Y004141D03*
X013127Y004133D03*
X013127Y004126D03*
X013127Y004118D03*
X013127Y004110D03*
X013127Y004102D03*
X013127Y003984D03*
X013127Y003976D03*
X013127Y003968D03*
X013127Y003960D03*
X013127Y003952D03*
X013127Y003944D03*
X013127Y003937D03*
X013127Y003929D03*
X013127Y003921D03*
X013127Y003913D03*
X013127Y003905D03*
X013127Y003897D03*
X013127Y003889D03*
X013127Y003881D03*
X013127Y003874D03*
X013127Y003866D03*
X013127Y003858D03*
X013127Y003850D03*
X013127Y003842D03*
X013127Y003834D03*
X013127Y003826D03*
X013127Y003819D03*
X013127Y003811D03*
X013127Y003803D03*
X013127Y003795D03*
X013127Y003787D03*
X013127Y003779D03*
X013127Y003771D03*
X013127Y003763D03*
X013127Y003756D03*
X013127Y003748D03*
X013127Y003740D03*
X013127Y003732D03*
X013127Y003724D03*
X013127Y003716D03*
X013127Y003708D03*
X013127Y003700D03*
X013127Y003693D03*
X013127Y003685D03*
X013127Y003677D03*
X013127Y003669D03*
X013127Y003661D03*
X013127Y003653D03*
X013127Y003645D03*
X013127Y003637D03*
X013127Y003630D03*
X013127Y003622D03*
X013127Y003614D03*
X013127Y003606D03*
X013127Y003598D03*
X013127Y003590D03*
X013127Y003582D03*
X013127Y003574D03*
X013127Y003567D03*
X013127Y003559D03*
X013127Y003551D03*
X013127Y003543D03*
X013127Y003535D03*
X013127Y003527D03*
X013127Y003519D03*
X013127Y003511D03*
X013127Y003504D03*
X013127Y003496D03*
X013127Y003488D03*
X013127Y003480D03*
X013127Y003472D03*
X013127Y003464D03*
X013127Y003456D03*
X013127Y003448D03*
X013127Y003441D03*
X013127Y003433D03*
X013127Y003425D03*
X013127Y003417D03*
X013127Y003409D03*
X013127Y003401D03*
X013127Y003393D03*
X013127Y003385D03*
X013127Y003378D03*
X013127Y003370D03*
X013127Y003362D03*
X013127Y003354D03*
X013127Y003346D03*
X013127Y003338D03*
X013127Y003330D03*
X013127Y003322D03*
X013127Y003315D03*
X013127Y003307D03*
X013127Y003299D03*
X013127Y003291D03*
X013127Y003283D03*
X013127Y003275D03*
X013127Y003267D03*
X012820Y003897D03*
X012827Y003921D03*
X012835Y003944D03*
X012835Y003952D03*
X012843Y003968D03*
X012843Y003976D03*
X012316Y004157D03*
X012308Y004181D03*
X012300Y004204D03*
X012292Y004228D03*
X012284Y004252D03*
X012284Y004259D03*
X012276Y004267D03*
X012276Y004275D03*
X012268Y004299D03*
X012268Y004307D03*
X012260Y004315D03*
X012260Y004322D03*
X012260Y004330D03*
X012253Y004338D03*
X012253Y004346D03*
X012253Y004354D03*
X012245Y004362D03*
X012245Y004370D03*
X012245Y004378D03*
X012237Y004385D03*
X012237Y004393D03*
X012237Y004401D03*
X012229Y004409D03*
X012229Y004417D03*
X012119Y003756D03*
X012127Y003724D03*
X012127Y003700D03*
X012127Y003622D03*
X012127Y003598D03*
X012119Y003559D03*
X011292Y003567D03*
X011292Y003582D03*
X011292Y003598D03*
X011292Y003614D03*
X011292Y003630D03*
X011292Y003645D03*
X011292Y003661D03*
X011292Y003677D03*
X011292Y003693D03*
X011292Y003708D03*
X011292Y003724D03*
X011292Y003740D03*
X011292Y003756D03*
X011292Y003771D03*
X011292Y003787D03*
X011292Y003803D03*
X011292Y003819D03*
X011292Y003834D03*
X011292Y003850D03*
X011292Y003866D03*
X011292Y003881D03*
X011292Y003897D03*
X011292Y003913D03*
X011292Y003929D03*
X011292Y003944D03*
X011292Y003960D03*
X011292Y003976D03*
X011292Y003992D03*
X011292Y004007D03*
X011292Y004023D03*
X011292Y004039D03*
X011292Y004055D03*
X011292Y004070D03*
X011292Y004244D03*
X011292Y004259D03*
X011292Y004275D03*
X011292Y004291D03*
X011292Y004307D03*
X011292Y004322D03*
X011292Y004338D03*
X011292Y004354D03*
X011292Y004370D03*
X011292Y004385D03*
X011292Y004401D03*
X011292Y004417D03*
X011292Y004433D03*
X010953Y003724D03*
X010953Y003700D03*
X010953Y003622D03*
X010953Y003598D03*
X011292Y003551D03*
X011292Y003535D03*
X011292Y003527D03*
X011292Y003519D03*
X011292Y003511D03*
X011292Y003504D03*
X011292Y003496D03*
X010166Y003496D03*
X010166Y003504D03*
X010166Y003511D03*
X010166Y003519D03*
X010166Y003527D03*
X010166Y003535D03*
X010166Y003543D03*
X010166Y003551D03*
X010166Y003559D03*
X010166Y003567D03*
X010166Y003574D03*
X010166Y003582D03*
X010166Y003590D03*
X010166Y003598D03*
X010166Y003606D03*
X010166Y003614D03*
X010166Y003622D03*
X010166Y003630D03*
X010166Y003637D03*
X010166Y003645D03*
X010166Y003653D03*
X010166Y003661D03*
X010166Y003669D03*
X010166Y003677D03*
X010166Y003685D03*
X010166Y003693D03*
X010166Y003700D03*
X010166Y003708D03*
X010166Y003716D03*
X010166Y003724D03*
X010166Y003732D03*
X010166Y003740D03*
X010166Y003748D03*
X010166Y003756D03*
X010166Y003763D03*
X010166Y003771D03*
X010166Y003779D03*
X010166Y003787D03*
X010166Y003795D03*
X010166Y003803D03*
X010166Y003811D03*
X010166Y003819D03*
X010166Y003826D03*
X010166Y003834D03*
X010166Y003842D03*
X010166Y003850D03*
X010166Y003858D03*
X010166Y003866D03*
X010166Y003874D03*
X010166Y003881D03*
X010166Y003889D03*
X010166Y003897D03*
X010166Y003905D03*
X010166Y003913D03*
X010166Y003921D03*
X010166Y003929D03*
X010166Y003937D03*
X010166Y003944D03*
X010166Y003952D03*
X010166Y003960D03*
X010166Y003968D03*
X010166Y003976D03*
X010166Y003984D03*
X010166Y003992D03*
X010166Y004000D03*
X010166Y004007D03*
X010166Y004015D03*
X010166Y004023D03*
X010166Y004031D03*
X010166Y004039D03*
X010166Y004047D03*
X010166Y004055D03*
X010166Y004063D03*
X010166Y004070D03*
X010166Y004078D03*
X010166Y004086D03*
X010166Y004094D03*
X010166Y004102D03*
X010166Y004110D03*
X010166Y004118D03*
X010166Y004126D03*
X010166Y004133D03*
X010166Y004141D03*
X010166Y004149D03*
X010166Y004157D03*
X010166Y004165D03*
X010166Y004173D03*
X010166Y004181D03*
X010166Y004189D03*
X010166Y004196D03*
X010166Y004212D03*
X010056Y004417D03*
X009764Y004212D03*
X009764Y004196D03*
X009764Y004181D03*
X009764Y004173D03*
X009764Y004165D03*
X009764Y004157D03*
X009764Y004149D03*
X009764Y004141D03*
X009764Y004133D03*
X009764Y004126D03*
X009764Y004118D03*
X009764Y004110D03*
X009764Y004102D03*
X009764Y004094D03*
X009764Y004086D03*
X009764Y004078D03*
X009764Y004070D03*
X009764Y004063D03*
X009764Y004055D03*
X009764Y004047D03*
X009764Y004039D03*
X009764Y004031D03*
X009764Y004023D03*
X009764Y004015D03*
X009764Y004007D03*
X009764Y004000D03*
X009764Y003992D03*
X009764Y003984D03*
X009764Y003976D03*
X009764Y003968D03*
X009764Y003960D03*
X009764Y003952D03*
X009764Y003944D03*
X009764Y003937D03*
X009764Y003929D03*
X009764Y003921D03*
X009764Y003913D03*
X009764Y003905D03*
X009764Y003897D03*
X009764Y003889D03*
X009764Y003881D03*
X009764Y003874D03*
X009764Y003866D03*
X009764Y003858D03*
X009764Y003850D03*
X009764Y003842D03*
X009764Y003834D03*
X009764Y003826D03*
X009764Y003819D03*
X009764Y003811D03*
X009764Y003803D03*
X009764Y003795D03*
X009764Y003787D03*
X009764Y003779D03*
X009764Y003771D03*
X009764Y003763D03*
X009363Y003756D03*
X009363Y003771D03*
X009363Y003787D03*
X009363Y003803D03*
X009363Y003819D03*
X009363Y003834D03*
X009363Y003850D03*
X009363Y003866D03*
X009363Y003881D03*
X009363Y003897D03*
X009363Y003913D03*
X009363Y003929D03*
X009363Y003944D03*
X009363Y003960D03*
X009363Y003976D03*
X009363Y003992D03*
X009363Y004007D03*
X009363Y004023D03*
X009363Y004039D03*
X009363Y004055D03*
X009363Y004070D03*
X009363Y004086D03*
X009363Y004102D03*
X009363Y004118D03*
X009363Y004133D03*
X009363Y004149D03*
X009363Y004165D03*
X009363Y004181D03*
X009363Y004196D03*
X009363Y004212D03*
X009355Y004346D03*
X009355Y004362D03*
X009355Y004378D03*
X009355Y004393D03*
X009355Y004409D03*
X009355Y004425D03*
X009654Y004417D03*
X009363Y003740D03*
X009363Y003724D03*
X009363Y003708D03*
X009363Y003693D03*
X009363Y003677D03*
X009363Y003661D03*
X009363Y003645D03*
X009363Y003630D03*
X009363Y003614D03*
X009363Y003598D03*
X009363Y003582D03*
X009363Y003567D03*
X009363Y003551D03*
X009363Y003535D03*
X009363Y003519D03*
X009363Y003504D03*
X009363Y003488D03*
X009363Y003472D03*
X009363Y003456D03*
X009363Y003441D03*
X009363Y003425D03*
X009363Y003409D03*
X009363Y003393D03*
X009363Y003378D03*
X009363Y003362D03*
X009363Y003346D03*
X009363Y003330D03*
X009363Y003315D03*
X009363Y003299D03*
X009363Y003283D03*
X009363Y003267D03*
X009363Y003252D03*
X009363Y003236D03*
X009363Y003220D03*
X009363Y003204D03*
X009363Y003189D03*
X009363Y003173D03*
X009363Y003157D03*
X009363Y003141D03*
X009363Y003126D03*
X009363Y003110D03*
X010166Y003110D03*
X010166Y003118D03*
X010166Y003126D03*
X010166Y003133D03*
X010166Y003141D03*
X010166Y003149D03*
X010166Y003157D03*
X010166Y003165D03*
X010166Y003173D03*
X010166Y003181D03*
X010166Y003189D03*
X010166Y003196D03*
X010166Y003204D03*
X010166Y003212D03*
X010166Y003220D03*
X010166Y003228D03*
X010166Y003236D03*
X010166Y003244D03*
X010166Y003252D03*
X010166Y003259D03*
X010166Y003267D03*
X010166Y003275D03*
X010166Y003283D03*
X010166Y003291D03*
X010166Y003299D03*
X010166Y003307D03*
X010166Y003315D03*
X010166Y003322D03*
X010166Y003330D03*
X010166Y003338D03*
X010166Y003346D03*
X010166Y003354D03*
X010166Y003362D03*
X010166Y003370D03*
X010166Y003378D03*
X010166Y003385D03*
X010166Y003393D03*
X010166Y003401D03*
X010166Y003409D03*
X010166Y003417D03*
X010166Y003425D03*
X010166Y003433D03*
X010166Y003441D03*
X010166Y003448D03*
X010166Y003456D03*
X010166Y003464D03*
X010166Y003472D03*
X010166Y003480D03*
X010166Y003488D03*
X010166Y003102D03*
D33*
X010713Y003315D03*
X010729Y003315D03*
X010721Y003866D03*
X010784Y004000D03*
X010005Y004433D03*
X009603Y004433D03*
X011469Y003322D03*
X011886Y003315D03*
X011902Y003315D03*
X012524Y003330D03*
X012540Y003330D03*
X012556Y003330D03*
X012572Y003330D03*
X012587Y003330D03*
X012603Y003330D03*
X012619Y003330D03*
X012635Y003330D03*
X012650Y003330D03*
X012666Y003330D03*
X012682Y003330D03*
X012698Y003330D03*
X013036Y003110D03*
X013548Y003322D03*
X013682Y003322D03*
X013949Y003322D03*
X014020Y003315D03*
X014036Y003315D03*
X014052Y003315D03*
X014123Y003322D03*
X014060Y003456D03*
X014036Y003866D03*
X014099Y004000D03*
X013209Y004094D03*
X013194Y004094D03*
X013178Y004094D03*
X013162Y004094D03*
X013146Y004094D03*
X013131Y004094D03*
X013115Y004094D03*
X013099Y004094D03*
X013083Y004094D03*
X013068Y004094D03*
X013052Y004094D03*
X013036Y004094D03*
D34*
X013068Y003165D03*
D35*
X013095Y003212D03*
X011394Y003322D03*
D36*
X013615Y003322D03*
X014032Y004000D03*
D37*
X013859Y003850D03*
X013859Y003464D03*
X014040Y003330D03*
X014213Y003464D03*
X013599Y003346D03*
X012064Y003464D03*
X011890Y003330D03*
X011717Y003464D03*
X010890Y003464D03*
X010717Y003330D03*
X010544Y003464D03*
X010135Y004291D03*
X009386Y004259D03*
X009379Y004252D03*
D38*
X009402Y004283D03*
X009788Y004275D03*
X010717Y003338D03*
X011355Y003401D03*
X011355Y003409D03*
X011355Y003417D03*
X011890Y003338D03*
X011749Y003866D03*
X012615Y003456D03*
X013575Y003409D03*
X013575Y003401D03*
X013575Y003393D03*
X014032Y003338D03*
D39*
X013843Y003480D03*
X013607Y003338D03*
X013843Y003834D03*
X013851Y003842D03*
X014221Y003842D03*
X012607Y003370D03*
X012087Y003488D03*
X012079Y003480D03*
X011701Y003480D03*
X011386Y003338D03*
X011308Y003464D03*
X010906Y003480D03*
X010906Y003842D03*
X010528Y003480D03*
X010142Y004283D03*
X010056Y004409D03*
X009772Y004236D03*
X009379Y004244D03*
X009371Y004236D03*
D40*
X010052Y004370D03*
X010721Y003346D03*
X011894Y003346D03*
X012611Y003511D03*
X014036Y003346D03*
D41*
X013855Y003472D03*
X014217Y003472D03*
X014217Y003850D03*
X012611Y003385D03*
X012611Y003378D03*
X012075Y003472D03*
X011705Y003472D03*
X011383Y003346D03*
X010902Y003472D03*
X010532Y003472D03*
X010532Y003842D03*
X010540Y003850D03*
X010894Y003850D03*
X011705Y003842D03*
X011713Y003850D03*
X012068Y003850D03*
X012075Y003842D03*
X009776Y004244D03*
X009650Y004409D03*
D42*
X010717Y003354D03*
X011890Y003354D03*
X011890Y003960D03*
D43*
X011721Y003858D03*
X011320Y003456D03*
X011375Y003354D03*
X010886Y003858D03*
X010548Y003858D03*
X009776Y004252D03*
X012611Y003409D03*
X012611Y003401D03*
X012611Y003393D03*
X013595Y003354D03*
X013871Y003858D03*
X014201Y003858D03*
D44*
X014233Y003834D03*
X014233Y003826D03*
X014241Y003819D03*
X014233Y003488D03*
X014225Y003480D03*
X013839Y003488D03*
X013831Y003496D03*
X013831Y003504D03*
X013524Y003464D03*
X013831Y003819D03*
X012611Y003362D03*
X012611Y003354D03*
X012091Y003496D03*
X012091Y003826D03*
X012083Y003834D03*
X011698Y003834D03*
X011690Y003826D03*
X011690Y003496D03*
X011698Y003488D03*
X010918Y003488D03*
X010918Y003496D03*
X010918Y003826D03*
X010910Y003834D03*
X010524Y003834D03*
X010516Y003826D03*
X010509Y003811D03*
X010516Y003496D03*
X010524Y003488D03*
X009768Y004228D03*
D45*
X009642Y004354D03*
X010044Y004354D03*
X014036Y003354D03*
D46*
X014036Y003362D03*
X011894Y003362D03*
X010721Y003362D03*
X010044Y004338D03*
D47*
X010056Y004401D03*
X009780Y004259D03*
X009654Y004401D03*
X009386Y004267D03*
X010717Y003984D03*
X010560Y003456D03*
X011371Y003362D03*
X011733Y003456D03*
X012056Y003858D03*
X011890Y003984D03*
X014198Y003456D03*
D48*
X013879Y003456D03*
X013587Y003370D03*
X013587Y003362D03*
X014036Y003984D03*
X012611Y003433D03*
X012611Y003425D03*
X012611Y003417D03*
X012052Y003456D03*
X011367Y003370D03*
X010879Y003456D03*
X009398Y004275D03*
D49*
X010717Y003370D03*
X011890Y003370D03*
X014032Y003370D03*
D50*
X014036Y003378D03*
X014036Y003937D03*
X011894Y003378D03*
X010721Y003378D03*
D51*
X010867Y003866D03*
X011363Y003378D03*
X009780Y004267D03*
X013583Y003378D03*
D52*
X011890Y003385D03*
X011890Y003929D03*
X010717Y003385D03*
D53*
X010572Y003866D03*
X010052Y004393D03*
X009650Y004393D03*
X011359Y003393D03*
X011359Y003385D03*
X012036Y003866D03*
X012611Y003448D03*
X012611Y003441D03*
X013579Y003385D03*
X013886Y003866D03*
X014186Y003866D03*
D54*
X014036Y003385D03*
D55*
X011890Y003393D03*
X010717Y003393D03*
X010717Y003921D03*
D56*
X010721Y003929D03*
X014036Y003929D03*
X014036Y003393D03*
D57*
X014040Y003401D03*
X011890Y003401D03*
X010717Y003401D03*
D58*
X010717Y003409D03*
X010717Y003905D03*
X011890Y003905D03*
X011890Y003409D03*
D59*
X011894Y003913D03*
X010721Y003913D03*
X014036Y003913D03*
X014036Y003409D03*
D60*
X011890Y003417D03*
X011890Y003897D03*
X010717Y003897D03*
X010717Y003417D03*
D61*
X011351Y003425D03*
X011351Y003433D03*
X011351Y003441D03*
X012611Y003464D03*
X012611Y003472D03*
X012611Y003480D03*
X013572Y003425D03*
X013572Y003417D03*
X010052Y004385D03*
X009650Y004385D03*
D62*
X014036Y003905D03*
X014036Y003417D03*
D63*
X014032Y003889D03*
X011890Y003889D03*
X011890Y003433D03*
X011890Y003425D03*
X010717Y003425D03*
X010717Y003433D03*
X010717Y003889D03*
D64*
X014036Y003897D03*
X014036Y003425D03*
D65*
X013568Y003433D03*
X013568Y003441D03*
X013568Y003448D03*
X013568Y003456D03*
X011890Y003976D03*
X011347Y003448D03*
X010717Y003976D03*
X009418Y004291D03*
D66*
X014036Y003881D03*
X014036Y003433D03*
D67*
X011890Y003441D03*
X011890Y003874D03*
X011890Y003881D03*
X010717Y003881D03*
X010717Y003874D03*
X010717Y003441D03*
D68*
X009548Y004338D03*
X014036Y003874D03*
X014036Y003448D03*
X014036Y003441D03*
D69*
X011890Y003448D03*
X010717Y003448D03*
D70*
X010512Y003504D03*
X010505Y003511D03*
X010505Y003519D03*
X010497Y003527D03*
X010497Y003535D03*
X010489Y003559D03*
X010489Y003763D03*
X010505Y003803D03*
X010512Y003819D03*
X010717Y003992D03*
X010922Y003819D03*
X010922Y003811D03*
X010930Y003803D03*
X010938Y003787D03*
X010930Y003511D03*
X010922Y003504D03*
X011300Y003472D03*
X011670Y003527D03*
X011670Y003535D03*
X011678Y003519D03*
X011678Y003511D03*
X011686Y003504D03*
X011662Y003567D03*
X011662Y003756D03*
X011670Y003795D03*
X011678Y003803D03*
X011678Y003811D03*
X011686Y003819D03*
X011890Y003992D03*
X012095Y003819D03*
X012095Y003811D03*
X012103Y003803D03*
X012111Y003535D03*
X012103Y003511D03*
X012095Y003504D03*
X013512Y003480D03*
X013520Y003472D03*
X013812Y003543D03*
X013820Y003527D03*
X013820Y003519D03*
X013827Y003511D03*
X013804Y003574D03*
X013804Y003748D03*
X013812Y003771D03*
X013820Y003795D03*
X013827Y003803D03*
X013827Y003811D03*
X013835Y003826D03*
X014040Y003992D03*
X014245Y003811D03*
X014253Y003795D03*
X014260Y003771D03*
X014253Y003527D03*
X014253Y003519D03*
X014245Y003511D03*
X014245Y003504D03*
X014237Y003496D03*
X010158Y004252D03*
X010150Y004267D03*
X010150Y004275D03*
X009764Y004220D03*
X009371Y004228D03*
X009363Y004220D03*
D71*
X012611Y003496D03*
X012611Y003488D03*
X014036Y003976D03*
D72*
X012615Y003504D03*
X010048Y004378D03*
X009788Y004283D03*
X009646Y004378D03*
D73*
X011886Y003921D03*
X014036Y003921D03*
D74*
X011890Y003937D03*
X010717Y003937D03*
D75*
X010717Y003944D03*
X011890Y003944D03*
D76*
X014036Y003944D03*
D77*
X011890Y003952D03*
X010717Y003952D03*
X010040Y004330D03*
D78*
X014036Y003952D03*
D79*
X014036Y003960D03*
X010721Y003960D03*
X010044Y004346D03*
X009642Y004346D03*
D80*
X009642Y004362D03*
X010721Y003968D03*
X014036Y003968D03*
D81*
X011890Y003968D03*
X009646Y004370D03*
D82*
X011272Y004086D03*
D83*
X011268Y004094D03*
D84*
X011272Y004102D03*
D85*
X011272Y004110D03*
D86*
X011272Y004118D03*
D87*
X011272Y004126D03*
D88*
X011272Y004133D03*
D89*
X011276Y004141D03*
D90*
X011276Y004149D03*
D91*
X011276Y004157D03*
D92*
X011276Y004165D03*
D93*
X011276Y004173D03*
D94*
X011276Y004181D03*
D95*
X011280Y004189D03*
D96*
X011280Y004196D03*
D97*
X011280Y004204D03*
D98*
X011280Y004212D03*
D99*
X011280Y004220D03*
D100*
X011280Y004228D03*
D101*
X011284Y004236D03*
D102*
X010048Y004362D03*
X009796Y004291D03*
D103*
X009753Y004299D03*
X009753Y004315D03*
D104*
X009757Y004307D03*
D105*
X009753Y004322D03*
D106*
X009548Y004330D03*
M02*
