G75*
%MOIN*%
%OFA0B0*%
%FSLAX24Y24*%
%IPPOS*%
%LPD*%
%AMOC8*
5,1,8,0,0,1.08239X$1,22.5*
%
%ADD10C,0.0000*%
%ADD11C,0.3200*%
%ADD12C,0.4000*%
%ADD13C,0.5600*%
%ADD14C,0.1660*%
%ADD15C,0.0100*%
D10*
X003510Y002393D02*
X053556Y002393D01*
X053587Y002395D01*
X053617Y002400D01*
X053646Y002410D01*
X053675Y002422D01*
X053701Y002438D01*
X053725Y002457D01*
X053747Y002479D01*
X053766Y002503D01*
X053782Y002529D01*
X053794Y002558D01*
X053804Y002587D01*
X053809Y002617D01*
X053811Y002648D01*
X053811Y014133D01*
X053809Y014153D01*
X053805Y014172D01*
X053797Y014191D01*
X053787Y014208D01*
X053774Y014223D01*
X053759Y014236D01*
X053742Y014246D01*
X053723Y014254D01*
X053704Y014258D01*
X053684Y014260D01*
X053684Y014259D02*
X003376Y014259D01*
X003356Y014257D01*
X003336Y014252D01*
X003318Y014243D01*
X003301Y014232D01*
X003287Y014218D01*
X003276Y014201D01*
X003267Y014183D01*
X003262Y014163D01*
X003260Y014143D01*
X003260Y002643D01*
X003262Y002613D01*
X003267Y002583D01*
X003276Y002554D01*
X003289Y002527D01*
X003304Y002501D01*
X003323Y002477D01*
X003344Y002456D01*
X003368Y002437D01*
X003394Y002422D01*
X003421Y002409D01*
X003450Y002400D01*
X003480Y002395D01*
X003510Y002393D01*
D11*
X011535Y005570D03*
X016035Y005570D03*
D12*
X025035Y008326D03*
D13*
X035535Y008326D03*
X043535Y008326D03*
D14*
X052630Y006156D02*
X052630Y004496D01*
X004441Y004496D02*
X004441Y006156D01*
D15*
X003470Y006136D02*
X053601Y006136D01*
X053601Y006038D02*
X003470Y006038D01*
X003470Y005939D02*
X053601Y005939D01*
X053601Y005841D02*
X003470Y005841D01*
X003470Y005742D02*
X053601Y005742D01*
X053601Y005644D02*
X003470Y005644D01*
X003470Y005545D02*
X053601Y005545D01*
X053601Y005447D02*
X003470Y005447D01*
X003470Y005348D02*
X053601Y005348D01*
X053601Y005250D02*
X003470Y005250D01*
X003470Y005151D02*
X053601Y005151D01*
X053601Y005053D02*
X003470Y005053D01*
X003470Y004954D02*
X053601Y004954D01*
X053601Y004856D02*
X003470Y004856D01*
X003470Y004757D02*
X053601Y004757D01*
X053601Y004659D02*
X003470Y004659D01*
X003470Y004560D02*
X053601Y004560D01*
X053601Y004462D02*
X003470Y004462D01*
X003470Y004363D02*
X053601Y004363D01*
X053601Y004265D02*
X003470Y004265D01*
X003470Y004166D02*
X053601Y004166D01*
X053601Y004068D02*
X003470Y004068D01*
X003470Y003969D02*
X053601Y003969D01*
X053601Y003871D02*
X003470Y003871D01*
X003470Y003772D02*
X053601Y003772D01*
X053601Y003674D02*
X003470Y003674D01*
X003470Y003575D02*
X053601Y003575D01*
X053601Y003477D02*
X003470Y003477D01*
X003470Y003378D02*
X053601Y003378D01*
X053601Y003280D02*
X003470Y003280D01*
X003470Y003181D02*
X053601Y003181D01*
X053601Y003083D02*
X003470Y003083D01*
X003470Y002984D02*
X053601Y002984D01*
X053601Y002886D02*
X003470Y002886D01*
X003470Y002787D02*
X053601Y002787D01*
X053601Y002689D02*
X003470Y002689D01*
X003470Y002643D02*
X003470Y014049D01*
X053601Y014049D01*
X053601Y002648D01*
X053599Y002637D01*
X053587Y002617D01*
X053567Y002605D01*
X053556Y002603D01*
X003510Y002603D01*
X003499Y002605D01*
X003481Y002615D01*
X003471Y002633D01*
X003470Y002643D01*
X003470Y006235D02*
X053601Y006235D01*
X053601Y006333D02*
X003470Y006333D01*
X003470Y006432D02*
X053601Y006432D01*
X053601Y006530D02*
X003470Y006530D01*
X003470Y006629D02*
X053601Y006629D01*
X053601Y006727D02*
X003470Y006727D01*
X003470Y006826D02*
X053601Y006826D01*
X053601Y006924D02*
X003470Y006924D01*
X003470Y007023D02*
X053601Y007023D01*
X053601Y007121D02*
X003470Y007121D01*
X003470Y007220D02*
X053601Y007220D01*
X053601Y007318D02*
X003470Y007318D01*
X003470Y007417D02*
X053601Y007417D01*
X053601Y007515D02*
X003470Y007515D01*
X003470Y007614D02*
X053601Y007614D01*
X053601Y007712D02*
X003470Y007712D01*
X003470Y007811D02*
X053601Y007811D01*
X053601Y007909D02*
X003470Y007909D01*
X003470Y008008D02*
X053601Y008008D01*
X053601Y008106D02*
X003470Y008106D01*
X003470Y008205D02*
X053601Y008205D01*
X053601Y008303D02*
X003470Y008303D01*
X003470Y008402D02*
X053601Y008402D01*
X053601Y008500D02*
X003470Y008500D01*
X003470Y008599D02*
X053601Y008599D01*
X053601Y008697D02*
X003470Y008697D01*
X003470Y008796D02*
X053601Y008796D01*
X053601Y008894D02*
X003470Y008894D01*
X003470Y008993D02*
X053601Y008993D01*
X053601Y009091D02*
X003470Y009091D01*
X003470Y009190D02*
X053601Y009190D01*
X053601Y009288D02*
X003470Y009288D01*
X003470Y009387D02*
X053601Y009387D01*
X053601Y009485D02*
X003470Y009485D01*
X003470Y009584D02*
X053601Y009584D01*
X053601Y009682D02*
X003470Y009682D01*
X003470Y009781D02*
X053601Y009781D01*
X053601Y009879D02*
X003470Y009879D01*
X003470Y009978D02*
X053601Y009978D01*
X053601Y010076D02*
X003470Y010076D01*
X003470Y010175D02*
X053601Y010175D01*
X053601Y010273D02*
X003470Y010273D01*
X003470Y010372D02*
X053601Y010372D01*
X053601Y010470D02*
X003470Y010470D01*
X003470Y010569D02*
X053601Y010569D01*
X053601Y010667D02*
X003470Y010667D01*
X003470Y010766D02*
X053601Y010766D01*
X053601Y010864D02*
X003470Y010864D01*
X003470Y010963D02*
X053601Y010963D01*
X053601Y011061D02*
X003470Y011061D01*
X003470Y011160D02*
X053601Y011160D01*
X053601Y011258D02*
X003470Y011258D01*
X003470Y011357D02*
X053601Y011357D01*
X053601Y011455D02*
X003470Y011455D01*
X003470Y011554D02*
X053601Y011554D01*
X053601Y011652D02*
X003470Y011652D01*
X003470Y011751D02*
X053601Y011751D01*
X053601Y011849D02*
X003470Y011849D01*
X003470Y011948D02*
X053601Y011948D01*
X053601Y012046D02*
X003470Y012046D01*
X003470Y012145D02*
X053601Y012145D01*
X053601Y012243D02*
X003470Y012243D01*
X003470Y012342D02*
X053601Y012342D01*
X053601Y012440D02*
X003470Y012440D01*
X003470Y012539D02*
X053601Y012539D01*
X053601Y012637D02*
X003470Y012637D01*
X003470Y012736D02*
X053601Y012736D01*
X053601Y012834D02*
X003470Y012834D01*
X003470Y012933D02*
X053601Y012933D01*
X053601Y013031D02*
X003470Y013031D01*
X003470Y013130D02*
X053601Y013130D01*
X053601Y013228D02*
X003470Y013228D01*
X003470Y013327D02*
X053601Y013327D01*
X053601Y013425D02*
X003470Y013425D01*
X003470Y013524D02*
X053601Y013524D01*
X053601Y013622D02*
X003470Y013622D01*
X003470Y013721D02*
X053601Y013721D01*
X053601Y013819D02*
X003470Y013819D01*
X003470Y013918D02*
X053601Y013918D01*
X053601Y014016D02*
X003470Y014016D01*
M02*
