G75*
%MOIN*%
%OFA0B0*%
%FSLAX24Y24*%
%IPPOS*%
%LPD*%
%AMOC8*
5,1,8,0,0,1.08239X$1,22.5*
%
%ADD10C,0.0000*%
%ADD11C,0.0050*%
%ADD12R,0.0010X0.0010*%
%ADD13R,0.0230X0.0010*%
%ADD14R,0.0330X0.0010*%
%ADD15R,0.0400X0.0010*%
%ADD16R,0.0470X0.0010*%
%ADD17R,0.0520X0.0010*%
%ADD18R,0.0560X0.0010*%
%ADD19R,0.0600X0.0010*%
%ADD20R,0.0640X0.0010*%
%ADD21R,0.0680X0.0010*%
%ADD22R,0.0710X0.0010*%
%ADD23R,0.0740X0.0010*%
%ADD24R,0.0770X0.0010*%
%ADD25R,0.0790X0.0010*%
%ADD26R,0.0320X0.0010*%
%ADD27R,0.0280X0.0010*%
%ADD28R,0.0260X0.0010*%
%ADD29R,0.0240X0.0010*%
%ADD30R,0.0220X0.0010*%
%ADD31R,0.0210X0.0010*%
%ADD32R,0.0200X0.0010*%
%ADD33R,0.0190X0.0010*%
%ADD34R,0.0180X0.0010*%
%ADD35R,0.0170X0.0010*%
%ADD36R,0.0150X0.0010*%
%ADD37R,0.0160X0.0010*%
%ADD38R,0.0250X0.0010*%
%ADD39R,0.0300X0.0010*%
%ADD40R,0.0350X0.0010*%
%ADD41R,0.0390X0.0010*%
%ADD42R,0.0420X0.0010*%
%ADD43R,0.0450X0.0010*%
%ADD44R,0.0480X0.0010*%
%ADD45R,0.0140X0.0010*%
%ADD46R,0.0510X0.0010*%
%ADD47R,0.0530X0.0010*%
%ADD48R,0.0130X0.0010*%
%ADD49R,0.0120X0.0010*%
%ADD50R,0.0110X0.0010*%
%ADD51R,0.0100X0.0010*%
%ADD52R,0.0090X0.0010*%
%ADD53R,0.0080X0.0010*%
%ADD54R,0.0020X0.0010*%
%ADD55R,0.0070X0.0010*%
%ADD56R,0.0050X0.0010*%
%ADD57R,0.0040X0.0010*%
%ADD58R,0.0030X0.0010*%
%ADD59R,0.0060X0.0010*%
%ADD60R,0.0290X0.0010*%
%ADD61R,0.0270X0.0010*%
%ADD62R,0.0310X0.0010*%
%ADD63R,0.0540X0.0010*%
%ADD64R,0.0570X0.0010*%
%ADD65R,0.0650X0.0010*%
%ADD66R,0.0620X0.0010*%
%ADD67R,0.0590X0.0010*%
%ADD68R,0.0500X0.0010*%
%ADD69R,0.0460X0.0010*%
%ADD70R,0.0410X0.0010*%
%ADD71R,0.0360X0.0010*%
D10*
X003510Y002393D02*
X053556Y002393D01*
X053587Y002395D01*
X053617Y002400D01*
X053646Y002410D01*
X053675Y002422D01*
X053701Y002438D01*
X053725Y002457D01*
X053747Y002479D01*
X053766Y002503D01*
X053782Y002529D01*
X053794Y002558D01*
X053804Y002587D01*
X053809Y002617D01*
X053811Y002648D01*
X053811Y014133D01*
X053809Y014153D01*
X053805Y014172D01*
X053797Y014191D01*
X053787Y014208D01*
X053774Y014223D01*
X053759Y014236D01*
X053742Y014246D01*
X053723Y014254D01*
X053704Y014258D01*
X053684Y014260D01*
X053684Y014259D02*
X003376Y014259D01*
X003356Y014257D01*
X003336Y014252D01*
X003318Y014243D01*
X003301Y014232D01*
X003287Y014218D01*
X003276Y014201D01*
X003267Y014183D01*
X003262Y014163D01*
X003260Y014143D01*
X003260Y002643D01*
X003262Y002613D01*
X003267Y002583D01*
X003276Y002554D01*
X003289Y002527D01*
X003304Y002501D01*
X003323Y002477D01*
X003344Y002456D01*
X003368Y002437D01*
X003394Y002422D01*
X003421Y002409D01*
X003450Y002400D01*
X003480Y002395D01*
X003510Y002393D01*
D11*
X014788Y013343D02*
X014788Y013719D01*
X015014Y013719D01*
X015089Y013643D01*
X015089Y013493D01*
X015014Y013418D01*
X014788Y013418D01*
X014788Y013343D02*
X014863Y013268D01*
X014938Y013268D01*
X015249Y013418D02*
X015249Y013643D01*
X015324Y013719D01*
X015549Y013719D01*
X015549Y013418D01*
X015709Y013418D02*
X015934Y013418D01*
X016009Y013493D01*
X015934Y013568D01*
X015709Y013568D01*
X015709Y013643D02*
X015709Y013418D01*
X015709Y013643D02*
X015784Y013719D01*
X015934Y013719D01*
X016170Y013643D02*
X016170Y013418D01*
X016170Y013643D02*
X016245Y013719D01*
X016395Y013719D01*
X016470Y013643D01*
X016630Y013719D02*
X016855Y013719D01*
X016930Y013643D01*
X016930Y013493D01*
X016855Y013418D01*
X016630Y013418D01*
X016470Y013418D02*
X016470Y013869D01*
X017551Y013643D02*
X017551Y013568D01*
X017851Y013568D01*
X017851Y013493D02*
X017851Y013643D01*
X017776Y013719D01*
X017626Y013719D01*
X017551Y013643D01*
X017626Y013418D02*
X017776Y013418D01*
X017851Y013493D01*
X018011Y013719D02*
X018161Y013418D01*
X018311Y013719D01*
X018467Y013794D02*
X018542Y013719D01*
X018467Y013794D02*
X018467Y013944D01*
X018698Y013869D02*
X018848Y013869D01*
X018773Y013869D02*
X018773Y013418D01*
X018848Y013418D02*
X018698Y013418D01*
X019466Y013418D02*
X019541Y013493D01*
X019541Y013794D01*
X019616Y013719D02*
X019466Y013719D01*
X019776Y013719D02*
X019776Y013418D01*
X020001Y013418D01*
X020076Y013493D01*
X020076Y013719D01*
X020236Y013643D02*
X020311Y013719D01*
X020537Y013719D01*
X020537Y013869D02*
X020537Y013418D01*
X020311Y013418D01*
X020236Y013493D01*
X020236Y013643D01*
X021154Y013493D02*
X021229Y013493D01*
X021229Y013418D01*
X021154Y013418D01*
X021154Y013493D01*
X021154Y013418D02*
X021304Y013268D01*
X021464Y013343D02*
X021464Y013719D01*
X021689Y013719D01*
X021764Y013643D01*
X021764Y013493D01*
X021689Y013418D01*
X021464Y013418D01*
X021464Y013343D02*
X021539Y013268D01*
X021614Y013268D01*
X021924Y013418D02*
X021924Y013643D01*
X022000Y013719D01*
X022225Y013719D01*
X022225Y013418D01*
X022382Y013418D02*
X022532Y013418D01*
X022457Y013418D02*
X022457Y013719D01*
X022532Y013719D01*
X022457Y013869D02*
X022457Y013944D01*
X022692Y013643D02*
X022767Y013719D01*
X022992Y013719D01*
X022992Y013418D01*
X022692Y013418D02*
X022692Y013643D01*
X023150Y013719D02*
X023226Y013719D01*
X023376Y013568D01*
X023376Y013418D02*
X023376Y013719D01*
X023536Y013643D02*
X023611Y013719D01*
X023761Y013719D01*
X023836Y013643D01*
X023836Y013493D01*
X023761Y013418D01*
X023611Y013418D01*
X023536Y013493D01*
X023536Y013643D01*
X023996Y013643D02*
X023996Y013418D01*
X024146Y013418D02*
X024146Y013643D01*
X024071Y013719D01*
X023996Y013643D01*
X024146Y013643D02*
X024221Y013719D01*
X024296Y013719D01*
X024296Y013418D01*
X024917Y013493D02*
X024992Y013568D01*
X025142Y013568D01*
X025217Y013643D01*
X025142Y013719D01*
X024917Y013719D01*
X025449Y013719D02*
X025449Y013418D01*
X025524Y013418D02*
X025374Y013418D01*
X025217Y013418D02*
X024992Y013418D01*
X024917Y013493D01*
X025684Y013418D02*
X025684Y013643D01*
X025759Y013719D01*
X025910Y013719D01*
X025985Y013643D01*
X026141Y013719D02*
X026292Y013719D01*
X026216Y013794D02*
X026216Y013493D01*
X026141Y013418D01*
X025985Y013418D02*
X025985Y013869D01*
X025524Y013719D02*
X025449Y013719D01*
X025449Y013869D02*
X025449Y013944D01*
X026912Y013719D02*
X027137Y013719D01*
X027212Y013643D01*
X027137Y013568D01*
X026987Y013568D01*
X026912Y013493D01*
X026987Y013418D01*
X027212Y013418D01*
X027372Y013418D02*
X027598Y013418D01*
X027673Y013493D01*
X027598Y013568D01*
X027372Y013568D01*
X027372Y013643D02*
X027372Y013418D01*
X027372Y013643D02*
X027447Y013719D01*
X027598Y013719D01*
X027833Y013719D02*
X027833Y013493D01*
X027908Y013418D01*
X027983Y013493D01*
X028058Y013418D01*
X028133Y013493D01*
X028133Y013719D01*
X028750Y013869D02*
X028900Y013869D01*
X028825Y013869D02*
X028825Y013418D01*
X028900Y013418D02*
X028750Y013418D01*
X029521Y013493D02*
X029521Y013643D01*
X029596Y013719D01*
X029746Y013719D01*
X029821Y013643D01*
X029821Y013493D01*
X029746Y013418D01*
X029596Y013418D01*
X029521Y013493D01*
X029981Y013418D02*
X029981Y013643D01*
X030056Y013719D01*
X030207Y013719D01*
X030282Y013643D01*
X030442Y013719D02*
X030442Y013493D01*
X030517Y013418D01*
X030592Y013493D01*
X030667Y013418D01*
X030742Y013493D01*
X030742Y013719D01*
X030282Y013869D02*
X030282Y013418D01*
X031362Y013493D02*
X031362Y013719D01*
X031663Y013719D02*
X031663Y013493D01*
X031588Y013418D01*
X031513Y013493D01*
X031438Y013418D01*
X031362Y013493D01*
X031823Y013568D02*
X032123Y013568D01*
X032123Y013493D02*
X032123Y013643D01*
X032048Y013719D01*
X031898Y013719D01*
X031823Y013643D01*
X031823Y013568D01*
X031898Y013418D02*
X032048Y013418D01*
X032123Y013493D01*
X032283Y013418D02*
X032283Y013643D01*
X032358Y013719D01*
X032584Y013719D01*
X032584Y013418D01*
X032742Y013418D02*
X032967Y013568D01*
X032742Y013719D01*
X032967Y013869D02*
X032967Y013418D01*
X033584Y013418D02*
X033735Y013418D01*
X033659Y013418D02*
X033659Y013869D01*
X033584Y013869D02*
X033735Y013869D01*
X014628Y013643D02*
X014628Y013493D01*
X014553Y013418D01*
X014403Y013418D01*
X014328Y013568D02*
X014628Y013568D01*
X014628Y013643D02*
X014553Y013719D01*
X014403Y013719D01*
X014328Y013643D01*
X014328Y013568D01*
X014168Y013493D02*
X014168Y013643D01*
X014093Y013719D01*
X013868Y013719D01*
X013868Y013869D02*
X013868Y013418D01*
X014093Y013418D01*
X014168Y013493D01*
X013247Y013493D02*
X013172Y013568D01*
X012947Y013568D01*
X012947Y013643D02*
X012947Y013418D01*
X013172Y013418D01*
X013247Y013493D01*
X013022Y013719D02*
X012947Y013643D01*
X013022Y013719D02*
X013172Y013719D01*
X012326Y013643D02*
X012176Y013643D01*
X012019Y013643D02*
X011944Y013719D01*
X011794Y013719D01*
X011719Y013643D01*
X011719Y013568D01*
X012019Y013568D01*
X012019Y013493D02*
X012019Y013643D01*
X012019Y013493D02*
X011944Y013418D01*
X011794Y013418D01*
X011559Y013493D02*
X011484Y013418D01*
X011409Y013493D01*
X011334Y013418D01*
X011259Y013493D01*
X011259Y013719D01*
X011559Y013719D02*
X011559Y013493D01*
X010563Y013493D02*
X010488Y013418D01*
X010563Y013493D02*
X010563Y013794D01*
X010638Y013719D02*
X010488Y013719D01*
X010331Y013719D02*
X010256Y013719D01*
X010256Y013418D01*
X010331Y013418D02*
X010181Y013418D01*
X010024Y013418D02*
X010024Y013719D01*
X009949Y013719D01*
X009874Y013643D01*
X009799Y013719D01*
X009724Y013643D01*
X009724Y013418D01*
X009874Y013418D02*
X009874Y013643D01*
X009564Y013643D02*
X009489Y013719D01*
X009339Y013719D01*
X009264Y013643D01*
X009264Y013568D01*
X009564Y013568D01*
X009564Y013493D02*
X009564Y013643D01*
X009564Y013493D02*
X009489Y013418D01*
X009339Y013418D01*
X009104Y013418D02*
X008878Y013418D01*
X008803Y013493D01*
X008878Y013568D01*
X009028Y013568D01*
X009104Y013643D01*
X009028Y013719D01*
X008803Y013719D01*
X008183Y013643D02*
X008108Y013719D01*
X007882Y013719D01*
X007722Y013719D02*
X007647Y013719D01*
X007647Y013418D01*
X007722Y013418D02*
X007572Y013418D01*
X007415Y013418D02*
X007415Y013719D01*
X007190Y013719D01*
X007115Y013643D01*
X007115Y013418D01*
X006955Y013493D02*
X006880Y013418D01*
X006655Y013418D01*
X006495Y013493D02*
X006495Y013643D01*
X006420Y013719D01*
X006269Y013719D01*
X006194Y013643D01*
X006194Y013568D01*
X006495Y013568D01*
X006495Y013493D02*
X006420Y013418D01*
X006269Y013418D01*
X006880Y013719D02*
X006955Y013643D01*
X006955Y013493D01*
X006880Y013719D02*
X006655Y013719D01*
X007647Y013869D02*
X007647Y013944D01*
X007958Y013568D02*
X008108Y013568D01*
X008183Y013643D01*
X008183Y013418D02*
X007958Y013418D01*
X007882Y013493D01*
X007958Y013568D01*
X010256Y013869D02*
X010256Y013944D01*
X012176Y013869D02*
X012251Y013794D01*
X012251Y013418D01*
X005574Y013719D02*
X005424Y013719D01*
X005499Y013794D02*
X005499Y013493D01*
X005424Y013418D01*
X005267Y013418D02*
X005267Y013869D01*
X005192Y013719D02*
X005042Y013719D01*
X004967Y013643D01*
X004967Y013418D01*
X004807Y013493D02*
X004807Y013643D01*
X004731Y013719D01*
X004581Y013719D01*
X004506Y013643D01*
X004506Y013568D01*
X004807Y013568D01*
X004807Y013493D02*
X004731Y013418D01*
X004581Y013418D01*
X004346Y013418D02*
X004346Y013719D01*
X004121Y013719D01*
X004046Y013643D01*
X004046Y013418D01*
X003886Y013418D02*
X003811Y013418D01*
X003811Y013493D01*
X003886Y013493D01*
X003886Y013418D01*
X005192Y013719D02*
X005267Y013643D01*
D12*
X052450Y012513D03*
X052520Y012503D03*
X052550Y012503D03*
X052570Y012503D03*
X052590Y012503D03*
X052610Y012503D03*
X052590Y012763D03*
X052560Y012763D03*
X052530Y012763D03*
X052470Y012773D03*
X052650Y012773D03*
X052580Y013013D03*
X052530Y013013D03*
X052630Y013483D03*
X052650Y013483D03*
X052590Y013603D03*
X052610Y013723D03*
X052630Y013723D03*
X052650Y013723D03*
X052670Y013723D03*
X052690Y013723D03*
X052720Y013603D03*
D13*
X052310Y013533D03*
X052560Y013053D03*
X052230Y012683D03*
X052910Y012683D03*
X052580Y012513D03*
D14*
X052570Y012523D03*
D15*
X052575Y012533D03*
D16*
X052570Y012543D03*
X052570Y013433D03*
D17*
X052255Y013583D03*
X052575Y012553D03*
D18*
X052565Y012563D03*
X052655Y013643D03*
D19*
X052575Y012573D03*
D20*
X052575Y012583D03*
D21*
X052575Y012593D03*
D22*
X052570Y012603D03*
D23*
X052575Y012613D03*
D24*
X052570Y012623D03*
D25*
X052570Y012633D03*
D26*
X052825Y012643D03*
X052315Y012643D03*
D27*
X052295Y012653D03*
X052855Y012653D03*
X052315Y013553D03*
X052045Y013743D03*
X052025Y013763D03*
X052005Y013773D03*
X051995Y013783D03*
X051985Y013793D03*
D28*
X052095Y013703D03*
X052105Y013693D03*
X052115Y013683D03*
X052155Y013643D03*
X052305Y013543D03*
X052495Y013413D03*
X052645Y013453D03*
X052865Y013603D03*
X052875Y012663D03*
X052265Y012663D03*
D29*
X052245Y012673D03*
X052895Y012673D03*
X052335Y013473D03*
X052155Y013653D03*
D30*
X052335Y013483D03*
X052905Y013583D03*
X052925Y013573D03*
X052655Y013713D03*
X052395Y012873D03*
X052215Y012693D03*
X052925Y012693D03*
D31*
X052940Y012703D03*
X052200Y012703D03*
X052470Y013403D03*
X052330Y013493D03*
X052310Y013523D03*
X052640Y013463D03*
X052940Y013563D03*
D32*
X052955Y013553D03*
X052495Y013323D03*
X052555Y013043D03*
X052185Y012713D03*
X052955Y012713D03*
X052965Y012723D03*
D33*
X052980Y012733D03*
X052370Y012883D03*
X052170Y012723D03*
X052160Y012733D03*
X052150Y012743D03*
X052490Y013333D03*
X052330Y013503D03*
X052320Y013513D03*
X052970Y013543D03*
X052980Y013533D03*
D34*
X052745Y012873D03*
X052985Y012743D03*
X053005Y012763D03*
X052355Y012893D03*
X052135Y012753D03*
X052125Y012763D03*
D35*
X052120Y012773D03*
X052110Y012783D03*
X052100Y012793D03*
X052340Y012903D03*
X052560Y013033D03*
X052490Y013343D03*
X052470Y013393D03*
X052750Y013413D03*
X052990Y013523D03*
X053000Y013513D03*
X053010Y013503D03*
X053030Y013483D03*
X053020Y012773D03*
X053000Y012753D03*
D36*
X053060Y012833D03*
X053070Y012843D03*
X053080Y012863D03*
X052560Y012773D03*
X052310Y012923D03*
X052070Y012833D03*
X052060Y012843D03*
X052060Y012853D03*
X052050Y012863D03*
X052470Y013383D03*
X052050Y013543D03*
X052040Y013523D03*
X052030Y013503D03*
X052020Y013483D03*
X052060Y013563D03*
X053040Y013473D03*
X053060Y013443D03*
X053070Y013433D03*
X053080Y013413D03*
D37*
X053055Y013453D03*
X053045Y013463D03*
X053025Y013493D03*
X052645Y013473D03*
X052485Y013353D03*
X052055Y013553D03*
X052325Y012913D03*
X052095Y012803D03*
X052085Y012813D03*
X052075Y012823D03*
X052765Y012883D03*
X053025Y012783D03*
X053035Y012793D03*
X053045Y012803D03*
X053045Y012813D03*
X053055Y012823D03*
D38*
X052560Y012783D03*
X052340Y013463D03*
X052140Y013663D03*
X052130Y013673D03*
X052890Y013593D03*
D39*
X052645Y013443D03*
X052165Y013613D03*
X052565Y012793D03*
D40*
X052560Y012803D03*
D41*
X052560Y012813D03*
D42*
X052565Y012823D03*
D43*
X052560Y012833D03*
D44*
X052565Y012843D03*
X052585Y013423D03*
D45*
X052485Y013373D03*
X052485Y013363D03*
X052775Y013403D03*
X053075Y013423D03*
X053085Y013403D03*
X053095Y013393D03*
X053095Y013383D03*
X053105Y013363D03*
X052045Y013533D03*
X052035Y013513D03*
X052025Y013493D03*
X052015Y013473D03*
X052015Y013463D03*
X052005Y013453D03*
X052005Y013443D03*
X052005Y013433D03*
X051995Y013413D03*
X051985Y013383D03*
X052005Y012953D03*
X052015Y012933D03*
X052015Y012923D03*
X052025Y012913D03*
X052025Y012903D03*
X052035Y012893D03*
X052035Y012883D03*
X052045Y012873D03*
X052295Y012943D03*
X052305Y012933D03*
X052785Y012893D03*
X053075Y012853D03*
X053085Y012873D03*
X053095Y012883D03*
X053095Y012893D03*
X053105Y012913D03*
D46*
X052560Y012853D03*
X052240Y013573D03*
D47*
X052660Y013653D03*
X052560Y012863D03*
D48*
X052800Y012903D03*
X053100Y012903D03*
X053110Y012923D03*
X053110Y012933D03*
X053120Y012943D03*
X053120Y012953D03*
X053120Y012963D03*
X053130Y012973D03*
X053130Y012983D03*
X053130Y012993D03*
X053130Y013003D03*
X053140Y013033D03*
X053140Y013043D03*
X053140Y013063D03*
X053150Y013113D03*
X053150Y013133D03*
X053150Y013153D03*
X053150Y013173D03*
X053150Y013193D03*
X053140Y013243D03*
X053140Y013273D03*
X053130Y013283D03*
X053130Y013293D03*
X053130Y013303D03*
X053120Y013323D03*
X053120Y013333D03*
X053110Y013343D03*
X053110Y013353D03*
X053100Y013373D03*
X052270Y012973D03*
X052270Y012963D03*
X052280Y012953D03*
X052010Y012943D03*
X052000Y012963D03*
X052000Y012973D03*
X051990Y012983D03*
X051990Y012993D03*
X051990Y013003D03*
X051980Y013023D03*
X051980Y013033D03*
X051980Y013053D03*
X051970Y013063D03*
X051970Y013073D03*
X051970Y013083D03*
X051960Y013123D03*
X051960Y013143D03*
X051960Y013153D03*
X051960Y013163D03*
X051960Y013173D03*
X051960Y013193D03*
X051960Y013203D03*
X051960Y013213D03*
X051960Y013223D03*
X051960Y013233D03*
X051960Y013243D03*
X051960Y013263D03*
X051970Y013293D03*
X051970Y013303D03*
X051970Y013313D03*
X051970Y013323D03*
X051970Y013333D03*
X051980Y013343D03*
X051980Y013353D03*
X051980Y013363D03*
X051980Y013373D03*
X051990Y013393D03*
X051990Y013403D03*
X052000Y013423D03*
D49*
X051965Y013283D03*
X051965Y013273D03*
X051965Y013253D03*
X051955Y013183D03*
X051965Y013133D03*
X051965Y013113D03*
X051965Y013103D03*
X051965Y013093D03*
X051975Y013043D03*
X051985Y013013D03*
X052235Y013023D03*
X052245Y013003D03*
X052255Y012993D03*
X052255Y012983D03*
X052555Y013023D03*
X052815Y012913D03*
X053135Y013013D03*
X053135Y013023D03*
X053145Y013053D03*
X053145Y013073D03*
X053145Y013083D03*
X053145Y013093D03*
X053145Y013103D03*
X053145Y013123D03*
X053145Y013143D03*
X053145Y013163D03*
X053145Y013183D03*
X053145Y013203D03*
X053145Y013213D03*
X053145Y013223D03*
X053145Y013233D03*
X053135Y013253D03*
X053135Y013263D03*
X053125Y013313D03*
X052795Y013393D03*
X052255Y013433D03*
D50*
X052250Y013423D03*
X052240Y013413D03*
X052240Y013403D03*
X052230Y013393D03*
X052230Y013383D03*
X052220Y013363D03*
X052220Y013353D03*
X052210Y013343D03*
X052200Y013303D03*
X052200Y013283D03*
X052550Y013313D03*
X052560Y013303D03*
X052810Y013383D03*
X052480Y013063D03*
X052240Y013013D03*
X052230Y013033D03*
X052220Y013043D03*
X052220Y013053D03*
X052210Y013083D03*
X052820Y012923D03*
X052830Y012933D03*
X052840Y012943D03*
X052850Y012953D03*
D51*
X052855Y012963D03*
X052865Y012973D03*
X052875Y012993D03*
X052215Y013063D03*
X052215Y013073D03*
X052205Y013093D03*
X052205Y013103D03*
X052205Y013113D03*
X052195Y013123D03*
X052195Y013133D03*
X052195Y013143D03*
X052195Y013153D03*
X052195Y013163D03*
X052195Y013173D03*
X052195Y013183D03*
X052195Y013193D03*
X052195Y013203D03*
X052195Y013213D03*
X052195Y013223D03*
X052195Y013233D03*
X052195Y013243D03*
X052195Y013253D03*
X052195Y013263D03*
X052195Y013273D03*
X052205Y013293D03*
X052205Y013313D03*
X052205Y013323D03*
X052215Y013333D03*
X052225Y013373D03*
X052575Y013293D03*
X052585Y013283D03*
X052825Y013373D03*
X052835Y013363D03*
D52*
X052840Y013353D03*
X052850Y013343D03*
X052860Y013333D03*
X052610Y013263D03*
X052600Y013273D03*
X052900Y013053D03*
X052890Y013033D03*
X052890Y013023D03*
X052880Y013003D03*
X052870Y012983D03*
D53*
X052885Y013013D03*
X052895Y013043D03*
X052905Y013063D03*
X052905Y013073D03*
X052905Y013083D03*
X052905Y013093D03*
X052905Y013103D03*
X052915Y013113D03*
X052905Y013123D03*
X052915Y013133D03*
X052915Y013153D03*
X052915Y013173D03*
X052905Y013223D03*
X052905Y013233D03*
X052895Y013263D03*
X052885Y013283D03*
X052885Y013293D03*
X052875Y013303D03*
X052875Y013313D03*
X052865Y013323D03*
X052635Y013243D03*
X052425Y013303D03*
X052425Y013313D03*
X052415Y013273D03*
X052455Y013083D03*
X052465Y013073D03*
D54*
X052555Y013013D03*
X052705Y013123D03*
X052715Y013143D03*
X052725Y013153D03*
X052645Y013413D03*
D55*
X052420Y013293D03*
X052420Y013283D03*
X052410Y013263D03*
X052410Y013253D03*
X052410Y013243D03*
X052410Y013233D03*
X052400Y013223D03*
X052410Y013173D03*
X052420Y013133D03*
X052420Y013123D03*
X052430Y013113D03*
X052440Y013093D03*
X052640Y013063D03*
X052620Y013253D03*
X052890Y013273D03*
X052900Y013253D03*
X052900Y013243D03*
X052910Y013213D03*
X052910Y013203D03*
X052910Y013193D03*
X052910Y013183D03*
X052910Y013163D03*
X052910Y013143D03*
D56*
X052680Y013203D03*
X052670Y013213D03*
X052660Y013073D03*
D57*
X052675Y013083D03*
X052685Y013093D03*
X052705Y013183D03*
X052695Y013193D03*
D58*
X052720Y013173D03*
X052720Y013163D03*
X052710Y013133D03*
X052700Y013113D03*
X052690Y013103D03*
D59*
X052655Y013223D03*
X052645Y013233D03*
X052405Y013213D03*
X052405Y013203D03*
X052405Y013193D03*
X052405Y013183D03*
X052405Y013163D03*
X052415Y013153D03*
X052415Y013143D03*
X052435Y013103D03*
D60*
X052340Y013443D03*
X052160Y013623D03*
X051970Y013803D03*
X052650Y013703D03*
D61*
X052160Y013633D03*
X052080Y013713D03*
X052070Y013723D03*
X052060Y013733D03*
X052030Y013753D03*
X052340Y013453D03*
D62*
X052310Y013563D03*
D63*
X052275Y013593D03*
D64*
X052290Y013603D03*
D65*
X052660Y013613D03*
D66*
X052655Y013623D03*
D67*
X052660Y013633D03*
D68*
X052655Y013663D03*
D69*
X052655Y013673D03*
D70*
X052650Y013683D03*
D71*
X052655Y013693D03*
M02*
