G75*
%MOIN*%
%OFA0B0*%
%FSLAX24Y24*%
%IPPOS*%
%LPD*%
%AMOC8*
5,1,8,0,0,1.08239X$1,22.5*
%
%ADD10C,0.0000*%
%ADD11C,0.3200*%
%ADD12C,0.4000*%
%ADD13C,0.5600*%
%ADD14C,0.0160*%
%ADD15C,0.1660*%
%ADD16C,0.0240*%
%ADD17C,0.0100*%
D10*
X003510Y002393D02*
X053556Y002393D01*
X053587Y002395D01*
X053617Y002400D01*
X053646Y002410D01*
X053675Y002422D01*
X053701Y002438D01*
X053725Y002457D01*
X053747Y002479D01*
X053766Y002503D01*
X053782Y002529D01*
X053794Y002558D01*
X053804Y002587D01*
X053809Y002617D01*
X053811Y002648D01*
X053811Y014133D01*
X053809Y014153D01*
X053805Y014172D01*
X053797Y014191D01*
X053787Y014208D01*
X053774Y014223D01*
X053759Y014236D01*
X053742Y014246D01*
X053723Y014254D01*
X053704Y014258D01*
X053684Y014260D01*
X053684Y014259D02*
X003376Y014259D01*
X003356Y014257D01*
X003336Y014252D01*
X003318Y014243D01*
X003301Y014232D01*
X003287Y014218D01*
X003276Y014201D01*
X003267Y014183D01*
X003262Y014163D01*
X003260Y014143D01*
X003260Y002643D01*
X003262Y002613D01*
X003267Y002583D01*
X003276Y002554D01*
X003289Y002527D01*
X003304Y002501D01*
X003323Y002477D01*
X003344Y002456D01*
X003368Y002437D01*
X003394Y002422D01*
X003421Y002409D01*
X003450Y002400D01*
X003480Y002395D01*
X003510Y002393D01*
D11*
X011535Y005570D03*
X016035Y005570D03*
D12*
X025035Y008326D03*
D13*
X035535Y008326D03*
X043535Y008326D03*
D14*
X040135Y008326D02*
X040137Y008442D01*
X040143Y008558D01*
X040153Y008674D01*
X040167Y008789D01*
X040184Y008904D01*
X040206Y009018D01*
X040232Y009131D01*
X040261Y009243D01*
X040294Y009355D01*
X040331Y009465D01*
X040372Y009573D01*
X040416Y009681D01*
X040465Y009786D01*
X040516Y009890D01*
X040571Y009992D01*
X040630Y010093D01*
X040692Y010191D01*
X040757Y010287D01*
X040826Y010380D01*
X040898Y010472D01*
X040972Y010560D01*
X041050Y010647D01*
X041131Y010730D01*
X041214Y010811D01*
X041301Y010889D01*
X041389Y010963D01*
X041481Y011035D01*
X041574Y011104D01*
X041670Y011169D01*
X041768Y011231D01*
X041869Y011290D01*
X041971Y011345D01*
X042075Y011396D01*
X042180Y011445D01*
X042288Y011489D01*
X042396Y011530D01*
X042506Y011567D01*
X042618Y011600D01*
X042730Y011629D01*
X042843Y011655D01*
X042957Y011677D01*
X043072Y011694D01*
X043187Y011708D01*
X043303Y011718D01*
X043419Y011724D01*
X043535Y011726D01*
X043651Y011724D01*
X043767Y011718D01*
X043883Y011708D01*
X043998Y011694D01*
X044113Y011677D01*
X044227Y011655D01*
X044340Y011629D01*
X044452Y011600D01*
X044564Y011567D01*
X044674Y011530D01*
X044782Y011489D01*
X044890Y011445D01*
X044995Y011396D01*
X045099Y011345D01*
X045201Y011290D01*
X045302Y011231D01*
X045400Y011169D01*
X045496Y011104D01*
X045589Y011035D01*
X045681Y010963D01*
X045769Y010889D01*
X045856Y010811D01*
X045939Y010730D01*
X046020Y010647D01*
X046098Y010560D01*
X046172Y010472D01*
X046244Y010380D01*
X046313Y010287D01*
X046378Y010191D01*
X046440Y010093D01*
X046499Y009992D01*
X046554Y009890D01*
X046605Y009786D01*
X046654Y009681D01*
X046698Y009573D01*
X046739Y009465D01*
X046776Y009355D01*
X046809Y009243D01*
X046838Y009131D01*
X046864Y009018D01*
X046886Y008904D01*
X046903Y008789D01*
X046917Y008674D01*
X046927Y008558D01*
X046933Y008442D01*
X046935Y008326D01*
X046933Y008210D01*
X046927Y008094D01*
X046917Y007978D01*
X046903Y007863D01*
X046886Y007748D01*
X046864Y007634D01*
X046838Y007521D01*
X046809Y007409D01*
X046776Y007297D01*
X046739Y007187D01*
X046698Y007079D01*
X046654Y006971D01*
X046605Y006866D01*
X046554Y006762D01*
X046499Y006660D01*
X046440Y006559D01*
X046378Y006461D01*
X046313Y006365D01*
X046244Y006272D01*
X046172Y006180D01*
X046098Y006092D01*
X046020Y006005D01*
X045939Y005922D01*
X045856Y005841D01*
X045769Y005763D01*
X045681Y005689D01*
X045589Y005617D01*
X045496Y005548D01*
X045400Y005483D01*
X045302Y005421D01*
X045201Y005362D01*
X045099Y005307D01*
X044995Y005256D01*
X044890Y005207D01*
X044782Y005163D01*
X044674Y005122D01*
X044564Y005085D01*
X044452Y005052D01*
X044340Y005023D01*
X044227Y004997D01*
X044113Y004975D01*
X043998Y004958D01*
X043883Y004944D01*
X043767Y004934D01*
X043651Y004928D01*
X043535Y004926D01*
X043419Y004928D01*
X043303Y004934D01*
X043187Y004944D01*
X043072Y004958D01*
X042957Y004975D01*
X042843Y004997D01*
X042730Y005023D01*
X042618Y005052D01*
X042506Y005085D01*
X042396Y005122D01*
X042288Y005163D01*
X042180Y005207D01*
X042075Y005256D01*
X041971Y005307D01*
X041869Y005362D01*
X041768Y005421D01*
X041670Y005483D01*
X041574Y005548D01*
X041481Y005617D01*
X041389Y005689D01*
X041301Y005763D01*
X041214Y005841D01*
X041131Y005922D01*
X041050Y006005D01*
X040972Y006092D01*
X040898Y006180D01*
X040826Y006272D01*
X040757Y006365D01*
X040692Y006461D01*
X040630Y006559D01*
X040571Y006660D01*
X040516Y006762D01*
X040465Y006866D01*
X040416Y006971D01*
X040372Y007079D01*
X040331Y007187D01*
X040294Y007297D01*
X040261Y007409D01*
X040232Y007521D01*
X040206Y007634D01*
X040184Y007748D01*
X040167Y007863D01*
X040153Y007978D01*
X040143Y008094D01*
X040137Y008210D01*
X040135Y008326D01*
X032135Y008326D02*
X032137Y008442D01*
X032143Y008558D01*
X032153Y008674D01*
X032167Y008789D01*
X032184Y008904D01*
X032206Y009018D01*
X032232Y009131D01*
X032261Y009243D01*
X032294Y009355D01*
X032331Y009465D01*
X032372Y009573D01*
X032416Y009681D01*
X032465Y009786D01*
X032516Y009890D01*
X032571Y009992D01*
X032630Y010093D01*
X032692Y010191D01*
X032757Y010287D01*
X032826Y010380D01*
X032898Y010472D01*
X032972Y010560D01*
X033050Y010647D01*
X033131Y010730D01*
X033214Y010811D01*
X033301Y010889D01*
X033389Y010963D01*
X033481Y011035D01*
X033574Y011104D01*
X033670Y011169D01*
X033768Y011231D01*
X033869Y011290D01*
X033971Y011345D01*
X034075Y011396D01*
X034180Y011445D01*
X034288Y011489D01*
X034396Y011530D01*
X034506Y011567D01*
X034618Y011600D01*
X034730Y011629D01*
X034843Y011655D01*
X034957Y011677D01*
X035072Y011694D01*
X035187Y011708D01*
X035303Y011718D01*
X035419Y011724D01*
X035535Y011726D01*
X035651Y011724D01*
X035767Y011718D01*
X035883Y011708D01*
X035998Y011694D01*
X036113Y011677D01*
X036227Y011655D01*
X036340Y011629D01*
X036452Y011600D01*
X036564Y011567D01*
X036674Y011530D01*
X036782Y011489D01*
X036890Y011445D01*
X036995Y011396D01*
X037099Y011345D01*
X037201Y011290D01*
X037302Y011231D01*
X037400Y011169D01*
X037496Y011104D01*
X037589Y011035D01*
X037681Y010963D01*
X037769Y010889D01*
X037856Y010811D01*
X037939Y010730D01*
X038020Y010647D01*
X038098Y010560D01*
X038172Y010472D01*
X038244Y010380D01*
X038313Y010287D01*
X038378Y010191D01*
X038440Y010093D01*
X038499Y009992D01*
X038554Y009890D01*
X038605Y009786D01*
X038654Y009681D01*
X038698Y009573D01*
X038739Y009465D01*
X038776Y009355D01*
X038809Y009243D01*
X038838Y009131D01*
X038864Y009018D01*
X038886Y008904D01*
X038903Y008789D01*
X038917Y008674D01*
X038927Y008558D01*
X038933Y008442D01*
X038935Y008326D01*
X038933Y008210D01*
X038927Y008094D01*
X038917Y007978D01*
X038903Y007863D01*
X038886Y007748D01*
X038864Y007634D01*
X038838Y007521D01*
X038809Y007409D01*
X038776Y007297D01*
X038739Y007187D01*
X038698Y007079D01*
X038654Y006971D01*
X038605Y006866D01*
X038554Y006762D01*
X038499Y006660D01*
X038440Y006559D01*
X038378Y006461D01*
X038313Y006365D01*
X038244Y006272D01*
X038172Y006180D01*
X038098Y006092D01*
X038020Y006005D01*
X037939Y005922D01*
X037856Y005841D01*
X037769Y005763D01*
X037681Y005689D01*
X037589Y005617D01*
X037496Y005548D01*
X037400Y005483D01*
X037302Y005421D01*
X037201Y005362D01*
X037099Y005307D01*
X036995Y005256D01*
X036890Y005207D01*
X036782Y005163D01*
X036674Y005122D01*
X036564Y005085D01*
X036452Y005052D01*
X036340Y005023D01*
X036227Y004997D01*
X036113Y004975D01*
X035998Y004958D01*
X035883Y004944D01*
X035767Y004934D01*
X035651Y004928D01*
X035535Y004926D01*
X035419Y004928D01*
X035303Y004934D01*
X035187Y004944D01*
X035072Y004958D01*
X034957Y004975D01*
X034843Y004997D01*
X034730Y005023D01*
X034618Y005052D01*
X034506Y005085D01*
X034396Y005122D01*
X034288Y005163D01*
X034180Y005207D01*
X034075Y005256D01*
X033971Y005307D01*
X033869Y005362D01*
X033768Y005421D01*
X033670Y005483D01*
X033574Y005548D01*
X033481Y005617D01*
X033389Y005689D01*
X033301Y005763D01*
X033214Y005841D01*
X033131Y005922D01*
X033050Y006005D01*
X032972Y006092D01*
X032898Y006180D01*
X032826Y006272D01*
X032757Y006365D01*
X032692Y006461D01*
X032630Y006559D01*
X032571Y006660D01*
X032516Y006762D01*
X032465Y006866D01*
X032416Y006971D01*
X032372Y007079D01*
X032331Y007187D01*
X032294Y007297D01*
X032261Y007409D01*
X032232Y007521D01*
X032206Y007634D01*
X032184Y007748D01*
X032167Y007863D01*
X032153Y007978D01*
X032143Y008094D01*
X032137Y008210D01*
X032135Y008326D01*
X013935Y005570D02*
X013937Y005662D01*
X013943Y005753D01*
X013953Y005844D01*
X013967Y005935D01*
X013985Y006025D01*
X014007Y006114D01*
X014032Y006201D01*
X014062Y006288D01*
X014095Y006374D01*
X014132Y006457D01*
X014172Y006540D01*
X014216Y006620D01*
X014264Y006698D01*
X014315Y006775D01*
X014369Y006848D01*
X014426Y006920D01*
X014487Y006989D01*
X014550Y007055D01*
X014616Y007118D01*
X014685Y007179D01*
X014757Y007236D01*
X014830Y007290D01*
X014907Y007341D01*
X014985Y007389D01*
X015065Y007433D01*
X015148Y007473D01*
X015231Y007510D01*
X015317Y007543D01*
X015404Y007573D01*
X015491Y007598D01*
X015580Y007620D01*
X015670Y007638D01*
X015761Y007652D01*
X015852Y007662D01*
X015943Y007668D01*
X016035Y007670D01*
X016127Y007668D01*
X016218Y007662D01*
X016309Y007652D01*
X016400Y007638D01*
X016490Y007620D01*
X016579Y007598D01*
X016666Y007573D01*
X016753Y007543D01*
X016839Y007510D01*
X016922Y007473D01*
X017005Y007433D01*
X017085Y007389D01*
X017163Y007341D01*
X017240Y007290D01*
X017313Y007236D01*
X017385Y007179D01*
X017454Y007118D01*
X017520Y007055D01*
X017583Y006989D01*
X017644Y006920D01*
X017701Y006848D01*
X017755Y006775D01*
X017806Y006698D01*
X017854Y006620D01*
X017898Y006540D01*
X017938Y006457D01*
X017975Y006374D01*
X018008Y006288D01*
X018038Y006201D01*
X018063Y006114D01*
X018085Y006025D01*
X018103Y005935D01*
X018117Y005844D01*
X018127Y005753D01*
X018133Y005662D01*
X018135Y005570D01*
X018133Y005478D01*
X018127Y005387D01*
X018117Y005296D01*
X018103Y005205D01*
X018085Y005115D01*
X018063Y005026D01*
X018038Y004939D01*
X018008Y004852D01*
X017975Y004766D01*
X017938Y004683D01*
X017898Y004600D01*
X017854Y004520D01*
X017806Y004442D01*
X017755Y004365D01*
X017701Y004292D01*
X017644Y004220D01*
X017583Y004151D01*
X017520Y004085D01*
X017454Y004022D01*
X017385Y003961D01*
X017313Y003904D01*
X017240Y003850D01*
X017163Y003799D01*
X017085Y003751D01*
X017005Y003707D01*
X016922Y003667D01*
X016839Y003630D01*
X016753Y003597D01*
X016666Y003567D01*
X016579Y003542D01*
X016490Y003520D01*
X016400Y003502D01*
X016309Y003488D01*
X016218Y003478D01*
X016127Y003472D01*
X016035Y003470D01*
X015943Y003472D01*
X015852Y003478D01*
X015761Y003488D01*
X015670Y003502D01*
X015580Y003520D01*
X015491Y003542D01*
X015404Y003567D01*
X015317Y003597D01*
X015231Y003630D01*
X015148Y003667D01*
X015065Y003707D01*
X014985Y003751D01*
X014907Y003799D01*
X014830Y003850D01*
X014757Y003904D01*
X014685Y003961D01*
X014616Y004022D01*
X014550Y004085D01*
X014487Y004151D01*
X014426Y004220D01*
X014369Y004292D01*
X014315Y004365D01*
X014264Y004442D01*
X014216Y004520D01*
X014172Y004600D01*
X014132Y004683D01*
X014095Y004766D01*
X014062Y004852D01*
X014032Y004939D01*
X014007Y005026D01*
X013985Y005115D01*
X013967Y005205D01*
X013953Y005296D01*
X013943Y005387D01*
X013937Y005478D01*
X013935Y005570D01*
X009435Y005570D02*
X009437Y005662D01*
X009443Y005753D01*
X009453Y005844D01*
X009467Y005935D01*
X009485Y006025D01*
X009507Y006114D01*
X009532Y006201D01*
X009562Y006288D01*
X009595Y006374D01*
X009632Y006457D01*
X009672Y006540D01*
X009716Y006620D01*
X009764Y006698D01*
X009815Y006775D01*
X009869Y006848D01*
X009926Y006920D01*
X009987Y006989D01*
X010050Y007055D01*
X010116Y007118D01*
X010185Y007179D01*
X010257Y007236D01*
X010330Y007290D01*
X010407Y007341D01*
X010485Y007389D01*
X010565Y007433D01*
X010648Y007473D01*
X010731Y007510D01*
X010817Y007543D01*
X010904Y007573D01*
X010991Y007598D01*
X011080Y007620D01*
X011170Y007638D01*
X011261Y007652D01*
X011352Y007662D01*
X011443Y007668D01*
X011535Y007670D01*
X011627Y007668D01*
X011718Y007662D01*
X011809Y007652D01*
X011900Y007638D01*
X011990Y007620D01*
X012079Y007598D01*
X012166Y007573D01*
X012253Y007543D01*
X012339Y007510D01*
X012422Y007473D01*
X012505Y007433D01*
X012585Y007389D01*
X012663Y007341D01*
X012740Y007290D01*
X012813Y007236D01*
X012885Y007179D01*
X012954Y007118D01*
X013020Y007055D01*
X013083Y006989D01*
X013144Y006920D01*
X013201Y006848D01*
X013255Y006775D01*
X013306Y006698D01*
X013354Y006620D01*
X013398Y006540D01*
X013438Y006457D01*
X013475Y006374D01*
X013508Y006288D01*
X013538Y006201D01*
X013563Y006114D01*
X013585Y006025D01*
X013603Y005935D01*
X013617Y005844D01*
X013627Y005753D01*
X013633Y005662D01*
X013635Y005570D01*
X013633Y005478D01*
X013627Y005387D01*
X013617Y005296D01*
X013603Y005205D01*
X013585Y005115D01*
X013563Y005026D01*
X013538Y004939D01*
X013508Y004852D01*
X013475Y004766D01*
X013438Y004683D01*
X013398Y004600D01*
X013354Y004520D01*
X013306Y004442D01*
X013255Y004365D01*
X013201Y004292D01*
X013144Y004220D01*
X013083Y004151D01*
X013020Y004085D01*
X012954Y004022D01*
X012885Y003961D01*
X012813Y003904D01*
X012740Y003850D01*
X012663Y003799D01*
X012585Y003751D01*
X012505Y003707D01*
X012422Y003667D01*
X012339Y003630D01*
X012253Y003597D01*
X012166Y003567D01*
X012079Y003542D01*
X011990Y003520D01*
X011900Y003502D01*
X011809Y003488D01*
X011718Y003478D01*
X011627Y003472D01*
X011535Y003470D01*
X011443Y003472D01*
X011352Y003478D01*
X011261Y003488D01*
X011170Y003502D01*
X011080Y003520D01*
X010991Y003542D01*
X010904Y003567D01*
X010817Y003597D01*
X010731Y003630D01*
X010648Y003667D01*
X010565Y003707D01*
X010485Y003751D01*
X010407Y003799D01*
X010330Y003850D01*
X010257Y003904D01*
X010185Y003961D01*
X010116Y004022D01*
X010050Y004085D01*
X009987Y004151D01*
X009926Y004220D01*
X009869Y004292D01*
X009815Y004365D01*
X009764Y004442D01*
X009716Y004520D01*
X009672Y004600D01*
X009632Y004683D01*
X009595Y004766D01*
X009562Y004852D01*
X009532Y004939D01*
X009507Y005026D01*
X009485Y005115D01*
X009467Y005205D01*
X009453Y005296D01*
X009443Y005387D01*
X009437Y005478D01*
X009435Y005570D01*
X008510Y005893D02*
X008510Y006393D01*
X008508Y006437D01*
X008502Y006480D01*
X008493Y006522D01*
X008480Y006564D01*
X008463Y006604D01*
X008443Y006643D01*
X008420Y006680D01*
X008393Y006714D01*
X008364Y006747D01*
X008331Y006776D01*
X008297Y006803D01*
X008260Y006826D01*
X008221Y006846D01*
X008181Y006863D01*
X008139Y006876D01*
X008097Y006885D01*
X008054Y006891D01*
X008010Y006893D01*
X006510Y008018D02*
X006466Y008016D01*
X006423Y008010D01*
X006381Y008001D01*
X006339Y007988D01*
X006299Y007971D01*
X006260Y007951D01*
X006223Y007928D01*
X006189Y007901D01*
X006156Y007872D01*
X006127Y007839D01*
X006100Y007805D01*
X006077Y007768D01*
X006057Y007729D01*
X006040Y007689D01*
X006027Y007647D01*
X006018Y007605D01*
X006012Y007562D01*
X006010Y007518D01*
X006510Y008018D02*
X008510Y008018D01*
X007510Y009018D02*
X007450Y009016D01*
X007389Y009011D01*
X007330Y009002D01*
X007271Y008989D01*
X007212Y008973D01*
X007155Y008953D01*
X007100Y008930D01*
X007045Y008903D01*
X006993Y008874D01*
X006942Y008841D01*
X006893Y008805D01*
X006847Y008767D01*
X006803Y008725D01*
X006761Y008681D01*
X006723Y008635D01*
X006687Y008586D01*
X006654Y008535D01*
X006625Y008483D01*
X006598Y008428D01*
X006575Y008373D01*
X006555Y008316D01*
X006539Y008257D01*
X006526Y008198D01*
X006517Y008139D01*
X006512Y008078D01*
X006510Y008018D01*
X006010Y009018D02*
X007510Y009018D01*
X008010Y009018D01*
X014235Y006670D02*
X014294Y006804D01*
X014349Y006940D01*
X014401Y007077D01*
X014450Y007215D01*
X014496Y007354D01*
X014537Y007494D01*
X014576Y007636D01*
X014611Y007778D01*
X014642Y007921D01*
X014670Y008065D01*
X014694Y008209D01*
X014714Y008355D01*
X014731Y008500D01*
X014744Y008646D01*
X014754Y008792D01*
X014760Y008938D01*
X014762Y009085D01*
X014761Y009231D01*
X014756Y009378D01*
X014747Y009524D01*
X014735Y009670D01*
X008510Y009518D02*
X008508Y009474D01*
X008502Y009431D01*
X008493Y009389D01*
X008480Y009347D01*
X008463Y009307D01*
X008443Y009268D01*
X008420Y009231D01*
X008393Y009197D01*
X008364Y009164D01*
X008331Y009135D01*
X008297Y009108D01*
X008260Y009085D01*
X008221Y009065D01*
X008181Y009048D01*
X008139Y009035D01*
X008097Y009026D01*
X008054Y009020D01*
X008010Y009018D01*
X007510Y009413D02*
X007510Y009893D01*
X007508Y009937D01*
X007502Y009980D01*
X007493Y010022D01*
X007480Y010064D01*
X007463Y010104D01*
X007443Y010143D01*
X007420Y010180D01*
X007393Y010214D01*
X007364Y010247D01*
X007331Y010276D01*
X007297Y010303D01*
X007260Y010326D01*
X007221Y010346D01*
X007181Y010363D01*
X007139Y010376D01*
X007097Y010385D01*
X007054Y010391D01*
X007010Y010393D01*
X006010Y010393D02*
X006028Y010324D01*
X006048Y010257D01*
X006073Y010191D01*
X006101Y010126D01*
X006133Y010063D01*
X006168Y010002D01*
X006207Y009942D01*
X006249Y009885D01*
X006294Y009831D01*
X006341Y009779D01*
X006392Y009729D01*
X006445Y009683D01*
X006501Y009639D01*
X006559Y009599D01*
X006619Y009562D01*
X006681Y009528D01*
X006745Y009498D01*
X006810Y009472D01*
X006877Y009449D01*
X006945Y009429D01*
X007014Y009414D01*
X007084Y009402D01*
X007154Y009394D01*
X007225Y009390D01*
X007295Y009390D01*
X007366Y009394D01*
X007436Y009402D01*
X007506Y009414D01*
X007575Y009429D01*
X007643Y009449D01*
X007710Y009472D01*
X007775Y009498D01*
X007839Y009528D01*
X007901Y009562D01*
X007961Y009599D01*
X008019Y009639D01*
X008075Y009683D01*
X008128Y009729D01*
X008179Y009779D01*
X008226Y009831D01*
X008271Y009885D01*
X008313Y009942D01*
X008352Y010002D01*
X008387Y010063D01*
X008419Y010126D01*
X008447Y010191D01*
X008472Y010257D01*
X008492Y010324D01*
X008510Y010393D01*
X006510Y011643D02*
X006466Y011641D01*
X006423Y011635D01*
X006381Y011626D01*
X006339Y011613D01*
X006299Y011596D01*
X006260Y011576D01*
X006223Y011553D01*
X006189Y011526D01*
X006156Y011497D01*
X006127Y011464D01*
X006100Y011430D01*
X006077Y011393D01*
X006057Y011354D01*
X006040Y011314D01*
X006027Y011272D01*
X006018Y011230D01*
X006012Y011187D01*
X006010Y011143D01*
X006510Y011643D02*
X008510Y011643D01*
X007510Y012643D02*
X007450Y012641D01*
X007389Y012636D01*
X007330Y012627D01*
X007271Y012614D01*
X007212Y012598D01*
X007155Y012578D01*
X007100Y012555D01*
X007045Y012528D01*
X006993Y012499D01*
X006942Y012466D01*
X006893Y012430D01*
X006847Y012392D01*
X006803Y012350D01*
X006761Y012306D01*
X006723Y012260D01*
X006687Y012211D01*
X006654Y012160D01*
X006625Y012108D01*
X006598Y012053D01*
X006575Y011998D01*
X006555Y011941D01*
X006539Y011882D01*
X006526Y011823D01*
X006517Y011764D01*
X006512Y011703D01*
X006510Y011643D01*
X006010Y007268D02*
X006139Y007235D01*
X006269Y007206D01*
X006399Y007180D01*
X006531Y007158D01*
X006663Y007140D01*
X006795Y007125D01*
X006928Y007114D01*
X007060Y007107D01*
X007193Y007103D01*
X007327Y007103D01*
X007460Y007107D01*
X007592Y007114D01*
X007725Y007125D01*
X007857Y007140D01*
X007989Y007158D01*
X008121Y007180D01*
X008251Y007206D01*
X008381Y007235D01*
X008510Y007268D01*
X008510Y005893D02*
X006510Y005893D01*
X006466Y005891D01*
X006423Y005885D01*
X006381Y005876D01*
X006339Y005863D01*
X006299Y005846D01*
X006260Y005826D01*
X006223Y005803D01*
X006189Y005776D01*
X006156Y005747D01*
X006127Y005714D01*
X006100Y005680D01*
X006077Y005643D01*
X006057Y005604D01*
X006040Y005564D01*
X006027Y005522D01*
X006018Y005480D01*
X006012Y005437D01*
X006010Y005393D01*
X007010Y005393D02*
X007095Y005393D01*
X007802Y005100D02*
X008510Y004393D01*
X008476Y004430D01*
X008444Y004469D01*
X008415Y004511D01*
X008389Y004554D01*
X008367Y004599D01*
X008348Y004646D01*
X008332Y004694D01*
X008319Y004743D01*
X008310Y004792D01*
X008305Y004843D01*
X008303Y004893D01*
X008305Y004943D01*
X008310Y004994D01*
X008319Y005043D01*
X008332Y005092D01*
X008348Y005140D01*
X008367Y005187D01*
X008389Y005232D01*
X008415Y005275D01*
X008444Y005317D01*
X008476Y005356D01*
X008510Y005393D01*
X007010Y005393D02*
X007044Y005356D01*
X007076Y005317D01*
X007105Y005275D01*
X007131Y005232D01*
X007153Y005187D01*
X007172Y005140D01*
X007188Y005092D01*
X007201Y005043D01*
X007210Y004994D01*
X007215Y004943D01*
X007217Y004893D01*
X007215Y004843D01*
X007210Y004792D01*
X007201Y004743D01*
X007188Y004694D01*
X007172Y004646D01*
X007153Y004599D01*
X007131Y004554D01*
X007105Y004511D01*
X007076Y004469D01*
X007044Y004430D01*
X007010Y004393D01*
X007095Y005393D02*
X007155Y005391D01*
X007216Y005386D01*
X007275Y005377D01*
X007334Y005364D01*
X007393Y005348D01*
X007450Y005328D01*
X007505Y005305D01*
X007560Y005278D01*
X007612Y005249D01*
X007663Y005216D01*
X007712Y005180D01*
X007758Y005142D01*
X007802Y005100D01*
X009735Y006670D02*
X009794Y006804D01*
X009849Y006940D01*
X009901Y007077D01*
X009950Y007215D01*
X009996Y007354D01*
X010037Y007494D01*
X010076Y007636D01*
X010111Y007778D01*
X010142Y007921D01*
X010170Y008065D01*
X010194Y008209D01*
X010214Y008355D01*
X010231Y008500D01*
X010244Y008646D01*
X010254Y008792D01*
X010260Y008938D01*
X010262Y009085D01*
X010261Y009231D01*
X010256Y009378D01*
X010247Y009524D01*
X010235Y009670D01*
X008010Y012643D02*
X007510Y012643D01*
X006010Y012643D01*
X008010Y012643D02*
X008054Y012645D01*
X008097Y012651D01*
X008139Y012660D01*
X008181Y012673D01*
X008221Y012690D01*
X008260Y012710D01*
X008297Y012733D01*
X008331Y012760D01*
X008364Y012789D01*
X008393Y012822D01*
X008420Y012856D01*
X008443Y012893D01*
X008463Y012932D01*
X008480Y012972D01*
X008493Y013014D01*
X008502Y013056D01*
X008508Y013099D01*
X008510Y013143D01*
X008510Y010893D02*
X008381Y010860D01*
X008251Y010831D01*
X008121Y010805D01*
X007989Y010783D01*
X007857Y010765D01*
X007725Y010750D01*
X007592Y010739D01*
X007460Y010732D01*
X007327Y010728D01*
X007193Y010728D01*
X007060Y010732D01*
X006928Y010739D01*
X006795Y010750D01*
X006663Y010765D01*
X006531Y010783D01*
X006399Y010805D01*
X006269Y010831D01*
X006139Y010860D01*
X006010Y010893D01*
X010235Y009671D02*
X010313Y009540D01*
X010395Y009411D01*
X010480Y009285D01*
X010568Y009160D01*
X010659Y009038D01*
X010754Y008918D01*
X010851Y008800D01*
X010951Y008685D01*
X011054Y008573D01*
X011159Y008463D01*
X011268Y008355D01*
X011379Y008251D01*
X011492Y008149D01*
X011609Y008050D01*
X011727Y007954D01*
X011848Y007861D01*
X011971Y007771D01*
X012097Y007684D01*
X012224Y007600D01*
X012354Y007520D01*
X012485Y007443D01*
X014735Y009671D02*
X014813Y009540D01*
X014895Y009411D01*
X014980Y009285D01*
X015068Y009160D01*
X015159Y009038D01*
X015254Y008918D01*
X015351Y008800D01*
X015451Y008685D01*
X015554Y008573D01*
X015659Y008463D01*
X015768Y008355D01*
X015879Y008251D01*
X015992Y008149D01*
X016109Y008050D01*
X016227Y007954D01*
X016348Y007861D01*
X016471Y007771D01*
X016597Y007684D01*
X016724Y007600D01*
X016854Y007520D01*
X016985Y007443D01*
D15*
X004441Y006156D02*
X004441Y004496D01*
X052630Y004496D02*
X052630Y006156D01*
D16*
X052259Y007894D02*
X052191Y007901D01*
X052122Y007904D01*
X052053Y007903D01*
X051984Y007898D01*
X051916Y007890D01*
X051848Y007877D01*
X051781Y007861D01*
X051715Y007841D01*
X051650Y007818D01*
X051587Y007790D01*
X051525Y007760D01*
X051465Y007726D01*
X051407Y007688D01*
X051352Y007647D01*
X051298Y007604D01*
X051247Y007557D01*
X051199Y007508D01*
X051154Y007456D01*
X051112Y007401D01*
X051073Y007345D01*
X051037Y007286D01*
X051004Y007225D01*
X050975Y007163D01*
X050949Y007099D01*
X050927Y007033D01*
X050909Y006967D01*
X050895Y006899D01*
X050884Y006831D01*
X050759Y006143D02*
X050792Y006272D01*
X050821Y006402D01*
X050847Y006532D01*
X050869Y006664D01*
X050887Y006796D01*
X050902Y006928D01*
X050913Y007061D01*
X050920Y007193D01*
X050924Y007326D01*
X050924Y007460D01*
X050920Y007593D01*
X050913Y007725D01*
X050902Y007858D01*
X050887Y007990D01*
X050869Y008122D01*
X050847Y008254D01*
X050821Y008384D01*
X050792Y008514D01*
X050759Y008643D01*
X050760Y008643D02*
X050727Y008772D01*
X050698Y008902D01*
X050672Y009032D01*
X050650Y009164D01*
X050632Y009296D01*
X050617Y009428D01*
X050606Y009561D01*
X050599Y009693D01*
X050595Y009826D01*
X050595Y009960D01*
X050599Y010093D01*
X050606Y010225D01*
X050617Y010358D01*
X050632Y010490D01*
X050650Y010622D01*
X050672Y010754D01*
X050698Y010884D01*
X050727Y011014D01*
X050760Y011143D01*
X050884Y011893D02*
X050890Y011943D01*
X050891Y011993D01*
X050888Y012043D01*
X050882Y012093D01*
X050871Y012142D01*
X050857Y012190D01*
X050839Y012237D01*
X050817Y012282D01*
X050792Y012326D01*
X050764Y012367D01*
X050732Y012406D01*
X050697Y012443D01*
X050660Y012476D01*
X050620Y012507D01*
X050578Y012534D01*
X050534Y012558D01*
X050488Y012579D01*
X050440Y012595D01*
X050392Y012608D01*
X050342Y012617D01*
X050292Y012623D01*
X050242Y012624D01*
X050192Y012621D01*
X050142Y012615D01*
X050093Y012604D01*
X050045Y012590D01*
X049998Y012572D01*
X049953Y012550D01*
X049909Y012525D01*
X049868Y012497D01*
X049829Y012465D01*
X049792Y012430D01*
X049759Y012393D01*
X050759Y013143D02*
X050788Y013028D01*
X050814Y012911D01*
X050836Y012794D01*
X050854Y012677D01*
X050869Y012559D01*
X050880Y012440D01*
X050887Y012321D01*
X050891Y012203D01*
X050891Y012083D01*
X050887Y011965D01*
X050880Y011846D01*
X050869Y011727D01*
X050854Y011609D01*
X050836Y011492D01*
X050814Y011375D01*
X050788Y011258D01*
X050759Y011143D01*
X041822Y012143D02*
X041833Y012187D01*
X041840Y012232D01*
X041844Y012278D01*
X041843Y012323D01*
X041839Y012368D01*
X041831Y012413D01*
X041820Y012457D01*
X041804Y012500D01*
X041786Y012542D01*
X041764Y012581D01*
X041738Y012619D01*
X041710Y012655D01*
X041679Y012688D01*
X041645Y012718D01*
X041608Y012746D01*
X041570Y012770D01*
X041530Y012791D01*
X041488Y012809D01*
X041444Y012823D01*
X041400Y012833D01*
X041355Y012840D01*
X041310Y012843D01*
X041264Y012842D01*
X041219Y012837D01*
X041174Y012829D01*
X041130Y012817D01*
X041087Y012801D01*
X041046Y012782D01*
X041007Y012760D01*
X040969Y012734D01*
X040934Y012705D01*
X040901Y012673D01*
X040871Y012639D01*
X040844Y012603D01*
X040820Y012564D01*
X040799Y012523D01*
X040782Y012481D01*
X040769Y012438D01*
X040759Y012393D01*
X040760Y012393D02*
X040758Y012331D01*
X040752Y012270D01*
X040743Y012209D01*
X040730Y012149D01*
X040713Y012090D01*
X040692Y012032D01*
X040668Y011975D01*
X040641Y011920D01*
X040610Y011867D01*
X040576Y011815D01*
X040539Y011766D01*
X040499Y011719D01*
X040456Y011675D01*
X040411Y011634D01*
X040363Y011595D01*
X040312Y011559D01*
X040260Y011527D01*
X040206Y011498D01*
X040150Y011472D01*
X040092Y011450D01*
X040034Y011431D01*
X039974Y011416D01*
X039913Y011405D01*
X039852Y011397D01*
X039791Y011393D01*
X039729Y011393D01*
X039668Y011397D01*
X039607Y011405D01*
X039546Y011416D01*
X039486Y011431D01*
X039428Y011450D01*
X039370Y011472D01*
X039314Y011498D01*
X039260Y011527D01*
X039208Y011559D01*
X039157Y011595D01*
X039109Y011634D01*
X039064Y011675D01*
X039021Y011719D01*
X038981Y011766D01*
X038944Y011815D01*
X038910Y011867D01*
X038879Y011920D01*
X038852Y011975D01*
X038828Y012032D01*
X038807Y012090D01*
X038790Y012149D01*
X038777Y012209D01*
X038768Y012270D01*
X038762Y012331D01*
X038760Y012393D01*
X038759Y012394D02*
X038760Y012436D01*
X038757Y012478D01*
X038750Y012519D01*
X038740Y012560D01*
X038725Y012599D01*
X038707Y012637D01*
X038686Y012673D01*
X038662Y012707D01*
X038634Y012739D01*
X038604Y012768D01*
X038571Y012794D01*
X038535Y012817D01*
X038498Y012836D01*
X038460Y012852D01*
X038419Y012865D01*
X038378Y012873D01*
X038337Y012878D01*
X038295Y012879D01*
X038253Y012876D01*
X038211Y012869D01*
X038171Y012858D01*
X038131Y012844D01*
X038093Y012826D01*
X038057Y012805D01*
X038023Y012780D01*
X037992Y012753D01*
X037963Y012722D01*
X037937Y012689D01*
X037914Y012654D01*
X037895Y012617D01*
X037879Y012578D01*
X037866Y012538D01*
X037858Y012497D01*
X037853Y012455D01*
X037852Y012413D01*
X037855Y012371D01*
X037862Y012330D01*
X037873Y012289D01*
X037887Y012250D01*
X037905Y012212D01*
X037926Y012176D01*
X037951Y012142D01*
X037979Y012110D01*
X038009Y012081D01*
X027723Y013000D02*
X027656Y012947D01*
X027592Y012891D01*
X027530Y012831D01*
X027471Y012770D01*
X027415Y012705D01*
X027361Y012639D01*
X027310Y012570D01*
X027263Y012499D01*
X027218Y012425D01*
X027177Y012351D01*
X027139Y012274D01*
X027105Y012196D01*
X027074Y012116D01*
X027046Y012035D01*
X027022Y011953D01*
X027002Y011870D01*
X026985Y011786D01*
X026972Y011701D01*
X025035Y012201D02*
X025004Y012281D01*
X024977Y012362D01*
X024953Y012444D01*
X024932Y012527D01*
X024916Y012611D01*
X024903Y012695D01*
X024893Y012780D01*
X024888Y012866D01*
X024886Y012951D01*
X024888Y013036D01*
X024893Y013122D01*
X024903Y013207D01*
X024916Y013291D01*
X024932Y013375D01*
X024953Y013458D01*
X024977Y013540D01*
X025004Y013621D01*
X025035Y013701D01*
X022410Y013000D02*
X022423Y012916D01*
X022440Y012832D01*
X022460Y012749D01*
X022484Y012667D01*
X022512Y012586D01*
X022543Y012506D01*
X022577Y012428D01*
X022615Y012351D01*
X022656Y012276D01*
X022701Y012203D01*
X022748Y012132D01*
X022799Y012063D01*
X022852Y011996D01*
X022909Y011932D01*
X022968Y011870D01*
X023030Y011811D01*
X023094Y011755D01*
X023161Y011701D01*
X021660Y010263D02*
X021575Y010276D01*
X021491Y010293D01*
X021408Y010313D01*
X021326Y010337D01*
X021245Y010365D01*
X021165Y010396D01*
X021087Y010430D01*
X021010Y010468D01*
X020936Y010509D01*
X020862Y010554D01*
X020791Y010601D01*
X020722Y010652D01*
X020656Y010706D01*
X020591Y010762D01*
X020530Y010821D01*
X020470Y010883D01*
X020414Y010947D01*
X020361Y011014D01*
X018259Y011893D02*
X018302Y011865D01*
X018341Y011833D01*
X018379Y011799D01*
X018413Y011761D01*
X018444Y011722D01*
X018473Y011679D01*
X018498Y011635D01*
X018519Y011589D01*
X018537Y011542D01*
X018551Y011493D01*
X018562Y011444D01*
X018568Y011393D01*
X018571Y011343D01*
X018570Y011292D01*
X018564Y011241D01*
X018555Y011191D01*
X018542Y011142D01*
X018526Y011094D01*
X018505Y011048D01*
X018482Y011003D01*
X018454Y010960D01*
X018424Y010920D01*
X018390Y010882D01*
X018354Y010846D01*
X018315Y010814D01*
X018274Y010784D01*
X018230Y010758D01*
X018185Y010735D01*
X018138Y010716D01*
X018090Y010701D01*
X018040Y010689D01*
X017990Y010681D01*
X017939Y010677D01*
X017889Y010677D01*
X017838Y010681D01*
X017788Y010689D01*
X017739Y010701D01*
X017690Y010716D01*
X017643Y010735D01*
X017598Y010758D01*
X017554Y010784D01*
X017513Y010814D01*
X017474Y010846D01*
X017438Y010881D01*
X017404Y010920D01*
X017374Y010960D01*
X017346Y011003D01*
X017323Y011048D01*
X017302Y011094D01*
X017286Y011142D01*
X017273Y011191D01*
X017264Y011241D01*
X017258Y011292D01*
X017257Y011342D01*
X017260Y011393D01*
X018260Y011893D02*
X018225Y011931D01*
X018193Y011971D01*
X018163Y012014D01*
X018137Y012058D01*
X018114Y012105D01*
X018095Y012153D01*
X018079Y012202D01*
X018067Y012252D01*
X018059Y012303D01*
X018054Y012354D01*
X018053Y012406D01*
X018056Y012457D01*
X018063Y012509D01*
X018073Y012559D01*
X018087Y012609D01*
X018104Y012658D01*
X018125Y012705D01*
X018150Y012750D01*
X018178Y012794D01*
X018208Y012835D01*
X018242Y012874D01*
X018279Y012911D01*
X018318Y012945D01*
X018359Y012975D01*
X018403Y013003D01*
X018448Y013028D01*
X018495Y013049D01*
X018544Y013066D01*
X018594Y013080D01*
X018644Y013090D01*
X018696Y013097D01*
X018747Y013100D01*
X018799Y013099D01*
X018850Y013094D01*
X018901Y013086D01*
X018951Y013074D01*
X019000Y013058D01*
X019048Y013039D01*
X019095Y013016D01*
X019139Y012990D01*
X019182Y012960D01*
X019222Y012928D01*
X019260Y012893D01*
X019287Y012868D01*
X019317Y012846D01*
X019349Y012828D01*
X019383Y012813D01*
X019418Y012801D01*
X019455Y012793D01*
X019491Y012789D01*
X019529Y012789D01*
X019565Y012793D01*
X019602Y012801D01*
X019637Y012813D01*
X019671Y012828D01*
X019703Y012846D01*
X019733Y012868D01*
X019760Y012893D01*
X019785Y012920D01*
X019807Y012950D01*
X019825Y012982D01*
X019840Y013016D01*
X019852Y013051D01*
X019860Y013088D01*
X019864Y013124D01*
X019864Y013162D01*
X019860Y013198D01*
X019852Y013235D01*
X019840Y013270D01*
X019825Y013304D01*
X019807Y013336D01*
X019785Y013366D01*
X019760Y013393D01*
X028410Y010265D02*
X028462Y010335D01*
X028518Y010402D01*
X028576Y010468D01*
X028637Y010530D01*
X028700Y010590D01*
X028766Y010647D01*
X028835Y010701D01*
X028906Y010753D01*
X028979Y010801D01*
X029054Y010845D01*
X029131Y010887D01*
X029210Y010925D01*
X029290Y010959D01*
X029372Y010990D01*
X029454Y011018D01*
X029539Y011042D01*
X029624Y011062D01*
X029709Y011078D01*
X021195Y008326D02*
X021197Y008450D01*
X021203Y008573D01*
X021213Y008697D01*
X021227Y008820D01*
X021245Y008942D01*
X021267Y009064D01*
X021292Y009185D01*
X021322Y009305D01*
X021355Y009424D01*
X021393Y009542D01*
X021434Y009659D01*
X021478Y009774D01*
X021527Y009888D01*
X021579Y010000D01*
X021635Y010111D01*
X021694Y010219D01*
X021757Y010326D01*
X021823Y010430D01*
X021892Y010533D01*
X021965Y010633D01*
X022041Y010731D01*
X022120Y010826D01*
X022202Y010918D01*
X022287Y011008D01*
X022375Y011095D01*
X022466Y011180D01*
X022559Y011261D01*
X022655Y011339D01*
X022753Y011414D01*
X022854Y011486D01*
X022957Y011555D01*
X023062Y011620D01*
X023169Y011682D01*
X023278Y011740D01*
X023389Y011795D01*
X023501Y011846D01*
X023616Y011894D01*
X023731Y011938D01*
X023848Y011978D01*
X023967Y012014D01*
X024086Y012047D01*
X024206Y012076D01*
X024328Y012100D01*
X024450Y012121D01*
X024572Y012138D01*
X024695Y012151D01*
X024819Y012160D01*
X024942Y012165D01*
X025066Y012166D01*
X025190Y012163D01*
X025313Y012156D01*
X025436Y012145D01*
X025559Y012130D01*
X025681Y012111D01*
X025803Y012088D01*
X025924Y012062D01*
X026044Y012031D01*
X026163Y011997D01*
X026280Y011958D01*
X026397Y011916D01*
X026512Y011871D01*
X026625Y011821D01*
X026737Y011768D01*
X026847Y011712D01*
X026955Y011652D01*
X027061Y011588D01*
X027165Y011521D01*
X027267Y011451D01*
X027367Y011377D01*
X027464Y011300D01*
X027558Y011221D01*
X027650Y011138D01*
X027739Y011052D01*
X027826Y010964D01*
X027909Y010872D01*
X027990Y010778D01*
X028067Y010682D01*
X028142Y010583D01*
X028213Y010482D01*
X028281Y010378D01*
X028345Y010273D01*
X028406Y010165D01*
X028463Y010056D01*
X028517Y009944D01*
X028568Y009831D01*
X028614Y009717D01*
X028657Y009601D01*
X028696Y009483D01*
X028732Y009365D01*
X028763Y009245D01*
X028791Y009124D01*
X028815Y009003D01*
X028835Y008881D01*
X028851Y008758D01*
X028863Y008635D01*
X028871Y008512D01*
X028875Y008388D01*
X028875Y008264D01*
X028871Y008140D01*
X028863Y008017D01*
X028851Y007894D01*
X028835Y007771D01*
X028815Y007649D01*
X028791Y007528D01*
X028763Y007407D01*
X028732Y007287D01*
X028696Y007169D01*
X028657Y007051D01*
X028614Y006935D01*
X028568Y006821D01*
X028517Y006708D01*
X028463Y006596D01*
X028406Y006487D01*
X028345Y006379D01*
X028281Y006274D01*
X028213Y006170D01*
X028142Y006069D01*
X028067Y005970D01*
X027990Y005874D01*
X027909Y005780D01*
X027826Y005688D01*
X027739Y005600D01*
X027650Y005514D01*
X027558Y005431D01*
X027464Y005352D01*
X027367Y005275D01*
X027267Y005201D01*
X027165Y005131D01*
X027061Y005064D01*
X026955Y005000D01*
X026847Y004940D01*
X026737Y004884D01*
X026625Y004831D01*
X026512Y004781D01*
X026397Y004736D01*
X026280Y004694D01*
X026163Y004655D01*
X026044Y004621D01*
X025924Y004590D01*
X025803Y004564D01*
X025681Y004541D01*
X025559Y004522D01*
X025436Y004507D01*
X025313Y004496D01*
X025190Y004489D01*
X025066Y004486D01*
X024942Y004487D01*
X024819Y004492D01*
X024695Y004501D01*
X024572Y004514D01*
X024450Y004531D01*
X024328Y004552D01*
X024206Y004576D01*
X024086Y004605D01*
X023967Y004638D01*
X023848Y004674D01*
X023731Y004714D01*
X023616Y004758D01*
X023501Y004806D01*
X023389Y004857D01*
X023278Y004912D01*
X023169Y004970D01*
X023062Y005032D01*
X022957Y005097D01*
X022854Y005166D01*
X022753Y005238D01*
X022655Y005313D01*
X022559Y005391D01*
X022466Y005472D01*
X022375Y005557D01*
X022287Y005644D01*
X022202Y005734D01*
X022120Y005826D01*
X022041Y005921D01*
X021965Y006019D01*
X021892Y006119D01*
X021823Y006222D01*
X021757Y006326D01*
X021694Y006433D01*
X021635Y006541D01*
X021579Y006652D01*
X021527Y006764D01*
X021478Y006878D01*
X021434Y006993D01*
X021393Y007110D01*
X021355Y007228D01*
X021322Y007347D01*
X021292Y007467D01*
X021267Y007588D01*
X021245Y007710D01*
X021227Y007832D01*
X021213Y007955D01*
X021203Y008079D01*
X021197Y008202D01*
X021195Y008326D01*
X021160Y008326D02*
X019660Y008326D01*
X028410Y006388D02*
X028463Y006321D01*
X028519Y006257D01*
X028579Y006195D01*
X028640Y006136D01*
X028705Y006080D01*
X028771Y006026D01*
X028840Y005975D01*
X028911Y005928D01*
X028985Y005883D01*
X029059Y005842D01*
X029136Y005804D01*
X029214Y005770D01*
X029294Y005739D01*
X029375Y005711D01*
X029457Y005687D01*
X029540Y005667D01*
X029624Y005650D01*
X029709Y005637D01*
X027662Y003652D02*
X027595Y003706D01*
X027531Y003762D01*
X027469Y003821D01*
X027410Y003883D01*
X027353Y003947D01*
X027300Y004014D01*
X027249Y004083D01*
X027202Y004154D01*
X027157Y004227D01*
X027116Y004302D01*
X027078Y004379D01*
X027044Y004457D01*
X027013Y004537D01*
X026985Y004618D01*
X026961Y004700D01*
X026941Y004783D01*
X026924Y004867D01*
X026911Y004951D01*
X025035Y004451D02*
X025004Y004371D01*
X024977Y004290D01*
X024953Y004208D01*
X024932Y004125D01*
X024916Y004041D01*
X024903Y003957D01*
X024893Y003872D01*
X024888Y003786D01*
X024886Y003701D01*
X024888Y003616D01*
X024893Y003530D01*
X024903Y003445D01*
X024916Y003361D01*
X024932Y003277D01*
X024953Y003194D01*
X024977Y003112D01*
X025004Y003031D01*
X025035Y002951D01*
X022471Y003590D02*
X022484Y003675D01*
X022501Y003759D01*
X022521Y003842D01*
X022545Y003924D01*
X022573Y004005D01*
X022604Y004085D01*
X022638Y004163D01*
X022676Y004240D01*
X022717Y004314D01*
X022762Y004388D01*
X022809Y004459D01*
X022860Y004528D01*
X022914Y004594D01*
X022970Y004659D01*
X023029Y004720D01*
X023091Y004780D01*
X023155Y004836D01*
X023222Y004889D01*
X021660Y006326D02*
X021576Y006313D01*
X021492Y006296D01*
X021409Y006276D01*
X021327Y006252D01*
X021246Y006224D01*
X021166Y006193D01*
X021088Y006159D01*
X021011Y006121D01*
X020936Y006080D01*
X020863Y006035D01*
X020792Y005988D01*
X020723Y005937D01*
X020656Y005884D01*
X020592Y005827D01*
X020530Y005768D01*
X020471Y005706D01*
X020415Y005642D01*
X020361Y005575D01*
X037760Y003393D02*
X037828Y003381D01*
X037897Y003373D01*
X037966Y003369D01*
X038035Y003368D01*
X038104Y003371D01*
X038172Y003378D01*
X038240Y003389D01*
X038308Y003403D01*
X038375Y003421D01*
X038440Y003443D01*
X038505Y003468D01*
X038568Y003496D01*
X038629Y003528D01*
X038688Y003563D01*
X038746Y003602D01*
X038801Y003643D01*
X038854Y003687D01*
X038904Y003734D01*
X038952Y003784D01*
X038997Y003836D01*
X039040Y003891D01*
X039079Y003948D01*
X039115Y004007D01*
X039148Y004068D01*
X039177Y004130D01*
X039203Y004194D01*
X039226Y004259D01*
X039245Y004326D01*
X039260Y004393D01*
X039262Y004437D01*
X039268Y004480D01*
X039277Y004522D01*
X039290Y004564D01*
X039307Y004604D01*
X039327Y004643D01*
X039350Y004680D01*
X039377Y004714D01*
X039406Y004747D01*
X039439Y004776D01*
X039473Y004803D01*
X039510Y004826D01*
X039549Y004846D01*
X039589Y004863D01*
X039631Y004876D01*
X039673Y004885D01*
X039716Y004891D01*
X039760Y004893D01*
X039804Y004891D01*
X039847Y004885D01*
X039889Y004876D01*
X039931Y004863D01*
X039971Y004846D01*
X040010Y004826D01*
X040047Y004803D01*
X040081Y004776D01*
X040114Y004747D01*
X040143Y004714D01*
X040170Y004680D01*
X040193Y004643D01*
X040213Y004604D01*
X040230Y004564D01*
X040243Y004522D01*
X040252Y004480D01*
X040258Y004437D01*
X040260Y004393D01*
X040260Y004394D02*
X040277Y004325D01*
X040297Y004257D01*
X040322Y004190D01*
X040350Y004125D01*
X040381Y004061D01*
X040416Y003999D01*
X040455Y003939D01*
X040496Y003882D01*
X040541Y003826D01*
X040588Y003773D01*
X040638Y003723D01*
X040691Y003676D01*
X040746Y003631D01*
X040804Y003589D01*
X040864Y003551D01*
X040926Y003516D01*
X040989Y003485D01*
X041055Y003456D01*
X041121Y003432D01*
X041189Y003411D01*
X041258Y003394D01*
X041328Y003380D01*
X041398Y003371D01*
X041469Y003365D01*
X041540Y003363D01*
X041611Y003365D01*
X041682Y003371D01*
X041753Y003380D01*
X041822Y003394D01*
X050760Y003643D02*
X050727Y003772D01*
X050698Y003902D01*
X050672Y004032D01*
X050650Y004164D01*
X050632Y004296D01*
X050617Y004428D01*
X050606Y004561D01*
X050599Y004693D01*
X050595Y004826D01*
X050595Y004960D01*
X050599Y005093D01*
X050606Y005225D01*
X050617Y005358D01*
X050632Y005490D01*
X050650Y005622D01*
X050672Y005754D01*
X050698Y005884D01*
X050727Y006014D01*
X050760Y006143D01*
D17*
X051078Y006058D02*
X051080Y006063D01*
X051166Y006385D01*
X051231Y006882D01*
X051241Y006927D01*
X051361Y007181D01*
X051554Y007386D01*
X051800Y007521D01*
X052077Y007573D01*
X052218Y007566D01*
X052283Y007558D01*
X052409Y007592D01*
X052513Y007672D01*
X052578Y007786D01*
X052595Y007916D01*
X052561Y008043D01*
X052481Y008147D01*
X052367Y008212D01*
X052301Y008221D01*
X052057Y008252D01*
X051571Y008160D01*
X051223Y007970D01*
X051166Y008402D01*
X051166Y008402D01*
X051078Y008729D01*
X051011Y009015D01*
X050935Y009599D01*
X050935Y010188D01*
X051011Y010771D01*
X051078Y011058D01*
X051173Y011412D01*
X051173Y011412D01*
X051211Y011847D01*
X051237Y012026D01*
X051230Y012058D01*
X051237Y012143D01*
X051173Y012874D01*
X051078Y013229D01*
X051061Y013292D01*
X050981Y013396D01*
X050868Y013462D01*
X050738Y013479D01*
X050611Y013445D01*
X050507Y013365D01*
X050441Y013251D01*
X050424Y013121D01*
X050441Y013058D01*
X050469Y012929D01*
X050299Y012970D01*
X049939Y012920D01*
X049622Y012744D01*
X049622Y012744D01*
X049506Y012604D01*
X049464Y012554D01*
X049425Y012428D01*
X049437Y012298D01*
X049498Y012181D01*
X049599Y012098D01*
X049724Y012059D01*
X049855Y012071D01*
X049971Y012132D01*
X050013Y012182D01*
X050054Y012223D01*
X050153Y012278D01*
X050266Y012294D01*
X050377Y012267D01*
X050471Y012203D01*
X050535Y012109D01*
X050552Y012036D01*
X050507Y011530D01*
X050441Y011229D01*
X050434Y011204D01*
X050353Y010902D01*
X050265Y010231D01*
X050265Y009555D01*
X050353Y008885D01*
X050353Y008885D01*
X050439Y008565D01*
X050441Y008558D01*
X050508Y008271D01*
X050584Y007688D01*
X050584Y007099D01*
X050508Y006515D01*
X050441Y006229D01*
X050441Y006229D01*
X050353Y005902D01*
X050265Y005231D01*
X050265Y004555D01*
X050353Y003885D01*
X050353Y003885D01*
X050441Y003558D01*
X050458Y003494D01*
X050538Y003390D01*
X050651Y003325D01*
X050782Y003308D01*
X050908Y003342D01*
X051012Y003421D01*
X051078Y003535D01*
X051095Y003665D01*
X051078Y003729D01*
X051011Y004015D01*
X050935Y004599D01*
X050935Y005188D01*
X051011Y005771D01*
X051078Y006058D01*
X051074Y006038D02*
X053601Y006038D01*
X053601Y006136D02*
X051099Y006136D01*
X051126Y006235D02*
X053601Y006235D01*
X053601Y006333D02*
X051152Y006333D01*
X051166Y006385D02*
X051166Y006385D01*
X051172Y006432D02*
X053601Y006432D01*
X053601Y006530D02*
X051185Y006530D01*
X051198Y006629D02*
X053601Y006629D01*
X053601Y006727D02*
X051211Y006727D01*
X051224Y006826D02*
X053601Y006826D01*
X053601Y006924D02*
X051240Y006924D01*
X051286Y007023D02*
X053601Y007023D01*
X053601Y007121D02*
X051333Y007121D01*
X051397Y007220D02*
X053601Y007220D01*
X053601Y007318D02*
X051490Y007318D01*
X051611Y007417D02*
X053601Y007417D01*
X053601Y007515D02*
X051791Y007515D01*
X052438Y007614D02*
X053601Y007614D01*
X053601Y007712D02*
X052536Y007712D01*
X052582Y007811D02*
X053601Y007811D01*
X053601Y007909D02*
X052594Y007909D01*
X052570Y008008D02*
X053601Y008008D01*
X053601Y008106D02*
X052512Y008106D01*
X052380Y008205D02*
X053601Y008205D01*
X053601Y008303D02*
X051179Y008303D01*
X051192Y008205D02*
X051807Y008205D01*
X052057Y008252D02*
X052057Y008252D01*
X051473Y008106D02*
X051205Y008106D01*
X051218Y008008D02*
X051293Y008008D01*
X050555Y007909D02*
X047183Y007909D01*
X047173Y007811D02*
X050568Y007811D01*
X050581Y007712D02*
X047163Y007712D01*
X047153Y007614D02*
X050584Y007614D01*
X050584Y007515D02*
X047128Y007515D01*
X047150Y007584D02*
X046926Y006871D01*
X046926Y006871D01*
X046564Y006218D01*
X046564Y006218D01*
X046077Y005652D01*
X046077Y005652D01*
X045487Y005195D01*
X045487Y005195D01*
X044817Y004866D01*
X044817Y004866D01*
X044094Y004679D01*
X044094Y004679D01*
X043348Y004641D01*
X043348Y004641D01*
X042610Y004754D01*
X042610Y004754D01*
X041910Y005013D01*
X041276Y005408D01*
X040735Y005923D01*
X040735Y005923D01*
X040309Y006536D01*
X040014Y007222D01*
X040014Y007222D01*
X039864Y007953D01*
X039864Y008700D01*
X040014Y009431D01*
X040014Y009431D01*
X040309Y010117D01*
X040309Y010117D01*
X040735Y010730D01*
X040735Y010730D01*
X041276Y011244D01*
X041276Y011244D01*
X041910Y011639D01*
X041910Y011639D01*
X042610Y011899D01*
X042610Y011899D01*
X043348Y012012D01*
X043348Y012012D01*
X044094Y011974D01*
X044094Y011974D01*
X044817Y011787D01*
X044817Y011787D01*
X045487Y011458D01*
X045487Y011458D01*
X046077Y011001D01*
X046077Y011001D01*
X046564Y010434D01*
X046564Y010434D01*
X046926Y009782D01*
X046926Y009782D01*
X047150Y009069D01*
X047150Y009069D01*
X047225Y008326D01*
X047150Y007584D01*
X047150Y007584D01*
X047097Y007417D02*
X050584Y007417D01*
X050584Y007318D02*
X047066Y007318D01*
X047035Y007220D02*
X050584Y007220D01*
X050584Y007121D02*
X047005Y007121D01*
X046974Y007023D02*
X050574Y007023D01*
X050561Y006924D02*
X046943Y006924D01*
X046901Y006826D02*
X050548Y006826D01*
X050536Y006727D02*
X046846Y006727D01*
X046792Y006629D02*
X050523Y006629D01*
X050510Y006530D02*
X046737Y006530D01*
X046682Y006432D02*
X050488Y006432D01*
X050465Y006333D02*
X046628Y006333D01*
X046573Y006235D02*
X050442Y006235D01*
X050416Y006136D02*
X046493Y006136D01*
X046409Y006038D02*
X050390Y006038D01*
X050363Y005939D02*
X046324Y005939D01*
X046240Y005841D02*
X050345Y005841D01*
X050353Y005902D02*
X050353Y005902D01*
X050332Y005742D02*
X046155Y005742D01*
X046077Y005652D02*
X046077Y005652D01*
X046067Y005644D02*
X050319Y005644D01*
X050306Y005545D02*
X045940Y005545D01*
X045812Y005447D02*
X050293Y005447D01*
X050280Y005348D02*
X045685Y005348D01*
X045558Y005250D02*
X050267Y005250D01*
X050265Y005151D02*
X045398Y005151D01*
X045197Y005053D02*
X050265Y005053D01*
X050265Y004954D02*
X044997Y004954D01*
X044777Y004856D02*
X050265Y004856D01*
X050265Y004757D02*
X044397Y004757D01*
X043697Y004659D02*
X050265Y004659D01*
X050265Y004560D02*
X040589Y004560D01*
X040590Y004558D02*
X040463Y004863D01*
X040463Y004863D01*
X040230Y005097D01*
X040230Y005097D01*
X039925Y005223D01*
X039594Y005223D01*
X039289Y005097D01*
X039056Y004863D01*
X038930Y004558D01*
X038930Y004434D01*
X038904Y004339D01*
X038794Y004118D01*
X038632Y003932D01*
X038426Y003796D01*
X038193Y003717D01*
X037947Y003701D01*
X037824Y003717D01*
X037760Y003730D01*
X037631Y003704D01*
X037522Y003631D01*
X037449Y003522D01*
X037423Y003394D01*
X037449Y003265D01*
X037521Y003156D01*
X037630Y003083D01*
X025338Y003083D01*
X025340Y003078D02*
X025286Y003228D01*
X025224Y003542D01*
X025224Y003861D01*
X025285Y004168D01*
X026018Y004274D01*
X026018Y004274D01*
X026675Y004501D01*
X026758Y004257D01*
X026984Y003867D01*
X026984Y003867D01*
X027281Y003528D01*
X027281Y003528D01*
X027281Y003528D01*
X027460Y003390D01*
X027512Y003351D01*
X027639Y003317D01*
X027769Y003334D01*
X027883Y003400D01*
X027963Y003504D01*
X027997Y003631D01*
X027980Y003761D01*
X027914Y003874D01*
X027862Y003914D01*
X027740Y004018D01*
X027529Y004258D01*
X027369Y004535D01*
X027271Y004824D01*
X027454Y004930D01*
X028053Y005449D01*
X028409Y005901D01*
X028624Y005711D01*
X028624Y005711D01*
X029015Y005486D01*
X029442Y005340D01*
X029666Y005311D01*
X029731Y005302D01*
X029858Y005336D01*
X029962Y005416D01*
X030028Y005530D01*
X030045Y005660D01*
X030011Y005786D01*
X029931Y005891D01*
X029817Y005956D01*
X029752Y005965D01*
X029595Y005994D01*
X029292Y006097D01*
X029016Y006257D01*
X028775Y006468D01*
X028758Y006488D01*
X028906Y006777D01*
X029130Y007537D01*
X029205Y008326D01*
X029130Y009116D01*
X028906Y009876D01*
X028906Y009876D01*
X028755Y010169D01*
X028781Y010201D01*
X029019Y010426D01*
X029297Y010600D01*
X029604Y010717D01*
X029764Y010752D01*
X029829Y010763D01*
X029940Y010833D01*
X030016Y010939D01*
X030045Y011067D01*
X030024Y011197D01*
X029954Y011308D01*
X029847Y011384D01*
X029719Y011414D01*
X029654Y011403D01*
X029428Y011365D01*
X028998Y011201D01*
X028609Y010958D01*
X028401Y010762D01*
X028053Y011204D01*
X027454Y011723D01*
X027325Y011797D01*
X027328Y011816D01*
X027431Y012118D01*
X027591Y012395D01*
X027802Y012635D01*
X027924Y012738D01*
X027976Y012778D01*
X028042Y012892D01*
X028059Y013022D01*
X028025Y013149D01*
X027946Y013253D01*
X027832Y013319D01*
X027702Y013336D01*
X027575Y013302D01*
X027523Y013262D01*
X027344Y013125D01*
X027344Y013125D01*
X027046Y012786D01*
X026820Y012395D01*
X026731Y012132D01*
X026018Y012379D01*
X025285Y012484D01*
X025224Y012792D01*
X025224Y013111D01*
X025286Y013424D01*
X025340Y013575D01*
X025365Y013636D01*
X025365Y013767D01*
X025315Y013888D01*
X025222Y013981D01*
X025101Y014031D01*
X024969Y014031D01*
X024848Y013981D01*
X024755Y013888D01*
X024730Y013828D01*
X024644Y013619D01*
X024556Y013177D01*
X024556Y012726D01*
X024608Y012462D01*
X024442Y012454D01*
X023671Y012267D01*
X023237Y012069D01*
X023028Y012307D01*
X022868Y012584D01*
X022765Y012886D01*
X022736Y013044D01*
X022728Y013109D01*
X022662Y013222D01*
X022558Y013302D01*
X022431Y013336D01*
X022301Y013319D01*
X022187Y013253D01*
X022107Y013149D01*
X022073Y013022D01*
X022082Y012957D01*
X022112Y012733D01*
X022257Y012306D01*
X022483Y011916D01*
X022651Y011724D01*
X022304Y011478D01*
X022304Y011478D01*
X021757Y010904D01*
X021572Y010615D01*
X021546Y010620D01*
X021243Y010723D01*
X020967Y010883D01*
X020726Y011094D01*
X020623Y011216D01*
X020583Y011268D01*
X020469Y011333D01*
X020339Y011351D01*
X020212Y011317D01*
X020108Y011237D01*
X020043Y011123D01*
X020025Y010993D01*
X020059Y010866D01*
X020099Y010814D01*
X020236Y010635D01*
X020575Y010337D01*
X020575Y010337D01*
X020966Y010112D01*
X021241Y010018D01*
X021034Y009501D01*
X020884Y008723D01*
X020884Y008656D01*
X019594Y008656D01*
X019473Y008606D01*
X019380Y008513D01*
X019330Y008392D01*
X019330Y008261D01*
X019380Y008139D01*
X019473Y008047D01*
X019594Y007996D01*
X020884Y007996D01*
X020884Y007930D01*
X021034Y007152D01*
X021034Y007152D01*
X021263Y006580D01*
X020966Y006479D01*
X020575Y006253D01*
X020236Y005955D01*
X020099Y005776D01*
X020059Y005724D01*
X020025Y005597D01*
X020043Y005467D01*
X020108Y005353D01*
X020212Y005274D01*
X020339Y005240D01*
X020469Y005257D01*
X020583Y005323D01*
X020623Y005375D01*
X020726Y005497D01*
X020967Y005708D01*
X021243Y005868D01*
X021546Y005970D01*
X021607Y005982D01*
X021757Y005749D01*
X021757Y005749D01*
X022304Y005175D01*
X022304Y005175D01*
X022723Y004877D01*
X022545Y004675D01*
X022319Y004284D01*
X022174Y003857D01*
X022144Y003633D01*
X022136Y003568D01*
X022170Y003441D01*
X022250Y003337D01*
X022363Y003271D01*
X022493Y003254D01*
X022620Y003288D01*
X022724Y003368D01*
X022790Y003481D01*
X022799Y003547D01*
X022827Y003704D01*
X022930Y004007D01*
X023090Y004283D01*
X023301Y004524D01*
X023325Y004544D01*
X023671Y004386D01*
X023671Y004386D01*
X024442Y004199D01*
X024608Y004191D01*
X024556Y003927D01*
X024556Y003476D01*
X024644Y003033D01*
X024730Y002825D01*
X024755Y002764D01*
X024848Y002672D01*
X024969Y002621D01*
X025101Y002621D01*
X025222Y002672D01*
X025315Y002764D01*
X025365Y002886D01*
X053601Y002886D01*
X053601Y002984D02*
X025365Y002984D01*
X025365Y003017D02*
X025340Y003078D01*
X025365Y003017D02*
X025365Y002886D01*
X025324Y002787D02*
X053601Y002787D01*
X053601Y002689D02*
X025239Y002689D01*
X024831Y002689D02*
X003470Y002689D01*
X003470Y002643D02*
X003470Y014049D01*
X053601Y014049D01*
X053601Y002648D01*
X053599Y002637D01*
X053587Y002617D01*
X053567Y002605D01*
X053556Y002603D01*
X003510Y002603D01*
X003499Y002605D01*
X003481Y002615D01*
X003471Y002633D01*
X003470Y002643D01*
X003470Y002787D02*
X024746Y002787D01*
X024705Y002886D02*
X003470Y002886D01*
X003470Y002984D02*
X024664Y002984D01*
X024644Y003033D02*
X024644Y003033D01*
X024634Y003083D02*
X003470Y003083D01*
X003470Y003181D02*
X024615Y003181D01*
X024595Y003280D02*
X022590Y003280D01*
X022730Y003378D02*
X024575Y003378D01*
X024556Y003477D02*
X022787Y003477D01*
X022804Y003575D02*
X024556Y003575D01*
X024556Y003674D02*
X022822Y003674D01*
X022851Y003772D02*
X024556Y003772D01*
X024556Y003871D02*
X022884Y003871D01*
X022918Y003969D02*
X024564Y003969D01*
X024584Y004068D02*
X022966Y004068D01*
X023023Y004166D02*
X024604Y004166D01*
X024442Y004199D02*
X024442Y004199D01*
X024170Y004265D02*
X023080Y004265D01*
X023161Y004363D02*
X023764Y004363D01*
X023505Y004462D02*
X023247Y004462D01*
X022479Y004560D02*
X018185Y004560D01*
X018146Y004462D02*
X022422Y004462D01*
X022365Y004363D02*
X018089Y004363D01*
X018129Y004419D02*
X018129Y004419D01*
X018350Y004976D01*
X018350Y004976D01*
X018425Y005570D01*
X018350Y006165D01*
X018129Y006722D01*
X017777Y007207D01*
X017316Y007588D01*
X017195Y007645D01*
X017179Y007665D01*
X017129Y007694D01*
X016804Y007894D01*
X016197Y008355D01*
X015656Y008891D01*
X015189Y009494D01*
X014987Y009814D01*
X014964Y009858D01*
X014959Y009861D01*
X014956Y009867D01*
X014915Y009898D01*
X014875Y009931D01*
X014869Y009933D01*
X014865Y009936D01*
X014814Y009950D01*
X014765Y009965D01*
X014759Y009964D01*
X014753Y009966D01*
X014701Y009959D01*
X014650Y009954D01*
X014645Y009951D01*
X014639Y009950D01*
X014594Y009924D01*
X014548Y009899D01*
X014544Y009895D01*
X014539Y009892D01*
X014508Y009850D01*
X014475Y009810D01*
X014473Y009805D01*
X014469Y009800D01*
X014456Y009750D01*
X014441Y009700D01*
X014441Y009694D01*
X014440Y009688D01*
X014447Y009639D01*
X014470Y009278D01*
X014445Y008548D01*
X014325Y007827D01*
X014112Y007128D01*
X013971Y006791D01*
X013947Y006738D01*
X013946Y006692D01*
X013813Y006450D01*
X013783Y006334D01*
X013629Y006722D01*
X013277Y007207D01*
X012816Y007588D01*
X012695Y007645D01*
X012679Y007665D01*
X012629Y007694D01*
X012304Y007894D01*
X011697Y008355D01*
X011156Y008891D01*
X010689Y009494D01*
X010487Y009814D01*
X010464Y009858D01*
X010459Y009861D01*
X010456Y009867D01*
X010415Y009898D01*
X010375Y009931D01*
X010369Y009933D01*
X010365Y009936D01*
X010314Y009950D01*
X010265Y009965D01*
X010259Y009964D01*
X010253Y009966D01*
X010201Y009959D01*
X010150Y009954D01*
X010145Y009951D01*
X010139Y009950D01*
X010094Y009924D01*
X010048Y009899D01*
X010044Y009895D01*
X010039Y009892D01*
X010008Y009850D01*
X009975Y009810D01*
X009973Y009805D01*
X009969Y009800D01*
X009956Y009750D01*
X009941Y009700D01*
X009941Y009694D01*
X009940Y009688D01*
X009947Y009639D01*
X009970Y009278D01*
X009945Y008548D01*
X009825Y007827D01*
X009612Y007128D01*
X009471Y006791D01*
X009447Y006738D01*
X009446Y006692D01*
X009313Y006450D01*
X009164Y005870D01*
X009164Y005271D01*
X009313Y004691D01*
X009313Y004691D01*
X009602Y004166D01*
X010012Y003729D01*
X010517Y003408D01*
X010517Y003408D01*
X011087Y003223D01*
X011087Y003223D01*
X011685Y003185D01*
X011685Y003185D01*
X012274Y003297D01*
X012816Y003553D01*
X013277Y003934D01*
X013277Y003934D01*
X013629Y004419D01*
X013783Y004807D01*
X013813Y004691D01*
X013813Y004691D01*
X014102Y004166D01*
X014512Y003729D01*
X015017Y003408D01*
X015017Y003408D01*
X015587Y003223D01*
X015587Y003223D01*
X016185Y003185D01*
X016185Y003185D01*
X016774Y003297D01*
X017316Y003553D01*
X017777Y003934D01*
X017777Y003934D01*
X017777Y003934D01*
X018129Y004419D01*
X018017Y004265D02*
X022313Y004265D01*
X022279Y004166D02*
X017946Y004166D01*
X017874Y004068D02*
X022246Y004068D01*
X022212Y003969D02*
X017803Y003969D01*
X017700Y003871D02*
X022179Y003871D01*
X022163Y003772D02*
X017581Y003772D01*
X017462Y003674D02*
X022150Y003674D01*
X022137Y003575D02*
X017343Y003575D01*
X017316Y003553D02*
X017316Y003553D01*
X017155Y003477D02*
X022160Y003477D01*
X022218Y003378D02*
X016945Y003378D01*
X016774Y003297D02*
X016774Y003297D01*
X016681Y003280D02*
X022349Y003280D01*
X025224Y003575D02*
X027239Y003575D01*
X027153Y003674D02*
X025224Y003674D01*
X025224Y003772D02*
X027067Y003772D01*
X026981Y003871D02*
X025226Y003871D01*
X025245Y003969D02*
X026924Y003969D01*
X026867Y004068D02*
X025265Y004068D01*
X025284Y004166D02*
X026810Y004166D01*
X026758Y004257D02*
X026758Y004257D01*
X026755Y004265D02*
X025955Y004265D01*
X026276Y004363D02*
X026722Y004363D01*
X026688Y004462D02*
X026561Y004462D01*
X027327Y004659D02*
X035233Y004659D01*
X035348Y004641D02*
X035348Y004641D01*
X034610Y004754D01*
X034610Y004754D01*
X033910Y005013D01*
X033910Y005013D01*
X033276Y005408D01*
X033276Y005408D01*
X032735Y005923D01*
X032735Y005923D01*
X032309Y006536D01*
X032309Y006536D01*
X032014Y007222D01*
X031864Y007953D01*
X031864Y008700D01*
X032014Y009431D01*
X032309Y010117D01*
X032735Y010730D01*
X032735Y010730D01*
X033276Y011244D01*
X033276Y011244D01*
X033276Y011244D01*
X033910Y011639D01*
X033910Y011639D01*
X034610Y011899D01*
X034610Y011899D01*
X035348Y012012D01*
X035348Y012012D01*
X036094Y011974D01*
X036094Y011974D01*
X036817Y011787D01*
X036817Y011787D01*
X037487Y011458D01*
X037487Y011458D01*
X038077Y011001D01*
X038077Y011001D01*
X038564Y010434D01*
X038564Y010434D01*
X038926Y009782D01*
X038926Y009782D01*
X039150Y009069D01*
X039150Y009069D01*
X039225Y008326D01*
X039150Y007584D01*
X038926Y006871D01*
X038926Y006871D01*
X038564Y006218D01*
X038564Y006218D01*
X038077Y005652D01*
X038077Y005652D01*
X037487Y005195D01*
X037487Y005195D01*
X036817Y004866D01*
X036817Y004866D01*
X036094Y004679D01*
X036094Y004679D01*
X035348Y004641D01*
X035697Y004659D02*
X038971Y004659D01*
X039012Y004757D02*
X036397Y004757D01*
X036777Y004856D02*
X039053Y004856D01*
X039056Y004863D02*
X039056Y004863D01*
X039147Y004954D02*
X036997Y004954D01*
X037197Y005053D02*
X039245Y005053D01*
X039289Y005097D02*
X039289Y005097D01*
X039421Y005151D02*
X037398Y005151D01*
X037558Y005250D02*
X041531Y005250D01*
X041373Y005348D02*
X037685Y005348D01*
X037812Y005447D02*
X041236Y005447D01*
X041132Y005545D02*
X037940Y005545D01*
X038067Y005644D02*
X041029Y005644D01*
X040925Y005742D02*
X038155Y005742D01*
X038077Y005652D02*
X038077Y005652D01*
X038240Y005841D02*
X040822Y005841D01*
X040724Y005939D02*
X038324Y005939D01*
X038409Y006038D02*
X040655Y006038D01*
X040587Y006136D02*
X038493Y006136D01*
X038573Y006235D02*
X040518Y006235D01*
X040450Y006333D02*
X038628Y006333D01*
X038682Y006432D02*
X040381Y006432D01*
X040312Y006530D02*
X038737Y006530D01*
X038792Y006629D02*
X040269Y006629D01*
X040226Y006727D02*
X038846Y006727D01*
X038901Y006826D02*
X040184Y006826D01*
X040142Y006924D02*
X038943Y006924D01*
X038974Y007023D02*
X040100Y007023D01*
X040057Y007121D02*
X039005Y007121D01*
X039035Y007220D02*
X040015Y007220D01*
X039994Y007318D02*
X039066Y007318D01*
X039097Y007417D02*
X039974Y007417D01*
X039954Y007515D02*
X039128Y007515D01*
X039150Y007584D02*
X039150Y007584D01*
X039153Y007614D02*
X039934Y007614D01*
X039914Y007712D02*
X039163Y007712D01*
X039173Y007811D02*
X039893Y007811D01*
X039873Y007909D02*
X039183Y007909D01*
X039193Y008008D02*
X039864Y008008D01*
X039864Y008106D02*
X039203Y008106D01*
X039213Y008205D02*
X039864Y008205D01*
X039864Y008303D02*
X039223Y008303D01*
X039217Y008402D02*
X039864Y008402D01*
X039864Y008500D02*
X039207Y008500D01*
X039197Y008599D02*
X039864Y008599D01*
X039864Y008697D02*
X039187Y008697D01*
X039177Y008796D02*
X039884Y008796D01*
X039904Y008894D02*
X039167Y008894D01*
X039157Y008993D02*
X039924Y008993D01*
X039945Y009091D02*
X039143Y009091D01*
X039112Y009190D02*
X039965Y009190D01*
X039985Y009288D02*
X039081Y009288D01*
X039050Y009387D02*
X040005Y009387D01*
X040038Y009485D02*
X039019Y009485D01*
X038988Y009584D02*
X040080Y009584D01*
X040122Y009682D02*
X038957Y009682D01*
X038926Y009781D02*
X040164Y009781D01*
X040207Y009879D02*
X038872Y009879D01*
X038817Y009978D02*
X040249Y009978D01*
X040291Y010076D02*
X038762Y010076D01*
X038708Y010175D02*
X040349Y010175D01*
X040417Y010273D02*
X038653Y010273D01*
X038598Y010372D02*
X040486Y010372D01*
X040555Y010470D02*
X038533Y010470D01*
X038448Y010569D02*
X040623Y010569D01*
X040692Y010667D02*
X038364Y010667D01*
X038279Y010766D02*
X040773Y010766D01*
X040877Y010864D02*
X038195Y010864D01*
X038110Y010963D02*
X040980Y010963D01*
X041084Y011061D02*
X037999Y011061D01*
X037872Y011160D02*
X039252Y011160D01*
X039148Y011193D02*
X039549Y011063D01*
X039970Y011063D01*
X040371Y011193D01*
X040712Y011441D01*
X040712Y011441D01*
X040712Y011441D01*
X040959Y011782D01*
X041090Y012183D01*
X041090Y012353D01*
X041096Y012377D01*
X041145Y012450D01*
X041217Y012497D01*
X041303Y012513D01*
X041388Y012493D01*
X041459Y012441D01*
X041502Y012365D01*
X041513Y012279D01*
X041505Y012236D01*
X041487Y012173D01*
X041501Y012042D01*
X041564Y011927D01*
X041667Y011845D01*
X041793Y011808D01*
X041923Y011822D01*
X042038Y011886D01*
X042120Y011988D01*
X042139Y012051D01*
X042189Y012224D01*
X042145Y012582D01*
X041964Y012894D01*
X041964Y012894D01*
X041964Y012894D01*
X041674Y013108D01*
X041674Y013108D01*
X041323Y013191D01*
X041323Y013191D01*
X040967Y013128D01*
X040666Y012930D01*
X040467Y012629D01*
X040441Y012487D01*
X040430Y012459D01*
X040430Y012423D01*
X040423Y012387D01*
X040427Y012367D01*
X040421Y012288D01*
X040356Y012089D01*
X040233Y011920D01*
X040064Y011796D01*
X039864Y011732D01*
X039655Y011732D01*
X039455Y011796D01*
X039286Y011920D01*
X039163Y012089D01*
X039098Y012288D01*
X039090Y012388D01*
X039100Y012532D01*
X038993Y012837D01*
X038993Y012837D01*
X038773Y013075D01*
X038478Y013207D01*
X038154Y013211D01*
X037855Y013086D01*
X037630Y012854D01*
X037516Y012551D01*
X037530Y012228D01*
X037530Y012228D01*
X037671Y011937D01*
X037671Y011937D01*
X037794Y011831D01*
X037843Y011788D01*
X037968Y011747D01*
X038099Y011756D01*
X038216Y011815D01*
X038302Y011915D01*
X038343Y012039D01*
X038334Y012170D01*
X038275Y012288D01*
X038225Y012331D01*
X038208Y012349D01*
X038186Y012394D01*
X038184Y012444D01*
X038202Y012491D01*
X038236Y012527D01*
X038283Y012546D01*
X038333Y012546D01*
X038379Y012525D01*
X038413Y012489D01*
X038429Y012441D01*
X038430Y012440D01*
X038430Y012405D01*
X038426Y012351D01*
X038430Y012339D01*
X038430Y012183D01*
X038560Y011782D01*
X038807Y011441D01*
X039148Y011193D01*
X039148Y011193D01*
X039059Y011258D02*
X037745Y011258D01*
X037618Y011357D02*
X038923Y011357D01*
X038807Y011441D02*
X038807Y011441D01*
X038797Y011455D02*
X037490Y011455D01*
X037291Y011554D02*
X038725Y011554D01*
X038654Y011652D02*
X037091Y011652D01*
X036890Y011751D02*
X037956Y011751D01*
X038022Y011751D02*
X038582Y011751D01*
X038538Y011849D02*
X038246Y011849D01*
X038313Y011948D02*
X038506Y011948D01*
X038474Y012046D02*
X038343Y012046D01*
X038336Y012145D02*
X038442Y012145D01*
X038430Y012243D02*
X038297Y012243D01*
X038215Y012342D02*
X038429Y012342D01*
X038429Y012440D02*
X038184Y012440D01*
X038264Y012539D02*
X038349Y012539D01*
X039028Y012736D02*
X040537Y012736D01*
X040602Y012834D02*
X038994Y012834D01*
X038904Y012933D02*
X040670Y012933D01*
X040666Y012930D02*
X040666Y012930D01*
X040666Y012930D01*
X040820Y013031D02*
X038814Y013031D01*
X038773Y013075D02*
X038773Y013075D01*
X038650Y013130D02*
X040978Y013130D01*
X040967Y013128D02*
X040967Y013128D01*
X041581Y013130D02*
X050425Y013130D01*
X050438Y013228D02*
X027965Y013228D01*
X028031Y013130D02*
X037960Y013130D01*
X037855Y013086D02*
X037855Y013086D01*
X037802Y013031D02*
X028057Y013031D01*
X028048Y012933D02*
X037707Y012933D01*
X037630Y012854D02*
X037630Y012854D01*
X037623Y012834D02*
X028009Y012834D01*
X027921Y012736D02*
X037586Y012736D01*
X037548Y012637D02*
X027805Y012637D01*
X027718Y012539D02*
X037516Y012539D01*
X037516Y012551D02*
X037516Y012551D01*
X037521Y012440D02*
X027631Y012440D01*
X027561Y012342D02*
X037525Y012342D01*
X037530Y012243D02*
X027504Y012243D01*
X027447Y012145D02*
X037570Y012145D01*
X037618Y012046D02*
X027407Y012046D01*
X027373Y011948D02*
X034932Y011948D01*
X034477Y011849D02*
X027340Y011849D01*
X027406Y011751D02*
X034211Y011751D01*
X033945Y011652D02*
X027536Y011652D01*
X027454Y011723D02*
X027454Y011723D01*
X027649Y011554D02*
X033773Y011554D01*
X033615Y011455D02*
X027763Y011455D01*
X027877Y011357D02*
X029407Y011357D01*
X029428Y011365D02*
X029428Y011365D01*
X029148Y011258D02*
X027990Y011258D01*
X028053Y011204D02*
X028053Y011204D01*
X028053Y011204D01*
X028088Y011160D02*
X028932Y011160D01*
X028998Y011201D02*
X028998Y011201D01*
X028775Y011061D02*
X028165Y011061D01*
X028243Y010963D02*
X028617Y010963D01*
X028609Y010958D02*
X028609Y010958D01*
X028510Y010864D02*
X028320Y010864D01*
X028398Y010766D02*
X028405Y010766D01*
X027717Y010569D02*
X022345Y010569D01*
X022276Y010496D02*
X022737Y010979D01*
X023280Y011366D01*
X023887Y011643D01*
X024536Y011801D01*
X025202Y011832D01*
X025863Y011737D01*
X026493Y011519D01*
X027071Y011186D01*
X027575Y010749D01*
X027988Y010224D01*
X028294Y009631D01*
X028482Y008991D01*
X028545Y008326D01*
X028482Y007662D01*
X028294Y007022D01*
X027988Y006429D01*
X027575Y005904D01*
X027071Y005467D01*
X026493Y005134D01*
X025863Y004915D01*
X025202Y004820D01*
X024536Y004852D01*
X023887Y005009D01*
X023280Y005287D01*
X022737Y005674D01*
X022276Y006157D01*
X021915Y006718D01*
X021667Y007337D01*
X021541Y007993D01*
X021541Y008660D01*
X021667Y009315D01*
X021915Y009935D01*
X022276Y010496D01*
X022276Y010496D01*
X022259Y010470D02*
X027794Y010470D01*
X027872Y010372D02*
X022196Y010372D01*
X022133Y010273D02*
X027949Y010273D01*
X028013Y010175D02*
X022070Y010175D01*
X022006Y010076D02*
X028064Y010076D01*
X028115Y009978D02*
X021943Y009978D01*
X021893Y009879D02*
X028166Y009879D01*
X028216Y009781D02*
X021854Y009781D01*
X021814Y009682D02*
X028267Y009682D01*
X028308Y009584D02*
X021775Y009584D01*
X021735Y009485D02*
X028336Y009485D01*
X028365Y009387D02*
X021696Y009387D01*
X021662Y009288D02*
X028394Y009288D01*
X028423Y009190D02*
X021643Y009190D01*
X021624Y009091D02*
X028452Y009091D01*
X028481Y008993D02*
X021605Y008993D01*
X021586Y008894D02*
X028491Y008894D01*
X028500Y008796D02*
X021567Y008796D01*
X021548Y008697D02*
X028510Y008697D01*
X028519Y008599D02*
X021541Y008599D01*
X021541Y008500D02*
X028528Y008500D01*
X028538Y008402D02*
X021541Y008402D01*
X021541Y008303D02*
X028543Y008303D01*
X028533Y008205D02*
X021541Y008205D01*
X021541Y008106D02*
X028524Y008106D01*
X028515Y008008D02*
X021541Y008008D01*
X021557Y007909D02*
X028505Y007909D01*
X028496Y007811D02*
X021576Y007811D01*
X021595Y007712D02*
X028486Y007712D01*
X028467Y007614D02*
X021614Y007614D01*
X021633Y007515D02*
X028439Y007515D01*
X028410Y007417D02*
X021652Y007417D01*
X021675Y007318D02*
X028381Y007318D01*
X028352Y007220D02*
X021714Y007220D01*
X021754Y007121D02*
X028323Y007121D01*
X028294Y007023D02*
X021793Y007023D01*
X021833Y006924D02*
X028243Y006924D01*
X028193Y006826D02*
X021872Y006826D01*
X021912Y006727D02*
X028142Y006727D01*
X028091Y006629D02*
X021973Y006629D01*
X022036Y006530D02*
X028040Y006530D01*
X027989Y006432D02*
X022099Y006432D01*
X022163Y006333D02*
X027913Y006333D01*
X027835Y006235D02*
X022226Y006235D01*
X022295Y006136D02*
X027758Y006136D01*
X027680Y006038D02*
X022389Y006038D01*
X022483Y005939D02*
X027603Y005939D01*
X027502Y005841D02*
X022577Y005841D01*
X022671Y005742D02*
X027389Y005742D01*
X027275Y005644D02*
X022779Y005644D01*
X022917Y005545D02*
X027161Y005545D01*
X027036Y005447D02*
X023055Y005447D01*
X023193Y005348D02*
X026865Y005348D01*
X026695Y005250D02*
X023361Y005250D01*
X023576Y005151D02*
X026524Y005151D01*
X026260Y005053D02*
X023792Y005053D01*
X024114Y004954D02*
X025975Y004954D01*
X025449Y004856D02*
X024520Y004856D01*
X022704Y004856D02*
X018302Y004856D01*
X018341Y004954D02*
X022614Y004954D01*
X022476Y005053D02*
X018360Y005053D01*
X018372Y005151D02*
X022337Y005151D01*
X022233Y005250D02*
X020416Y005250D01*
X020301Y005250D02*
X018385Y005250D01*
X018397Y005348D02*
X020115Y005348D01*
X020054Y005447D02*
X018409Y005447D01*
X018422Y005545D02*
X020032Y005545D01*
X020038Y005644D02*
X018416Y005644D01*
X018403Y005742D02*
X020073Y005742D01*
X020149Y005841D02*
X018391Y005841D01*
X018379Y005939D02*
X020224Y005939D01*
X020236Y005955D02*
X020236Y005955D01*
X020236Y005955D01*
X020331Y006038D02*
X018366Y006038D01*
X018354Y006136D02*
X020443Y006136D01*
X020555Y006235D02*
X018322Y006235D01*
X018283Y006333D02*
X020715Y006333D01*
X020575Y006253D02*
X020575Y006253D01*
X020885Y006432D02*
X018244Y006432D01*
X018205Y006530D02*
X021118Y006530D01*
X021243Y006629D02*
X018166Y006629D01*
X018126Y006727D02*
X021204Y006727D01*
X021164Y006826D02*
X018054Y006826D01*
X017982Y006924D02*
X021125Y006924D01*
X021086Y007023D02*
X017911Y007023D01*
X017839Y007121D02*
X021046Y007121D01*
X021021Y007220D02*
X017761Y007220D01*
X017777Y007207D02*
X017777Y007207D01*
X017642Y007318D02*
X021002Y007318D01*
X020983Y007417D02*
X017523Y007417D01*
X017404Y007515D02*
X020964Y007515D01*
X020945Y007614D02*
X017262Y007614D01*
X017100Y007712D02*
X020926Y007712D01*
X020907Y007811D02*
X016939Y007811D01*
X016784Y007909D02*
X020888Y007909D01*
X019567Y008008D02*
X016654Y008008D01*
X016525Y008106D02*
X019413Y008106D01*
X019353Y008205D02*
X016395Y008205D01*
X016265Y008303D02*
X019330Y008303D01*
X019334Y008402D02*
X016150Y008402D01*
X016050Y008500D02*
X019375Y008500D01*
X019466Y008599D02*
X015951Y008599D01*
X015852Y008697D02*
X020884Y008697D01*
X020898Y008796D02*
X015752Y008796D01*
X015653Y008894D02*
X020917Y008894D01*
X020936Y008993D02*
X015577Y008993D01*
X015501Y009091D02*
X020955Y009091D01*
X020974Y009190D02*
X015424Y009190D01*
X015348Y009288D02*
X020993Y009288D01*
X021012Y009387D02*
X015271Y009387D01*
X015195Y009485D02*
X021031Y009485D01*
X021034Y009501D02*
X021034Y009501D01*
X021067Y009584D02*
X015132Y009584D01*
X015070Y009682D02*
X021107Y009682D01*
X021146Y009781D02*
X015008Y009781D01*
X014940Y009879D02*
X021185Y009879D01*
X021225Y009978D02*
X008672Y009978D01*
X008616Y009879D02*
X010030Y009879D01*
X009964Y009781D02*
X008634Y009781D01*
X008674Y009764D02*
X008574Y009806D01*
X008741Y010098D01*
X008741Y010098D01*
X008793Y010331D01*
X008805Y010387D01*
X008785Y010500D01*
X008723Y010598D01*
X008659Y010643D01*
X008732Y010698D01*
X008790Y010798D01*
X008805Y010913D01*
X008775Y011024D01*
X008704Y011116D01*
X008605Y011173D01*
X008490Y011188D01*
X008434Y011173D01*
X008048Y011088D01*
X007260Y011019D01*
X006471Y011088D01*
X006300Y011126D01*
X006300Y011143D01*
X006304Y011184D01*
X006335Y011260D01*
X006393Y011318D01*
X006469Y011349D01*
X006510Y011353D01*
X008567Y011353D01*
X008674Y011397D01*
X008755Y011479D01*
X008800Y011586D01*
X008800Y011701D01*
X008755Y011808D01*
X008674Y011889D01*
X008567Y011933D01*
X006866Y011933D01*
X006877Y011966D01*
X007007Y012145D01*
X017740Y012145D01*
X017742Y012121D02*
X017742Y012121D01*
X017710Y012485D01*
X017710Y012485D01*
X017805Y012838D01*
X017805Y012838D01*
X018015Y013138D01*
X018015Y013138D01*
X018314Y013348D01*
X018314Y013348D01*
X018668Y013442D01*
X018668Y013442D01*
X019032Y013411D01*
X019032Y013411D01*
X019364Y013256D01*
X019364Y013256D01*
X019446Y013173D01*
X019446Y013173D01*
X019493Y013127D01*
X019496Y013124D01*
X019505Y013120D01*
X019514Y013120D01*
X019523Y013124D01*
X019529Y013130D01*
X019533Y013139D01*
X019533Y013148D01*
X019529Y013156D01*
X019526Y013160D01*
X019480Y013206D01*
X019430Y013328D01*
X019430Y013459D01*
X019480Y013580D01*
X019573Y013673D01*
X019694Y013723D01*
X019825Y013723D01*
X019946Y013673D01*
X019993Y013627D01*
X019993Y013627D01*
X020089Y013531D01*
X020089Y013531D01*
X020193Y013279D01*
X020193Y013007D01*
X020089Y012756D01*
X020089Y012756D01*
X019897Y012564D01*
X019897Y012564D01*
X019645Y012460D01*
X019374Y012460D01*
X019122Y012564D01*
X019122Y012564D01*
X019026Y012660D01*
X019026Y012660D01*
X018976Y012702D01*
X018857Y012758D01*
X018727Y012769D01*
X018600Y012735D01*
X018493Y012660D01*
X018418Y012553D01*
X018384Y012426D01*
X018395Y012296D01*
X018451Y012177D01*
X018475Y012148D01*
X018597Y012073D01*
X018597Y012073D01*
X018597Y012073D01*
X018825Y011761D01*
X018825Y011761D01*
X018919Y011386D01*
X018919Y011386D01*
X018864Y011004D01*
X018864Y011004D01*
X018670Y010670D01*
X018670Y010670D01*
X018670Y010670D01*
X018364Y010435D01*
X018364Y010435D01*
X017992Y010331D01*
X017992Y010331D01*
X017608Y010376D01*
X017608Y010376D01*
X017270Y010562D01*
X017270Y010562D01*
X017270Y010562D01*
X017026Y010861D01*
X017026Y010861D01*
X016914Y011231D01*
X016931Y011423D01*
X016937Y011488D01*
X016998Y011605D01*
X017098Y011689D01*
X017224Y011728D01*
X017355Y011716D01*
X017471Y011655D01*
X017555Y011554D01*
X018151Y011554D01*
X018136Y011574D02*
X018210Y011473D01*
X018241Y011351D01*
X018223Y011227D01*
X018160Y011118D01*
X018060Y011042D01*
X017939Y011008D01*
X017815Y011023D01*
X017704Y011083D01*
X017625Y011180D01*
X017589Y011301D01*
X017588Y011364D01*
X017594Y011429D01*
X017555Y011554D01*
X017586Y011455D02*
X018215Y011455D01*
X018239Y011357D02*
X017588Y011357D01*
X017601Y011258D02*
X018228Y011258D01*
X018184Y011160D02*
X017642Y011160D01*
X017744Y011061D02*
X018086Y011061D01*
X018783Y010864D02*
X020061Y010864D01*
X020033Y010963D02*
X018840Y010963D01*
X018872Y011061D02*
X020034Y011061D01*
X020064Y011160D02*
X018886Y011160D01*
X018900Y011258D02*
X020136Y011258D01*
X020590Y011258D02*
X022095Y011258D01*
X022001Y011160D02*
X020670Y011160D01*
X020763Y011061D02*
X021907Y011061D01*
X021813Y010963D02*
X020875Y010963D01*
X020998Y010864D02*
X021732Y010864D01*
X021668Y010766D02*
X021169Y010766D01*
X021406Y010667D02*
X021605Y010667D01*
X022439Y010667D02*
X027639Y010667D01*
X027555Y010766D02*
X022533Y010766D01*
X022627Y010864D02*
X027442Y010864D01*
X027328Y010963D02*
X022721Y010963D01*
X022852Y011061D02*
X027214Y011061D01*
X027101Y011160D02*
X022990Y011160D01*
X023129Y011258D02*
X026945Y011258D01*
X026774Y011357D02*
X023267Y011357D01*
X023475Y011455D02*
X026604Y011455D01*
X026393Y011554D02*
X023691Y011554D01*
X023924Y011652D02*
X026109Y011652D01*
X025769Y011751D02*
X024330Y011751D01*
X023619Y012243D02*
X023084Y012243D01*
X023008Y012342D02*
X023980Y012342D01*
X024386Y012440D02*
X022951Y012440D01*
X022894Y012539D02*
X024593Y012539D01*
X024574Y012637D02*
X022850Y012637D01*
X022816Y012736D02*
X024556Y012736D01*
X024556Y012834D02*
X022783Y012834D01*
X022756Y012933D02*
X024556Y012933D01*
X024556Y013031D02*
X022739Y013031D01*
X022715Y013130D02*
X024556Y013130D01*
X024566Y013228D02*
X022654Y013228D01*
X022466Y013327D02*
X024586Y013327D01*
X024605Y013425D02*
X020133Y013425D01*
X020173Y013327D02*
X022361Y013327D01*
X022168Y013228D02*
X020193Y013228D01*
X020193Y013130D02*
X022102Y013130D01*
X022076Y013031D02*
X020193Y013031D01*
X020162Y012933D02*
X022085Y012933D01*
X022098Y012834D02*
X020121Y012834D01*
X020069Y012736D02*
X022111Y012736D01*
X022144Y012637D02*
X019970Y012637D01*
X019836Y012539D02*
X022178Y012539D01*
X022211Y012440D02*
X018388Y012440D01*
X018391Y012342D02*
X022245Y012342D01*
X022293Y012243D02*
X018420Y012243D01*
X018480Y012145D02*
X022350Y012145D01*
X022407Y012046D02*
X018616Y012046D01*
X018688Y011948D02*
X022464Y011948D01*
X022541Y011849D02*
X018760Y011849D01*
X018827Y011751D02*
X022627Y011751D01*
X022549Y011652D02*
X018852Y011652D01*
X018877Y011554D02*
X022411Y011554D01*
X022283Y011455D02*
X018901Y011455D01*
X018914Y011357D02*
X022189Y011357D01*
X020212Y010667D02*
X018666Y010667D01*
X018725Y010766D02*
X020136Y010766D01*
X020236Y010635D02*
X020236Y010635D01*
X020312Y010569D02*
X018538Y010569D01*
X018410Y010470D02*
X020424Y010470D01*
X020536Y010372D02*
X018137Y010372D01*
X017644Y010372D02*
X008802Y010372D01*
X008790Y010470D02*
X017436Y010470D01*
X017264Y010569D02*
X008742Y010569D01*
X008691Y010667D02*
X017184Y010667D01*
X017104Y010766D02*
X008771Y010766D01*
X008798Y010864D02*
X017025Y010864D01*
X016995Y010963D02*
X008791Y010963D01*
X008746Y011061D02*
X016965Y011061D01*
X016935Y011160D02*
X008628Y011160D01*
X008576Y011357D02*
X016925Y011357D01*
X016934Y011455D02*
X008732Y011455D01*
X008786Y011554D02*
X016971Y011554D01*
X017055Y011652D02*
X008800Y011652D01*
X008779Y011751D02*
X017935Y011751D01*
X017897Y011789D02*
X018007Y011679D01*
X018030Y011647D01*
X018053Y011633D01*
X018073Y011614D01*
X018099Y011602D01*
X018136Y011574D01*
X018026Y011652D02*
X017473Y011652D01*
X017897Y011789D02*
X017897Y011789D01*
X017742Y012121D01*
X017777Y012046D02*
X006936Y012046D01*
X006871Y011948D02*
X017823Y011948D01*
X017869Y011849D02*
X008714Y011849D01*
X008457Y012474D02*
X008167Y012353D01*
X007510Y012353D01*
X007398Y012345D01*
X007187Y012276D01*
X007007Y012145D01*
X007142Y012243D02*
X017732Y012243D01*
X017723Y012342D02*
X007390Y012342D01*
X006431Y012353D02*
X006346Y012236D01*
X006231Y011883D01*
X006062Y011813D01*
X005840Y011591D01*
X005840Y011591D01*
X005720Y011300D01*
X005720Y011086D01*
X005745Y011025D01*
X005744Y011024D01*
X005714Y010913D01*
X005730Y010798D01*
X005787Y010698D01*
X005860Y010643D01*
X005796Y010598D01*
X005734Y010500D01*
X005714Y010387D01*
X005726Y010331D01*
X005778Y010098D01*
X006014Y009685D01*
X006361Y009361D01*
X006361Y009361D01*
X006469Y009308D01*
X005952Y009308D01*
X005845Y009264D01*
X005764Y009183D01*
X005720Y009076D01*
X005720Y008961D01*
X005764Y008854D01*
X005845Y008772D01*
X005952Y008728D01*
X006431Y008728D01*
X006346Y008611D01*
X006231Y008258D01*
X006062Y008188D01*
X005840Y007966D01*
X005840Y007966D01*
X005840Y007966D01*
X005720Y007675D01*
X005720Y007461D01*
X005745Y007400D01*
X005744Y007399D01*
X005714Y007288D01*
X005730Y007173D01*
X005787Y007073D01*
X005879Y007003D01*
X005934Y006988D01*
X006367Y006872D01*
X006367Y006872D01*
X007260Y006794D01*
X007720Y006834D01*
X007764Y006729D01*
X007845Y006647D01*
X007952Y006603D01*
X008010Y006603D01*
X008050Y006599D01*
X008126Y006568D01*
X008184Y006510D01*
X008215Y006434D01*
X008220Y006393D01*
X008220Y006183D01*
X006352Y006183D01*
X006062Y006063D01*
X005840Y005841D01*
X003470Y005841D01*
X003470Y005939D02*
X005938Y005939D01*
X005840Y005841D02*
X005720Y005550D01*
X005720Y005336D01*
X005764Y005229D01*
X005845Y005147D01*
X005952Y005103D01*
X006067Y005103D01*
X006174Y005147D01*
X006255Y005229D01*
X006300Y005336D01*
X006300Y005393D01*
X006304Y005434D01*
X006335Y005510D01*
X006393Y005568D01*
X006469Y005599D01*
X006510Y005603D01*
X006809Y005603D01*
X006764Y005558D01*
X006720Y005451D01*
X006720Y005336D01*
X006764Y005229D01*
X006804Y005188D01*
X006847Y005138D01*
X006906Y005022D01*
X006927Y004893D01*
X006906Y004764D01*
X006847Y004648D01*
X006804Y004598D01*
X006764Y004558D01*
X006720Y004451D01*
X006720Y004336D01*
X006764Y004229D01*
X006845Y004147D01*
X006952Y004103D01*
X007067Y004103D01*
X007174Y004147D01*
X007215Y004188D01*
X007326Y004300D01*
X007470Y004581D01*
X007470Y004581D01*
X007519Y004893D01*
X007519Y004893D01*
X007507Y004968D01*
X007528Y004957D01*
X007597Y004895D01*
X008193Y004300D01*
X008304Y004188D01*
X008345Y004147D01*
X008452Y004103D01*
X008567Y004103D01*
X008674Y004147D01*
X008755Y004229D01*
X008800Y004336D01*
X008800Y004451D01*
X008755Y004558D01*
X008715Y004598D01*
X008672Y004648D01*
X008613Y004764D01*
X008592Y004893D01*
X008613Y005022D01*
X008672Y005138D01*
X008715Y005188D01*
X008755Y005229D01*
X008800Y005336D01*
X008800Y005451D01*
X008755Y005558D01*
X008674Y005639D01*
X008664Y005643D01*
X008674Y005647D01*
X008755Y005729D01*
X008800Y005836D01*
X008800Y006550D01*
X008679Y006841D01*
X008543Y006977D01*
X008585Y006988D01*
X008640Y007003D01*
X008732Y007073D01*
X008790Y007173D01*
X008805Y007288D01*
X008775Y007399D01*
X008704Y007491D01*
X008605Y007548D01*
X008490Y007563D01*
X008434Y007548D01*
X008048Y007463D01*
X007260Y007394D01*
X006471Y007463D01*
X006300Y007501D01*
X006300Y007518D01*
X006304Y007559D01*
X006335Y007635D01*
X006393Y007693D01*
X006469Y007724D01*
X006510Y007728D01*
X008567Y007728D01*
X008674Y007772D01*
X008755Y007854D01*
X008800Y007961D01*
X008800Y008076D01*
X008755Y008183D01*
X008674Y008264D01*
X008567Y008308D01*
X006866Y008308D01*
X006877Y008341D01*
X007007Y008520D01*
X007187Y008651D01*
X007398Y008720D01*
X007510Y008728D01*
X008167Y008728D01*
X008457Y008849D01*
X008679Y009071D01*
X008800Y009361D01*
X008800Y009576D01*
X008755Y009683D01*
X008674Y009764D01*
X008755Y009682D02*
X009941Y009682D01*
X009950Y009584D02*
X008796Y009584D01*
X008800Y009485D02*
X009957Y009485D01*
X009963Y009387D02*
X008800Y009387D01*
X008769Y009288D02*
X009969Y009288D01*
X009967Y009190D02*
X008729Y009190D01*
X008688Y009091D02*
X009963Y009091D01*
X009960Y008993D02*
X008601Y008993D01*
X008679Y009071D02*
X008679Y009071D01*
X008503Y008894D02*
X009957Y008894D01*
X009953Y008796D02*
X008330Y008796D01*
X008457Y008849D02*
X008457Y008849D01*
X007330Y008697D02*
X009950Y008697D01*
X009947Y008599D02*
X007115Y008599D01*
X006993Y008500D02*
X009937Y008500D01*
X009921Y008402D02*
X006921Y008402D01*
X006342Y008599D02*
X003470Y008599D01*
X003470Y008697D02*
X006408Y008697D01*
X006346Y008611D02*
X006346Y008611D01*
X006310Y008500D02*
X003470Y008500D01*
X003470Y008402D02*
X006278Y008402D01*
X006246Y008303D02*
X003470Y008303D01*
X003470Y008205D02*
X006103Y008205D01*
X005980Y008106D02*
X003470Y008106D01*
X003470Y008008D02*
X005882Y008008D01*
X005816Y007909D02*
X003470Y007909D01*
X003470Y007811D02*
X005776Y007811D01*
X005735Y007712D02*
X003470Y007712D01*
X003470Y007614D02*
X005720Y007614D01*
X005720Y007515D02*
X003470Y007515D01*
X003470Y007417D02*
X005738Y007417D01*
X005723Y007318D02*
X003470Y007318D01*
X003470Y007220D02*
X005723Y007220D01*
X005760Y007121D02*
X003470Y007121D01*
X003470Y007023D02*
X005853Y007023D01*
X006173Y006924D02*
X003470Y006924D01*
X003470Y006826D02*
X006898Y006826D01*
X007260Y006794D02*
X007260Y006794D01*
X007621Y006826D02*
X007724Y006826D01*
X007765Y006727D02*
X003470Y006727D01*
X003470Y006629D02*
X007890Y006629D01*
X008164Y006530D02*
X003470Y006530D01*
X003470Y006432D02*
X008216Y006432D01*
X008220Y006333D02*
X003470Y006333D01*
X003470Y006235D02*
X008220Y006235D01*
X008800Y006235D02*
X009258Y006235D01*
X009283Y006333D02*
X008800Y006333D01*
X008800Y006432D02*
X009308Y006432D01*
X009313Y006450D02*
X009313Y006450D01*
X009357Y006530D02*
X008800Y006530D01*
X008767Y006629D02*
X009411Y006629D01*
X009447Y006727D02*
X008726Y006727D01*
X008685Y006826D02*
X009486Y006826D01*
X009527Y006924D02*
X008596Y006924D01*
X008679Y006841D02*
X008679Y006841D01*
X008666Y007023D02*
X009568Y007023D01*
X009609Y007121D02*
X008760Y007121D01*
X008796Y007220D02*
X009640Y007220D01*
X009670Y007318D02*
X008796Y007318D01*
X008761Y007417D02*
X009700Y007417D01*
X009730Y007515D02*
X008662Y007515D01*
X008285Y007515D02*
X006300Y007515D01*
X006326Y007614D02*
X009760Y007614D01*
X009790Y007712D02*
X006440Y007712D01*
X006996Y007417D02*
X007523Y007417D01*
X008712Y007811D02*
X009820Y007811D01*
X009838Y007909D02*
X008778Y007909D01*
X008800Y008008D02*
X009855Y008008D01*
X009871Y008106D02*
X008787Y008106D01*
X008733Y008205D02*
X009888Y008205D01*
X009904Y008303D02*
X008579Y008303D01*
X010455Y008008D02*
X011206Y008008D01*
X011284Y007931D02*
X011087Y007918D01*
X010517Y007733D01*
X010390Y007652D01*
X010402Y007691D01*
X010535Y008488D01*
X010543Y008715D01*
X010711Y008498D01*
X010711Y008498D01*
X011284Y007931D01*
X011087Y007918D02*
X011087Y007918D01*
X011060Y007909D02*
X010439Y007909D01*
X010422Y007811D02*
X010757Y007811D01*
X010517Y007733D02*
X010517Y007733D01*
X010485Y007712D02*
X010406Y007712D01*
X010471Y008106D02*
X011106Y008106D01*
X011007Y008205D02*
X010488Y008205D01*
X010504Y008303D02*
X010907Y008303D01*
X010808Y008402D02*
X010521Y008402D01*
X010535Y008500D02*
X010709Y008500D01*
X010633Y008599D02*
X010539Y008599D01*
X010542Y008697D02*
X010556Y008697D01*
X011153Y008894D02*
X014457Y008894D01*
X014453Y008796D02*
X011252Y008796D01*
X011352Y008697D02*
X014450Y008697D01*
X014447Y008599D02*
X011451Y008599D01*
X011550Y008500D02*
X014437Y008500D01*
X014421Y008402D02*
X011650Y008402D01*
X011765Y008303D02*
X014404Y008303D01*
X014388Y008205D02*
X011895Y008205D01*
X012025Y008106D02*
X014371Y008106D01*
X014355Y008008D02*
X012154Y008008D01*
X012284Y007909D02*
X014338Y007909D01*
X014320Y007811D02*
X012439Y007811D01*
X012600Y007712D02*
X014290Y007712D01*
X014260Y007614D02*
X012762Y007614D01*
X012816Y007588D02*
X012816Y007588D01*
X012904Y007515D02*
X014230Y007515D01*
X014200Y007417D02*
X013023Y007417D01*
X013142Y007318D02*
X014170Y007318D01*
X014140Y007220D02*
X013261Y007220D01*
X013277Y007207D02*
X013277Y007207D01*
X013277Y007207D01*
X013339Y007121D02*
X014109Y007121D01*
X014068Y007023D02*
X013411Y007023D01*
X013482Y006924D02*
X014027Y006924D01*
X013986Y006826D02*
X013554Y006826D01*
X013626Y006727D02*
X013947Y006727D01*
X013911Y006629D02*
X013666Y006629D01*
X013705Y006530D02*
X013857Y006530D01*
X013813Y006450D02*
X013813Y006450D01*
X013808Y006432D02*
X013744Y006432D01*
X013203Y006235D02*
X009852Y006235D01*
X009852Y006237D02*
X010071Y006634D01*
X010381Y006965D01*
X010764Y007208D01*
X011196Y007348D01*
X011649Y007377D01*
X012094Y007292D01*
X012505Y007099D01*
X012855Y006810D01*
X013121Y006442D01*
X013288Y006021D01*
X013345Y005570D01*
X013288Y005120D01*
X013121Y004698D01*
X012855Y004331D01*
X012505Y004042D01*
X012094Y003849D01*
X011649Y003764D01*
X011196Y003793D01*
X010764Y003933D01*
X010381Y004176D01*
X010071Y004507D01*
X009852Y004904D01*
X009739Y005344D01*
X009739Y005797D01*
X009852Y006237D01*
X009826Y006136D02*
X013242Y006136D01*
X013281Y006038D02*
X009801Y006038D01*
X009776Y005939D02*
X013299Y005939D01*
X013311Y005841D02*
X009751Y005841D01*
X009739Y005742D02*
X013323Y005742D01*
X013336Y005644D02*
X009739Y005644D01*
X009739Y005545D02*
X013342Y005545D01*
X013329Y005447D02*
X009739Y005447D01*
X009739Y005348D02*
X013317Y005348D01*
X013305Y005250D02*
X009763Y005250D01*
X009789Y005151D02*
X013292Y005151D01*
X013262Y005053D02*
X009814Y005053D01*
X009839Y004954D02*
X013223Y004954D01*
X013184Y004856D02*
X009879Y004856D01*
X009933Y004757D02*
X013145Y004757D01*
X013092Y004659D02*
X009987Y004659D01*
X010041Y004560D02*
X013021Y004560D01*
X012949Y004462D02*
X010113Y004462D01*
X010205Y004363D02*
X012878Y004363D01*
X012774Y004265D02*
X010298Y004265D01*
X010396Y004166D02*
X012655Y004166D01*
X012536Y004068D02*
X010552Y004068D01*
X010707Y003969D02*
X012350Y003969D01*
X012141Y003871D02*
X010955Y003871D01*
X011517Y003772D02*
X011692Y003772D01*
X012655Y003477D02*
X014909Y003477D01*
X014754Y003575D02*
X012843Y003575D01*
X012816Y003553D02*
X012816Y003553D01*
X012962Y003674D02*
X014599Y003674D01*
X014512Y003729D02*
X014512Y003729D01*
X014471Y003772D02*
X013081Y003772D01*
X013200Y003871D02*
X014378Y003871D01*
X014286Y003969D02*
X013303Y003969D01*
X013374Y004068D02*
X014193Y004068D01*
X014102Y004166D02*
X014102Y004166D01*
X014101Y004166D02*
X013446Y004166D01*
X013517Y004265D02*
X014047Y004265D01*
X013993Y004363D02*
X013589Y004363D01*
X013629Y004419D02*
X013629Y004419D01*
X013646Y004462D02*
X013939Y004462D01*
X013885Y004560D02*
X013685Y004560D01*
X013724Y004659D02*
X013830Y004659D01*
X013796Y004757D02*
X013763Y004757D01*
X014352Y004904D02*
X014239Y005344D01*
X014239Y005797D01*
X014352Y006237D01*
X014571Y006634D01*
X014881Y006965D01*
X015264Y007208D01*
X015696Y007348D01*
X016149Y007377D01*
X016594Y007292D01*
X017005Y007099D01*
X017005Y007099D01*
X017355Y006810D01*
X017621Y006442D01*
X017788Y006021D01*
X017845Y005570D01*
X017788Y005120D01*
X017621Y004698D01*
X017355Y004331D01*
X017005Y004042D01*
X016594Y003849D01*
X016149Y003764D01*
X015696Y003793D01*
X015264Y003933D01*
X014881Y004176D01*
X014571Y004507D01*
X014352Y004904D01*
X014339Y004954D02*
X017723Y004954D01*
X017684Y004856D02*
X014379Y004856D01*
X014433Y004757D02*
X017645Y004757D01*
X017592Y004659D02*
X014487Y004659D01*
X014541Y004560D02*
X017521Y004560D01*
X017449Y004462D02*
X014613Y004462D01*
X014705Y004363D02*
X017378Y004363D01*
X017274Y004265D02*
X014798Y004265D01*
X014896Y004166D02*
X017155Y004166D01*
X017036Y004068D02*
X015052Y004068D01*
X015207Y003969D02*
X016850Y003969D01*
X016641Y003871D02*
X015455Y003871D01*
X016017Y003772D02*
X016192Y003772D01*
X015109Y003378D02*
X012445Y003378D01*
X012274Y003297D02*
X012274Y003297D01*
X012181Y003280D02*
X015412Y003280D01*
X010912Y003280D02*
X003470Y003280D01*
X003470Y003378D02*
X010609Y003378D01*
X010409Y003477D02*
X003470Y003477D01*
X003470Y003575D02*
X010254Y003575D01*
X010099Y003674D02*
X003470Y003674D01*
X003470Y003772D02*
X009971Y003772D01*
X010012Y003729D02*
X010012Y003729D01*
X009878Y003871D02*
X003470Y003871D01*
X003470Y003969D02*
X009786Y003969D01*
X009693Y004068D02*
X003470Y004068D01*
X003470Y004166D02*
X006826Y004166D01*
X006749Y004265D02*
X003470Y004265D01*
X003470Y004363D02*
X006720Y004363D01*
X006724Y004462D02*
X003470Y004462D01*
X003470Y004560D02*
X006766Y004560D01*
X006852Y004659D02*
X003470Y004659D01*
X003470Y004757D02*
X006903Y004757D01*
X006921Y004856D02*
X003470Y004856D01*
X003470Y004954D02*
X006917Y004954D01*
X006891Y005053D02*
X003470Y005053D01*
X003470Y005151D02*
X005841Y005151D01*
X005755Y005250D02*
X003470Y005250D01*
X003470Y005348D02*
X005720Y005348D01*
X005720Y005447D02*
X003470Y005447D01*
X003470Y005545D02*
X005720Y005545D01*
X005758Y005644D02*
X003470Y005644D01*
X003470Y005742D02*
X005799Y005742D01*
X005840Y005841D02*
X005840Y005841D01*
X006037Y006038D02*
X003470Y006038D01*
X003470Y006136D02*
X006239Y006136D01*
X006062Y006063D02*
X006062Y006063D01*
X006370Y005545D02*
X006759Y005545D01*
X006720Y005447D02*
X006309Y005447D01*
X006300Y005348D02*
X006720Y005348D01*
X006755Y005250D02*
X006264Y005250D01*
X006178Y005151D02*
X006836Y005151D01*
X007509Y004954D02*
X007530Y004954D01*
X007513Y004856D02*
X007637Y004856D01*
X007735Y004757D02*
X007498Y004757D01*
X007482Y004659D02*
X007834Y004659D01*
X007932Y004560D02*
X007459Y004560D01*
X007409Y004462D02*
X008031Y004462D01*
X008129Y004363D02*
X007359Y004363D01*
X007326Y004300D02*
X007326Y004300D01*
X007291Y004265D02*
X008228Y004265D01*
X008193Y004300D02*
X008193Y004300D01*
X008326Y004166D02*
X007193Y004166D01*
X008693Y004166D02*
X009601Y004166D01*
X009602Y004166D02*
X009602Y004166D01*
X009547Y004265D02*
X008770Y004265D01*
X008800Y004363D02*
X009493Y004363D01*
X009439Y004462D02*
X008795Y004462D01*
X008753Y004560D02*
X009385Y004560D01*
X009330Y004659D02*
X008667Y004659D01*
X008616Y004757D02*
X009296Y004757D01*
X009271Y004856D02*
X008598Y004856D01*
X008602Y004954D02*
X009245Y004954D01*
X009220Y005053D02*
X008628Y005053D01*
X008683Y005151D02*
X009195Y005151D01*
X009169Y005250D02*
X008764Y005250D01*
X008800Y005348D02*
X009164Y005348D01*
X009164Y005447D02*
X008800Y005447D01*
X008760Y005545D02*
X009164Y005545D01*
X009164Y005644D02*
X008665Y005644D01*
X008761Y005742D02*
X009164Y005742D01*
X009164Y005841D02*
X008800Y005841D01*
X008800Y005939D02*
X009182Y005939D01*
X009207Y006038D02*
X008800Y006038D01*
X008800Y006136D02*
X009232Y006136D01*
X009905Y006333D02*
X013164Y006333D01*
X013125Y006432D02*
X009959Y006432D01*
X010014Y006530D02*
X013057Y006530D01*
X013121Y006442D02*
X013121Y006442D01*
X012986Y006629D02*
X010068Y006629D01*
X010158Y006727D02*
X012914Y006727D01*
X012835Y006826D02*
X010251Y006826D01*
X010343Y006924D02*
X012716Y006924D01*
X012597Y007023D02*
X010472Y007023D01*
X010628Y007121D02*
X012457Y007121D01*
X012248Y007220D02*
X010800Y007220D01*
X011103Y007318D02*
X011956Y007318D01*
X014514Y006530D02*
X017557Y006530D01*
X017625Y006432D02*
X014459Y006432D01*
X014405Y006333D02*
X017664Y006333D01*
X017703Y006235D02*
X014352Y006235D01*
X014326Y006136D02*
X017742Y006136D01*
X017781Y006038D02*
X014301Y006038D01*
X014276Y005939D02*
X017799Y005939D01*
X017811Y005841D02*
X014251Y005841D01*
X014239Y005742D02*
X017823Y005742D01*
X017836Y005644D02*
X014239Y005644D01*
X014239Y005545D02*
X017842Y005545D01*
X017829Y005447D02*
X014239Y005447D01*
X014239Y005348D02*
X017817Y005348D01*
X017805Y005250D02*
X014263Y005250D01*
X014289Y005151D02*
X017792Y005151D01*
X017762Y005053D02*
X014314Y005053D01*
X018224Y004659D02*
X022536Y004659D01*
X022545Y004675D02*
X022545Y004675D01*
X022618Y004757D02*
X018263Y004757D01*
X020603Y005348D02*
X022139Y005348D01*
X022045Y005447D02*
X020684Y005447D01*
X020782Y005545D02*
X021951Y005545D01*
X021857Y005644D02*
X020894Y005644D01*
X021027Y005742D02*
X021763Y005742D01*
X021698Y005841D02*
X021197Y005841D01*
X021454Y005939D02*
X021635Y005939D01*
X020966Y006479D02*
X020966Y006479D01*
X017486Y006629D02*
X014568Y006629D01*
X014658Y006727D02*
X017414Y006727D01*
X017335Y006826D02*
X014751Y006826D01*
X014843Y006924D02*
X017216Y006924D01*
X017097Y007023D02*
X014972Y007023D01*
X015128Y007121D02*
X016957Y007121D01*
X016748Y007220D02*
X015300Y007220D01*
X015603Y007318D02*
X016456Y007318D01*
X015587Y007918D02*
X015017Y007733D01*
X014890Y007652D01*
X014902Y007691D01*
X014902Y007691D01*
X015035Y008488D01*
X015035Y008488D01*
X015043Y008715D01*
X015211Y008498D01*
X015211Y008498D01*
X015784Y007931D01*
X015587Y007918D01*
X015587Y007918D01*
X015560Y007909D02*
X014939Y007909D01*
X014922Y007811D02*
X015257Y007811D01*
X015017Y007733D02*
X015017Y007733D01*
X014985Y007712D02*
X014906Y007712D01*
X014955Y008008D02*
X015706Y008008D01*
X015606Y008106D02*
X014971Y008106D01*
X014988Y008205D02*
X015507Y008205D01*
X015407Y008303D02*
X015004Y008303D01*
X015021Y008402D02*
X015308Y008402D01*
X015209Y008500D02*
X015035Y008500D01*
X015039Y008599D02*
X015133Y008599D01*
X015056Y008697D02*
X015042Y008697D01*
X014460Y008993D02*
X011077Y008993D01*
X011001Y009091D02*
X014463Y009091D01*
X014467Y009190D02*
X010924Y009190D01*
X010848Y009288D02*
X014469Y009288D01*
X014463Y009387D02*
X010771Y009387D01*
X010695Y009485D02*
X014457Y009485D01*
X014450Y009584D02*
X010632Y009584D01*
X010570Y009682D02*
X014441Y009682D01*
X014464Y009781D02*
X010508Y009781D01*
X010440Y009879D02*
X014530Y009879D01*
X016916Y011258D02*
X006334Y011258D01*
X006301Y011160D02*
X008373Y011160D01*
X007746Y011061D02*
X006773Y011061D01*
X005828Y010667D02*
X003470Y010667D01*
X003470Y010569D02*
X005777Y010569D01*
X005729Y010470D02*
X003470Y010470D01*
X003470Y010372D02*
X005717Y010372D01*
X005739Y010273D02*
X003470Y010273D01*
X003470Y010175D02*
X005761Y010175D01*
X005778Y010098D02*
X005778Y010098D01*
X005790Y010076D02*
X003470Y010076D01*
X003470Y009978D02*
X005847Y009978D01*
X005903Y009879D02*
X003470Y009879D01*
X003470Y009781D02*
X005959Y009781D01*
X006014Y009685D02*
X006014Y009685D01*
X006017Y009682D02*
X003470Y009682D01*
X003470Y009584D02*
X006122Y009584D01*
X006228Y009485D02*
X003470Y009485D01*
X003470Y009387D02*
X006333Y009387D01*
X005904Y009288D02*
X003470Y009288D01*
X003470Y009190D02*
X005771Y009190D01*
X005726Y009091D02*
X003470Y009091D01*
X003470Y008993D02*
X005720Y008993D01*
X005747Y008894D02*
X003470Y008894D01*
X003470Y008796D02*
X005822Y008796D01*
X008103Y009334D02*
X008129Y009347D01*
X008126Y009344D01*
X008103Y009334D01*
X007220Y009686D02*
X006966Y009724D01*
X006699Y009854D01*
X006483Y010056D01*
X006336Y010314D01*
X006293Y010456D01*
X006280Y010512D01*
X006273Y010522D01*
X006367Y010497D01*
X006367Y010497D01*
X006726Y010466D01*
X006720Y010451D01*
X006720Y010336D01*
X006764Y010229D01*
X006845Y010147D01*
X006952Y010103D01*
X007010Y010103D01*
X007050Y010099D01*
X007126Y010068D01*
X007184Y010010D01*
X007215Y009934D01*
X007220Y009893D01*
X007220Y009686D01*
X007220Y009781D02*
X006850Y009781D01*
X006672Y009879D02*
X007220Y009879D01*
X007197Y009978D02*
X006567Y009978D01*
X006471Y010076D02*
X007106Y010076D01*
X006818Y010175D02*
X006415Y010175D01*
X006359Y010273D02*
X006745Y010273D01*
X006720Y010372D02*
X006318Y010372D01*
X006289Y010470D02*
X006675Y010470D01*
X007573Y010447D02*
X007679Y010341D01*
X007679Y010341D01*
X007800Y010050D01*
X007800Y009844D01*
X007820Y009854D01*
X008036Y010056D01*
X008183Y010314D01*
X008226Y010456D01*
X008239Y010512D01*
X008246Y010522D01*
X008152Y010497D01*
X008152Y010497D01*
X007573Y010447D01*
X007648Y010372D02*
X008201Y010372D01*
X008230Y010470D02*
X007844Y010470D01*
X007707Y010273D02*
X008160Y010273D01*
X008104Y010175D02*
X007748Y010175D01*
X007789Y010076D02*
X008048Y010076D01*
X007953Y009978D02*
X007800Y009978D01*
X007800Y009879D02*
X007847Y009879D01*
X008729Y010076D02*
X021070Y010076D01*
X020966Y010112D02*
X020966Y010112D01*
X020857Y010175D02*
X008758Y010175D01*
X008780Y010273D02*
X020686Y010273D01*
X023170Y012145D02*
X023404Y012145D01*
X025274Y012539D02*
X026903Y012539D01*
X026960Y012637D02*
X025254Y012637D01*
X025235Y012736D02*
X027017Y012736D01*
X027046Y012786D02*
X027046Y012786D01*
X027089Y012834D02*
X025224Y012834D01*
X025224Y012933D02*
X027175Y012933D01*
X027261Y013031D02*
X025224Y013031D01*
X025227Y013130D02*
X027350Y013130D01*
X027479Y013228D02*
X025247Y013228D01*
X025267Y013327D02*
X027667Y013327D01*
X027772Y013327D02*
X050484Y013327D01*
X050585Y013425D02*
X025286Y013425D01*
X025322Y013524D02*
X053601Y013524D01*
X053601Y013622D02*
X025360Y013622D01*
X025365Y013721D02*
X053601Y013721D01*
X053601Y013819D02*
X025343Y013819D01*
X025285Y013918D02*
X053601Y013918D01*
X053601Y014016D02*
X025137Y014016D01*
X024933Y014016D02*
X003470Y014016D01*
X003470Y013918D02*
X024785Y013918D01*
X024727Y013819D02*
X003470Y013819D01*
X003470Y013721D02*
X019688Y013721D01*
X019831Y013721D02*
X024686Y013721D01*
X024645Y013622D02*
X019997Y013622D01*
X020092Y013524D02*
X024625Y013524D01*
X024644Y013619D02*
X024644Y013619D01*
X025590Y012440D02*
X026846Y012440D01*
X026820Y012395D02*
X026820Y012395D01*
X026802Y012342D02*
X026125Y012342D01*
X026018Y012379D02*
X026018Y012379D01*
X026410Y012243D02*
X026769Y012243D01*
X026735Y012145D02*
X026694Y012145D01*
X029886Y011357D02*
X033457Y011357D01*
X033299Y011258D02*
X029985Y011258D01*
X030030Y011160D02*
X033188Y011160D01*
X033084Y011061D02*
X030044Y011061D01*
X030021Y010963D02*
X032980Y010963D01*
X032877Y010864D02*
X029963Y010864D01*
X029833Y010766D02*
X032773Y010766D01*
X032692Y010667D02*
X029473Y010667D01*
X029247Y010569D02*
X032623Y010569D01*
X032555Y010470D02*
X029089Y010470D01*
X028961Y010372D02*
X032486Y010372D01*
X032417Y010273D02*
X028857Y010273D01*
X028760Y010175D02*
X032349Y010175D01*
X032291Y010076D02*
X028803Y010076D01*
X028854Y009978D02*
X032249Y009978D01*
X032207Y009879D02*
X028905Y009879D01*
X028934Y009781D02*
X032164Y009781D01*
X032122Y009682D02*
X028963Y009682D01*
X028992Y009584D02*
X032080Y009584D01*
X032038Y009485D02*
X029021Y009485D01*
X029050Y009387D02*
X032005Y009387D01*
X031985Y009288D02*
X029079Y009288D01*
X029108Y009190D02*
X031965Y009190D01*
X031945Y009091D02*
X029132Y009091D01*
X029130Y009116D02*
X029130Y009116D01*
X029141Y008993D02*
X031924Y008993D01*
X031904Y008894D02*
X029151Y008894D01*
X029160Y008796D02*
X031884Y008796D01*
X031864Y008697D02*
X029170Y008697D01*
X029179Y008599D02*
X031864Y008599D01*
X031864Y008500D02*
X029188Y008500D01*
X029198Y008402D02*
X031864Y008402D01*
X031864Y008303D02*
X029203Y008303D01*
X029193Y008205D02*
X031864Y008205D01*
X031864Y008106D02*
X029184Y008106D01*
X029175Y008008D02*
X031864Y008008D01*
X031873Y007909D02*
X029165Y007909D01*
X029156Y007811D02*
X031893Y007811D01*
X031914Y007712D02*
X029146Y007712D01*
X029137Y007614D02*
X031934Y007614D01*
X031954Y007515D02*
X029123Y007515D01*
X029130Y007537D02*
X029130Y007537D01*
X029094Y007417D02*
X031974Y007417D01*
X031994Y007318D02*
X029065Y007318D01*
X029037Y007220D02*
X032015Y007220D01*
X032057Y007121D02*
X029008Y007121D01*
X028979Y007023D02*
X032100Y007023D01*
X032142Y006924D02*
X028950Y006924D01*
X028921Y006826D02*
X032184Y006826D01*
X032226Y006727D02*
X028881Y006727D01*
X028906Y006777D02*
X028906Y006777D01*
X028830Y006629D02*
X032269Y006629D01*
X032312Y006530D02*
X028779Y006530D01*
X028816Y006432D02*
X032381Y006432D01*
X032450Y006333D02*
X028928Y006333D01*
X029053Y006235D02*
X032518Y006235D01*
X032587Y006136D02*
X029224Y006136D01*
X029465Y006038D02*
X032655Y006038D01*
X032724Y005939D02*
X029847Y005939D01*
X029969Y005841D02*
X032822Y005841D01*
X032925Y005742D02*
X030023Y005742D01*
X030043Y005644D02*
X033029Y005644D01*
X033132Y005545D02*
X030030Y005545D01*
X029980Y005447D02*
X033236Y005447D01*
X033373Y005348D02*
X029874Y005348D01*
X029442Y005340D02*
X029442Y005340D01*
X029419Y005348D02*
X027937Y005348D01*
X027823Y005250D02*
X033531Y005250D01*
X033689Y005151D02*
X027710Y005151D01*
X027596Y005053D02*
X033847Y005053D01*
X034070Y004954D02*
X027482Y004954D01*
X027454Y004930D02*
X027454Y004930D01*
X027326Y004856D02*
X034336Y004856D01*
X034602Y004757D02*
X027293Y004757D01*
X027360Y004560D02*
X038930Y004560D01*
X038930Y004462D02*
X027411Y004462D01*
X027468Y004363D02*
X038910Y004363D01*
X038867Y004265D02*
X027525Y004265D01*
X027609Y004166D02*
X038819Y004166D01*
X038751Y004068D02*
X027696Y004068D01*
X027797Y003969D02*
X038664Y003969D01*
X038539Y003871D02*
X027916Y003871D01*
X027973Y003772D02*
X038358Y003772D01*
X039294Y003674D02*
X040231Y003674D01*
X040182Y003728D02*
X040474Y003408D01*
X040838Y003175D01*
X041250Y003044D01*
X041682Y003025D01*
X041893Y003071D01*
X041957Y003085D01*
X042065Y003160D01*
X042135Y003271D01*
X042158Y003400D01*
X042130Y003528D01*
X042055Y003636D01*
X041945Y003707D01*
X041815Y003730D01*
X041751Y003716D01*
X041624Y003696D01*
X041368Y003708D01*
X041124Y003786D01*
X040908Y003924D01*
X040735Y004113D01*
X040618Y004341D01*
X040590Y004438D01*
X040590Y004558D01*
X040590Y004462D02*
X050277Y004462D01*
X050290Y004363D02*
X040611Y004363D01*
X040657Y004265D02*
X050303Y004265D01*
X050316Y004166D02*
X040708Y004166D01*
X040777Y004068D02*
X050329Y004068D01*
X050342Y003969D02*
X040867Y003969D01*
X040991Y003871D02*
X050357Y003871D01*
X050383Y003772D02*
X041166Y003772D01*
X041996Y003674D02*
X050410Y003674D01*
X050436Y003575D02*
X042097Y003575D01*
X042142Y003477D02*
X050471Y003477D01*
X050559Y003378D02*
X042155Y003378D01*
X042137Y003280D02*
X053601Y003280D01*
X053601Y003378D02*
X050956Y003378D01*
X051044Y003477D02*
X053601Y003477D01*
X053601Y003575D02*
X051083Y003575D01*
X051093Y003674D02*
X053601Y003674D01*
X053601Y003772D02*
X051068Y003772D01*
X051045Y003871D02*
X053601Y003871D01*
X053601Y003969D02*
X051022Y003969D01*
X051005Y004068D02*
X053601Y004068D01*
X053601Y004166D02*
X050992Y004166D01*
X050979Y004265D02*
X053601Y004265D01*
X053601Y004363D02*
X050966Y004363D01*
X050953Y004462D02*
X053601Y004462D01*
X053601Y004560D02*
X050940Y004560D01*
X050935Y004659D02*
X053601Y004659D01*
X053601Y004757D02*
X050935Y004757D01*
X050935Y004856D02*
X053601Y004856D01*
X053601Y004954D02*
X050935Y004954D01*
X050935Y005053D02*
X053601Y005053D01*
X053601Y005151D02*
X050935Y005151D01*
X050943Y005250D02*
X053601Y005250D01*
X053601Y005348D02*
X050956Y005348D01*
X050969Y005447D02*
X053601Y005447D01*
X053601Y005545D02*
X050982Y005545D01*
X050995Y005644D02*
X053601Y005644D01*
X053601Y005742D02*
X051008Y005742D01*
X051028Y005841D02*
X053601Y005841D01*
X053601Y005939D02*
X051051Y005939D01*
X046462Y007318D02*
X040601Y007318D01*
X040568Y007395D02*
X040441Y008012D01*
X040441Y008641D01*
X040568Y009257D01*
X040816Y009836D01*
X041175Y010352D01*
X041631Y010786D01*
X042165Y011119D01*
X042756Y011337D01*
X043378Y011432D01*
X044006Y011401D01*
X044615Y011243D01*
X045180Y010966D01*
X045678Y010580D01*
X046088Y010103D01*
X046393Y009553D01*
X046581Y008952D01*
X046645Y008326D01*
X046581Y007700D01*
X046393Y007100D01*
X046088Y006550D01*
X045678Y006072D01*
X045180Y005687D01*
X044615Y005410D01*
X044006Y005252D01*
X043378Y005220D01*
X042756Y005316D01*
X042165Y005534D01*
X041631Y005867D01*
X041175Y006301D01*
X040816Y006817D01*
X040568Y007395D01*
X040563Y007417D02*
X046492Y007417D01*
X046523Y007515D02*
X040543Y007515D01*
X040523Y007614D02*
X046554Y007614D01*
X046583Y007712D02*
X040503Y007712D01*
X040482Y007811D02*
X046593Y007811D01*
X046603Y007909D02*
X040462Y007909D01*
X040442Y008008D02*
X046613Y008008D01*
X046623Y008106D02*
X040441Y008106D01*
X040441Y008205D02*
X046633Y008205D01*
X046643Y008303D02*
X040441Y008303D01*
X040441Y008402D02*
X046637Y008402D01*
X046627Y008500D02*
X040441Y008500D01*
X040441Y008599D02*
X046617Y008599D01*
X046607Y008697D02*
X040453Y008697D01*
X040473Y008796D02*
X046597Y008796D01*
X046587Y008894D02*
X040493Y008894D01*
X040513Y008993D02*
X046569Y008993D01*
X046538Y009091D02*
X040534Y009091D01*
X040554Y009190D02*
X046507Y009190D01*
X046476Y009288D02*
X040581Y009288D01*
X040623Y009387D02*
X046445Y009387D01*
X046414Y009485D02*
X040666Y009485D01*
X040708Y009584D02*
X046376Y009584D01*
X046321Y009682D02*
X040750Y009682D01*
X040792Y009781D02*
X046267Y009781D01*
X046212Y009879D02*
X040846Y009879D01*
X040915Y009978D02*
X046157Y009978D01*
X046102Y010076D02*
X040983Y010076D01*
X041052Y010175D02*
X046026Y010175D01*
X045941Y010273D02*
X041121Y010273D01*
X041196Y010372D02*
X045857Y010372D01*
X045772Y010470D02*
X041300Y010470D01*
X041403Y010569D02*
X045688Y010569D01*
X045566Y010667D02*
X041507Y010667D01*
X041611Y010766D02*
X045438Y010766D01*
X045311Y010864D02*
X041758Y010864D01*
X041916Y010963D02*
X045184Y010963D01*
X044985Y011061D02*
X042074Y011061D01*
X042277Y011160D02*
X044784Y011160D01*
X044555Y011258D02*
X042543Y011258D01*
X042884Y011357D02*
X044175Y011357D01*
X045091Y011652D02*
X050518Y011652D01*
X050510Y011554D02*
X045291Y011554D01*
X045490Y011455D02*
X050491Y011455D01*
X050469Y011357D02*
X045618Y011357D01*
X045745Y011258D02*
X050447Y011258D01*
X050422Y011160D02*
X045872Y011160D01*
X045999Y011061D02*
X050396Y011061D01*
X050370Y010963D02*
X046110Y010963D01*
X046195Y010864D02*
X050348Y010864D01*
X050335Y010766D02*
X046279Y010766D01*
X046364Y010667D02*
X050322Y010667D01*
X050309Y010569D02*
X046448Y010569D01*
X046533Y010470D02*
X050296Y010470D01*
X050283Y010372D02*
X046598Y010372D01*
X046653Y010273D02*
X050270Y010273D01*
X050265Y010175D02*
X046708Y010175D01*
X046762Y010076D02*
X050265Y010076D01*
X050265Y009978D02*
X046817Y009978D01*
X046872Y009879D02*
X050265Y009879D01*
X050265Y009781D02*
X046926Y009781D01*
X046957Y009682D02*
X050265Y009682D01*
X050265Y009584D02*
X046988Y009584D01*
X047019Y009485D02*
X050274Y009485D01*
X050287Y009387D02*
X047050Y009387D01*
X047081Y009288D02*
X050300Y009288D01*
X050313Y009190D02*
X047112Y009190D01*
X047143Y009091D02*
X050326Y009091D01*
X050339Y008993D02*
X047157Y008993D01*
X047167Y008894D02*
X050352Y008894D01*
X050377Y008796D02*
X047177Y008796D01*
X047187Y008697D02*
X050403Y008697D01*
X050430Y008599D02*
X047197Y008599D01*
X047207Y008500D02*
X050454Y008500D01*
X050477Y008402D02*
X047217Y008402D01*
X047223Y008303D02*
X050500Y008303D01*
X050516Y008205D02*
X047213Y008205D01*
X047203Y008106D02*
X050529Y008106D01*
X050542Y008008D02*
X047193Y008008D01*
X046431Y007220D02*
X040643Y007220D01*
X040685Y007121D02*
X046400Y007121D01*
X046350Y007023D02*
X040728Y007023D01*
X040770Y006924D02*
X046296Y006924D01*
X046241Y006826D02*
X040812Y006826D01*
X040878Y006727D02*
X046186Y006727D01*
X046132Y006629D02*
X040947Y006629D01*
X041015Y006530D02*
X046071Y006530D01*
X045986Y006432D02*
X041084Y006432D01*
X041153Y006333D02*
X045902Y006333D01*
X045817Y006235D02*
X041245Y006235D01*
X041348Y006136D02*
X045733Y006136D01*
X045633Y006038D02*
X041452Y006038D01*
X041555Y005939D02*
X045506Y005939D01*
X045379Y005841D02*
X041674Y005841D01*
X041631Y005867D02*
X041631Y005867D01*
X041832Y005742D02*
X045252Y005742D01*
X045092Y005644D02*
X041990Y005644D01*
X042148Y005545D02*
X044891Y005545D01*
X044690Y005447D02*
X042401Y005447D01*
X042667Y005348D02*
X044377Y005348D01*
X043958Y005250D02*
X043185Y005250D01*
X042602Y004757D02*
X040507Y004757D01*
X040548Y004659D02*
X043233Y004659D01*
X042336Y004856D02*
X040466Y004856D01*
X040372Y004954D02*
X042070Y004954D01*
X041847Y005053D02*
X040274Y005053D01*
X040098Y005151D02*
X041689Y005151D01*
X039901Y004488D02*
X039926Y004426D01*
X039928Y004412D01*
X039923Y004387D01*
X039930Y004358D01*
X039930Y004328D01*
X039943Y004294D01*
X039984Y004111D01*
X040182Y003728D01*
X040182Y003728D01*
X040159Y003772D02*
X039369Y003772D01*
X039354Y003743D02*
X039542Y004121D01*
X039542Y004121D01*
X039577Y004297D01*
X039590Y004328D01*
X039590Y004361D01*
X039596Y004393D01*
X039592Y004415D01*
X039593Y004426D01*
X039618Y004488D01*
X039665Y004535D01*
X039726Y004560D01*
X039793Y004560D01*
X039854Y004535D01*
X039901Y004488D01*
X039912Y004462D02*
X039607Y004462D01*
X039590Y004363D02*
X039928Y004363D01*
X039950Y004265D02*
X039570Y004265D01*
X039551Y004166D02*
X039971Y004166D01*
X039984Y004111D02*
X039984Y004111D01*
X040006Y004068D02*
X039515Y004068D01*
X039466Y003969D02*
X040057Y003969D01*
X040108Y003871D02*
X039418Y003871D01*
X039354Y003743D02*
X039354Y003743D01*
X039075Y003425D01*
X039075Y003425D01*
X038724Y003191D01*
X038724Y003191D01*
X038324Y003055D01*
X038324Y003055D01*
X037902Y003028D01*
X037902Y003028D01*
X037695Y003070D01*
X037630Y003083D01*
X037504Y003181D02*
X025303Y003181D01*
X025276Y003280D02*
X037446Y003280D01*
X037426Y003378D02*
X027846Y003378D01*
X027942Y003477D02*
X037440Y003477D01*
X037484Y003575D02*
X027982Y003575D01*
X027991Y003674D02*
X037585Y003674D01*
X038696Y003181D02*
X040828Y003181D01*
X040838Y003175D02*
X040838Y003175D01*
X040674Y003280D02*
X038857Y003280D01*
X039005Y003378D02*
X040521Y003378D01*
X040474Y003408D02*
X040474Y003408D01*
X040411Y003477D02*
X039121Y003477D01*
X039207Y003575D02*
X040321Y003575D01*
X041129Y003083D02*
X038404Y003083D01*
X041250Y003044D02*
X041250Y003044D01*
X041682Y003025D02*
X041682Y003025D01*
X041947Y003083D02*
X053601Y003083D01*
X053601Y003181D02*
X042078Y003181D01*
X036615Y005410D02*
X036006Y005252D01*
X035378Y005220D01*
X034756Y005316D01*
X034165Y005534D01*
X033631Y005867D01*
X033175Y006301D01*
X032816Y006817D01*
X032568Y007395D01*
X032441Y008012D01*
X032441Y008641D01*
X032568Y009257D01*
X032816Y009836D01*
X033175Y010352D01*
X033631Y010786D01*
X034165Y011119D01*
X034756Y011337D01*
X035378Y011432D01*
X036006Y011401D01*
X036615Y011243D01*
X037180Y010966D01*
X037678Y010580D01*
X038088Y010103D01*
X038393Y009553D01*
X038581Y008952D01*
X038645Y008326D01*
X038581Y007700D01*
X038393Y007100D01*
X038088Y006550D01*
X037678Y006072D01*
X037180Y005687D01*
X036615Y005410D01*
X036690Y005447D02*
X034401Y005447D01*
X034148Y005545D02*
X036891Y005545D01*
X037092Y005644D02*
X033990Y005644D01*
X033832Y005742D02*
X037252Y005742D01*
X037379Y005841D02*
X033674Y005841D01*
X033555Y005939D02*
X037506Y005939D01*
X037633Y006038D02*
X033452Y006038D01*
X033348Y006136D02*
X037733Y006136D01*
X037817Y006235D02*
X033245Y006235D01*
X033153Y006333D02*
X037902Y006333D01*
X037986Y006432D02*
X033084Y006432D01*
X033015Y006530D02*
X038071Y006530D01*
X038132Y006629D02*
X032947Y006629D01*
X032878Y006727D02*
X038186Y006727D01*
X038241Y006826D02*
X032812Y006826D01*
X032770Y006924D02*
X038296Y006924D01*
X038350Y007023D02*
X032728Y007023D01*
X032685Y007121D02*
X038400Y007121D01*
X038431Y007220D02*
X032643Y007220D01*
X032601Y007318D02*
X038462Y007318D01*
X038492Y007417D02*
X032563Y007417D01*
X032568Y007395D02*
X032568Y007395D01*
X032543Y007515D02*
X038523Y007515D01*
X038554Y007614D02*
X032523Y007614D01*
X032503Y007712D02*
X038583Y007712D01*
X038593Y007811D02*
X032482Y007811D01*
X032462Y007909D02*
X038603Y007909D01*
X038613Y008008D02*
X032442Y008008D01*
X032441Y008106D02*
X038623Y008106D01*
X038633Y008205D02*
X032441Y008205D01*
X032441Y008303D02*
X038643Y008303D01*
X038637Y008402D02*
X032441Y008402D01*
X032441Y008500D02*
X038627Y008500D01*
X038617Y008599D02*
X032441Y008599D01*
X032453Y008697D02*
X038607Y008697D01*
X038597Y008796D02*
X032473Y008796D01*
X032493Y008894D02*
X038587Y008894D01*
X038569Y008993D02*
X032513Y008993D01*
X032534Y009091D02*
X038538Y009091D01*
X038507Y009190D02*
X032554Y009190D01*
X032581Y009288D02*
X038476Y009288D01*
X038445Y009387D02*
X032623Y009387D01*
X032666Y009485D02*
X038414Y009485D01*
X038376Y009584D02*
X032708Y009584D01*
X032750Y009682D02*
X038321Y009682D01*
X038267Y009781D02*
X032792Y009781D01*
X032846Y009879D02*
X038212Y009879D01*
X038157Y009978D02*
X032915Y009978D01*
X032983Y010076D02*
X038102Y010076D01*
X038026Y010175D02*
X033052Y010175D01*
X033121Y010273D02*
X037941Y010273D01*
X037857Y010372D02*
X033196Y010372D01*
X033300Y010470D02*
X037772Y010470D01*
X037688Y010569D02*
X033403Y010569D01*
X033507Y010667D02*
X037566Y010667D01*
X037438Y010766D02*
X033611Y010766D01*
X033758Y010864D02*
X037311Y010864D01*
X037184Y010963D02*
X033916Y010963D01*
X034074Y011061D02*
X036985Y011061D01*
X036784Y011160D02*
X034277Y011160D01*
X034543Y011258D02*
X036555Y011258D01*
X036175Y011357D02*
X034884Y011357D01*
X036194Y011948D02*
X037666Y011948D01*
X037773Y011849D02*
X036575Y011849D01*
X039094Y012342D02*
X040425Y012342D01*
X040430Y012440D02*
X039094Y012440D01*
X039100Y012532D02*
X039100Y012532D01*
X039097Y012539D02*
X040450Y012539D01*
X040467Y012629D02*
X040467Y012629D01*
X040472Y012637D02*
X039063Y012637D01*
X039112Y012243D02*
X040407Y012243D01*
X040375Y012145D02*
X039144Y012145D01*
X039194Y012046D02*
X040325Y012046D01*
X040254Y011948D02*
X039265Y011948D01*
X039382Y011849D02*
X040137Y011849D01*
X039924Y011751D02*
X039595Y011751D01*
X040722Y011455D02*
X041615Y011455D01*
X041457Y011357D02*
X040596Y011357D01*
X040460Y011258D02*
X041299Y011258D01*
X041188Y011160D02*
X040267Y011160D01*
X040371Y011193D02*
X040371Y011193D01*
X040794Y011554D02*
X041773Y011554D01*
X041945Y011652D02*
X040865Y011652D01*
X040937Y011751D02*
X042211Y011751D01*
X042088Y011948D02*
X042932Y011948D01*
X042477Y011849D02*
X041972Y011849D01*
X042137Y012046D02*
X050549Y012046D01*
X050544Y011948D02*
X044194Y011948D01*
X044575Y011849D02*
X050535Y011849D01*
X050527Y011751D02*
X044890Y011751D01*
X042189Y012224D02*
X042189Y012224D01*
X042187Y012243D02*
X049466Y012243D01*
X049433Y012342D02*
X042175Y012342D01*
X042163Y012440D02*
X049429Y012440D01*
X049459Y012539D02*
X042151Y012539D01*
X042145Y012582D02*
X042145Y012582D01*
X042113Y012637D02*
X049533Y012637D01*
X049615Y012736D02*
X042056Y012736D01*
X041998Y012834D02*
X049785Y012834D01*
X049939Y012920D02*
X049939Y012920D01*
X050031Y012933D02*
X041911Y012933D01*
X041777Y013031D02*
X050447Y013031D01*
X050455Y012933D02*
X050468Y012933D01*
X050299Y012970D02*
X050299Y012970D01*
X051035Y013327D02*
X053601Y013327D01*
X053601Y013425D02*
X050931Y013425D01*
X051078Y013228D02*
X053601Y013228D01*
X053601Y013130D02*
X051105Y013130D01*
X051131Y013031D02*
X053601Y013031D01*
X053601Y012933D02*
X051158Y012933D01*
X051177Y012834D02*
X053601Y012834D01*
X053601Y012736D02*
X051185Y012736D01*
X051194Y012637D02*
X053601Y012637D01*
X053601Y012539D02*
X051203Y012539D01*
X051211Y012440D02*
X053601Y012440D01*
X053601Y012342D02*
X051220Y012342D01*
X051228Y012243D02*
X053601Y012243D01*
X053601Y012145D02*
X051237Y012145D01*
X051237Y012143D02*
X051237Y012143D01*
X051232Y012046D02*
X053601Y012046D01*
X053601Y011948D02*
X051226Y011948D01*
X051237Y012026D02*
X051237Y012026D01*
X051212Y011849D02*
X053601Y011849D01*
X053601Y011751D02*
X051203Y011751D01*
X051194Y011652D02*
X053601Y011652D01*
X053601Y011554D02*
X051186Y011554D01*
X051177Y011455D02*
X053601Y011455D01*
X053601Y011357D02*
X051158Y011357D01*
X051132Y011258D02*
X053601Y011258D01*
X053601Y011160D02*
X051106Y011160D01*
X051079Y011061D02*
X053601Y011061D01*
X053601Y010963D02*
X051056Y010963D01*
X051078Y011058D02*
X051078Y011058D01*
X051033Y010864D02*
X053601Y010864D01*
X053601Y010766D02*
X051011Y010766D01*
X050998Y010667D02*
X053601Y010667D01*
X053601Y010569D02*
X050985Y010569D01*
X050972Y010470D02*
X053601Y010470D01*
X053601Y010372D02*
X050959Y010372D01*
X050946Y010273D02*
X053601Y010273D01*
X053601Y010175D02*
X050935Y010175D01*
X050935Y010076D02*
X053601Y010076D01*
X053601Y009978D02*
X050935Y009978D01*
X050935Y009879D02*
X053601Y009879D01*
X053601Y009781D02*
X050935Y009781D01*
X050935Y009682D02*
X053601Y009682D01*
X053601Y009584D02*
X050937Y009584D01*
X050950Y009485D02*
X053601Y009485D01*
X053601Y009387D02*
X050963Y009387D01*
X050975Y009288D02*
X053601Y009288D01*
X053601Y009190D02*
X050988Y009190D01*
X051001Y009091D02*
X053601Y009091D01*
X053601Y008993D02*
X051017Y008993D01*
X051040Y008894D02*
X053601Y008894D01*
X053601Y008796D02*
X051063Y008796D01*
X051078Y008729D02*
X051078Y008729D01*
X051087Y008697D02*
X053601Y008697D01*
X053601Y008599D02*
X051113Y008599D01*
X051139Y008500D02*
X053601Y008500D01*
X053601Y008402D02*
X051166Y008402D01*
X040959Y011782D02*
X040959Y011782D01*
X040981Y011849D02*
X041661Y011849D01*
X041553Y011948D02*
X041013Y011948D01*
X041045Y012046D02*
X041501Y012046D01*
X041490Y012145D02*
X041077Y012145D01*
X041090Y012243D02*
X041507Y012243D01*
X041505Y012342D02*
X041090Y012342D01*
X041138Y012440D02*
X041459Y012440D01*
X042166Y012145D02*
X049542Y012145D01*
X049982Y012145D02*
X050510Y012145D01*
X050412Y012243D02*
X050091Y012243D01*
X038478Y013207D02*
X038478Y013207D01*
X038154Y013211D02*
X038154Y013211D01*
X019529Y013130D02*
X019490Y013130D01*
X019471Y013228D02*
X019391Y013228D01*
X019430Y013327D02*
X019212Y013327D01*
X019430Y013425D02*
X018863Y013425D01*
X018604Y013425D02*
X008586Y013425D01*
X008567Y013433D02*
X008452Y013433D01*
X008345Y013389D01*
X008264Y013308D01*
X008220Y013201D01*
X008220Y013143D01*
X008215Y013102D01*
X008184Y013027D01*
X008126Y012969D01*
X008050Y012937D01*
X008010Y012933D01*
X005952Y012933D01*
X005845Y012889D01*
X005764Y012808D01*
X005720Y012701D01*
X005720Y012586D01*
X005764Y012479D01*
X005845Y012397D01*
X005952Y012353D01*
X006431Y012353D01*
X006422Y012342D02*
X003470Y012342D01*
X003470Y012440D02*
X005802Y012440D01*
X005739Y012539D02*
X003470Y012539D01*
X003470Y012637D02*
X005720Y012637D01*
X005734Y012736D02*
X003470Y012736D01*
X003470Y012834D02*
X005790Y012834D01*
X005951Y012933D02*
X003470Y012933D01*
X003470Y013031D02*
X008186Y013031D01*
X008218Y013130D02*
X003470Y013130D01*
X003470Y013228D02*
X008231Y013228D01*
X008283Y013327D02*
X003470Y013327D01*
X003470Y013425D02*
X008433Y013425D01*
X008567Y013433D02*
X008674Y013389D01*
X008755Y013308D01*
X008800Y013201D01*
X008800Y012986D01*
X008679Y012696D01*
X008679Y012696D01*
X008457Y012474D01*
X008457Y012474D01*
X008377Y012440D02*
X017714Y012440D01*
X017725Y012539D02*
X008522Y012539D01*
X008621Y012637D02*
X017751Y012637D01*
X017778Y012736D02*
X008696Y012736D01*
X008737Y012834D02*
X017804Y012834D01*
X017871Y012933D02*
X008777Y012933D01*
X008800Y013031D02*
X017940Y013031D01*
X018009Y013130D02*
X008800Y013130D01*
X008788Y013228D02*
X018144Y013228D01*
X018015Y013138D02*
X018015Y013138D01*
X018285Y013327D02*
X008736Y013327D01*
X006351Y012243D02*
X003470Y012243D01*
X003470Y012145D02*
X006316Y012145D01*
X006346Y012236D02*
X006346Y012236D01*
X006284Y012046D02*
X003470Y012046D01*
X003470Y011948D02*
X006252Y011948D01*
X006150Y011849D02*
X003470Y011849D01*
X003470Y011751D02*
X006000Y011751D01*
X006062Y011813D02*
X006062Y011813D01*
X005901Y011652D02*
X003470Y011652D01*
X003470Y011554D02*
X005824Y011554D01*
X005784Y011455D02*
X003470Y011455D01*
X003470Y011357D02*
X005743Y011357D01*
X005720Y011258D02*
X003470Y011258D01*
X003470Y011160D02*
X005720Y011160D01*
X005730Y011061D02*
X003470Y011061D01*
X003470Y010963D02*
X005728Y010963D01*
X005721Y010864D02*
X003470Y010864D01*
X003470Y010766D02*
X005748Y010766D01*
X003470Y013524D02*
X019456Y013524D01*
X019522Y013622D02*
X003470Y013622D01*
X018414Y012539D02*
X019183Y012539D01*
X019049Y012637D02*
X018477Y012637D01*
X018603Y012736D02*
X018904Y012736D01*
X028361Y005841D02*
X028477Y005841D01*
X028589Y005742D02*
X028284Y005742D01*
X028206Y005644D02*
X028741Y005644D01*
X028912Y005545D02*
X028129Y005545D01*
X028053Y005449D02*
X028053Y005449D01*
X028051Y005447D02*
X029129Y005447D01*
X029015Y005486D02*
X029015Y005486D01*
X034667Y005348D02*
X036377Y005348D01*
X035958Y005250D02*
X035185Y005250D01*
X027476Y003378D02*
X025256Y003378D01*
X025237Y003477D02*
X027348Y003477D01*
X008309Y005603D02*
X008304Y005598D01*
X008193Y005487D01*
X008193Y005487D01*
X008069Y005244D01*
X007967Y005346D01*
X007967Y005346D01*
X007887Y005426D01*
X007593Y005595D01*
X007564Y005603D01*
X008309Y005603D01*
X008251Y005545D02*
X007680Y005545D01*
X007851Y005447D02*
X008172Y005447D01*
X008122Y005348D02*
X007965Y005348D01*
X007887Y005426D02*
X007887Y005426D01*
X008063Y005250D02*
X008072Y005250D01*
M02*
