G75*
%MOIN*%
%OFA0B0*%
%FSLAX24Y24*%
%IPPOS*%
%LPD*%
%AMOC8*
5,1,8,0,0,1.08239X$1,22.5*
%
%ADD10C,0.0000*%
%ADD11C,0.0100*%
%ADD12C,0.0120*%
%ADD13R,0.0008X0.0016*%
%ADD14R,0.0008X0.0024*%
%ADD15R,0.0008X0.0031*%
%ADD16R,0.0008X0.0047*%
%ADD17R,0.0008X0.0039*%
%ADD18R,0.0008X0.0063*%
%ADD19R,0.0008X0.0087*%
%ADD20R,0.0008X0.0079*%
%ADD21R,0.0008X0.0102*%
%ADD22R,0.0008X0.0094*%
%ADD23R,0.0008X0.0118*%
%ADD24R,0.0008X0.0142*%
%ADD25R,0.0008X0.0134*%
%ADD26R,0.0008X0.0157*%
%ADD27R,0.0008X0.0150*%
%ADD28R,0.0008X0.0173*%
%ADD29R,0.0008X0.0165*%
%ADD30R,0.0008X0.0181*%
%ADD31R,0.0008X0.0197*%
%ADD32R,0.0008X0.0189*%
%ADD33R,0.0008X0.0008*%
%ADD34R,0.0008X0.0071*%
%ADD35R,0.0008X0.0126*%
%ADD36R,0.0008X0.0110*%
%ADD37R,0.0008X0.0236*%
%ADD38R,0.0008X0.0283*%
%ADD39R,0.0008X0.0220*%
%ADD40R,0.0008X0.0323*%
%ADD41R,0.0008X0.0228*%
%ADD42R,0.0008X0.0362*%
%ADD43R,0.0008X0.0244*%
%ADD44R,0.0008X0.0213*%
%ADD45R,0.0008X0.0354*%
%ADD46R,0.0008X0.0386*%
%ADD47R,0.0008X0.0252*%
%ADD48R,0.0008X0.0260*%
%ADD49R,0.0008X0.0409*%
%ADD50R,0.0008X0.0433*%
%ADD51R,0.0008X0.0268*%
%ADD52R,0.0008X0.0457*%
%ADD53R,0.0008X0.0276*%
%ADD54R,0.0008X0.0449*%
%ADD55R,0.0008X0.0472*%
%ADD56R,0.0008X0.0465*%
%ADD57R,0.0008X0.0488*%
%ADD58R,0.0008X0.0504*%
%ADD59R,0.0008X0.0496*%
%ADD60R,0.0008X0.0520*%
%ADD61R,0.0008X0.0291*%
%ADD62R,0.0008X0.0512*%
%ADD63R,0.0008X0.0535*%
%ADD64R,0.0008X0.0528*%
%ADD65R,0.0008X0.0299*%
%ADD66R,0.0008X0.0543*%
%ADD67R,0.0008X0.0551*%
%ADD68R,0.0008X0.0559*%
%ADD69R,0.0008X0.0567*%
%ADD70R,0.0008X0.0205*%
%ADD71R,0.0008X0.0307*%
%ADD72R,0.0008X0.0315*%
%ADD73R,0.0008X0.0480*%
%ADD74R,0.0008X0.0441*%
%ADD75R,0.0008X0.0425*%
%ADD76R,0.0008X0.0417*%
%ADD77R,0.0008X0.0394*%
%ADD78R,0.0008X0.0402*%
%ADD79R,0.0008X0.0370*%
%ADD80R,0.0008X0.0339*%
%ADD81R,0.0008X0.0331*%
%ADD82R,0.0008X0.1630*%
%ADD83R,0.0008X0.1622*%
%ADD84R,0.0008X0.1598*%
%ADD85R,0.0008X0.1583*%
%ADD86R,0.0008X0.1551*%
%ADD87R,0.0008X0.1535*%
%ADD88R,0.0008X0.1520*%
%ADD89R,0.0008X0.1496*%
%ADD90R,0.0008X0.1480*%
%ADD91R,0.0008X0.1465*%
%ADD92R,0.0008X0.1433*%
%ADD93R,0.0008X0.1417*%
%ADD94R,0.0008X0.1402*%
%ADD95R,0.0008X0.1378*%
%ADD96R,0.0008X0.1362*%
%ADD97R,0.0008X0.1346*%
%ADD98R,0.0008X0.1315*%
%ADD99R,0.0008X0.1299*%
%ADD100R,0.0008X0.1283*%
%ADD101R,0.0008X0.1260*%
%ADD102R,0.0008X0.0346*%
%ADD103R,0.0008X0.0984*%
%ADD104R,0.0008X0.0976*%
%ADD105R,0.0008X0.0969*%
%ADD106R,0.0008X0.0575*%
D10*
X003510Y002393D02*
X053556Y002393D01*
X053587Y002395D01*
X053617Y002400D01*
X053646Y002410D01*
X053675Y002422D01*
X053701Y002438D01*
X053725Y002457D01*
X053747Y002479D01*
X053766Y002503D01*
X053782Y002529D01*
X053794Y002558D01*
X053804Y002587D01*
X053809Y002617D01*
X053811Y002648D01*
X053811Y014133D01*
X053809Y014153D01*
X053805Y014172D01*
X053797Y014191D01*
X053787Y014208D01*
X053774Y014223D01*
X053759Y014236D01*
X053742Y014246D01*
X053723Y014254D01*
X053704Y014258D01*
X053684Y014260D01*
X053684Y014259D02*
X003376Y014259D01*
X003356Y014257D01*
X003336Y014252D01*
X003318Y014243D01*
X003301Y014232D01*
X003287Y014218D01*
X003276Y014201D01*
X003267Y014183D01*
X003262Y014163D01*
X003260Y014143D01*
X003260Y002643D01*
X003262Y002613D01*
X003267Y002583D01*
X003276Y002554D01*
X003289Y002527D01*
X003304Y002501D01*
X003323Y002477D01*
X003344Y002456D01*
X003368Y002437D01*
X003394Y002422D01*
X003421Y002409D01*
X003450Y002400D01*
X003480Y002395D01*
X003510Y002393D01*
D11*
X030072Y007268D02*
X030072Y007331D01*
X030072Y007268D02*
X030074Y007248D01*
X030078Y007229D01*
X030086Y007211D01*
X030096Y007195D01*
X030109Y007180D01*
X030124Y007167D01*
X030140Y007157D01*
X030158Y007149D01*
X030177Y007145D01*
X030197Y007143D01*
X030760Y007143D01*
X030794Y007147D01*
X030827Y007154D01*
X030860Y007164D01*
X030891Y007178D01*
X030921Y007194D01*
X030949Y007214D01*
X030975Y007237D01*
X030998Y007262D01*
X031019Y007290D01*
X031036Y007319D01*
X031051Y007350D01*
X031062Y007382D01*
X031070Y007416D01*
X031074Y007450D01*
X031075Y007484D01*
X031072Y007518D01*
X031070Y007538D01*
X031066Y007557D01*
X031058Y007575D01*
X031048Y007591D01*
X031035Y007606D01*
X031020Y007619D01*
X031004Y007629D01*
X030986Y007637D01*
X030967Y007641D01*
X030947Y007643D01*
X030885Y007643D01*
X031073Y007831D02*
X031053Y007857D01*
X031031Y007881D01*
X031006Y007902D01*
X030979Y007920D01*
X030949Y007934D01*
X030919Y007945D01*
X030887Y007953D01*
X030855Y007957D01*
X030822Y007956D01*
X030572Y007956D01*
X030322Y007956D01*
X030072Y008206D02*
X030074Y008236D01*
X030079Y008266D01*
X030088Y008295D01*
X030101Y008322D01*
X030116Y008348D01*
X030135Y008372D01*
X030156Y008393D01*
X030180Y008412D01*
X030206Y008427D01*
X030233Y008440D01*
X030262Y008449D01*
X030292Y008454D01*
X030322Y008456D01*
X030572Y008456D01*
X030822Y008456D01*
X030822Y008768D02*
X030855Y008769D01*
X030887Y008765D01*
X030919Y008757D01*
X030949Y008746D01*
X030979Y008732D01*
X031006Y008714D01*
X031031Y008693D01*
X031053Y008669D01*
X031073Y008643D01*
X030822Y008768D02*
X030322Y008768D01*
X030135Y008768D02*
X030072Y008768D01*
X030822Y009081D02*
X030855Y009082D01*
X030887Y009078D01*
X030919Y009070D01*
X030949Y009059D01*
X030979Y009045D01*
X031006Y009027D01*
X031031Y009006D01*
X031053Y008982D01*
X031073Y008956D01*
X030822Y009581D02*
X030771Y009565D01*
X030722Y009546D01*
X030675Y009523D01*
X030629Y009497D01*
X030585Y009467D01*
X030544Y009434D01*
X030505Y009398D01*
X030469Y009359D01*
X030436Y009318D01*
X030406Y009274D01*
X030380Y009228D01*
X030357Y009181D01*
X030338Y009132D01*
X030322Y009081D01*
X030822Y009081D01*
X031073Y009456D02*
X031053Y009482D01*
X031031Y009506D01*
X031006Y009527D01*
X030979Y009545D01*
X030949Y009559D01*
X030919Y009570D01*
X030887Y009578D01*
X030855Y009582D01*
X030822Y009581D01*
X030322Y009581D01*
X030071Y009206D02*
X030091Y009180D01*
X030113Y009156D01*
X030138Y009135D01*
X030165Y009117D01*
X030195Y009103D01*
X030225Y009092D01*
X030257Y009084D01*
X030289Y009080D01*
X030322Y009081D01*
X030322Y009581D02*
X030289Y009580D01*
X030257Y009584D01*
X030225Y009592D01*
X030195Y009603D01*
X030165Y009617D01*
X030138Y009635D01*
X030113Y009656D01*
X030091Y009680D01*
X030071Y009706D01*
X032135Y008326D02*
X032137Y008442D01*
X032143Y008558D01*
X032153Y008674D01*
X032167Y008789D01*
X032184Y008904D01*
X032206Y009018D01*
X032232Y009131D01*
X032261Y009243D01*
X032294Y009355D01*
X032331Y009465D01*
X032372Y009573D01*
X032416Y009681D01*
X032465Y009786D01*
X032516Y009890D01*
X032571Y009992D01*
X032630Y010093D01*
X032692Y010191D01*
X032757Y010287D01*
X032826Y010380D01*
X032898Y010472D01*
X032972Y010560D01*
X033050Y010647D01*
X033131Y010730D01*
X033214Y010811D01*
X033301Y010889D01*
X033389Y010963D01*
X033481Y011035D01*
X033574Y011104D01*
X033670Y011169D01*
X033768Y011231D01*
X033869Y011290D01*
X033971Y011345D01*
X034075Y011396D01*
X034180Y011445D01*
X034288Y011489D01*
X034396Y011530D01*
X034506Y011567D01*
X034618Y011600D01*
X034730Y011629D01*
X034843Y011655D01*
X034957Y011677D01*
X035072Y011694D01*
X035187Y011708D01*
X035303Y011718D01*
X035419Y011724D01*
X035535Y011726D01*
X035651Y011724D01*
X035767Y011718D01*
X035883Y011708D01*
X035998Y011694D01*
X036113Y011677D01*
X036227Y011655D01*
X036340Y011629D01*
X036452Y011600D01*
X036564Y011567D01*
X036674Y011530D01*
X036782Y011489D01*
X036890Y011445D01*
X036995Y011396D01*
X037099Y011345D01*
X037201Y011290D01*
X037302Y011231D01*
X037400Y011169D01*
X037496Y011104D01*
X037589Y011035D01*
X037681Y010963D01*
X037769Y010889D01*
X037856Y010811D01*
X037939Y010730D01*
X038020Y010647D01*
X038098Y010560D01*
X038172Y010472D01*
X038244Y010380D01*
X038313Y010287D01*
X038378Y010191D01*
X038440Y010093D01*
X038499Y009992D01*
X038554Y009890D01*
X038605Y009786D01*
X038654Y009681D01*
X038698Y009573D01*
X038739Y009465D01*
X038776Y009355D01*
X038809Y009243D01*
X038838Y009131D01*
X038864Y009018D01*
X038886Y008904D01*
X038903Y008789D01*
X038917Y008674D01*
X038927Y008558D01*
X038933Y008442D01*
X038935Y008326D01*
X038933Y008210D01*
X038927Y008094D01*
X038917Y007978D01*
X038903Y007863D01*
X038886Y007748D01*
X038864Y007634D01*
X038838Y007521D01*
X038809Y007409D01*
X038776Y007297D01*
X038739Y007187D01*
X038698Y007079D01*
X038654Y006971D01*
X038605Y006866D01*
X038554Y006762D01*
X038499Y006660D01*
X038440Y006559D01*
X038378Y006461D01*
X038313Y006365D01*
X038244Y006272D01*
X038172Y006180D01*
X038098Y006092D01*
X038020Y006005D01*
X037939Y005922D01*
X037856Y005841D01*
X037769Y005763D01*
X037681Y005689D01*
X037589Y005617D01*
X037496Y005548D01*
X037400Y005483D01*
X037302Y005421D01*
X037201Y005362D01*
X037099Y005307D01*
X036995Y005256D01*
X036890Y005207D01*
X036782Y005163D01*
X036674Y005122D01*
X036564Y005085D01*
X036452Y005052D01*
X036340Y005023D01*
X036227Y004997D01*
X036113Y004975D01*
X035998Y004958D01*
X035883Y004944D01*
X035767Y004934D01*
X035651Y004928D01*
X035535Y004926D01*
X035419Y004928D01*
X035303Y004934D01*
X035187Y004944D01*
X035072Y004958D01*
X034957Y004975D01*
X034843Y004997D01*
X034730Y005023D01*
X034618Y005052D01*
X034506Y005085D01*
X034396Y005122D01*
X034288Y005163D01*
X034180Y005207D01*
X034075Y005256D01*
X033971Y005307D01*
X033869Y005362D01*
X033768Y005421D01*
X033670Y005483D01*
X033574Y005548D01*
X033481Y005617D01*
X033389Y005689D01*
X033301Y005763D01*
X033214Y005841D01*
X033131Y005922D01*
X033050Y006005D01*
X032972Y006092D01*
X032898Y006180D01*
X032826Y006272D01*
X032757Y006365D01*
X032692Y006461D01*
X032630Y006559D01*
X032571Y006660D01*
X032516Y006762D01*
X032465Y006866D01*
X032416Y006971D01*
X032372Y007079D01*
X032331Y007187D01*
X032294Y007297D01*
X032261Y007409D01*
X032232Y007521D01*
X032206Y007634D01*
X032184Y007748D01*
X032167Y007863D01*
X032153Y007978D01*
X032143Y008094D01*
X032137Y008210D01*
X032135Y008326D01*
X031073Y008331D02*
X031053Y008357D01*
X031031Y008381D01*
X031006Y008402D01*
X030979Y008420D01*
X030949Y008434D01*
X030919Y008445D01*
X030887Y008453D01*
X030855Y008457D01*
X030822Y008456D01*
X030572Y008456D02*
X030547Y008429D01*
X030525Y008399D01*
X030507Y008367D01*
X030492Y008333D01*
X030480Y008298D01*
X030472Y008261D01*
X030468Y008225D01*
X030468Y008187D01*
X030472Y008151D01*
X030480Y008114D01*
X030492Y008079D01*
X030507Y008045D01*
X030525Y008013D01*
X030547Y007983D01*
X030572Y007956D01*
X030322Y007956D02*
X030292Y007958D01*
X030262Y007963D01*
X030233Y007972D01*
X030206Y007985D01*
X030180Y008000D01*
X030156Y008019D01*
X030135Y008040D01*
X030116Y008064D01*
X030101Y008090D01*
X030088Y008117D01*
X030079Y008146D01*
X030074Y008176D01*
X030072Y008206D01*
X030322Y007643D02*
X030290Y007638D01*
X030260Y007629D01*
X030231Y007617D01*
X030203Y007602D01*
X030177Y007584D01*
X030153Y007562D01*
X030132Y007539D01*
X030114Y007513D01*
X030098Y007485D01*
X030086Y007456D01*
X030077Y007425D01*
X030072Y007394D01*
X030070Y007362D01*
X030072Y007331D01*
X030697Y007456D02*
X030699Y007483D01*
X030705Y007509D01*
X030714Y007534D01*
X030727Y007558D01*
X030743Y007579D01*
X030762Y007598D01*
X030783Y007614D01*
X030807Y007627D01*
X030832Y007636D01*
X030858Y007642D01*
X030885Y007644D01*
X032135Y008326D02*
X032137Y008442D01*
X032143Y008558D01*
X032153Y008674D01*
X032167Y008789D01*
X032184Y008904D01*
X032206Y009018D01*
X032232Y009131D01*
X032261Y009243D01*
X032294Y009355D01*
X032331Y009465D01*
X032372Y009573D01*
X032416Y009681D01*
X032465Y009786D01*
X032516Y009890D01*
X032571Y009992D01*
X032630Y010093D01*
X032692Y010191D01*
X032757Y010287D01*
X032826Y010380D01*
X032898Y010472D01*
X032972Y010560D01*
X033050Y010647D01*
X033131Y010730D01*
X033214Y010811D01*
X033301Y010889D01*
X033389Y010963D01*
X033481Y011035D01*
X033574Y011104D01*
X033670Y011169D01*
X033768Y011231D01*
X033869Y011290D01*
X033971Y011345D01*
X034075Y011396D01*
X034180Y011445D01*
X034288Y011489D01*
X034396Y011530D01*
X034506Y011567D01*
X034618Y011600D01*
X034730Y011629D01*
X034843Y011655D01*
X034957Y011677D01*
X035072Y011694D01*
X035187Y011708D01*
X035303Y011718D01*
X035419Y011724D01*
X035535Y011726D01*
X035651Y011724D01*
X035767Y011718D01*
X035883Y011708D01*
X035998Y011694D01*
X036113Y011677D01*
X036227Y011655D01*
X036340Y011629D01*
X036452Y011600D01*
X036564Y011567D01*
X036674Y011530D01*
X036782Y011489D01*
X036890Y011445D01*
X036995Y011396D01*
X037099Y011345D01*
X037201Y011290D01*
X037302Y011231D01*
X037400Y011169D01*
X037496Y011104D01*
X037589Y011035D01*
X037681Y010963D01*
X037769Y010889D01*
X037856Y010811D01*
X037939Y010730D01*
X038020Y010647D01*
X038098Y010560D01*
X038172Y010472D01*
X038244Y010380D01*
X038313Y010287D01*
X038378Y010191D01*
X038440Y010093D01*
X038499Y009992D01*
X038554Y009890D01*
X038605Y009786D01*
X038654Y009681D01*
X038698Y009573D01*
X038739Y009465D01*
X038776Y009355D01*
X038809Y009243D01*
X038838Y009131D01*
X038864Y009018D01*
X038886Y008904D01*
X038903Y008789D01*
X038917Y008674D01*
X038927Y008558D01*
X038933Y008442D01*
X038935Y008326D01*
X038933Y008210D01*
X038927Y008094D01*
X038917Y007978D01*
X038903Y007863D01*
X038886Y007748D01*
X038864Y007634D01*
X038838Y007521D01*
X038809Y007409D01*
X038776Y007297D01*
X038739Y007187D01*
X038698Y007079D01*
X038654Y006971D01*
X038605Y006866D01*
X038554Y006762D01*
X038499Y006660D01*
X038440Y006559D01*
X038378Y006461D01*
X038313Y006365D01*
X038244Y006272D01*
X038172Y006180D01*
X038098Y006092D01*
X038020Y006005D01*
X037939Y005922D01*
X037856Y005841D01*
X037769Y005763D01*
X037681Y005689D01*
X037589Y005617D01*
X037496Y005548D01*
X037400Y005483D01*
X037302Y005421D01*
X037201Y005362D01*
X037099Y005307D01*
X036995Y005256D01*
X036890Y005207D01*
X036782Y005163D01*
X036674Y005122D01*
X036564Y005085D01*
X036452Y005052D01*
X036340Y005023D01*
X036227Y004997D01*
X036113Y004975D01*
X035998Y004958D01*
X035883Y004944D01*
X035767Y004934D01*
X035651Y004928D01*
X035535Y004926D01*
X035419Y004928D01*
X035303Y004934D01*
X035187Y004944D01*
X035072Y004958D01*
X034957Y004975D01*
X034843Y004997D01*
X034730Y005023D01*
X034618Y005052D01*
X034506Y005085D01*
X034396Y005122D01*
X034288Y005163D01*
X034180Y005207D01*
X034075Y005256D01*
X033971Y005307D01*
X033869Y005362D01*
X033768Y005421D01*
X033670Y005483D01*
X033574Y005548D01*
X033481Y005617D01*
X033389Y005689D01*
X033301Y005763D01*
X033214Y005841D01*
X033131Y005922D01*
X033050Y006005D01*
X032972Y006092D01*
X032898Y006180D01*
X032826Y006272D01*
X032757Y006365D01*
X032692Y006461D01*
X032630Y006559D01*
X032571Y006660D01*
X032516Y006762D01*
X032465Y006866D01*
X032416Y006971D01*
X032372Y007079D01*
X032331Y007187D01*
X032294Y007297D01*
X032261Y007409D01*
X032232Y007521D01*
X032206Y007634D01*
X032184Y007748D01*
X032167Y007863D01*
X032153Y007978D01*
X032143Y008094D01*
X032137Y008210D01*
X032135Y008326D01*
X040135Y008326D02*
X040137Y008442D01*
X040143Y008558D01*
X040153Y008674D01*
X040167Y008789D01*
X040184Y008904D01*
X040206Y009018D01*
X040232Y009131D01*
X040261Y009243D01*
X040294Y009355D01*
X040331Y009465D01*
X040372Y009573D01*
X040416Y009681D01*
X040465Y009786D01*
X040516Y009890D01*
X040571Y009992D01*
X040630Y010093D01*
X040692Y010191D01*
X040757Y010287D01*
X040826Y010380D01*
X040898Y010472D01*
X040972Y010560D01*
X041050Y010647D01*
X041131Y010730D01*
X041214Y010811D01*
X041301Y010889D01*
X041389Y010963D01*
X041481Y011035D01*
X041574Y011104D01*
X041670Y011169D01*
X041768Y011231D01*
X041869Y011290D01*
X041971Y011345D01*
X042075Y011396D01*
X042180Y011445D01*
X042288Y011489D01*
X042396Y011530D01*
X042506Y011567D01*
X042618Y011600D01*
X042730Y011629D01*
X042843Y011655D01*
X042957Y011677D01*
X043072Y011694D01*
X043187Y011708D01*
X043303Y011718D01*
X043419Y011724D01*
X043535Y011726D01*
X043651Y011724D01*
X043767Y011718D01*
X043883Y011708D01*
X043998Y011694D01*
X044113Y011677D01*
X044227Y011655D01*
X044340Y011629D01*
X044452Y011600D01*
X044564Y011567D01*
X044674Y011530D01*
X044782Y011489D01*
X044890Y011445D01*
X044995Y011396D01*
X045099Y011345D01*
X045201Y011290D01*
X045302Y011231D01*
X045400Y011169D01*
X045496Y011104D01*
X045589Y011035D01*
X045681Y010963D01*
X045769Y010889D01*
X045856Y010811D01*
X045939Y010730D01*
X046020Y010647D01*
X046098Y010560D01*
X046172Y010472D01*
X046244Y010380D01*
X046313Y010287D01*
X046378Y010191D01*
X046440Y010093D01*
X046499Y009992D01*
X046554Y009890D01*
X046605Y009786D01*
X046654Y009681D01*
X046698Y009573D01*
X046739Y009465D01*
X046776Y009355D01*
X046809Y009243D01*
X046838Y009131D01*
X046864Y009018D01*
X046886Y008904D01*
X046903Y008789D01*
X046917Y008674D01*
X046927Y008558D01*
X046933Y008442D01*
X046935Y008326D01*
X046933Y008210D01*
X046927Y008094D01*
X046917Y007978D01*
X046903Y007863D01*
X046886Y007748D01*
X046864Y007634D01*
X046838Y007521D01*
X046809Y007409D01*
X046776Y007297D01*
X046739Y007187D01*
X046698Y007079D01*
X046654Y006971D01*
X046605Y006866D01*
X046554Y006762D01*
X046499Y006660D01*
X046440Y006559D01*
X046378Y006461D01*
X046313Y006365D01*
X046244Y006272D01*
X046172Y006180D01*
X046098Y006092D01*
X046020Y006005D01*
X045939Y005922D01*
X045856Y005841D01*
X045769Y005763D01*
X045681Y005689D01*
X045589Y005617D01*
X045496Y005548D01*
X045400Y005483D01*
X045302Y005421D01*
X045201Y005362D01*
X045099Y005307D01*
X044995Y005256D01*
X044890Y005207D01*
X044782Y005163D01*
X044674Y005122D01*
X044564Y005085D01*
X044452Y005052D01*
X044340Y005023D01*
X044227Y004997D01*
X044113Y004975D01*
X043998Y004958D01*
X043883Y004944D01*
X043767Y004934D01*
X043651Y004928D01*
X043535Y004926D01*
X043419Y004928D01*
X043303Y004934D01*
X043187Y004944D01*
X043072Y004958D01*
X042957Y004975D01*
X042843Y004997D01*
X042730Y005023D01*
X042618Y005052D01*
X042506Y005085D01*
X042396Y005122D01*
X042288Y005163D01*
X042180Y005207D01*
X042075Y005256D01*
X041971Y005307D01*
X041869Y005362D01*
X041768Y005421D01*
X041670Y005483D01*
X041574Y005548D01*
X041481Y005617D01*
X041389Y005689D01*
X041301Y005763D01*
X041214Y005841D01*
X041131Y005922D01*
X041050Y006005D01*
X040972Y006092D01*
X040898Y006180D01*
X040826Y006272D01*
X040757Y006365D01*
X040692Y006461D01*
X040630Y006559D01*
X040571Y006660D01*
X040516Y006762D01*
X040465Y006866D01*
X040416Y006971D01*
X040372Y007079D01*
X040331Y007187D01*
X040294Y007297D01*
X040261Y007409D01*
X040232Y007521D01*
X040206Y007634D01*
X040184Y007748D01*
X040167Y007863D01*
X040153Y007978D01*
X040143Y008094D01*
X040137Y008210D01*
X040135Y008326D01*
X040137Y008442D01*
X040143Y008558D01*
X040153Y008674D01*
X040167Y008789D01*
X040184Y008904D01*
X040206Y009018D01*
X040232Y009131D01*
X040261Y009243D01*
X040294Y009355D01*
X040331Y009465D01*
X040372Y009573D01*
X040416Y009681D01*
X040465Y009786D01*
X040516Y009890D01*
X040571Y009992D01*
X040630Y010093D01*
X040692Y010191D01*
X040757Y010287D01*
X040826Y010380D01*
X040898Y010472D01*
X040972Y010560D01*
X041050Y010647D01*
X041131Y010730D01*
X041214Y010811D01*
X041301Y010889D01*
X041389Y010963D01*
X041481Y011035D01*
X041574Y011104D01*
X041670Y011169D01*
X041768Y011231D01*
X041869Y011290D01*
X041971Y011345D01*
X042075Y011396D01*
X042180Y011445D01*
X042288Y011489D01*
X042396Y011530D01*
X042506Y011567D01*
X042618Y011600D01*
X042730Y011629D01*
X042843Y011655D01*
X042957Y011677D01*
X043072Y011694D01*
X043187Y011708D01*
X043303Y011718D01*
X043419Y011724D01*
X043535Y011726D01*
X043651Y011724D01*
X043767Y011718D01*
X043883Y011708D01*
X043998Y011694D01*
X044113Y011677D01*
X044227Y011655D01*
X044340Y011629D01*
X044452Y011600D01*
X044564Y011567D01*
X044674Y011530D01*
X044782Y011489D01*
X044890Y011445D01*
X044995Y011396D01*
X045099Y011345D01*
X045201Y011290D01*
X045302Y011231D01*
X045400Y011169D01*
X045496Y011104D01*
X045589Y011035D01*
X045681Y010963D01*
X045769Y010889D01*
X045856Y010811D01*
X045939Y010730D01*
X046020Y010647D01*
X046098Y010560D01*
X046172Y010472D01*
X046244Y010380D01*
X046313Y010287D01*
X046378Y010191D01*
X046440Y010093D01*
X046499Y009992D01*
X046554Y009890D01*
X046605Y009786D01*
X046654Y009681D01*
X046698Y009573D01*
X046739Y009465D01*
X046776Y009355D01*
X046809Y009243D01*
X046838Y009131D01*
X046864Y009018D01*
X046886Y008904D01*
X046903Y008789D01*
X046917Y008674D01*
X046927Y008558D01*
X046933Y008442D01*
X046935Y008326D01*
X046933Y008210D01*
X046927Y008094D01*
X046917Y007978D01*
X046903Y007863D01*
X046886Y007748D01*
X046864Y007634D01*
X046838Y007521D01*
X046809Y007409D01*
X046776Y007297D01*
X046739Y007187D01*
X046698Y007079D01*
X046654Y006971D01*
X046605Y006866D01*
X046554Y006762D01*
X046499Y006660D01*
X046440Y006559D01*
X046378Y006461D01*
X046313Y006365D01*
X046244Y006272D01*
X046172Y006180D01*
X046098Y006092D01*
X046020Y006005D01*
X045939Y005922D01*
X045856Y005841D01*
X045769Y005763D01*
X045681Y005689D01*
X045589Y005617D01*
X045496Y005548D01*
X045400Y005483D01*
X045302Y005421D01*
X045201Y005362D01*
X045099Y005307D01*
X044995Y005256D01*
X044890Y005207D01*
X044782Y005163D01*
X044674Y005122D01*
X044564Y005085D01*
X044452Y005052D01*
X044340Y005023D01*
X044227Y004997D01*
X044113Y004975D01*
X043998Y004958D01*
X043883Y004944D01*
X043767Y004934D01*
X043651Y004928D01*
X043535Y004926D01*
X043419Y004928D01*
X043303Y004934D01*
X043187Y004944D01*
X043072Y004958D01*
X042957Y004975D01*
X042843Y004997D01*
X042730Y005023D01*
X042618Y005052D01*
X042506Y005085D01*
X042396Y005122D01*
X042288Y005163D01*
X042180Y005207D01*
X042075Y005256D01*
X041971Y005307D01*
X041869Y005362D01*
X041768Y005421D01*
X041670Y005483D01*
X041574Y005548D01*
X041481Y005617D01*
X041389Y005689D01*
X041301Y005763D01*
X041214Y005841D01*
X041131Y005922D01*
X041050Y006005D01*
X040972Y006092D01*
X040898Y006180D01*
X040826Y006272D01*
X040757Y006365D01*
X040692Y006461D01*
X040630Y006559D01*
X040571Y006660D01*
X040516Y006762D01*
X040465Y006866D01*
X040416Y006971D01*
X040372Y007079D01*
X040331Y007187D01*
X040294Y007297D01*
X040261Y007409D01*
X040232Y007521D01*
X040206Y007634D01*
X040184Y007748D01*
X040167Y007863D01*
X040153Y007978D01*
X040143Y008094D01*
X040137Y008210D01*
X040135Y008326D01*
X047885Y009706D02*
X048635Y009706D01*
X048035Y010081D02*
X048006Y010049D01*
X047979Y010014D01*
X047955Y009977D01*
X047934Y009939D01*
X047916Y009899D01*
X047902Y009857D01*
X047891Y009815D01*
X047884Y009772D01*
X047880Y009728D01*
X047880Y009684D01*
X047884Y009640D01*
X047891Y009597D01*
X047902Y009555D01*
X047916Y009513D01*
X047934Y009473D01*
X047955Y009435D01*
X047979Y009398D01*
X048006Y009363D01*
X048035Y009331D01*
X047885Y009268D02*
X047895Y009244D01*
X047909Y009221D01*
X047926Y009200D01*
X047946Y009182D01*
X047969Y009167D01*
X047993Y009156D01*
X048019Y009148D01*
X048045Y009144D01*
X048072Y009143D01*
X048635Y009143D01*
X048665Y009141D01*
X048695Y009136D01*
X048724Y009127D01*
X048751Y009114D01*
X048777Y009099D01*
X048801Y009080D01*
X048822Y009059D01*
X048841Y009035D01*
X048856Y009009D01*
X048869Y008982D01*
X048878Y008953D01*
X048883Y008923D01*
X048885Y008893D01*
X048883Y008863D01*
X048878Y008833D01*
X048869Y008804D01*
X048856Y008777D01*
X048841Y008751D01*
X048822Y008727D01*
X048801Y008706D01*
X048777Y008687D01*
X048751Y008672D01*
X048724Y008659D01*
X048695Y008650D01*
X048665Y008645D01*
X048635Y008643D01*
X048072Y008643D01*
X048010Y008456D02*
X048260Y008456D01*
X047884Y008331D02*
X047883Y008295D01*
X047885Y008259D01*
X047892Y008224D01*
X047901Y008189D01*
X047915Y008155D01*
X047932Y008123D01*
X047952Y008093D01*
X047975Y008066D01*
X048001Y008040D01*
X048029Y008018D01*
X048060Y007999D01*
X048092Y007983D01*
X048126Y007970D01*
X048161Y007962D01*
X048197Y007956D01*
X048572Y007956D01*
X048572Y008143D01*
X048572Y007956D02*
X048885Y007956D01*
X048573Y008143D02*
X048571Y008176D01*
X048566Y008208D01*
X048558Y008240D01*
X048546Y008270D01*
X048531Y008300D01*
X048513Y008327D01*
X048493Y008352D01*
X048469Y008376D01*
X048444Y008396D01*
X048417Y008414D01*
X048387Y008429D01*
X048357Y008441D01*
X048325Y008449D01*
X048293Y008454D01*
X048260Y008456D01*
X048010Y008456D02*
X047990Y008454D01*
X047971Y008450D01*
X047953Y008442D01*
X047937Y008432D01*
X047922Y008419D01*
X047909Y008404D01*
X047899Y008388D01*
X047891Y008370D01*
X047887Y008351D01*
X047885Y008331D01*
X047884Y007831D02*
X047904Y007805D01*
X047926Y007781D01*
X047951Y007760D01*
X047978Y007742D01*
X048008Y007728D01*
X048038Y007717D01*
X048070Y007709D01*
X048102Y007705D01*
X048135Y007706D01*
X048635Y007706D01*
X048634Y007706D02*
X048667Y007707D01*
X048699Y007703D01*
X048731Y007695D01*
X048761Y007684D01*
X048791Y007670D01*
X048818Y007652D01*
X048843Y007631D01*
X048865Y007607D01*
X048885Y007581D01*
X048635Y007206D02*
X048135Y007206D01*
X048102Y007205D01*
X048070Y007209D01*
X048038Y007217D01*
X048008Y007228D01*
X047978Y007242D01*
X047951Y007260D01*
X047926Y007281D01*
X047904Y007305D01*
X047884Y007331D01*
X048634Y007206D02*
X048667Y007207D01*
X048699Y007203D01*
X048731Y007195D01*
X048761Y007184D01*
X048791Y007170D01*
X048818Y007152D01*
X048843Y007131D01*
X048865Y007107D01*
X048885Y007081D01*
X048635Y007706D02*
X048584Y007690D01*
X048535Y007671D01*
X048488Y007648D01*
X048442Y007622D01*
X048398Y007592D01*
X048357Y007559D01*
X048318Y007523D01*
X048282Y007484D01*
X048249Y007443D01*
X048219Y007399D01*
X048193Y007353D01*
X048170Y007306D01*
X048151Y007257D01*
X048135Y007206D01*
X048135Y006893D02*
X048635Y006893D01*
X047947Y006893D02*
X047885Y006893D01*
X048634Y006893D02*
X048667Y006894D01*
X048699Y006890D01*
X048731Y006882D01*
X048761Y006871D01*
X048791Y006857D01*
X048818Y006839D01*
X048843Y006818D01*
X048865Y006794D01*
X048885Y006768D01*
X048072Y008643D02*
X048045Y008644D01*
X048019Y008648D01*
X047993Y008656D01*
X047969Y008667D01*
X047946Y008682D01*
X047926Y008700D01*
X047909Y008721D01*
X047895Y008744D01*
X047885Y008768D01*
X048634Y009706D02*
X048665Y009705D01*
X048695Y009699D01*
X048724Y009691D01*
X048752Y009679D01*
X048779Y009663D01*
X048803Y009645D01*
X048825Y009624D01*
X048845Y009600D01*
X048861Y009575D01*
X048875Y009547D01*
X048884Y009518D01*
X044035Y012393D02*
X043723Y012393D01*
X043723Y012581D01*
X043723Y012393D02*
X043348Y012393D01*
X043723Y012581D02*
X043721Y012614D01*
X043716Y012646D01*
X043708Y012678D01*
X043696Y012708D01*
X043681Y012738D01*
X043663Y012765D01*
X043643Y012790D01*
X043619Y012814D01*
X043594Y012834D01*
X043567Y012852D01*
X043537Y012867D01*
X043507Y012879D01*
X043475Y012887D01*
X043443Y012892D01*
X043410Y012894D01*
X043410Y012893D02*
X043160Y012893D01*
X043140Y012891D01*
X043121Y012887D01*
X043103Y012879D01*
X043087Y012869D01*
X043072Y012856D01*
X043059Y012841D01*
X043049Y012825D01*
X043041Y012807D01*
X043037Y012788D01*
X043035Y012768D01*
X043034Y012732D01*
X043036Y012696D01*
X043043Y012661D01*
X043052Y012626D01*
X043066Y012592D01*
X043083Y012560D01*
X043103Y012530D01*
X043126Y012503D01*
X043152Y012477D01*
X043180Y012455D01*
X043211Y012436D01*
X043243Y012420D01*
X043277Y012407D01*
X043312Y012399D01*
X043348Y012393D01*
X043723Y012644D02*
X043754Y012642D01*
X043786Y012644D01*
X043817Y012649D01*
X043848Y012658D01*
X043877Y012670D01*
X043905Y012686D01*
X043931Y012704D01*
X043954Y012725D01*
X043976Y012749D01*
X043994Y012775D01*
X044009Y012803D01*
X044021Y012832D01*
X044030Y012862D01*
X044035Y012894D01*
X036035Y012893D02*
X036035Y012643D01*
X035285Y012643D01*
X035255Y012641D01*
X035225Y012636D01*
X035196Y012627D01*
X035169Y012614D01*
X035143Y012599D01*
X035119Y012580D01*
X035098Y012559D01*
X035079Y012535D01*
X035064Y012509D01*
X035051Y012482D01*
X035042Y012453D01*
X035037Y012423D01*
X035035Y012393D01*
X035785Y013143D02*
X035815Y013141D01*
X035845Y013136D01*
X035874Y013127D01*
X035901Y013114D01*
X035927Y013099D01*
X035951Y013080D01*
X035972Y013059D01*
X035991Y013035D01*
X036006Y013009D01*
X036019Y012982D01*
X036028Y012953D01*
X036033Y012923D01*
X036035Y012893D01*
X016535Y009393D02*
X016223Y009393D01*
X016223Y009581D01*
X016223Y009393D02*
X015848Y009393D01*
X016223Y009581D02*
X016221Y009614D01*
X016216Y009646D01*
X016208Y009678D01*
X016196Y009708D01*
X016181Y009738D01*
X016163Y009765D01*
X016143Y009790D01*
X016119Y009814D01*
X016094Y009834D01*
X016067Y009852D01*
X016037Y009867D01*
X016007Y009879D01*
X015975Y009887D01*
X015943Y009892D01*
X015910Y009894D01*
X015910Y009893D02*
X015660Y009893D01*
X015640Y009891D01*
X015621Y009887D01*
X015603Y009879D01*
X015587Y009869D01*
X015572Y009856D01*
X015559Y009841D01*
X015549Y009825D01*
X015541Y009807D01*
X015537Y009788D01*
X015535Y009768D01*
X015534Y009732D01*
X015536Y009696D01*
X015543Y009661D01*
X015552Y009626D01*
X015566Y009592D01*
X015583Y009560D01*
X015603Y009530D01*
X015626Y009503D01*
X015652Y009477D01*
X015680Y009455D01*
X015711Y009436D01*
X015743Y009420D01*
X015777Y009407D01*
X015812Y009399D01*
X015848Y009393D01*
X016223Y009644D02*
X016254Y009642D01*
X016286Y009644D01*
X016317Y009649D01*
X016348Y009658D01*
X016377Y009670D01*
X016405Y009686D01*
X016431Y009704D01*
X016454Y009725D01*
X016476Y009749D01*
X016494Y009775D01*
X016509Y009803D01*
X016521Y009832D01*
X016530Y009862D01*
X016535Y009894D01*
X014010Y009893D02*
X013447Y009893D01*
X013385Y010081D02*
X013352Y010082D01*
X013320Y010078D01*
X013288Y010070D01*
X013258Y010059D01*
X013228Y010045D01*
X013201Y010027D01*
X013176Y010006D01*
X013154Y009982D01*
X013134Y009956D01*
X013385Y010081D02*
X013885Y010081D01*
X014135Y010331D02*
X014133Y010361D01*
X014128Y010391D01*
X014119Y010420D01*
X014106Y010447D01*
X014091Y010473D01*
X014072Y010497D01*
X014051Y010518D01*
X014027Y010537D01*
X014001Y010552D01*
X013974Y010565D01*
X013945Y010574D01*
X013915Y010579D01*
X013885Y010581D01*
X013385Y010581D01*
X013385Y010582D02*
X013352Y010576D01*
X013321Y010567D01*
X013290Y010555D01*
X013261Y010540D01*
X013234Y010521D01*
X013209Y010500D01*
X013186Y010477D01*
X013166Y010451D01*
X013149Y010423D01*
X013134Y010394D01*
X013885Y010081D02*
X013915Y010083D01*
X013945Y010088D01*
X013974Y010097D01*
X014001Y010110D01*
X014027Y010125D01*
X014051Y010144D01*
X014072Y010165D01*
X014091Y010189D01*
X014106Y010215D01*
X014119Y010242D01*
X014128Y010271D01*
X014133Y010301D01*
X014135Y010331D01*
X014010Y009893D02*
X014030Y009891D01*
X014049Y009887D01*
X014067Y009879D01*
X014083Y009869D01*
X014098Y009856D01*
X014111Y009841D01*
X014121Y009825D01*
X014129Y009807D01*
X014133Y009788D01*
X014135Y009768D01*
X014134Y009768D02*
X014137Y009734D01*
X014136Y009700D01*
X014132Y009666D01*
X014124Y009632D01*
X014113Y009600D01*
X014098Y009569D01*
X014081Y009540D01*
X014060Y009512D01*
X014037Y009487D01*
X014011Y009464D01*
X013983Y009444D01*
X013953Y009428D01*
X013922Y009414D01*
X013889Y009404D01*
X013856Y009397D01*
X013822Y009393D01*
X013260Y009393D01*
X013240Y009395D01*
X013221Y009399D01*
X013203Y009407D01*
X013187Y009417D01*
X013172Y009430D01*
X013159Y009445D01*
X013149Y009461D01*
X013141Y009479D01*
X013137Y009498D01*
X013135Y009518D01*
X013135Y009581D01*
X013134Y009581D02*
X013136Y009614D01*
X013141Y009646D01*
X013149Y009678D01*
X013161Y009708D01*
X013176Y009738D01*
X013194Y009765D01*
X013214Y009790D01*
X013238Y009814D01*
X013263Y009834D01*
X013291Y009852D01*
X013320Y009867D01*
X013350Y009879D01*
X013382Y009887D01*
X013414Y009892D01*
X013447Y009894D01*
X012035Y009893D02*
X012035Y009643D01*
X011285Y009643D01*
X011255Y009641D01*
X011225Y009636D01*
X011196Y009627D01*
X011169Y009614D01*
X011143Y009599D01*
X011119Y009580D01*
X011098Y009559D01*
X011079Y009535D01*
X011064Y009509D01*
X011051Y009482D01*
X011042Y009453D01*
X011037Y009423D01*
X011035Y009393D01*
X011785Y010143D02*
X011815Y010141D01*
X011845Y010136D01*
X011874Y010127D01*
X011901Y010114D01*
X011927Y010099D01*
X011951Y010080D01*
X011972Y010059D01*
X011991Y010035D01*
X012006Y010009D01*
X012019Y009982D01*
X012028Y009953D01*
X012033Y009923D01*
X012035Y009893D01*
X013135Y010643D02*
X013164Y010675D01*
X013191Y010710D01*
X013215Y010747D01*
X013236Y010785D01*
X013254Y010825D01*
X013268Y010867D01*
X013279Y010909D01*
X013286Y010952D01*
X013290Y010996D01*
X013290Y011040D01*
X013286Y011084D01*
X013279Y011127D01*
X013268Y011169D01*
X013254Y011211D01*
X013236Y011251D01*
X013215Y011289D01*
X013191Y011326D01*
X013164Y011361D01*
X013135Y011393D01*
X013447Y011456D02*
X013822Y011456D01*
X013822Y011643D01*
X013822Y011456D02*
X014135Y011456D01*
X014135Y011268D02*
X014133Y011238D01*
X014128Y011208D01*
X014119Y011179D01*
X014106Y011152D01*
X014091Y011126D01*
X014072Y011102D01*
X014051Y011081D01*
X014027Y011062D01*
X014001Y011047D01*
X013974Y011034D01*
X013945Y011025D01*
X013915Y011020D01*
X013885Y011018D01*
X013135Y011018D01*
X013823Y011643D02*
X013821Y011676D01*
X013816Y011708D01*
X013808Y011740D01*
X013796Y011770D01*
X013781Y011800D01*
X013763Y011827D01*
X013743Y011852D01*
X013719Y011876D01*
X013694Y011896D01*
X013667Y011914D01*
X013637Y011929D01*
X013607Y011941D01*
X013575Y011949D01*
X013543Y011954D01*
X013510Y011956D01*
X013260Y011956D01*
X013240Y011954D01*
X013221Y011950D01*
X013203Y011942D01*
X013187Y011932D01*
X013172Y011919D01*
X013159Y011904D01*
X013149Y011888D01*
X013141Y011870D01*
X013137Y011851D01*
X013135Y011831D01*
X013134Y011831D02*
X013133Y011795D01*
X013135Y011759D01*
X013142Y011724D01*
X013151Y011689D01*
X013165Y011655D01*
X013182Y011623D01*
X013202Y011593D01*
X013225Y011566D01*
X013251Y011540D01*
X013279Y011518D01*
X013310Y011499D01*
X013342Y011483D01*
X013376Y011470D01*
X013411Y011462D01*
X013447Y011456D01*
X013322Y012143D02*
X013885Y012143D01*
X013322Y012143D02*
X013295Y012144D01*
X013269Y012148D01*
X013243Y012156D01*
X013219Y012167D01*
X013196Y012182D01*
X013176Y012200D01*
X013159Y012221D01*
X013145Y012244D01*
X013135Y012268D01*
X013322Y012643D02*
X013885Y012643D01*
X013915Y012641D01*
X013945Y012636D01*
X013974Y012627D01*
X014001Y012614D01*
X014027Y012599D01*
X014051Y012580D01*
X014072Y012559D01*
X014091Y012535D01*
X014106Y012509D01*
X014119Y012482D01*
X014128Y012453D01*
X014133Y012423D01*
X014135Y012393D01*
X014133Y012363D01*
X014128Y012333D01*
X014119Y012304D01*
X014106Y012277D01*
X014091Y012251D01*
X014072Y012227D01*
X014051Y012206D01*
X014027Y012187D01*
X014001Y012172D01*
X013974Y012159D01*
X013945Y012150D01*
X013915Y012145D01*
X013885Y012143D01*
X014134Y013018D02*
X014125Y013047D01*
X014111Y013075D01*
X014095Y013100D01*
X014075Y013124D01*
X014053Y013145D01*
X014029Y013163D01*
X014002Y013179D01*
X013974Y013191D01*
X013945Y013199D01*
X013915Y013205D01*
X013884Y013206D01*
X013885Y013206D02*
X013135Y013206D01*
X013285Y013581D02*
X013256Y013549D01*
X013229Y013514D01*
X013205Y013477D01*
X013184Y013439D01*
X013166Y013399D01*
X013152Y013357D01*
X013141Y013315D01*
X013134Y013272D01*
X013130Y013228D01*
X013130Y013184D01*
X013134Y013140D01*
X013141Y013097D01*
X013152Y013055D01*
X013166Y013013D01*
X013184Y012973D01*
X013205Y012935D01*
X013229Y012898D01*
X013256Y012863D01*
X013285Y012831D01*
X013135Y012768D02*
X013145Y012744D01*
X013159Y012721D01*
X013176Y012700D01*
X013196Y012682D01*
X013219Y012667D01*
X013243Y012656D01*
X013269Y012648D01*
X013295Y012644D01*
X013322Y012643D01*
D12*
X010235Y009671D02*
X010313Y009540D01*
X010395Y009411D01*
X010480Y009285D01*
X010568Y009160D01*
X010659Y009038D01*
X010754Y008918D01*
X010851Y008800D01*
X010951Y008685D01*
X011054Y008573D01*
X011159Y008463D01*
X011268Y008355D01*
X011379Y008251D01*
X011492Y008149D01*
X011609Y008050D01*
X011727Y007954D01*
X011848Y007861D01*
X011971Y007771D01*
X012097Y007684D01*
X012224Y007600D01*
X012354Y007520D01*
X012485Y007443D01*
X008510Y008018D02*
X006510Y008018D01*
X006512Y008078D01*
X006517Y008139D01*
X006526Y008198D01*
X006539Y008257D01*
X006555Y008316D01*
X006575Y008373D01*
X006598Y008428D01*
X006625Y008483D01*
X006654Y008535D01*
X006687Y008586D01*
X006723Y008635D01*
X006761Y008681D01*
X006803Y008725D01*
X006847Y008767D01*
X006893Y008805D01*
X006942Y008841D01*
X006993Y008874D01*
X007045Y008903D01*
X007100Y008930D01*
X007155Y008953D01*
X007212Y008973D01*
X007271Y008989D01*
X007330Y009002D01*
X007389Y009011D01*
X007450Y009016D01*
X007510Y009018D01*
X008010Y009018D01*
X007510Y009018D02*
X006010Y009018D01*
X007510Y009413D02*
X007510Y009893D01*
X007508Y009937D01*
X007502Y009980D01*
X007493Y010022D01*
X007480Y010064D01*
X007463Y010104D01*
X007443Y010143D01*
X007420Y010180D01*
X007393Y010214D01*
X007364Y010247D01*
X007331Y010276D01*
X007297Y010303D01*
X007260Y010326D01*
X007221Y010346D01*
X007181Y010363D01*
X007139Y010376D01*
X007097Y010385D01*
X007054Y010391D01*
X007010Y010393D01*
X006010Y010393D02*
X006028Y010324D01*
X006048Y010257D01*
X006073Y010191D01*
X006101Y010126D01*
X006133Y010063D01*
X006168Y010002D01*
X006207Y009942D01*
X006249Y009885D01*
X006294Y009831D01*
X006341Y009779D01*
X006392Y009729D01*
X006445Y009683D01*
X006501Y009639D01*
X006559Y009599D01*
X006619Y009562D01*
X006681Y009528D01*
X006745Y009498D01*
X006810Y009472D01*
X006877Y009449D01*
X006945Y009429D01*
X007014Y009414D01*
X007084Y009402D01*
X007154Y009394D01*
X007225Y009390D01*
X007295Y009390D01*
X007366Y009394D01*
X007436Y009402D01*
X007506Y009414D01*
X007575Y009429D01*
X007643Y009449D01*
X007710Y009472D01*
X007775Y009498D01*
X007839Y009528D01*
X007901Y009562D01*
X007961Y009599D01*
X008019Y009639D01*
X008075Y009683D01*
X008128Y009729D01*
X008179Y009779D01*
X008226Y009831D01*
X008271Y009885D01*
X008313Y009942D01*
X008352Y010002D01*
X008387Y010063D01*
X008419Y010126D01*
X008447Y010191D01*
X008472Y010257D01*
X008492Y010324D01*
X008510Y010393D01*
X006510Y011643D02*
X006466Y011641D01*
X006423Y011635D01*
X006381Y011626D01*
X006339Y011613D01*
X006299Y011596D01*
X006260Y011576D01*
X006223Y011553D01*
X006189Y011526D01*
X006156Y011497D01*
X006127Y011464D01*
X006100Y011430D01*
X006077Y011393D01*
X006057Y011354D01*
X006040Y011314D01*
X006027Y011272D01*
X006018Y011230D01*
X006012Y011187D01*
X006010Y011143D01*
X006510Y011643D02*
X008510Y011643D01*
X007510Y012643D02*
X007450Y012641D01*
X007389Y012636D01*
X007330Y012627D01*
X007271Y012614D01*
X007212Y012598D01*
X007155Y012578D01*
X007100Y012555D01*
X007045Y012528D01*
X006993Y012499D01*
X006942Y012466D01*
X006893Y012430D01*
X006847Y012392D01*
X006803Y012350D01*
X006761Y012306D01*
X006723Y012260D01*
X006687Y012211D01*
X006654Y012160D01*
X006625Y012108D01*
X006598Y012053D01*
X006575Y011998D01*
X006555Y011941D01*
X006539Y011882D01*
X006526Y011823D01*
X006517Y011764D01*
X006512Y011703D01*
X006510Y011643D01*
X006010Y007268D02*
X006139Y007235D01*
X006269Y007206D01*
X006399Y007180D01*
X006531Y007158D01*
X006663Y007140D01*
X006795Y007125D01*
X006928Y007114D01*
X007060Y007107D01*
X007193Y007103D01*
X007327Y007103D01*
X007460Y007107D01*
X007592Y007114D01*
X007725Y007125D01*
X007857Y007140D01*
X007989Y007158D01*
X008121Y007180D01*
X008251Y007206D01*
X008381Y007235D01*
X008510Y007268D01*
X006510Y008018D02*
X006466Y008016D01*
X006423Y008010D01*
X006381Y008001D01*
X006339Y007988D01*
X006299Y007971D01*
X006260Y007951D01*
X006223Y007928D01*
X006189Y007901D01*
X006156Y007872D01*
X006127Y007839D01*
X006100Y007805D01*
X006077Y007768D01*
X006057Y007729D01*
X006040Y007689D01*
X006027Y007647D01*
X006018Y007605D01*
X006012Y007562D01*
X006010Y007518D01*
X008010Y006893D02*
X008054Y006891D01*
X008097Y006885D01*
X008139Y006876D01*
X008181Y006863D01*
X008221Y006846D01*
X008260Y006826D01*
X008297Y006803D01*
X008331Y006776D01*
X008364Y006747D01*
X008393Y006714D01*
X008420Y006680D01*
X008443Y006643D01*
X008463Y006604D01*
X008480Y006564D01*
X008493Y006522D01*
X008502Y006480D01*
X008508Y006437D01*
X008510Y006393D01*
X008510Y005893D01*
X006510Y005893D01*
X006466Y005891D01*
X006423Y005885D01*
X006381Y005876D01*
X006339Y005863D01*
X006299Y005846D01*
X006260Y005826D01*
X006223Y005803D01*
X006189Y005776D01*
X006156Y005747D01*
X006127Y005714D01*
X006100Y005680D01*
X006077Y005643D01*
X006057Y005604D01*
X006040Y005564D01*
X006027Y005522D01*
X006018Y005480D01*
X006012Y005437D01*
X006010Y005393D01*
X007010Y005393D02*
X007095Y005393D01*
X007802Y005100D02*
X008510Y004393D01*
X008476Y004430D01*
X008444Y004469D01*
X008415Y004511D01*
X008389Y004554D01*
X008367Y004599D01*
X008348Y004646D01*
X008332Y004694D01*
X008319Y004743D01*
X008310Y004792D01*
X008305Y004843D01*
X008303Y004893D01*
X008305Y004943D01*
X008310Y004994D01*
X008319Y005043D01*
X008332Y005092D01*
X008348Y005140D01*
X008367Y005187D01*
X008389Y005232D01*
X008415Y005275D01*
X008444Y005317D01*
X008476Y005356D01*
X008510Y005393D01*
X007010Y005393D02*
X007044Y005356D01*
X007076Y005317D01*
X007105Y005275D01*
X007131Y005232D01*
X007153Y005187D01*
X007172Y005140D01*
X007188Y005092D01*
X007201Y005043D01*
X007210Y004994D01*
X007215Y004943D01*
X007217Y004893D01*
X007215Y004843D01*
X007210Y004792D01*
X007201Y004743D01*
X007188Y004694D01*
X007172Y004646D01*
X007153Y004599D01*
X007131Y004554D01*
X007105Y004511D01*
X007076Y004469D01*
X007044Y004430D01*
X007010Y004393D01*
X007095Y005393D02*
X007155Y005391D01*
X007216Y005386D01*
X007275Y005377D01*
X007334Y005364D01*
X007393Y005348D01*
X007450Y005328D01*
X007505Y005305D01*
X007560Y005278D01*
X007612Y005249D01*
X007663Y005216D01*
X007712Y005180D01*
X007758Y005142D01*
X007802Y005100D01*
X009435Y005570D02*
X009437Y005662D01*
X009443Y005753D01*
X009453Y005844D01*
X009467Y005935D01*
X009485Y006025D01*
X009507Y006114D01*
X009532Y006201D01*
X009562Y006288D01*
X009595Y006374D01*
X009632Y006457D01*
X009672Y006540D01*
X009716Y006620D01*
X009764Y006698D01*
X009815Y006775D01*
X009869Y006848D01*
X009926Y006920D01*
X009987Y006989D01*
X010050Y007055D01*
X010116Y007118D01*
X010185Y007179D01*
X010257Y007236D01*
X010330Y007290D01*
X010407Y007341D01*
X010485Y007389D01*
X010565Y007433D01*
X010648Y007473D01*
X010731Y007510D01*
X010817Y007543D01*
X010904Y007573D01*
X010991Y007598D01*
X011080Y007620D01*
X011170Y007638D01*
X011261Y007652D01*
X011352Y007662D01*
X011443Y007668D01*
X011535Y007670D01*
X011627Y007668D01*
X011718Y007662D01*
X011809Y007652D01*
X011900Y007638D01*
X011990Y007620D01*
X012079Y007598D01*
X012166Y007573D01*
X012253Y007543D01*
X012339Y007510D01*
X012422Y007473D01*
X012505Y007433D01*
X012585Y007389D01*
X012663Y007341D01*
X012740Y007290D01*
X012813Y007236D01*
X012885Y007179D01*
X012954Y007118D01*
X013020Y007055D01*
X013083Y006989D01*
X013144Y006920D01*
X013201Y006848D01*
X013255Y006775D01*
X013306Y006698D01*
X013354Y006620D01*
X013398Y006540D01*
X013438Y006457D01*
X013475Y006374D01*
X013508Y006288D01*
X013538Y006201D01*
X013563Y006114D01*
X013585Y006025D01*
X013603Y005935D01*
X013617Y005844D01*
X013627Y005753D01*
X013633Y005662D01*
X013635Y005570D01*
X013633Y005478D01*
X013627Y005387D01*
X013617Y005296D01*
X013603Y005205D01*
X013585Y005115D01*
X013563Y005026D01*
X013538Y004939D01*
X013508Y004852D01*
X013475Y004766D01*
X013438Y004683D01*
X013398Y004600D01*
X013354Y004520D01*
X013306Y004442D01*
X013255Y004365D01*
X013201Y004292D01*
X013144Y004220D01*
X013083Y004151D01*
X013020Y004085D01*
X012954Y004022D01*
X012885Y003961D01*
X012813Y003904D01*
X012740Y003850D01*
X012663Y003799D01*
X012585Y003751D01*
X012505Y003707D01*
X012422Y003667D01*
X012339Y003630D01*
X012253Y003597D01*
X012166Y003567D01*
X012079Y003542D01*
X011990Y003520D01*
X011900Y003502D01*
X011809Y003488D01*
X011718Y003478D01*
X011627Y003472D01*
X011535Y003470D01*
X011443Y003472D01*
X011352Y003478D01*
X011261Y003488D01*
X011170Y003502D01*
X011080Y003520D01*
X010991Y003542D01*
X010904Y003567D01*
X010817Y003597D01*
X010731Y003630D01*
X010648Y003667D01*
X010565Y003707D01*
X010485Y003751D01*
X010407Y003799D01*
X010330Y003850D01*
X010257Y003904D01*
X010185Y003961D01*
X010116Y004022D01*
X010050Y004085D01*
X009987Y004151D01*
X009926Y004220D01*
X009869Y004292D01*
X009815Y004365D01*
X009764Y004442D01*
X009716Y004520D01*
X009672Y004600D01*
X009632Y004683D01*
X009595Y004766D01*
X009562Y004852D01*
X009532Y004939D01*
X009507Y005026D01*
X009485Y005115D01*
X009467Y005205D01*
X009453Y005296D01*
X009443Y005387D01*
X009437Y005478D01*
X009435Y005570D01*
X013935Y005570D02*
X013937Y005662D01*
X013943Y005753D01*
X013953Y005844D01*
X013967Y005935D01*
X013985Y006025D01*
X014007Y006114D01*
X014032Y006201D01*
X014062Y006288D01*
X014095Y006374D01*
X014132Y006457D01*
X014172Y006540D01*
X014216Y006620D01*
X014264Y006698D01*
X014315Y006775D01*
X014369Y006848D01*
X014426Y006920D01*
X014487Y006989D01*
X014550Y007055D01*
X014616Y007118D01*
X014685Y007179D01*
X014757Y007236D01*
X014830Y007290D01*
X014907Y007341D01*
X014985Y007389D01*
X015065Y007433D01*
X015148Y007473D01*
X015231Y007510D01*
X015317Y007543D01*
X015404Y007573D01*
X015491Y007598D01*
X015580Y007620D01*
X015670Y007638D01*
X015761Y007652D01*
X015852Y007662D01*
X015943Y007668D01*
X016035Y007670D01*
X016127Y007668D01*
X016218Y007662D01*
X016309Y007652D01*
X016400Y007638D01*
X016490Y007620D01*
X016579Y007598D01*
X016666Y007573D01*
X016753Y007543D01*
X016839Y007510D01*
X016922Y007473D01*
X017005Y007433D01*
X017085Y007389D01*
X017163Y007341D01*
X017240Y007290D01*
X017313Y007236D01*
X017385Y007179D01*
X017454Y007118D01*
X017520Y007055D01*
X017583Y006989D01*
X017644Y006920D01*
X017701Y006848D01*
X017755Y006775D01*
X017806Y006698D01*
X017854Y006620D01*
X017898Y006540D01*
X017938Y006457D01*
X017975Y006374D01*
X018008Y006288D01*
X018038Y006201D01*
X018063Y006114D01*
X018085Y006025D01*
X018103Y005935D01*
X018117Y005844D01*
X018127Y005753D01*
X018133Y005662D01*
X018135Y005570D01*
X018133Y005478D01*
X018127Y005387D01*
X018117Y005296D01*
X018103Y005205D01*
X018085Y005115D01*
X018063Y005026D01*
X018038Y004939D01*
X018008Y004852D01*
X017975Y004766D01*
X017938Y004683D01*
X017898Y004600D01*
X017854Y004520D01*
X017806Y004442D01*
X017755Y004365D01*
X017701Y004292D01*
X017644Y004220D01*
X017583Y004151D01*
X017520Y004085D01*
X017454Y004022D01*
X017385Y003961D01*
X017313Y003904D01*
X017240Y003850D01*
X017163Y003799D01*
X017085Y003751D01*
X017005Y003707D01*
X016922Y003667D01*
X016839Y003630D01*
X016753Y003597D01*
X016666Y003567D01*
X016579Y003542D01*
X016490Y003520D01*
X016400Y003502D01*
X016309Y003488D01*
X016218Y003478D01*
X016127Y003472D01*
X016035Y003470D01*
X015943Y003472D01*
X015852Y003478D01*
X015761Y003488D01*
X015670Y003502D01*
X015580Y003520D01*
X015491Y003542D01*
X015404Y003567D01*
X015317Y003597D01*
X015231Y003630D01*
X015148Y003667D01*
X015065Y003707D01*
X014985Y003751D01*
X014907Y003799D01*
X014830Y003850D01*
X014757Y003904D01*
X014685Y003961D01*
X014616Y004022D01*
X014550Y004085D01*
X014487Y004151D01*
X014426Y004220D01*
X014369Y004292D01*
X014315Y004365D01*
X014264Y004442D01*
X014216Y004520D01*
X014172Y004600D01*
X014132Y004683D01*
X014095Y004766D01*
X014062Y004852D01*
X014032Y004939D01*
X014007Y005026D01*
X013985Y005115D01*
X013967Y005205D01*
X013953Y005296D01*
X013943Y005387D01*
X013937Y005478D01*
X013935Y005570D01*
X020361Y005575D02*
X020415Y005642D01*
X020471Y005706D01*
X020530Y005768D01*
X020592Y005827D01*
X020656Y005884D01*
X020723Y005937D01*
X020792Y005988D01*
X020863Y006035D01*
X020936Y006080D01*
X021011Y006121D01*
X021088Y006159D01*
X021166Y006193D01*
X021246Y006224D01*
X021327Y006252D01*
X021409Y006276D01*
X021492Y006296D01*
X021576Y006313D01*
X021660Y006326D01*
X026911Y004951D02*
X026924Y004867D01*
X026941Y004783D01*
X026961Y004700D01*
X026985Y004618D01*
X027013Y004537D01*
X027044Y004457D01*
X027078Y004379D01*
X027116Y004302D01*
X027157Y004227D01*
X027202Y004154D01*
X027249Y004083D01*
X027300Y004014D01*
X027353Y003947D01*
X027410Y003883D01*
X027469Y003821D01*
X027531Y003762D01*
X027595Y003706D01*
X027662Y003652D01*
X025035Y002951D02*
X025004Y003031D01*
X024977Y003112D01*
X024953Y003194D01*
X024932Y003277D01*
X024916Y003361D01*
X024903Y003445D01*
X024893Y003530D01*
X024888Y003616D01*
X024886Y003701D01*
X024888Y003786D01*
X024893Y003872D01*
X024903Y003957D01*
X024916Y004041D01*
X024932Y004125D01*
X024953Y004208D01*
X024977Y004290D01*
X025004Y004371D01*
X025035Y004451D01*
X023222Y004889D02*
X023155Y004836D01*
X023091Y004780D01*
X023029Y004720D01*
X022970Y004659D01*
X022914Y004594D01*
X022860Y004528D01*
X022809Y004459D01*
X022762Y004388D01*
X022717Y004314D01*
X022676Y004240D01*
X022638Y004163D01*
X022604Y004085D01*
X022573Y004005D01*
X022545Y003924D01*
X022521Y003842D01*
X022501Y003759D01*
X022484Y003675D01*
X022471Y003590D01*
X028410Y006388D02*
X028463Y006321D01*
X028519Y006257D01*
X028579Y006195D01*
X028640Y006136D01*
X028705Y006080D01*
X028771Y006026D01*
X028840Y005975D01*
X028911Y005928D01*
X028985Y005883D01*
X029059Y005842D01*
X029136Y005804D01*
X029214Y005770D01*
X029294Y005739D01*
X029375Y005711D01*
X029457Y005687D01*
X029540Y005667D01*
X029624Y005650D01*
X029709Y005637D01*
X021195Y008326D02*
X021197Y008450D01*
X021203Y008573D01*
X021213Y008697D01*
X021227Y008820D01*
X021245Y008942D01*
X021267Y009064D01*
X021292Y009185D01*
X021322Y009305D01*
X021355Y009424D01*
X021393Y009542D01*
X021434Y009659D01*
X021478Y009774D01*
X021527Y009888D01*
X021579Y010000D01*
X021635Y010111D01*
X021694Y010219D01*
X021757Y010326D01*
X021823Y010430D01*
X021892Y010533D01*
X021965Y010633D01*
X022041Y010731D01*
X022120Y010826D01*
X022202Y010918D01*
X022287Y011008D01*
X022375Y011095D01*
X022466Y011180D01*
X022559Y011261D01*
X022655Y011339D01*
X022753Y011414D01*
X022854Y011486D01*
X022957Y011555D01*
X023062Y011620D01*
X023169Y011682D01*
X023278Y011740D01*
X023389Y011795D01*
X023501Y011846D01*
X023616Y011894D01*
X023731Y011938D01*
X023848Y011978D01*
X023967Y012014D01*
X024086Y012047D01*
X024206Y012076D01*
X024328Y012100D01*
X024450Y012121D01*
X024572Y012138D01*
X024695Y012151D01*
X024819Y012160D01*
X024942Y012165D01*
X025066Y012166D01*
X025190Y012163D01*
X025313Y012156D01*
X025436Y012145D01*
X025559Y012130D01*
X025681Y012111D01*
X025803Y012088D01*
X025924Y012062D01*
X026044Y012031D01*
X026163Y011997D01*
X026280Y011958D01*
X026397Y011916D01*
X026512Y011871D01*
X026625Y011821D01*
X026737Y011768D01*
X026847Y011712D01*
X026955Y011652D01*
X027061Y011588D01*
X027165Y011521D01*
X027267Y011451D01*
X027367Y011377D01*
X027464Y011300D01*
X027558Y011221D01*
X027650Y011138D01*
X027739Y011052D01*
X027826Y010964D01*
X027909Y010872D01*
X027990Y010778D01*
X028067Y010682D01*
X028142Y010583D01*
X028213Y010482D01*
X028281Y010378D01*
X028345Y010273D01*
X028406Y010165D01*
X028463Y010056D01*
X028517Y009944D01*
X028568Y009831D01*
X028614Y009717D01*
X028657Y009601D01*
X028696Y009483D01*
X028732Y009365D01*
X028763Y009245D01*
X028791Y009124D01*
X028815Y009003D01*
X028835Y008881D01*
X028851Y008758D01*
X028863Y008635D01*
X028871Y008512D01*
X028875Y008388D01*
X028875Y008264D01*
X028871Y008140D01*
X028863Y008017D01*
X028851Y007894D01*
X028835Y007771D01*
X028815Y007649D01*
X028791Y007528D01*
X028763Y007407D01*
X028732Y007287D01*
X028696Y007169D01*
X028657Y007051D01*
X028614Y006935D01*
X028568Y006821D01*
X028517Y006708D01*
X028463Y006596D01*
X028406Y006487D01*
X028345Y006379D01*
X028281Y006274D01*
X028213Y006170D01*
X028142Y006069D01*
X028067Y005970D01*
X027990Y005874D01*
X027909Y005780D01*
X027826Y005688D01*
X027739Y005600D01*
X027650Y005514D01*
X027558Y005431D01*
X027464Y005352D01*
X027367Y005275D01*
X027267Y005201D01*
X027165Y005131D01*
X027061Y005064D01*
X026955Y005000D01*
X026847Y004940D01*
X026737Y004884D01*
X026625Y004831D01*
X026512Y004781D01*
X026397Y004736D01*
X026280Y004694D01*
X026163Y004655D01*
X026044Y004621D01*
X025924Y004590D01*
X025803Y004564D01*
X025681Y004541D01*
X025559Y004522D01*
X025436Y004507D01*
X025313Y004496D01*
X025190Y004489D01*
X025066Y004486D01*
X024942Y004487D01*
X024819Y004492D01*
X024695Y004501D01*
X024572Y004514D01*
X024450Y004531D01*
X024328Y004552D01*
X024206Y004576D01*
X024086Y004605D01*
X023967Y004638D01*
X023848Y004674D01*
X023731Y004714D01*
X023616Y004758D01*
X023501Y004806D01*
X023389Y004857D01*
X023278Y004912D01*
X023169Y004970D01*
X023062Y005032D01*
X022957Y005097D01*
X022854Y005166D01*
X022753Y005238D01*
X022655Y005313D01*
X022559Y005391D01*
X022466Y005472D01*
X022375Y005557D01*
X022287Y005644D01*
X022202Y005734D01*
X022120Y005826D01*
X022041Y005921D01*
X021965Y006019D01*
X021892Y006119D01*
X021823Y006222D01*
X021757Y006326D01*
X021694Y006433D01*
X021635Y006541D01*
X021579Y006652D01*
X021527Y006764D01*
X021478Y006878D01*
X021434Y006993D01*
X021393Y007110D01*
X021355Y007228D01*
X021322Y007347D01*
X021292Y007467D01*
X021267Y007588D01*
X021245Y007710D01*
X021227Y007832D01*
X021213Y007955D01*
X021203Y008079D01*
X021197Y008202D01*
X021195Y008326D01*
X021160Y008326D02*
X019660Y008326D01*
X028410Y010265D02*
X028462Y010335D01*
X028518Y010402D01*
X028576Y010468D01*
X028637Y010530D01*
X028700Y010590D01*
X028766Y010647D01*
X028835Y010701D01*
X028906Y010753D01*
X028979Y010801D01*
X029054Y010845D01*
X029131Y010887D01*
X029210Y010925D01*
X029290Y010959D01*
X029372Y010990D01*
X029454Y011018D01*
X029539Y011042D01*
X029624Y011062D01*
X029709Y011078D01*
X027723Y013000D02*
X027656Y012947D01*
X027592Y012891D01*
X027530Y012831D01*
X027471Y012770D01*
X027415Y012705D01*
X027361Y012639D01*
X027310Y012570D01*
X027263Y012499D01*
X027218Y012425D01*
X027177Y012351D01*
X027139Y012274D01*
X027105Y012196D01*
X027074Y012116D01*
X027046Y012035D01*
X027022Y011953D01*
X027002Y011870D01*
X026985Y011786D01*
X026972Y011701D01*
X025035Y012201D02*
X025004Y012281D01*
X024977Y012362D01*
X024953Y012444D01*
X024932Y012527D01*
X024916Y012611D01*
X024903Y012695D01*
X024893Y012780D01*
X024888Y012866D01*
X024886Y012951D01*
X024888Y013036D01*
X024893Y013122D01*
X024903Y013207D01*
X024916Y013291D01*
X024932Y013375D01*
X024953Y013458D01*
X024977Y013540D01*
X025004Y013621D01*
X025035Y013701D01*
X022410Y013000D02*
X022423Y012916D01*
X022440Y012832D01*
X022460Y012749D01*
X022484Y012667D01*
X022512Y012586D01*
X022543Y012506D01*
X022577Y012428D01*
X022615Y012351D01*
X022656Y012276D01*
X022701Y012203D01*
X022748Y012132D01*
X022799Y012063D01*
X022852Y011996D01*
X022909Y011932D01*
X022968Y011870D01*
X023030Y011811D01*
X023094Y011755D01*
X023161Y011701D01*
X021660Y010263D02*
X021575Y010276D01*
X021491Y010293D01*
X021408Y010313D01*
X021326Y010337D01*
X021245Y010365D01*
X021165Y010396D01*
X021087Y010430D01*
X021010Y010468D01*
X020936Y010509D01*
X020862Y010554D01*
X020791Y010601D01*
X020722Y010652D01*
X020656Y010706D01*
X020591Y010762D01*
X020530Y010821D01*
X020470Y010883D01*
X020414Y010947D01*
X020361Y011014D01*
X016985Y007443D02*
X016854Y007520D01*
X016724Y007600D01*
X016597Y007684D01*
X016471Y007771D01*
X016348Y007861D01*
X016227Y007954D01*
X016109Y008050D01*
X015992Y008149D01*
X015879Y008251D01*
X015768Y008355D01*
X015659Y008463D01*
X015554Y008573D01*
X015451Y008685D01*
X015351Y008800D01*
X015254Y008918D01*
X015159Y009038D01*
X015068Y009160D01*
X014980Y009285D01*
X014895Y009411D01*
X014813Y009540D01*
X014735Y009671D01*
X014735Y009670D02*
X014747Y009524D01*
X014756Y009378D01*
X014761Y009231D01*
X014762Y009085D01*
X014760Y008938D01*
X014754Y008792D01*
X014744Y008646D01*
X014731Y008500D01*
X014714Y008355D01*
X014694Y008209D01*
X014670Y008065D01*
X014642Y007921D01*
X014611Y007778D01*
X014576Y007636D01*
X014537Y007494D01*
X014496Y007354D01*
X014450Y007215D01*
X014401Y007077D01*
X014349Y006940D01*
X014294Y006804D01*
X014235Y006670D01*
X009735Y006670D02*
X009794Y006804D01*
X009849Y006940D01*
X009901Y007077D01*
X009950Y007215D01*
X009996Y007354D01*
X010037Y007494D01*
X010076Y007636D01*
X010111Y007778D01*
X010142Y007921D01*
X010170Y008065D01*
X010194Y008209D01*
X010214Y008355D01*
X010231Y008500D01*
X010244Y008646D01*
X010254Y008792D01*
X010260Y008938D01*
X010262Y009085D01*
X010261Y009231D01*
X010256Y009378D01*
X010247Y009524D01*
X010235Y009670D01*
X008510Y009518D02*
X008508Y009474D01*
X008502Y009431D01*
X008493Y009389D01*
X008480Y009347D01*
X008463Y009307D01*
X008443Y009268D01*
X008420Y009231D01*
X008393Y009197D01*
X008364Y009164D01*
X008331Y009135D01*
X008297Y009108D01*
X008260Y009085D01*
X008221Y009065D01*
X008181Y009048D01*
X008139Y009035D01*
X008097Y009026D01*
X008054Y009020D01*
X008010Y009018D01*
X008010Y012643D02*
X007510Y012643D01*
X006010Y012643D01*
X008010Y012643D02*
X008054Y012645D01*
X008097Y012651D01*
X008139Y012660D01*
X008181Y012673D01*
X008221Y012690D01*
X008260Y012710D01*
X008297Y012733D01*
X008331Y012760D01*
X008364Y012789D01*
X008393Y012822D01*
X008420Y012856D01*
X008443Y012893D01*
X008463Y012932D01*
X008480Y012972D01*
X008493Y013014D01*
X008502Y013056D01*
X008508Y013099D01*
X008510Y013143D01*
X008510Y010893D02*
X008381Y010860D01*
X008251Y010831D01*
X008121Y010805D01*
X007989Y010783D01*
X007857Y010765D01*
X007725Y010750D01*
X007592Y010739D01*
X007460Y010732D01*
X007327Y010728D01*
X007193Y010728D01*
X007060Y010732D01*
X006928Y010739D01*
X006795Y010750D01*
X006663Y010765D01*
X006531Y010783D01*
X006399Y010805D01*
X006269Y010831D01*
X006139Y010860D01*
X006010Y010893D01*
D13*
X053086Y012174D03*
X053252Y009386D03*
X053252Y008402D03*
D14*
X053244Y008414D03*
X053244Y009382D03*
X053078Y012178D03*
D15*
X053071Y012182D03*
X053236Y009379D03*
X053236Y008418D03*
D16*
X053228Y008418D03*
X053220Y008426D03*
X053220Y009371D03*
X053055Y012190D03*
D17*
X053063Y012186D03*
X052748Y010611D03*
X053228Y009375D03*
D18*
X053212Y009363D03*
X053204Y009363D03*
X053204Y008434D03*
X053212Y008426D03*
X053047Y012197D03*
D19*
X053023Y012209D03*
X053189Y009351D03*
X053189Y008445D03*
X053197Y008438D03*
D20*
X051771Y008788D03*
X051771Y009190D03*
X053197Y009355D03*
X053031Y012205D03*
D21*
X053008Y012217D03*
X053173Y009343D03*
X053173Y008453D03*
X053181Y008445D03*
D22*
X053181Y009347D03*
X053015Y012213D03*
D23*
X053000Y012225D03*
X052204Y011020D03*
X052204Y009847D03*
X053157Y009335D03*
X053165Y009335D03*
X053157Y008461D03*
X053165Y008453D03*
D24*
X053149Y008465D03*
X053141Y008473D03*
X053141Y009323D03*
X052976Y012237D03*
D25*
X052984Y012233D03*
X053149Y009327D03*
D26*
X053126Y009316D03*
X053126Y008481D03*
X053134Y008473D03*
X052567Y011623D03*
X052590Y011631D03*
X052614Y011638D03*
X052637Y011646D03*
X052661Y011654D03*
X052685Y011662D03*
X052685Y011827D03*
X052669Y011835D03*
X052661Y011835D03*
X052960Y012245D03*
D27*
X052968Y012241D03*
X052882Y013170D03*
X053134Y009319D03*
X051779Y009186D03*
X051779Y008784D03*
D28*
X053110Y008489D03*
X053118Y008481D03*
X052220Y011505D03*
X052212Y011505D03*
X052228Y011512D03*
X052236Y011512D03*
X052260Y011520D03*
X052267Y011520D03*
X052275Y011528D03*
X052283Y011528D03*
X052291Y011528D03*
X052299Y011536D03*
X052307Y011536D03*
X052315Y011536D03*
X052323Y011544D03*
X052330Y011544D03*
X052338Y011544D03*
X052346Y011552D03*
X052354Y011552D03*
X052362Y011552D03*
X052370Y011560D03*
X052378Y011560D03*
X052401Y011568D03*
X052417Y011575D03*
X052425Y011575D03*
X052448Y011583D03*
X052472Y011591D03*
X052496Y011599D03*
X052519Y011607D03*
X052189Y011497D03*
X052165Y011489D03*
X052141Y011481D03*
X052118Y011473D03*
X052354Y011938D03*
X052378Y011930D03*
X052401Y011922D03*
X052425Y011914D03*
X052433Y011914D03*
X052441Y011906D03*
X052448Y011906D03*
X052456Y011906D03*
X052464Y011898D03*
X052472Y011898D03*
X052480Y011898D03*
X052488Y011890D03*
X052496Y011890D03*
X052504Y011890D03*
X052519Y011882D03*
X052527Y011882D03*
X052543Y011875D03*
X052567Y011867D03*
X052945Y012253D03*
X052952Y012253D03*
D29*
X052677Y011831D03*
X052653Y011839D03*
X052645Y011839D03*
X052637Y011847D03*
X052630Y011847D03*
X052622Y011847D03*
X052614Y011855D03*
X052606Y011855D03*
X052598Y011855D03*
X052590Y011863D03*
X052582Y011863D03*
X052574Y011863D03*
X052559Y011871D03*
X052551Y011871D03*
X052535Y011879D03*
X052511Y011886D03*
X052598Y011634D03*
X052606Y011634D03*
X052622Y011642D03*
X052630Y011642D03*
X052645Y011650D03*
X052653Y011650D03*
X052669Y011658D03*
X052677Y011658D03*
X052582Y011627D03*
X052574Y011627D03*
X052559Y011619D03*
X052551Y011619D03*
X052543Y011619D03*
X052535Y011611D03*
X052527Y011611D03*
X052511Y011603D03*
X052504Y011603D03*
X052488Y011595D03*
X052480Y011595D03*
X052464Y011587D03*
X052456Y011587D03*
X052441Y011579D03*
X052433Y011579D03*
X052409Y011571D03*
X052393Y011564D03*
X052385Y011564D03*
X052882Y011020D03*
X052882Y009847D03*
X053118Y009312D03*
D30*
X053110Y009304D03*
X051850Y008493D03*
X051834Y008493D03*
X051819Y008493D03*
X051803Y008493D03*
X051787Y008493D03*
X051771Y008493D03*
X051771Y011359D03*
X051913Y011406D03*
X051921Y011406D03*
X051960Y011422D03*
X051968Y011422D03*
X051984Y011430D03*
X051992Y011430D03*
X052008Y011438D03*
X052015Y011438D03*
X052031Y011445D03*
X052039Y011445D03*
X052055Y011453D03*
X052063Y011453D03*
X052071Y011461D03*
X052078Y011461D03*
X052086Y011461D03*
X052094Y011461D03*
X052102Y011469D03*
X052110Y011469D03*
X052126Y011477D03*
X052134Y011477D03*
X052149Y011485D03*
X052157Y011485D03*
X052173Y011493D03*
X052181Y011493D03*
X052197Y011501D03*
X052204Y011501D03*
X052244Y011516D03*
X052252Y011516D03*
X052385Y011926D03*
X052393Y011926D03*
X052409Y011918D03*
X052417Y011918D03*
X052370Y011934D03*
X052362Y011934D03*
X052346Y011942D03*
X052338Y011942D03*
X052330Y011942D03*
X052323Y011949D03*
X052315Y011949D03*
X052299Y011957D03*
X052291Y011957D03*
X052275Y011965D03*
X052267Y011965D03*
X052244Y011973D03*
X052220Y011981D03*
D31*
X052858Y011745D03*
X052866Y011745D03*
X052685Y011241D03*
X052677Y011241D03*
X052661Y011249D03*
X052653Y011249D03*
X052637Y011256D03*
X052630Y011256D03*
X052622Y011256D03*
X052614Y011256D03*
X052598Y011256D03*
X052590Y011264D03*
X052574Y011264D03*
X052567Y011264D03*
X052559Y011264D03*
X052551Y011264D03*
X052543Y011264D03*
X052535Y011264D03*
X052527Y011264D03*
X052519Y011264D03*
X052511Y011264D03*
X052496Y011264D03*
X052488Y011256D03*
X052472Y011256D03*
X052464Y011256D03*
X052456Y011256D03*
X052441Y011249D03*
X052433Y011249D03*
X052425Y011249D03*
X052417Y011241D03*
X052409Y011241D03*
X051779Y011359D03*
X052417Y010808D03*
X052425Y010800D03*
X052433Y010800D03*
X052441Y010800D03*
X052456Y010792D03*
X052464Y010792D03*
X052472Y010792D03*
X052480Y010792D03*
X052488Y010784D03*
X052496Y010792D03*
X052504Y010784D03*
X052511Y010784D03*
X052519Y010784D03*
X052527Y010784D03*
X052535Y010784D03*
X052543Y010784D03*
X052551Y010784D03*
X052559Y010784D03*
X052567Y010784D03*
X052574Y010784D03*
X052582Y010784D03*
X052590Y010792D03*
X052598Y010784D03*
X052606Y010792D03*
X052614Y010792D03*
X052622Y010792D03*
X052630Y010792D03*
X052645Y010792D03*
X052653Y010800D03*
X052661Y010800D03*
X052874Y010532D03*
X052724Y010430D03*
X052716Y010430D03*
X052661Y010422D03*
X052645Y010422D03*
X052630Y010422D03*
X052614Y010422D03*
X052598Y010422D03*
X052582Y010422D03*
X052567Y010422D03*
X052551Y010422D03*
X052535Y010422D03*
X052519Y010422D03*
X052504Y010422D03*
X052488Y010422D03*
X052472Y010422D03*
X052456Y010422D03*
X052441Y010422D03*
X052425Y010422D03*
X052409Y010422D03*
X052393Y010422D03*
X052378Y010422D03*
X052362Y010422D03*
X052346Y010422D03*
X052330Y010422D03*
X052315Y010422D03*
X052299Y010422D03*
X052283Y010422D03*
X052267Y010422D03*
X052252Y010422D03*
X052236Y010422D03*
X052220Y010422D03*
X052204Y010422D03*
X052189Y010422D03*
X052173Y010422D03*
X052157Y010422D03*
X052141Y010422D03*
X052126Y010422D03*
X051952Y010422D03*
X051937Y010422D03*
X051921Y010422D03*
X051905Y010422D03*
X051889Y010422D03*
X051874Y010422D03*
X051858Y010422D03*
X051842Y010422D03*
X051826Y010422D03*
X051811Y010422D03*
X051795Y010422D03*
X051779Y010422D03*
X052496Y010091D03*
X052488Y010083D03*
X052472Y010083D03*
X052464Y010083D03*
X052456Y010083D03*
X052448Y010083D03*
X052441Y010075D03*
X052433Y010075D03*
X052425Y010075D03*
X052409Y010068D03*
X052511Y010091D03*
X052519Y010091D03*
X052527Y010091D03*
X052535Y010091D03*
X052543Y010091D03*
X052551Y010091D03*
X052559Y010091D03*
X052567Y010091D03*
X052574Y010091D03*
X052590Y010091D03*
X052598Y010083D03*
X052614Y010083D03*
X052622Y010083D03*
X052630Y010083D03*
X052637Y010083D03*
X052645Y010075D03*
X052653Y010075D03*
X052661Y010075D03*
X052669Y010075D03*
X052677Y010068D03*
X052685Y010068D03*
X052661Y009627D03*
X052653Y009627D03*
X052637Y009619D03*
X052630Y009619D03*
X052622Y009619D03*
X052614Y009619D03*
X052606Y009619D03*
X052598Y009611D03*
X052590Y009619D03*
X052582Y009611D03*
X052574Y009611D03*
X052567Y009611D03*
X052559Y009611D03*
X052551Y009611D03*
X052543Y009611D03*
X052535Y009611D03*
X052527Y009611D03*
X052519Y009611D03*
X052511Y009611D03*
X052504Y009611D03*
X052496Y009619D03*
X052488Y009611D03*
X052480Y009619D03*
X052472Y009619D03*
X052464Y009619D03*
X052456Y009619D03*
X052448Y009627D03*
X052433Y009627D03*
X052425Y009627D03*
X052417Y009634D03*
X052409Y009634D03*
X052000Y009296D03*
X051984Y009296D03*
X051976Y009296D03*
X051968Y009296D03*
X051960Y009296D03*
X051945Y009288D03*
X052000Y008894D03*
X052015Y008894D03*
X052015Y008493D03*
X052000Y008493D03*
X052031Y008493D03*
X052047Y008493D03*
X052063Y008493D03*
X052078Y008493D03*
X052094Y008493D03*
X052110Y008493D03*
X052126Y008493D03*
X052141Y008493D03*
X052157Y008493D03*
X052173Y008493D03*
X052189Y008493D03*
X052204Y008493D03*
X052220Y008493D03*
X052236Y008493D03*
X052252Y008493D03*
X052267Y008493D03*
X052283Y008493D03*
X052299Y008493D03*
X052315Y008493D03*
X052330Y008493D03*
X052346Y008493D03*
X052362Y008493D03*
X052378Y008493D03*
X052393Y008493D03*
X052409Y008493D03*
X052425Y008493D03*
X052441Y008493D03*
X052456Y008493D03*
X052472Y008493D03*
X052488Y008493D03*
X052504Y008493D03*
X052519Y008493D03*
X052535Y008493D03*
X052551Y008493D03*
X052567Y008493D03*
X052582Y008493D03*
X052598Y008493D03*
X052614Y008493D03*
X052630Y008493D03*
X052645Y008493D03*
X052661Y008493D03*
X052677Y008493D03*
X052693Y008493D03*
X052708Y008493D03*
X052724Y008493D03*
X052740Y008493D03*
X052756Y008493D03*
X052771Y008493D03*
X052787Y008493D03*
X052803Y008493D03*
X052819Y008493D03*
X052834Y008493D03*
X052850Y008493D03*
X052866Y008493D03*
X052882Y008493D03*
X052897Y008493D03*
X052913Y008493D03*
X052929Y008493D03*
X052945Y008493D03*
X052960Y008493D03*
X052976Y008493D03*
X052992Y008493D03*
X053008Y008493D03*
X053023Y008493D03*
X053039Y008493D03*
X053055Y008493D03*
X053071Y008493D03*
X053086Y008493D03*
X053102Y008493D03*
X052708Y012642D03*
X052700Y012642D03*
X052693Y012642D03*
X052716Y012650D03*
X052874Y012753D03*
X052669Y012949D03*
X052653Y012942D03*
X052645Y012942D03*
X052637Y012942D03*
X052614Y012934D03*
X052606Y012934D03*
X052598Y012934D03*
X052590Y012934D03*
X052582Y012934D03*
X052574Y012934D03*
X052567Y012934D03*
X052559Y012934D03*
X052551Y012934D03*
X052543Y012934D03*
X052535Y012934D03*
X052527Y012934D03*
X052519Y012934D03*
X052511Y012934D03*
X052504Y012934D03*
X052496Y012934D03*
X052488Y012934D03*
X052480Y012934D03*
X052472Y012934D03*
X052464Y012942D03*
X052448Y012942D03*
X052441Y012942D03*
X052425Y012949D03*
X052417Y012949D03*
X052401Y013382D03*
X052417Y013390D03*
X052425Y013390D03*
X052441Y013398D03*
X052448Y013398D03*
X052456Y013398D03*
X052464Y013406D03*
X052480Y013406D03*
X052488Y013406D03*
X052496Y013406D03*
X052504Y013406D03*
X052511Y013406D03*
X052519Y013406D03*
X052527Y013406D03*
X052535Y013406D03*
X052551Y013406D03*
X052559Y013406D03*
X052567Y013406D03*
X052574Y013406D03*
X052582Y013406D03*
X052590Y013406D03*
X052598Y013406D03*
X052606Y013406D03*
X052614Y013406D03*
X052622Y013406D03*
X052637Y013398D03*
X052645Y013398D03*
X052653Y013398D03*
X052661Y013390D03*
X052669Y013390D03*
D32*
X052630Y013402D03*
X052543Y013410D03*
X052472Y013402D03*
X052622Y012938D03*
X052622Y012638D03*
X052630Y012638D03*
X052637Y012638D03*
X052645Y012638D03*
X052653Y012638D03*
X052661Y012638D03*
X052669Y012638D03*
X052677Y012638D03*
X052685Y012638D03*
X052614Y012638D03*
X052606Y012638D03*
X052598Y012638D03*
X052590Y012638D03*
X052582Y012638D03*
X052574Y012638D03*
X052567Y012638D03*
X052559Y012638D03*
X052551Y012638D03*
X052543Y012638D03*
X052535Y012638D03*
X052527Y012638D03*
X052519Y012638D03*
X052511Y012638D03*
X052504Y012638D03*
X052496Y012638D03*
X052488Y012638D03*
X052480Y012638D03*
X052472Y012638D03*
X052464Y012638D03*
X052456Y012638D03*
X052448Y012638D03*
X052441Y012638D03*
X052433Y012638D03*
X052425Y012638D03*
X052417Y012638D03*
X052409Y012638D03*
X052401Y012638D03*
X052393Y012638D03*
X052385Y012638D03*
X052378Y012638D03*
X052370Y012638D03*
X052362Y012638D03*
X052354Y012638D03*
X052346Y012638D03*
X052338Y012638D03*
X052330Y012638D03*
X052323Y012638D03*
X052315Y012638D03*
X052307Y012638D03*
X052299Y012638D03*
X052291Y012638D03*
X052283Y012638D03*
X052275Y012638D03*
X052267Y012638D03*
X052260Y012638D03*
X052252Y012638D03*
X052244Y012638D03*
X052236Y012638D03*
X052228Y012638D03*
X052220Y012638D03*
X052212Y012638D03*
X052204Y012638D03*
X052197Y012638D03*
X052189Y012638D03*
X052181Y012638D03*
X052173Y012638D03*
X052165Y012638D03*
X052157Y012638D03*
X052149Y012638D03*
X052141Y012638D03*
X052134Y012638D03*
X052126Y012638D03*
X052118Y012638D03*
X052110Y012638D03*
X052102Y012638D03*
X052094Y012638D03*
X052086Y012638D03*
X052078Y012638D03*
X052071Y012638D03*
X052063Y012638D03*
X052055Y012638D03*
X052047Y012638D03*
X052039Y012638D03*
X052031Y012638D03*
X052023Y012638D03*
X052015Y012638D03*
X052008Y012638D03*
X052000Y012638D03*
X051992Y012638D03*
X051984Y012638D03*
X051976Y012638D03*
X051968Y012638D03*
X051960Y012638D03*
X051952Y012638D03*
X051945Y012638D03*
X051937Y012638D03*
X051929Y012638D03*
X051921Y012638D03*
X051913Y012638D03*
X051905Y012638D03*
X051897Y012638D03*
X051889Y012638D03*
X051882Y012638D03*
X051874Y012638D03*
X051866Y012638D03*
X051858Y012638D03*
X051850Y012638D03*
X051842Y012638D03*
X051834Y012638D03*
X051826Y012638D03*
X051819Y012638D03*
X051811Y012638D03*
X051803Y012638D03*
X051795Y012638D03*
X051787Y012638D03*
X051779Y012638D03*
X051771Y012638D03*
X051960Y012260D03*
X051968Y012260D03*
X051976Y012260D03*
X051984Y012260D03*
X051992Y012260D03*
X052000Y012260D03*
X052008Y012260D03*
X052015Y012260D03*
X052023Y012260D03*
X052031Y012260D03*
X052039Y012260D03*
X052047Y012260D03*
X052055Y012260D03*
X052063Y012260D03*
X052071Y012260D03*
X052078Y012260D03*
X052086Y012260D03*
X052094Y012260D03*
X052102Y012260D03*
X052220Y012260D03*
X052228Y012260D03*
X052236Y012260D03*
X052244Y012260D03*
X052252Y012260D03*
X052260Y012260D03*
X052267Y012260D03*
X052275Y012260D03*
X052283Y012260D03*
X052291Y012260D03*
X052299Y012260D03*
X052307Y012260D03*
X052315Y012260D03*
X052323Y012260D03*
X052330Y012260D03*
X052338Y012260D03*
X052346Y012260D03*
X052354Y012260D03*
X052362Y012260D03*
X052370Y012260D03*
X052378Y012260D03*
X052385Y012260D03*
X052393Y012260D03*
X052401Y012260D03*
X052409Y012260D03*
X052417Y012260D03*
X052425Y012260D03*
X052433Y012260D03*
X052441Y012260D03*
X052448Y012260D03*
X052456Y012260D03*
X052464Y012260D03*
X052472Y012260D03*
X052480Y012260D03*
X052488Y012260D03*
X052496Y012260D03*
X052504Y012260D03*
X052511Y012260D03*
X052519Y012260D03*
X052527Y012260D03*
X052535Y012260D03*
X052543Y012260D03*
X052551Y012260D03*
X052559Y012260D03*
X052567Y012260D03*
X052574Y012260D03*
X052582Y012260D03*
X052590Y012260D03*
X052598Y012260D03*
X052606Y012260D03*
X052614Y012260D03*
X052622Y012260D03*
X052630Y012260D03*
X052637Y012260D03*
X052645Y012260D03*
X052653Y012260D03*
X052661Y012260D03*
X052669Y012260D03*
X052677Y012260D03*
X052685Y012260D03*
X052693Y012260D03*
X052700Y012260D03*
X052708Y012260D03*
X052716Y012260D03*
X052724Y012260D03*
X052732Y012260D03*
X052740Y012260D03*
X052748Y012260D03*
X052756Y012260D03*
X052763Y012260D03*
X052771Y012260D03*
X052779Y012260D03*
X052787Y012260D03*
X052795Y012260D03*
X052803Y012260D03*
X052811Y012260D03*
X052819Y012260D03*
X052826Y012260D03*
X052834Y012260D03*
X052842Y012260D03*
X052850Y012260D03*
X052858Y012260D03*
X052866Y012260D03*
X052874Y012260D03*
X052882Y012260D03*
X052889Y012260D03*
X052897Y012260D03*
X052905Y012260D03*
X052913Y012260D03*
X052921Y012260D03*
X052929Y012260D03*
X052937Y012260D03*
X052283Y011961D03*
X052260Y011969D03*
X052252Y011969D03*
X052236Y011977D03*
X052228Y011977D03*
X052307Y011953D03*
X052047Y011449D03*
X052023Y011442D03*
X052000Y011434D03*
X051976Y011426D03*
X051952Y011418D03*
X051945Y011418D03*
X051937Y011410D03*
X051929Y011410D03*
X051905Y011402D03*
X051897Y011402D03*
X051889Y011394D03*
X051882Y011394D03*
X051874Y011394D03*
X051866Y011386D03*
X051858Y011386D03*
X051850Y011386D03*
X051842Y011379D03*
X051834Y011379D03*
X051826Y011379D03*
X051819Y011371D03*
X051811Y011371D03*
X051803Y011371D03*
X051795Y011363D03*
X051787Y011363D03*
X052448Y011253D03*
X052480Y011260D03*
X052504Y011260D03*
X052582Y011260D03*
X052606Y011260D03*
X052645Y011253D03*
X052637Y010426D03*
X052622Y010426D03*
X052606Y010426D03*
X052590Y010426D03*
X052574Y010426D03*
X052559Y010426D03*
X052543Y010426D03*
X052527Y010426D03*
X052511Y010426D03*
X052496Y010426D03*
X052480Y010426D03*
X052464Y010426D03*
X052448Y010426D03*
X052433Y010426D03*
X052417Y010426D03*
X052401Y010426D03*
X052385Y010426D03*
X052370Y010426D03*
X052354Y010426D03*
X052338Y010426D03*
X052323Y010426D03*
X052307Y010426D03*
X052291Y010426D03*
X052275Y010426D03*
X052260Y010426D03*
X052244Y010426D03*
X052228Y010426D03*
X052212Y010426D03*
X052197Y010426D03*
X052181Y010426D03*
X052165Y010426D03*
X052149Y010426D03*
X052134Y010426D03*
X051960Y010426D03*
X051945Y010426D03*
X051929Y010426D03*
X051913Y010426D03*
X051897Y010426D03*
X051882Y010426D03*
X051866Y010426D03*
X051850Y010426D03*
X051834Y010426D03*
X051819Y010426D03*
X051803Y010426D03*
X051787Y010426D03*
X051771Y010426D03*
X052480Y010087D03*
X052504Y010087D03*
X052582Y010087D03*
X052606Y010087D03*
X052653Y010426D03*
X052669Y010426D03*
X052677Y010426D03*
X052685Y010426D03*
X052693Y010426D03*
X052700Y010426D03*
X052708Y010426D03*
X052708Y009300D03*
X052700Y009300D03*
X052693Y009300D03*
X052685Y009300D03*
X052677Y009300D03*
X052669Y009300D03*
X052661Y009300D03*
X052653Y009300D03*
X052645Y009300D03*
X052637Y009300D03*
X052630Y009300D03*
X052622Y009300D03*
X052614Y009300D03*
X052606Y009300D03*
X052598Y009300D03*
X052590Y009300D03*
X052582Y009300D03*
X052574Y009300D03*
X052567Y009300D03*
X052559Y009300D03*
X052551Y009300D03*
X052543Y009300D03*
X052535Y009300D03*
X052527Y009300D03*
X052519Y009300D03*
X052511Y009300D03*
X052504Y009300D03*
X052496Y009300D03*
X052488Y009300D03*
X052480Y009300D03*
X052472Y009300D03*
X052464Y009300D03*
X052456Y009300D03*
X052448Y009300D03*
X052441Y009300D03*
X052433Y009300D03*
X052425Y009300D03*
X052417Y009300D03*
X052409Y009300D03*
X052401Y009300D03*
X052393Y009300D03*
X052385Y009300D03*
X052378Y009300D03*
X052370Y009300D03*
X052362Y009300D03*
X052354Y009300D03*
X052346Y009300D03*
X052338Y009300D03*
X052330Y009300D03*
X052323Y009300D03*
X052315Y009300D03*
X052307Y009300D03*
X052299Y009300D03*
X052291Y009300D03*
X052283Y009300D03*
X052275Y009300D03*
X052267Y009300D03*
X052260Y009300D03*
X052252Y009300D03*
X052244Y009300D03*
X052236Y009300D03*
X052228Y009300D03*
X052220Y009300D03*
X052212Y009300D03*
X052204Y009300D03*
X052197Y009300D03*
X052189Y009300D03*
X052181Y009300D03*
X052173Y009300D03*
X052165Y009300D03*
X052157Y009300D03*
X052149Y009300D03*
X052141Y009300D03*
X052134Y009300D03*
X052126Y009300D03*
X052118Y009300D03*
X052110Y009300D03*
X052102Y009300D03*
X052094Y009300D03*
X052086Y009300D03*
X052078Y009300D03*
X052071Y009300D03*
X052063Y009300D03*
X052055Y009300D03*
X052047Y009300D03*
X052039Y009300D03*
X052031Y009300D03*
X052023Y009300D03*
X052015Y009300D03*
X052008Y009300D03*
X051992Y009300D03*
X051787Y009190D03*
X051992Y008898D03*
X052008Y008898D03*
X052023Y008898D03*
X052031Y008898D03*
X052039Y008898D03*
X052047Y008898D03*
X052055Y008898D03*
X052063Y008898D03*
X052071Y008898D03*
X052078Y008898D03*
X052086Y008898D03*
X052094Y008898D03*
X052102Y008898D03*
X052110Y008898D03*
X052118Y008898D03*
X052126Y008898D03*
X052134Y008898D03*
X052141Y008898D03*
X052149Y008898D03*
X052157Y008898D03*
X052165Y008898D03*
X052173Y008898D03*
X052181Y008898D03*
X052189Y008898D03*
X052197Y008898D03*
X052204Y008898D03*
X052212Y008898D03*
X052220Y008898D03*
X052228Y008898D03*
X052236Y008898D03*
X052244Y008898D03*
X052252Y008898D03*
X052260Y008898D03*
X052267Y008898D03*
X052275Y008898D03*
X052283Y008898D03*
X052291Y008898D03*
X052299Y008898D03*
X052307Y008898D03*
X052315Y008898D03*
X052323Y008898D03*
X052330Y008898D03*
X052338Y008898D03*
X052346Y008898D03*
X052354Y008898D03*
X052362Y008898D03*
X052370Y008898D03*
X052378Y008898D03*
X052385Y008898D03*
X052393Y008898D03*
X052401Y008898D03*
X052409Y008898D03*
X052417Y008898D03*
X052425Y008898D03*
X052433Y008898D03*
X052441Y008898D03*
X051787Y008788D03*
X051779Y008489D03*
X051795Y008489D03*
X051811Y008489D03*
X051826Y008489D03*
X051842Y008489D03*
X051858Y008489D03*
X051992Y008497D03*
X052008Y008497D03*
X052023Y008497D03*
X052039Y008497D03*
X052055Y008497D03*
X052071Y008497D03*
X052086Y008497D03*
X052102Y008497D03*
X052118Y008497D03*
X052134Y008497D03*
X052149Y008497D03*
X052165Y008497D03*
X052181Y008497D03*
X052197Y008497D03*
X052212Y008497D03*
X052228Y008497D03*
X052244Y008497D03*
X052260Y008497D03*
X052275Y008497D03*
X052291Y008497D03*
X052307Y008497D03*
X052323Y008497D03*
X052338Y008497D03*
X052354Y008497D03*
X052370Y008497D03*
X052385Y008497D03*
X052401Y008497D03*
X052417Y008497D03*
X052433Y008497D03*
X052448Y008497D03*
X052464Y008497D03*
X052480Y008497D03*
X052496Y008497D03*
X052511Y008497D03*
X052527Y008497D03*
X052543Y008497D03*
X052559Y008497D03*
X052574Y008497D03*
X052590Y008497D03*
X052606Y008497D03*
X052622Y008497D03*
X052637Y008497D03*
X052653Y008497D03*
X052669Y008497D03*
X052685Y008497D03*
X052700Y008497D03*
X052716Y008497D03*
X052732Y008497D03*
X052748Y008497D03*
X052763Y008497D03*
X052779Y008497D03*
X052795Y008497D03*
X052811Y008497D03*
X052826Y008497D03*
X052842Y008497D03*
X052858Y008497D03*
X052874Y008497D03*
X052889Y008497D03*
X052905Y008497D03*
X052921Y008497D03*
X052937Y008497D03*
X052952Y008497D03*
X052968Y008497D03*
X052984Y008497D03*
X053000Y008497D03*
X053015Y008497D03*
X053031Y008497D03*
X053047Y008497D03*
X053063Y008497D03*
X053078Y008497D03*
X053094Y008497D03*
X053094Y009300D03*
X053086Y009300D03*
X053078Y009300D03*
X053071Y009300D03*
X053063Y009300D03*
X053055Y009300D03*
X053047Y009300D03*
X053039Y009300D03*
X053031Y009300D03*
X053023Y009300D03*
X053015Y009300D03*
X053008Y009300D03*
X053000Y009300D03*
X052992Y009300D03*
X052984Y009300D03*
X052976Y009300D03*
X052968Y009300D03*
X052960Y009300D03*
X052952Y009300D03*
X052945Y009300D03*
X052937Y009300D03*
X052929Y009300D03*
X052921Y009300D03*
X052913Y009300D03*
X052905Y009300D03*
X052897Y009300D03*
X052889Y009300D03*
X052882Y009300D03*
X052874Y009300D03*
X052866Y009300D03*
X052858Y009300D03*
X052850Y009300D03*
X052842Y009300D03*
X052834Y009300D03*
X052826Y009300D03*
X052819Y009300D03*
X052811Y009300D03*
X052803Y009300D03*
X052795Y009300D03*
X052787Y009300D03*
X052779Y009300D03*
X052771Y009300D03*
X052763Y009300D03*
X052756Y009300D03*
X052748Y009300D03*
X052740Y009300D03*
X052732Y009300D03*
X052724Y009300D03*
X052716Y009300D03*
X053102Y009300D03*
D33*
X051771Y009138D03*
X051771Y008737D03*
X052338Y009855D03*
X052204Y009918D03*
X052889Y009863D03*
X052889Y009847D03*
X052882Y010603D03*
X052889Y011020D03*
X052889Y011036D03*
X052874Y011658D03*
X052874Y011674D03*
X052874Y011690D03*
X052874Y011705D03*
X052874Y011721D03*
X052874Y011737D03*
X052874Y011753D03*
X052874Y011768D03*
X052874Y011784D03*
X052874Y011800D03*
X052874Y011816D03*
X052874Y011831D03*
X053094Y012170D03*
X052110Y012170D03*
X052110Y012186D03*
X052110Y012201D03*
X052110Y012217D03*
X052110Y012233D03*
X052110Y012249D03*
X052110Y012264D03*
X052110Y012280D03*
X052110Y012296D03*
X052110Y012312D03*
X052110Y012327D03*
X052110Y012343D03*
X052882Y012682D03*
X052882Y012816D03*
X052882Y013083D03*
X052889Y013154D03*
X052889Y013170D03*
X052889Y013186D03*
X052882Y013256D03*
X052748Y013194D03*
X052338Y013170D03*
X052204Y013233D03*
D34*
X053039Y012201D03*
D35*
X052992Y012229D03*
X052882Y010528D03*
D36*
X052882Y012749D03*
X052204Y013166D03*
D37*
X052354Y012993D03*
X052740Y012993D03*
X052874Y013174D03*
X052740Y013347D03*
X052858Y012733D03*
X052740Y011197D03*
X052874Y011024D03*
X052740Y010851D03*
X052740Y010024D03*
X052874Y009851D03*
X052740Y009678D03*
X051913Y009268D03*
X051945Y008520D03*
X051952Y008512D03*
D38*
X051921Y008536D03*
X051929Y008922D03*
X052866Y009851D03*
X052803Y010489D03*
X052795Y010489D03*
X052787Y010489D03*
X052338Y010882D03*
X052866Y011024D03*
X052748Y011749D03*
X052795Y012709D03*
X052803Y012709D03*
X052811Y012709D03*
X052866Y013166D03*
D39*
X052724Y012977D03*
X052370Y012977D03*
X052362Y012985D03*
X052362Y013355D03*
X052866Y012741D03*
X052834Y011741D03*
X052716Y011221D03*
X052724Y011213D03*
X052724Y010835D03*
X052866Y010520D03*
X052740Y010442D03*
X052724Y010040D03*
X052362Y010040D03*
X052724Y009662D03*
X051921Y009276D03*
X051795Y009190D03*
X051968Y008906D03*
X051960Y008512D03*
X051968Y008505D03*
D40*
X051834Y009186D03*
X052858Y009855D03*
X052858Y011028D03*
X052693Y011745D03*
X052858Y013170D03*
D41*
X052732Y013351D03*
X052354Y013351D03*
X052732Y012989D03*
X052819Y011745D03*
X052826Y011745D03*
X052732Y011209D03*
X052362Y011209D03*
X052354Y011201D03*
X052354Y010847D03*
X052362Y010839D03*
X052732Y010839D03*
X052858Y010516D03*
X052732Y010036D03*
X052354Y010028D03*
X052354Y009674D03*
X052362Y009666D03*
X052732Y009666D03*
X051960Y008910D03*
X051795Y008784D03*
D42*
X052850Y009851D03*
X052850Y011024D03*
X052244Y011024D03*
D43*
X052346Y010855D03*
X052748Y010453D03*
X052850Y010508D03*
X052346Y010020D03*
X052346Y009682D03*
X051952Y008910D03*
X052795Y011745D03*
X052803Y011745D03*
X052811Y011745D03*
X052850Y012729D03*
X052346Y013005D03*
X052346Y013335D03*
D44*
X052370Y013367D03*
X052378Y013367D03*
X052385Y013375D03*
X052716Y013367D03*
X052724Y013359D03*
X052716Y012973D03*
X052708Y012965D03*
X052700Y012965D03*
X052385Y012965D03*
X052740Y012658D03*
X052842Y011745D03*
X052850Y011745D03*
X052708Y011225D03*
X052378Y011225D03*
X052370Y011217D03*
X052370Y010831D03*
X052378Y010823D03*
X052708Y010823D03*
X052716Y010831D03*
X052716Y010052D03*
X052708Y010052D03*
X052378Y010052D03*
X052370Y010044D03*
X052370Y009658D03*
X052378Y009650D03*
X052393Y009642D03*
X052708Y009650D03*
X052716Y009658D03*
X051976Y008902D03*
D45*
X051850Y008776D03*
X051850Y009178D03*
X052850Y013170D03*
D46*
X052842Y013170D03*
X052842Y011028D03*
X052842Y009855D03*
X051866Y009178D03*
D47*
X051803Y009190D03*
X051945Y008914D03*
X051803Y008788D03*
X051937Y008520D03*
X052748Y009694D03*
X052220Y009851D03*
X052842Y010505D03*
X052748Y010867D03*
X052220Y011024D03*
X052346Y011190D03*
X052748Y013331D03*
D48*
X052220Y013170D03*
X052748Y013012D03*
X052834Y012721D03*
X052842Y012721D03*
X052787Y011745D03*
X052779Y011745D03*
X052771Y011745D03*
X052748Y011186D03*
X052834Y010501D03*
X052748Y010012D03*
X051929Y008532D03*
D49*
X052834Y009851D03*
X052834Y011024D03*
X052834Y013166D03*
D50*
X052826Y013170D03*
X052267Y013170D03*
X052826Y011028D03*
X052826Y009855D03*
D51*
X052338Y010001D03*
X052826Y010497D03*
X051937Y008914D03*
X052826Y012717D03*
D52*
X052819Y011024D03*
X052275Y011024D03*
X052819Y009851D03*
D53*
X052338Y009705D03*
X051811Y009186D03*
X051811Y008784D03*
X052811Y010493D03*
X052819Y010493D03*
X052338Y011170D03*
X052756Y011745D03*
X052763Y011745D03*
X052819Y012713D03*
X052338Y013020D03*
X052338Y013319D03*
D54*
X052819Y013170D03*
D55*
X052811Y011024D03*
X052811Y009851D03*
X052283Y009851D03*
D56*
X052275Y009855D03*
X052275Y013170D03*
X052811Y013170D03*
D57*
X052803Y013174D03*
X052803Y011024D03*
X052803Y009851D03*
D58*
X052795Y009851D03*
X052299Y009851D03*
X052299Y011024D03*
X052795Y011024D03*
D59*
X052291Y011028D03*
X052291Y009855D03*
X052291Y013170D03*
X052795Y013170D03*
D60*
X052787Y011024D03*
X052307Y011024D03*
X052307Y009851D03*
X052787Y009851D03*
D61*
X052779Y010485D03*
X052771Y010485D03*
X052763Y010485D03*
X052740Y011745D03*
X052732Y011745D03*
X052724Y011745D03*
X052779Y012705D03*
X052787Y012705D03*
X051819Y009186D03*
X051819Y008784D03*
D62*
X052299Y013170D03*
X052787Y013170D03*
D63*
X052315Y013166D03*
X052315Y011024D03*
X052771Y011024D03*
X052779Y011024D03*
X052779Y009851D03*
X052771Y009851D03*
X052315Y009851D03*
D64*
X052307Y013170D03*
X052779Y013170D03*
D65*
X052771Y012701D03*
X052763Y012701D03*
X052756Y012701D03*
X052748Y012701D03*
X052228Y011024D03*
X052756Y010481D03*
X052228Y009851D03*
X051913Y008552D03*
D66*
X052323Y013170D03*
X052771Y013170D03*
D67*
X052763Y011024D03*
X052330Y011024D03*
X052323Y011024D03*
X052323Y009851D03*
X052330Y009851D03*
X052763Y009851D03*
D68*
X051866Y008682D03*
X052330Y013170D03*
X052756Y013170D03*
X052763Y013170D03*
D69*
X052756Y011024D03*
X052756Y009851D03*
D70*
X052700Y010056D03*
X052693Y010064D03*
X052417Y010071D03*
X052401Y010064D03*
X052393Y010056D03*
X052385Y010056D03*
X052212Y009851D03*
X052385Y009646D03*
X052401Y009638D03*
X052441Y009623D03*
X052645Y009623D03*
X052669Y009631D03*
X052677Y009631D03*
X052685Y009638D03*
X052693Y009638D03*
X052700Y009646D03*
X051952Y009292D03*
X051937Y009284D03*
X051929Y009284D03*
X051984Y008898D03*
X051976Y008505D03*
X051984Y008497D03*
X052732Y010434D03*
X052677Y010804D03*
X052669Y010804D03*
X052685Y010812D03*
X052693Y010812D03*
X052700Y010819D03*
X052637Y010796D03*
X052448Y010796D03*
X052409Y010804D03*
X052401Y010812D03*
X052393Y010812D03*
X052385Y010819D03*
X052212Y011024D03*
X052385Y011229D03*
X052393Y011229D03*
X052401Y011237D03*
X052669Y011245D03*
X052693Y011237D03*
X052700Y011229D03*
X052724Y012646D03*
X052732Y012654D03*
X052661Y012945D03*
X052677Y012953D03*
X052685Y012953D03*
X052693Y012961D03*
X052630Y012938D03*
X052456Y012938D03*
X052433Y012945D03*
X052409Y012953D03*
X052401Y012961D03*
X052393Y012961D03*
X052378Y012969D03*
X052212Y013174D03*
X052393Y013379D03*
X052409Y013386D03*
X052433Y013394D03*
X052677Y013386D03*
X052685Y013386D03*
X052693Y013379D03*
X052700Y013379D03*
X052708Y013371D03*
D71*
X052228Y013170D03*
X052708Y011745D03*
X052716Y011745D03*
D72*
X052700Y011749D03*
X051826Y009182D03*
X051921Y008922D03*
X051826Y008780D03*
D73*
X052283Y011020D03*
X052283Y013170D03*
D74*
X052267Y011024D03*
X052267Y009851D03*
D75*
X052260Y009851D03*
X052260Y011024D03*
D76*
X052260Y013170D03*
D77*
X052252Y011024D03*
X052252Y009851D03*
X051874Y009174D03*
D78*
X052252Y013170D03*
D79*
X052244Y013170D03*
X052244Y009855D03*
X051858Y009178D03*
X051858Y008776D03*
D80*
X051842Y008776D03*
X052236Y009855D03*
X052236Y013170D03*
D81*
X052236Y011024D03*
X051834Y008780D03*
D82*
X052118Y010406D03*
D83*
X052110Y010402D03*
D84*
X052102Y010406D03*
D85*
X052094Y010406D03*
D86*
X052086Y010406D03*
D87*
X052078Y010406D03*
D88*
X052071Y010406D03*
D89*
X052063Y010410D03*
D90*
X052055Y010410D03*
D91*
X052047Y010410D03*
D92*
X052039Y010410D03*
D93*
X052031Y010410D03*
D94*
X052023Y010410D03*
D95*
X052015Y010414D03*
D96*
X052008Y010414D03*
D97*
X052000Y010414D03*
D98*
X051992Y010414D03*
D99*
X051984Y010414D03*
D100*
X051976Y010414D03*
D101*
X051968Y010418D03*
D102*
X051842Y009182D03*
X051913Y008930D03*
D103*
X051905Y008886D03*
X051889Y008886D03*
D104*
X051897Y008890D03*
D105*
X051882Y008886D03*
D106*
X051874Y008682D03*
M02*
